<svg xmlns="http://www.w3.org/2000/svg" width="92.601" height="129.33" viewBox="0 0 92.601 129.33">
  <g id="Grupo_933258" data-name="Grupo 933258" transform="translate(-220.399 -6213.421)">
    <g id="_3" data-name="3" transform="matrix(0.545, 0.839, -0.839, 0.545, 334.947, 5842.969)">
      <g id="Grupo_931685" data-name="Grupo 931685" transform="translate(272.133 261.132)">
        <path id="Trazado_741523" data-name="Trazado 741523" d="M284.867,265.663l-.851.03-.159.005-.929.035c-.014-.026-.029-.052-.044-.078a5.725,5.725,0,0,0-2.786-2.623,4.893,4.893,0,0,0-4.852.841,4.478,4.478,0,0,0-1.167,1.5,3.855,3.855,0,0,0-.326,1.865,7.834,7.834,0,0,0,.57,2.737c.17.42.436.8.6,1.22s.294.828.456,1.236c.615,1.55,1.254,3.09,1.9,4.627q.146.348.293.694a1.442,1.442,0,0,1,.091.266.942.942,0,0,1-.214.87,1.518,1.518,0,0,0-.343,1.633,2.375,2.375,0,0,0,1.4,1.117c.938.294,2.79-.051,2.789-1.327a6.827,6.827,0,0,0-.278-1.654c-.031-.119-.068-.24-.108-.363l.065-.017.745-.187.358-.09.1-.025a5,5,0,0,1-.061,3.169,2.66,2.66,0,0,1-2.016,1.584c-1.893.372-6.115-1.228-4.023-4.073.1-.138.153-.2.258-.322a.16.16,0,0,0,.031-.145.228.228,0,0,0-.01-.026l0-.008c-.615-1.379-1.237-2.8-1.866-4.267a52.182,52.182,0,0,1-2.177-5.56c-.8-3.33,1.195-5.935,4.392-6.97l.058-.017a5.308,5.308,0,0,1,.85-.162,7.156,7.156,0,0,1,7.186,4.3C284.82,265.536,284.843,265.6,284.867,265.663Z" transform="translate(-272.133 -261.132)" fill="#b0bec5"/>
        <path id="Trazado_741524" data-name="Trazado 741524" d="M280.582,283.522a4.343,4.343,0,0,1-3.189-1.355,1.716,1.716,0,0,1,.206-2.189c.08-.11.124-.162.2-.255l.044-.052a.5.5,0,0,0,.114-.4v-.067l-.032-.054-.047-.111,0,0c-.642-1.459-1.233-2.831-1.8-4.184a58.055,58.055,0,0,1-2.117-5.47l-.007-.028c-.66-2.831.852-5.3,4.029-6.33l.031-.009a5.681,5.681,0,0,1,.672-.135l.1-.011a6.961,6.961,0,0,1,.773-.046,4.234,4.234,0,0,1,.9.087l.02,0,.021,0a6.313,6.313,0,0,1,.7.234c.181.067.34.126.461.163a6.443,6.443,0,0,1,3.43,2.942l-.712.026a5.864,5.864,0,0,0-3.232-2.8l-.04-.017-.042-.011a6.832,6.832,0,0,0-1.686-.235,4.877,4.877,0,0,0-2.262.553,6.035,6.035,0,0,0-.651.383,5.545,5.545,0,0,0-1.225,1.1A4.569,4.569,0,0,0,274.2,268.6l.011.118c0,.017,0,.023,0,.028a1.186,1.186,0,0,0,.039.212,26.587,26.587,0,0,0,1.053,3.08c1.006,2.607,2.4,5.86,2.842,6.878l.044.1a.948.948,0,0,1,.06.174.6.6,0,0,1-.144.584c-.036.047-.075.095-.116.144a3.762,3.762,0,0,0-.391.547,2.648,2.648,0,0,0-.126.251c-.58,1.308.447,1.95,1.292,2.317l.094.073h.094l.1.034a4.76,4.76,0,0,0,1.485.271,2.286,2.286,0,0,0,1.52-.5,2.609,2.609,0,0,0,.7-2.384l0-.031a6.023,6.023,0,0,0-.159-.82l.267-.067a4.206,4.206,0,0,1-.125,2.532,2.2,2.2,0,0,1-1.662,1.336A2.585,2.585,0,0,1,280.582,283.522Z" transform="translate(-273.224 -262.24)" fill="#c5d6dd"/>
      </g>
      <g id="Grupo_931686" data-name="Grupo 931686" transform="translate(282.181 265.424)">
        <path id="Trazado_741525" data-name="Trazado 741525" d="M304.109,275.667c-.014.054-.029.1-.042.149l-2.327-.01h-.128a.3.3,0,0,1-.3-.246l-.079-.559a.446.446,0,0,1,.1-.33l.646-.8a1.853,1.853,0,0,1,1.939-.07,1.417,1.417,0,0,1,.282.966A2.916,2.916,0,0,1,304.109,275.667Z" transform="translate(-301.226 -273.561)" fill="#b0bec5"/>
      </g>
      <path id="Trazado_741526" data-name="Trazado 741526" d="M305.082,278.5c-.014.054-.029.1-.042.149l-2.327-.01c.011-.187.068-.621.317-.723a7.733,7.733,0,0,1,2.012.289S305.061,278.333,305.082,278.5Z" transform="translate(-20.019 -10.973)" fill="#7e9199"/>
      <g id="Grupo_931687" data-name="Grupo 931687" transform="translate(280.144 275.757)">
        <path id="Trazado_741527" data-name="Trazado 741527" d="M298.276,303.911l-.263,1.449-.314.5-.124.2-1.662-.082h0l-.586-1.123.126-.775a.441.441,0,0,1,.4-.337l.324-.041,1.579-.219C298.064,303.442,298.323,303.655,298.276,303.911Z" transform="translate(-295.327 -303.479)" fill="#b0bec5"/>
      </g>
      <path id="Trazado_741528" data-name="Trazado 741528" d="M297.048,303.717l-.284,1.055a13.292,13.292,0,0,0,2.116.351,9.592,9.592,0,0,0,.214-1.565S297.337,303.3,297.048,303.717Z" transform="translate(-16.124 -27.721)" fill="#7e9199"/>
      <g id="Grupo_931688" data-name="Grupo 931688" transform="translate(280.755 267.01)">
        <path id="Trazado_741529" data-name="Trazado 741529" d="M300.977,278.445l-.931-.2-.36-.076-.044-.009a.4.4,0,0,0-.472.286L297.1,288.1l.325.054.519.086,1.033.171h0l2.279-9.554A.341.341,0,0,0,300.977,278.445Z" transform="translate(-297.096 -278.153)" fill="#cfd8dc"/>
      </g>
      <path id="Trazado_741530" data-name="Trazado 741530" d="M300.662,278.282l-2.105,9.994-.519-.086c.418-1.832,1.813-7.944,2.265-9.983Z" transform="translate(-16.958 -11.177)" fill="#d9e7ed"/>
      <g id="Grupo_931689" data-name="Grupo 931689" transform="translate(281.461 275.448)">
        <path id="Trazado_741531" data-name="Trazado 741531" d="M300.283,303.063a.556.556,0,0,1-.589.474.507.507,0,0,1-.552-.474.555.555,0,0,1,.589-.48A.505.505,0,0,1,300.283,303.063Z" transform="translate(-299.141 -302.583)" fill="#7e9199"/>
      </g>
      <g id="Grupo_931690" data-name="Grupo 931690" transform="translate(281.465 275.222)">
        <path id="Trazado_741532" data-name="Trazado 741532" d="M300.3,302.464a.577.577,0,0,1-.59.528.53.53,0,0,1-.553-.528.576.576,0,0,1,.59-.534A.529.529,0,0,1,300.3,302.464Z" transform="translate(-299.153 -301.93)" fill="#93aab2"/>
      </g>
      <path id="Trazado_741533" data-name="Trazado 741533" d="M305.246,273.323l-1.939.07c-.014-.026-.029-.052-.044-.078a3.136,3.136,0,0,1,.907-.482,6.272,6.272,0,0,1,1,.3C305.2,273.2,305.222,273.259,305.246,273.323Z" transform="translate(-20.379 -7.66)" fill="#7e9199"/>
      <path id="Trazado_741534" data-name="Trazado 741534" d="M298.973,306.974l-1.877-.311a1.812,1.812,0,0,1,1.24-.076A1.1,1.1,0,0,1,298.973,306.974Z" transform="translate(-16.341 -29.705)" fill="#bec9cc"/>
      <path id="Trazado_741535" data-name="Trazado 741535" d="M298.81,310.069l-.124.2-1.662-.082h0c0-.028,1.446-.282,1.446-.282Z" transform="translate(-16.294 -31.928)" fill="#7e9199"/>
    </g>
    <g id="_14" data-name="14" transform="translate(87.609 5983.942)">
      <g id="Grupo_931776" data-name="Grupo 931776" transform="translate(154.732 331.492)">
        <path id="Trazado_741833" data-name="Trazado 741833" d="M152.755,312.032a1.6,1.6,0,0,1-1.331-.79,1.5,1.5,0,0,1-.08-1.381,1.473,1.473,0,0,1,1.081-.849l3.688-.71a1.562,1.562,0,0,1,.333-.028,1.6,1.6,0,0,1,1.5,1.172l.059.218a1.494,1.494,0,0,1-.2,1.224,1.512,1.512,0,0,1-1.061.65l-3.75.484A1.535,1.535,0,0,1,152.755,312.032Zm3.691-2.622a.6.6,0,0,0-.086.007l-3.689.708a.376.376,0,0,0-.277.218.385.385,0,0,0,.02.354.411.411,0,0,0,.4.2l3.75-.487a.383.383,0,0,0,.271-.167.373.373,0,0,0,.051-.313l-.058-.218A.41.41,0,0,0,156.445,309.409Z" transform="translate(-151.213 -308.272)" fill="#355168"/>
      </g>
      <g id="Grupo_931777" data-name="Grupo 931777" transform="translate(151.985 313.058)">
        <path id="Trazado_741834" data-name="Trazado 741834" d="M149.328,295.14s-1.091,12.643,5.2,22.123c1.151-6.786.239-18.962.239-18.962Z" transform="translate(-149.255 -295.14)" fill="#686868"/>
      </g>
      <g id="Grupo_931778" data-name="Grupo 931778" transform="translate(207.646 319.618)">
        <path id="Trazado_741835" data-name="Trazado 741835" d="M188.9,301.363l.785,18.545s3.781-.187,3.781-1.227,1.9-18.868,1.9-18.868Z" transform="translate(-188.905 -299.813)" fill="#686868"/>
      </g>
      <g id="Grupo_931780" data-name="Grupo 931780" transform="translate(153.436 313.769)">
        <g id="Grupo_931779" data-name="Grupo 931779">
          <path id="Trazado_741836" data-name="Trazado 741836" d="M209.992,320.165a31.619,31.619,0,0,0,1.126-7.982q.048-3.367-.1-6.731c-1.686.265-3.029.434-4.706.7.453,11.549-4.675,28.616-16.993,32.669-10.183,3.35-21.588-4.174-26.219-9.55-6.351-7.373-7.6-24.528-7.6-33.622l-5.208.525c0,4.32.691,8.308,1.384,13.79.778,6.161,3.428,14.879,8.878,21.232,5.4,6.289,14.823,9.953,23.329,9.446a31.079,31.079,0,0,0,16.663-6.268A26.36,26.36,0,0,0,209.992,320.165Z" transform="translate(-150.289 -295.647)" fill="#797d7f"/>
        </g>
      </g>
      <g id="Grupo_931782" data-name="Grupo 931782" transform="translate(188.369 264.023)">
        <g id="Grupo_931781" data-name="Grupo 931781">
          <path id="Trazado_741837" data-name="Trazado 741837" d="M183.579,265.182l-4.245-4.258a2.5,2.5,0,0,0-1.85-.712,2.666,2.666,0,0,0-1.22.347,2.1,2.1,0,0,0-1.07,2.1l.929,6.218.146.174c.542-.3,1.084-.6,1.617-.905.237.282.489.567.738.853-.257-.295-.512-.591-.759-.883L177,262.353a.3.3,0,0,1,.15-.295.718.718,0,0,1,.838.1l3.842,3.862.046.322c.585-.279,1.167-.557,1.745-.854Z" transform="translate(-175.174 -260.211)" fill="#ff9429"/>
        </g>
      </g>
      <g id="Grupo_931785" data-name="Grupo 931785" transform="translate(189.465 269.301)">
        <g id="Grupo_931783" data-name="Grupo 931783" transform="translate(0 0)">
          <path id="Trazado_741838" data-name="Trazado 741838" d="M184.471,272.151l-3.31.077c-.41.008-1.265.029-5.2-4.689l-.007-.006c.542-.3,1.084-.6,1.617-.905.237.282.488.567.738.853.2.232.409.462.616.685l.275.3c.5.543.98,1.032,1.369,1.4l.1.094c.067.063.132.119.192.171a3.544,3.544,0,0,0,.385.3l.058.036,1.053-.025-.8-5.615c.585-.279,1.167-.557,1.745-.854Z" transform="translate(-175.954 -263.971)" fill="#fecc3d"/>
        </g>
        <g id="Grupo_931784" data-name="Grupo 931784" transform="translate(7.352)">
          <path id="Trazado_741839" data-name="Trazado 741839" d="M182.356,272.151l-1.165-8.18h0Z" transform="translate(-181.191 -263.971)" fill="#fecc3d"/>
        </g>
      </g>
      <g id="Grupo_931790" data-name="Grupo 931790" transform="translate(175.427 264.632)">
        <g id="Grupo_931787" data-name="Grupo 931787" transform="translate(1.426)">
          <g id="Grupo_931786" data-name="Grupo 931786">
            <path id="Trazado_741840" data-name="Trazado 741840" d="M174.513,260.856a2.475,2.475,0,0,0-1.095-.209,2.6,2.6,0,0,0-1.715.723l-4.732,4.54c.611.2,1.213.466,1.839.637l4.14-3.96a.709.709,0,0,1,.766-.142.624.624,0,0,1,.373.681l-.91,5.436c-.066.074-.135.149-.2.225.524.3,1.05.6,1.595.854l.136-.153.174-.2.994-5.947A2.279,2.279,0,0,0,174.513,260.856Z" transform="translate(-166.97 -260.645)" fill="#ff9429"/>
          </g>
        </g>
        <g id="Grupo_931789" data-name="Grupo 931789" transform="translate(0 5.265)">
          <g id="Grupo_931788" data-name="Grupo 931788">
            <path id="Trazado_741841" data-name="Trazado 741841" d="M174.981,268.125c-.795.883-1.475,1.6-2.052,2.183-.048.048-.1.1-.143.143-.451.446-.841.813-1.174,1.106l-.1.09c-.084.072-.16.138-.234.2-.029.027-.063.055-.093.079a4.518,4.518,0,0,1-1.391.875l-.093.025a1.111,1.111,0,0,1-.233.025l-3.51.08,1.322-8.437.1-.1c.611.2,1.213.466,1.839.637l-.265.257-.921,5.861,1.329-.032a7.345,7.345,0,0,0,1.237-1c.042-.035.087-.077.132-.121.788-.741,1.765-1.748,2.655-2.722C173.909,267.573,174.436,267.867,174.981,268.125Z" transform="translate(-165.954 -264.395)" fill="#fecc3d"/>
          </g>
        </g>
      </g>
      <g id="Grupo_931791" data-name="Grupo 931791" transform="translate(142.497 314.719)">
        <path id="Trazado_741842" data-name="Trazado 741842" d="M223.933,297.736q-4.513-.145-8.98-.282-9.832-.3-19.451-.54-11.361-.284-22.432-.462c-6.588-.1-13.1-.168-19.541-.1-2.365.024-4.722.063-7.064.166-.935.041-1.871.122-2.8.114-1.861-.014-1.148,2.068-.26,3.108a4.712,4.712,0,0,0,3.053,1.279l53.347,8.118a4.866,4.866,0,0,0,2.219-.176l20.381-6.546a3.886,3.886,0,0,0,2.985-3.757l-.3-.368A1.564,1.564,0,0,0,223.933,297.736Z" transform="translate(-142.497 -296.323)" fill="#203342"/>
      </g>
      <g id="Grupo_931792" data-name="Grupo 931792" transform="translate(142.615 309.631)">
        <path id="Trazado_741843" data-name="Trazado 741843" d="M167.934,292.7l-25.209,5.551a.186.186,0,0,0,.015.365l54.094,8.054a16.448,16.448,0,0,0,7.373-.581l19.979-6.365a.351.351,0,0,0-.084-.688Z" transform="translate(-142.581 -292.699)" fill="#355168"/>
      </g>
      <g id="Grupo_931793" data-name="Grupo 931793" transform="translate(208.509 318.222)">
        <path id="Trazado_741844" data-name="Trazado 741844" d="M189.52,301.183l.628.342,7.076-2.329-.4-.378Z" transform="translate(-189.52 -298.819)" fill="#b9b397"/>
      </g>
      <g id="Grupo_931794" data-name="Grupo 931794" transform="translate(147.517 309.888)">
        <path id="Trazado_741845" data-name="Trazado 741845" d="M217.991,298.663l-49-5.781-19.534,4.71-3.387.253v.563l52.805,7.565,21.6-7.015v-.6S219.4,298.492,217.991,298.663Z" transform="translate(-146.073 -292.882)" fill="#d3600b"/>
      </g>
      <g id="Grupo_931795" data-name="Grupo 931795" transform="translate(147.517 309.314)">
        <path id="Trazado_741846" data-name="Trazado 741846" d="M146.073,298.01l22.921-5.536,51.489,6.049-21.605,7.026Z" transform="translate(-146.073 -292.473)" fill="#ff9429"/>
      </g>
      <g id="Grupo_931796" data-name="Grupo 931796" transform="translate(194.722 281.335)">
        <path id="Trazado_741847" data-name="Trazado 741847" d="M181.389,272.543l-1.69.18,5.6,41.463,4.976-1.5Z" transform="translate(-179.699 -272.543)" fill="#fecc3d"/>
      </g>
      <g id="Grupo_931797" data-name="Grupo 931797" transform="translate(197.439 281.126)">
        <path id="Trazado_741848" data-name="Trazado 741848" d="M183.692,272.394l-2.058.237,21.552,36.318,3.848-1.159Z" transform="translate(-181.634 -272.394)" fill="#fecc3d"/>
      </g>
      <g id="Grupo_931798" data-name="Grupo 931798" transform="translate(145.027 282.082)">
        <path id="Trazado_741849" data-name="Trazado 741849" d="M172.346,273.075,144.3,306.2l5.087-1.081,24.737-31.5Z" transform="translate(-144.299 -273.075)" fill="#edb220"/>
      </g>
      <g id="Grupo_931799" data-name="Grupo 931799" transform="translate(165.977 282.804)">
        <path id="Trazado_741850" data-name="Trazado 741850" d="M168.689,273.589l-9.466,27.232,3.711-.545,7.935-26.151Z" transform="translate(-159.223 -273.589)" fill="#edb220"/>
      </g>
      <g id="Grupo_931800" data-name="Grupo 931800" transform="translate(192.885 275.426)">
        <path id="Trazado_741851" data-name="Trazado 741851" d="M179.921,275.015l5.081-.981-1.544-5.7-5.068,1Z" transform="translate(-178.39 -268.333)" fill="#fecc3d"/>
      </g>
      <g id="Grupo_931801" data-name="Grupo 931801" transform="translate(173.074 276.748)">
        <path id="Trazado_741852" data-name="Trazado 741852" d="M164.278,274.61l4.55,1.258,1.94-5.244-4.021-1.348Z" transform="translate(-164.278 -269.275)" fill="#fecc3d"/>
      </g>
      <g id="Grupo_931803" data-name="Grupo 931803" transform="translate(180.43 250.771)">
        <g id="Grupo_931802" data-name="Grupo 931802">
          <path id="Trazado_741853" data-name="Trazado 741853" d="M175.688,250.778a6.409,6.409,0,0,0-6.17,6.223v8.685a4.82,4.82,0,0,0,.052.73l1.1-1.059a2.6,2.6,0,0,1,1.247-.664V256.9a3.906,3.906,0,0,1,3.769-3.795,3.537,3.537,0,0,1,3.795,3.482v8.761a3.461,3.461,0,0,1-.161,1.058l.508,3.4a6.272,6.272,0,0,0,1.737-2.533,5.807,5.807,0,0,0,.358-2v-8.78A5.8,5.8,0,0,0,175.688,250.778Zm0,18.338a3.927,3.927,0,0,1-1.122-.129,3.631,3.631,0,0,1-1.658-.964,3.472,3.472,0,0,1-.879-1.536.609.609,0,0,0-.111.087l-1.777,1.7a5.8,5.8,0,0,0,2.325,2.391,6,6,0,0,0,1.714.644,6.266,6.266,0,0,0,1.508.138,6.49,6.49,0,0,0,2.45-.554l-.365-2.445A3.933,3.933,0,0,1,175.688,269.116Z" transform="translate(-169.518 -250.771)" fill="#848689"/>
        </g>
      </g>
      <g id="Grupo_931804" data-name="Grupo 931804" transform="translate(189.581 257.705)">
        <path id="Trazado_741854" data-name="Trazado 741854" d="M176.848,255.809l2.441-.1a.761.761,0,0,1,.816.748v.976a.836.836,0,0,1-.816.813l-2.441.093a.76.76,0,0,1-.811-.747v-.973A.836.836,0,0,1,176.848,255.809Z" transform="translate(-176.037 -255.71)" fill="#355168"/>
      </g>
      <g id="Grupo_931805" data-name="Grupo 931805" transform="translate(189.581 260.729)">
        <path id="Trazado_741855" data-name="Trazado 741855" d="M176.848,257.958l2.441-.093a.764.764,0,0,1,.816.751v.976a.835.835,0,0,1-.816.81l-2.441.087a.763.763,0,0,1-.811-.75v-.973A.833.833,0,0,1,176.848,257.958Z" transform="translate(-176.037 -257.865)" fill="#355168"/>
      </g>
      <g id="Grupo_931807" data-name="Grupo 931807" transform="translate(208.113 318.758)">
        <g id="Grupo_931806" data-name="Grupo 931806">
          <path id="Trazado_741856" data-name="Trazado 741856" d="M190.841,301.367c.264,7.776-.441,11.972-1.6,16.275,1.56,1.064,3.114,2.162,4.671,3.269q.44-1.141.783-2.319a30.494,30.494,0,0,0,1.174-7.984c.032-2.151.974-8.869.963-11.408C195.821,299.493,191.942,301.009,190.841,301.367Z" transform="translate(-189.238 -299.201)" fill="#797d7f"/>
        </g>
      </g>
      <g id="Grupo_931808" data-name="Grupo 931808" transform="translate(209.138 318.436)">
        <path id="Trazado_741857" data-name="Trazado 741857" d="M190.547,301.46l-.579-.4,5.845-2.084.721.322Z" transform="translate(-189.968 -298.972)" fill="#909293"/>
      </g>
      <g id="Grupo_931809" data-name="Grupo 931809" transform="translate(152.769 310.982)">
        <path id="Trazado_741858" data-name="Trazado 741858" d="M151.337,295.707l6.134-1.663-.674-.383-6.983,1.846Z" transform="translate(-149.814 -293.661)" fill="#909293"/>
      </g>
      <g id="Grupo_931810" data-name="Grupo 931810" transform="translate(207.048 334.901)">
        <path id="Trazado_741859" data-name="Trazado 741859" d="M189.765,315.811a1.364,1.364,0,0,1-1.023-.511,1.174,1.174,0,0,1-.216-1.064l.324-1.106a1.208,1.208,0,0,1,.793-.8l4.847-1.569a1.394,1.394,0,0,1,1.5.455,1.171,1.171,0,0,1,.2,1.085l-.482,1.508a1.214,1.214,0,0,1-.88.8l-4.7,1.162A1.337,1.337,0,0,1,189.765,315.811Zm5.18-3.924-4.864,1.57-.345,1.127.029.041h.011l4.7-1.165a.034.034,0,0,0,.022-.021l.48-1.506Z" transform="translate(-188.479 -310.7)" fill="#355168"/>
      </g>
      <g id="Grupo_931811" data-name="Grupo 931811" transform="translate(155.304 332.458)">
        <path id="Trazado_741860" data-name="Trazado 741860" d="M151.889,311.245l-.269-1.108,5.527-1.176.271,1.114Z" transform="translate(-151.62 -308.96)" fill="#355168"/>
      </g>
    </g>
    <g id="_7" data-name="7" transform="translate(78.868 5784.64) rotate(16)">
      <path id="Trazado_741955" data-name="Trazado 741955" d="M306.743,381.983c-1.238.029-1.856.638-1.874,2.158a4.872,4.872,0,0,0,.086.941c.338,1.8,1.58,3.5,2.116,5.209a18.2,18.2,0,0,1,.652,4.169c.037.554.068,1.106.107,1.65.132,1.82-.726,3.5-.583,5.346.256,3.279,2.878,4.578,5.859,3.988,3.352-.663,7.225-4.231,4.184-7.431-2.074-2.183-3.27-5.073-2.126-8a15.944,15.944,0,0,0,1.052-2.834c.446-2.432-1.47-3.009-3.388-3.6C310.826,382.965,308.89,381.936,306.743,381.983Zm8.247,17.431a2.753,2.753,0,1,1-3.554-.611A2.564,2.564,0,0,1,314.991,399.414Z" transform="translate(-14.61 -0.51)" fill="#17c3cc"/>
      <path id="Trazado_741956" data-name="Trazado 741956" d="M307.322,381.9a6.841,6.841,0,0,0-1.02-.053,1.633,1.633,0,0,0-1.682,1,.008.008,0,0,0,0,.009,3.215,3.215,0,0,0-.189,1.152,4.867,4.867,0,0,0,.086.941,6.536,6.536,0,0,0,.227.859c.492,1.488,1.439,2.915,1.89,4.35a18.232,18.232,0,0,1,.651,4.169c.037.555.068,1.106.107,1.65a8.76,8.76,0,0,1-.244,2.4,10.624,10.624,0,0,0-.34,2.945c.256,3.279,2.878,4.578,5.859,3.988,3.353-.663,7.226-4.231,4.184-7.431-2.074-2.183-3.269-5.072-2.125-8,.186-.478.409-.947.6-1.422a7.022,7.022,0,0,0,.448-1.411c.446-2.433-1.469-3.011-3.387-3.6q-.334-.1-.666-.219A22.426,22.426,0,0,0,307.322,381.9Zm7.228,17.377a2.753,2.753,0,1,1-3.555-.611A2.564,2.564,0,0,1,314.55,399.274Z" transform="translate(-14.458 -0.462)" fill="#14b0bf"/>
      <g id="Grupo_931849" data-name="Grupo 931849" transform="translate(290.044 380.927)">
        <path id="Trazado_741957" data-name="Trazado 741957" d="M309.029,382.532l.528.168a6.33,6.33,0,0,0,2.2.28q.332.117.666.219c1.918.585,3.833,1.163,3.387,3.6a7.019,7.019,0,0,1-.448,1.411,2.667,2.667,0,0,1-3.6-.679,6.46,6.46,0,0,0-3.073-2.105l-.376-.119a6.69,6.69,0,0,0-2.414-.282,1.885,1.885,0,0,1-1.28-.416,5.521,5.521,0,0,1-.082-1.04,4.4,4.4,0,0,1,.115-.954.008.008,0,0,1,0-.009,1.447,1.447,0,0,1,2.393-1.177c.1.082.2.16.309.234A5.8,5.8,0,0,0,309.029,382.532Z" transform="translate(-304.541 -381.15)" fill="#12a2b0"/>
        <path id="Trazado_741958" data-name="Trazado 741958" d="M306.353,383.253a.856.856,0,1,1-1.075.558A.856.856,0,0,1,306.353,383.253Z" transform="translate(-304.781 -381.862)" fill="#868a8e"/>
        <path id="Trazado_741959" data-name="Trazado 741959" d="M318.261,386.575a.856.856,0,1,1-1.075.557A.856.856,0,0,1,318.261,386.575Z" transform="translate(-308.894 -383.01)" fill="#868a8e"/>
      </g>
      <g id="Grupo_931850" data-name="Grupo 931850" transform="translate(289.418 380.505)">
        <path id="Trazado_741960" data-name="Trazado 741960" d="M309.129,382.155l-.5-.16a6.234,6.234,0,0,1-1.9-1.034,1.9,1.9,0,0,0-.811-.359,1.806,1.806,0,0,0-.858,3.505,1.862,1.862,0,0,0,.636.087,6.766,6.766,0,0,1,2.3.3l.359.114a6.46,6.46,0,0,1,2.956,1.953,2.748,2.748,0,0,0,1.45.885,2.663,2.663,0,0,0,1.419-5.133,2.735,2.735,0,0,0-1.45-.06A6.8,6.8,0,0,1,309.129,382.155Z" transform="translate(-303.647 -380.528)" fill="#26dddd"/>
        <path id="Trazado_741961" data-name="Trazado 741961" d="M308.858,382.065l-.494-.156a6.017,6.017,0,0,1-1.86-1.023,1.808,1.808,0,1,0-1.657,3.151,1.79,1.79,0,0,0,.624.083,6.535,6.535,0,0,1,2.258.282l.352.112a6.25,6.25,0,0,1,2.894,1.934,2.664,2.664,0,1,0,1.418-4.308A6.58,6.58,0,0,1,308.858,382.065Z" transform="translate(-303.585 -380.505)" fill="#17c5cc"/>
        <path id="Trazado_741962" data-name="Trazado 741962" d="M306.424,382.112a.856.856,0,1,1-1.075.557A.856.856,0,0,1,306.424,382.112Z" transform="translate(-304.181 -381.046)" fill="#868a8e"/>
        <path id="Trazado_741963" data-name="Trazado 741963" d="M318.333,385.433a.856.856,0,1,1-1.076.557A.857.857,0,0,1,318.333,385.433Z" transform="translate(-308.294 -382.193)" fill="#868a8e"/>
        <path id="Trazado_741964" data-name="Trazado 741964" d="M318.415,385.971a.493.493,0,1,1-.619.321A.493.493,0,0,1,318.415,385.971Z" transform="translate(-308.485 -382.385)" fill="#565656"/>
        <path id="Trazado_741965" data-name="Trazado 741965" d="M306.517,382.717a.447.447,0,1,1-.562.291A.447.447,0,0,1,306.517,382.717Z" transform="translate(-304.396 -381.261)" fill="#565656"/>
      </g>
      <path id="Trazado_741966" data-name="Trazado 741966" d="M306.715,388.205a6.585,6.585,0,0,1,4.379,8.218,6.44,6.44,0,0,1-3.781,4.035,8.761,8.761,0,0,0,.244-2.4c-.039-.544-.07-1.094-.107-1.65a18.233,18.233,0,0,0-.651-4.169c-.45-1.435-1.4-2.862-1.89-4.35A6.807,6.807,0,0,1,306.715,388.205Z" transform="translate(-14.624 -2.55)" fill="#12a2b0"/>
      <path id="Trazado_741967" data-name="Trazado 741967" d="M302.717,388.514a6.358,6.358,0,1,1-7.983,4.137A6.358,6.358,0,0,1,302.717,388.514Z" transform="translate(-11.006 -2.663)" fill="#a9aeb5"/>
      <path id="Trazado_741968" data-name="Trazado 741968" d="M302.84,389.321a5.813,5.813,0,1,1-7.3,3.782A5.812,5.812,0,0,1,302.84,389.321Z" transform="translate(-11.294 -2.95)" fill="#939598"/>
      <path id="Trazado_741969" data-name="Trazado 741969" d="M295.711,398.646l.033.209.335,2.122.055.343-6.107,2.826-.038-.248-.811-5.3-.06-.394Z" transform="translate(-9.17 -6.114)" fill="#21566b"/>
      <g id="Grupo_931851" data-name="Grupo 931851" transform="translate(286.541 389.402)">
        <path id="Trazado_741970" data-name="Trazado 741970" d="M303.146,394.13a3.4,3.4,0,0,0-2.114,1.167c-.352.416-.718.821-1.106,1.2l-.735.726.422,2.675a9.032,9.032,0,0,0,2.548.768c.257.037.513.085.767.139a3.391,3.391,0,1,0,.219-6.679Z" transform="translate(-299.19 -394.096)" fill="#2c657d"/>
        <path id="Trazado_741971" data-name="Trazado 741971" d="M305.326,395.153a2.785,2.785,0,1,1-3.5,1.813A2.786,2.786,0,0,1,305.326,395.153Z" transform="translate(-300.056 -394.416)" fill="#d1d3d4"/>
        <path id="Trazado_741972" data-name="Trazado 741972" d="M305.643,397.238a1.377,1.377,0,1,1-1.729.9A1.377,1.377,0,0,1,305.643,397.238Z" transform="translate(-300.799 -395.159)" fill="#455256"/>
      </g>
      <path id="Trazado_741973" data-name="Trazado 741973" d="M299.761,392.33a1.336,1.336,0,0,1,.866,1.672,1.331,1.331,0,0,1-2.571-.677,1.037,1.037,0,0,1,.033-.129A1.331,1.331,0,0,1,299.761,392.33Z" transform="translate(-12.247 -4.063)" fill="#b7bdc4"/>
      <path id="Trazado_741974" data-name="Trazado 741974" d="M299.776,392.33a1.319,1.319,0,0,1,.791.683,1.028,1.028,0,0,1-.033.128,1.33,1.33,0,0,1-2.463.183,1.037,1.037,0,0,1,.033-.129A1.331,1.331,0,0,1,299.776,392.33Z" transform="translate(-12.262 -4.063)" fill="#a9aeb5"/>
      <path id="Trazado_741975" data-name="Trazado 741975" d="M304.1,393.32l1.042-2.083,1.689.282.222,2.1A20.861,20.861,0,0,0,304.1,393.32Z" transform="translate(-14.344 -3.707)" fill="#2c657d"/>
      <path id="Trazado_741976" data-name="Trazado 741976" d="M306.465,391.851a.84.84,0,1,1-1.055.547A.839.839,0,0,1,306.465,391.851Z" transform="translate(-14.783 -3.905)" fill="#a9aeb5"/>
      <path id="Trazado_741977" data-name="Trazado 741977" d="M306.546,392.389a.477.477,0,1,1-.6.31A.477.477,0,0,1,306.546,392.389Z" transform="translate(-14.975 -4.097)" fill="#868a8e"/>
      <path id="Trazado_741978" data-name="Trazado 741978" d="M296.871,400.064a.84.84,0,1,1-1.055.547A.84.84,0,0,1,296.871,400.064Z" transform="translate(-11.47 -6.742)" fill="#a9aeb5"/>
      <path id="Trazado_741979" data-name="Trazado 741979" d="M296.953,400.6a.477.477,0,1,1-.6.31A.476.476,0,0,1,296.953,400.6Z" transform="translate(-11.662 -6.934)" fill="#868a8e"/>
      <path id="Trazado_741980" data-name="Trazado 741980" d="M290.449,405.361c1.457-.675,5.076-2.429,6.09-2.922l.055.344-6.107,2.827Z" transform="translate(-9.63 -7.576)" fill="#2c657d"/>
      <path id="Trazado_741981" data-name="Trazado 741981" d="M295.711,398.646l.033.209-6.567-.254-.06-.394Z" transform="translate(-9.17 -6.114)" fill="#2c657d"/>
      <path id="Trazado_741982" data-name="Trazado 741982" d="M281.558,398.842l.535,2.525.112.531.241,1.144a1.424,1.424,0,0,1-1.1,1.687l-16.14,3.414a.985.985,0,0,1-.507-.031,3.191,3.191,0,0,1-1.625-1.919l-.011-.026a6.751,6.751,0,0,1-.347-1.147c-.407-1.928.046-3.657,1.012-3.862l.348-.075a1.634,1.634,0,0,0,2.906-.429,1.454,1.454,0,0,0,.048-.194l.793-.168a1.593,1.593,0,0,0,.6.341,1.636,1.636,0,0,0,1.985-.887l9.466-2A1.425,1.425,0,0,1,281.558,398.842Z" transform="translate(0 -5.944)" fill="#2c657d"/>
      <path id="Trazado_741983" data-name="Trazado 741983" d="M282.36,403.295l.112.531.241,1.144a1.424,1.424,0,0,1-1.1,1.687l-16.14,3.414a.987.987,0,0,1-.507-.031,3.191,3.191,0,0,1-1.625-1.919c1.011.3,2.215.594,2.215.594l16.069-3.795S281.966,404.155,282.36,403.295Z" transform="translate(-0.268 -7.872)" fill="#275b70"/>
    </g>
    <g id="_4" data-name="4" transform="translate(104.463 6057.661)">
      <path id="Trazado_741932" data-name="Trazado 741932" d="M167.464,180.753c-.063-.063-.014,7.209.026,12.085.014,1.737.027,3.171.034,3.861l0,.443h3.354V180.879Z" transform="translate(-1.832 -6.36)" fill="#2c3e50"/>
      <g id="Grupo_931843" data-name="Grupo 931843" transform="translate(161.537 188.627)">
        <path id="Trazado_741933" data-name="Trazado 741933" d="M174.516,214.5a3.922,3.922,0,0,1-2.056,1.914c-.107.042-.232.088-.352.132-1.62.585-5.589,1.66-7.672.876A2.629,2.629,0,0,1,163,216.2c-1.294-2.61-1.948-9.306-1.046-12.122.885-2.558,4.388-3.168,6.988-2.316a4.372,4.372,0,0,1,2.239,1.462c.179.221.347.46.523.725l.237.364-1.273.828a9.173,9.173,0,0,0-.822-1.031,2.65,2.65,0,0,0-.969-.606l-.007,0c-1.878-.676-4.663-.369-5.13,1.171a7.042,7.042,0,0,0-.221,1.377c-.282,3.836.8,8.807,1.3,9.289.5,1,6.682-.247,7.531-.964a1.434,1.434,0,0,0,.64-1.232,2.115,2.115,0,0,0-.4-.9.157.157,0,0,1,.132-.242h.717a.356.356,0,1,0,0-.712h-1.021a.845.845,0,0,1,0-1.194,1.056,1.056,0,0,1,1.2-.418,1.714,1.714,0,0,1,.876.689A4.14,4.14,0,0,1,174.516,214.5Z" transform="translate(-161.537 -201.4)" fill="#868a8e"/>
        <path id="Trazado_741934" data-name="Trazado 741934" d="M166.506,217.443a4.88,4.88,0,0,1-1.687-.246,2.274,2.274,0,0,1-1.158-.953.356.356,0,0,0-.018-.041c-1.277-2.575-1.849-9.165-1.022-11.761.6-1.734,2.581-2.353,4.231-2.353a7.027,7.027,0,0,1,2.158.338,3.889,3.889,0,0,1,2.019,1.311c.141.173.283.369.471.65l-.5.325a6.809,6.809,0,0,0-.6-.725,3.152,3.152,0,0,0-1.124-.709l-.041-.014a6.675,6.675,0,0,0-2.187-.363c-1.841,0-3.2.708-3.544,1.848a7.616,7.616,0,0,0-.239,1.478c-.268,3.64.679,8.674,1.377,9.593.239.4.8.578,1.794.578,2.074,0,5.683-.811,6.437-1.446a1.893,1.893,0,0,0,.808-1.568,1.307,1.307,0,0,0-.189-.691h.165a.83.83,0,1,0,0-1.661h-.767c-.059-.131-.028-.242.117-.427a.628.628,0,0,1,.5-.287.649.649,0,0,1,.186.03,1.253,1.253,0,0,1,.622.5,3.664,3.664,0,0,1,0,3.655,3.444,3.444,0,0,1-1.793,1.684l-.014.006c-.1.04-.224.085-.341.127A19.186,19.186,0,0,1,166.506,217.443Z" transform="translate(-161.754 -201.614)" fill="#959ba0"/>
        <path id="Trazado_741935" data-name="Trazado 741935" d="M175.686,205.13l-1.273.828a9.18,9.18,0,0,0-.822-1.031.614.614,0,0,1,.288-.415l.669-.4a.573.573,0,0,1,.378-.075c.179.221.347.46.523.725Z" transform="translate(-165.281 -202.219)" fill="#636363"/>
        <path id="Trazado_741936" data-name="Trazado 741936" d="M176.12,205.346l-.646-.666a.534.534,0,0,0-.649-.092l-.6.343a.535.535,0,0,0-.247.617l.228.769a.536.536,0,0,0,.728.338l1.017-.445A.535.535,0,0,0,176.12,205.346Z" transform="translate(-165.394 -202.368)" fill="#868a8e"/>
        <path id="Trazado_741937" data-name="Trazado 741937" d="M177.942,214.119a1.065,1.065,0,0,1-.2-.02,1.187,1.187,0,0,1-.882-.791l-2.2-6.337a.987.987,0,0,1,.22-1.015.827.827,0,0,1,.3-.2l.03-.012.346-.122a.8.8,0,0,1,.247-.045h0a.827.827,0,0,1,.775.569c.583,1.67,2.165,6.023,2.343,6.514a1.12,1.12,0,0,1-.187,1.1.973.973,0,0,1-.29.236.909.909,0,0,1-.092.043,1.126,1.126,0,0,1-.241.067A1.052,1.052,0,0,1,177.942,214.119Z" transform="translate(-165.595 -202.698)" fill="#9ca8ad"/>
        <path id="Trazado_741938" data-name="Trazado 741938" d="M178.534,213.722a.784.784,0,0,1-.234.191.666.666,0,0,1-.074.035.871.871,0,0,1-.2.055.844.844,0,0,1-.137.011.884.884,0,0,1-.166-.016.993.993,0,0,1-.74-.667l-2.2-6.337a.8.8,0,0,1,.176-.819.633.633,0,0,1,.244-.159l.01,0,.261-.092.09-.031a.6.6,0,0,1,.187-.034.632.632,0,0,1,.594.443c.495,1.421,1.761,4.916,2.343,6.516A.933.933,0,0,1,178.534,213.722Z" transform="translate(-165.638 -202.783)" fill="#b0bec5"/>
        <g id="Grupo_931842" data-name="Grupo 931842" transform="translate(9.322 3.07)">
          <g id="Grupo_931840" data-name="Grupo 931840" transform="translate(0 0.163)">
            <path id="Trazado_741939" data-name="Trazado 741939" d="M178.127,214.076a.844.844,0,0,1-.137.011.881.881,0,0,1-.166-.016c-.787-2.191-2.157-6.02-2.765-7.823a.634.634,0,0,1,.244-.159C175.844,207.684,177.106,211.23,178.127,214.076Z" transform="translate(-175.059 -206.089)" fill="#d9e7ed"/>
          </g>
          <g id="Grupo_931841" data-name="Grupo 931841" transform="translate(0.515)">
            <path id="Trazado_741940" data-name="Trazado 741940" d="M178.865,213.722a.785.785,0,0,1-.234.191c-.779-2.169-2.207-6.158-2.826-7.994l.09-.031a.6.6,0,0,1,.187-.034C176.634,207.474,177.863,210.928,178.865,213.722Z" transform="translate(-175.806 -205.853)" fill="#d9e7ed"/>
          </g>
        </g>
        <path id="Trazado_741941" data-name="Trazado 741941" d="M178.877,215.2a.522.522,0,1,0,.523.522A.522.522,0,0,0,178.877,215.2Z" transform="translate(-166.761 -205.686)" fill="#7e9199"/>
        <circle id="Elipse_12166" data-name="Elipse 12166" cx="0.522" cy="0.522" r="0.522" transform="translate(11.594 9.321)" fill="#93aab2"/>
      </g>
      <g id="Grupo_931847" data-name="Grupo 931847" transform="translate(161.537 160.279)">
        <path id="Trazado_741942" data-name="Trazado 741942" d="M174.516,163.477a3.922,3.922,0,0,0-2.056-1.914c-.107-.041-.232-.088-.352-.132-1.62-.585-5.589-1.66-7.672-.876A2.626,2.626,0,0,0,163,161.783c-1.294,2.61-1.948,9.305-1.046,12.121.885,2.558,4.388,3.168,6.988,2.316a4.373,4.373,0,0,0,2.239-1.462c.179-.22.347-.46.523-.724l.237-.365-1.273-.828a9.128,9.128,0,0,1-.822,1.032,2.658,2.658,0,0,1-.969.605l-.007,0c-1.878.676-4.663.37-5.13-1.171a7.044,7.044,0,0,1-.221-1.376c-.282-3.836.8-8.808,1.3-9.289.5-1,6.682.247,7.531.963a1.436,1.436,0,0,1,.64,1.232,2.117,2.117,0,0,1-.4.9.156.156,0,0,0,.132.241h.717a.356.356,0,1,1,0,.712h-1.021a.845.845,0,0,0,0,1.194,1.055,1.055,0,0,0,1.2.418,1.709,1.709,0,0,0,.876-.689A4.141,4.141,0,0,0,174.516,163.477Z" transform="translate(-161.537 -160.279)" fill="#868a8e"/>
        <path id="Trazado_741943" data-name="Trazado 741943" d="M166.506,160.967a4.9,4.9,0,0,0-1.687.245,2.274,2.274,0,0,0-1.158.954.3.3,0,0,1-.018.041c-1.277,2.575-1.849,9.166-1.022,11.761.6,1.734,2.581,2.352,4.231,2.352a7.006,7.006,0,0,0,2.158-.338,3.888,3.888,0,0,0,2.019-1.31c.141-.174.283-.37.471-.651l-.5-.325a6.815,6.815,0,0,1-.6.726,3.152,3.152,0,0,1-1.124.709l-.041.014a6.674,6.674,0,0,1-2.187.362c-1.841,0-3.2-.707-3.544-1.847a7.631,7.631,0,0,1-.239-1.479c-.268-3.639.679-8.674,1.377-9.593.239-.4.8-.578,1.794-.578,2.074,0,5.683.811,6.437,1.447a1.893,1.893,0,0,1,.808,1.568,1.307,1.307,0,0,1-.189.691h.165a.831.831,0,1,1,0,1.661h-.767c-.059.13-.028.241.117.427a.58.58,0,0,0,.683.257,1.249,1.249,0,0,0,.622-.5,3.663,3.663,0,0,0,0-3.654,3.438,3.438,0,0,0-1.793-1.684l-.014-.005c-.1-.041-.224-.085-.341-.128A19.209,19.209,0,0,0,166.506,160.967Z" transform="translate(-161.754 -160.492)" fill="#959ba0"/>
        <path id="Trazado_741944" data-name="Trazado 741944" d="M175.686,179.331l-1.273-.828a9.135,9.135,0,0,1-.822,1.032.614.614,0,0,0,.288.415l.669.4a.572.572,0,0,0,.378.074c.179-.22.347-.461.523-.724Z" transform="translate(-165.281 -165.94)" fill="#636363"/>
        <path id="Trazado_741945" data-name="Trazado 741945" d="M176.12,179l-.646.667a.534.534,0,0,1-.649.092l-.6-.343a.535.535,0,0,1-.247-.618l.228-.769a.536.536,0,0,1,.728-.338l1.017.445A.535.535,0,0,1,176.12,179Z" transform="translate(-165.394 -165.673)" fill="#868a8e"/>
        <path id="Trazado_741946" data-name="Trazado 741946" d="M177.942,167.361a1.066,1.066,0,0,0-.2.019,1.188,1.188,0,0,0-.882.791l-2.2,6.337a.986.986,0,0,0,.22,1.015.82.82,0,0,0,.3.2.16.16,0,0,0,.03.012l.346.122a.764.764,0,0,0,.247.045h0a.827.827,0,0,0,.775-.569c.583-1.67,2.165-6.022,2.343-6.513a1.121,1.121,0,0,0-.187-1.1.97.97,0,0,0-.29-.236.68.68,0,0,0-.092-.043,1.051,1.051,0,0,0-.241-.067A.979.979,0,0,0,177.942,167.361Z" transform="translate(-165.595 -162.479)" fill="#9ca8ad"/>
        <path id="Trazado_741947" data-name="Trazado 741947" d="M178.534,167.928a.8.8,0,0,0-.234-.191.662.662,0,0,0-.074-.034.871.871,0,0,0-.2-.055.846.846,0,0,0-.137-.012.881.881,0,0,0-.166.016,1,1,0,0,0-.74.667l-2.2,6.337a.8.8,0,0,0,.176.819.643.643,0,0,0,.244.16l.01,0,.261.092.09.032a.6.6,0,0,0,.187.034.632.632,0,0,0,.594-.442c.495-1.421,1.761-4.916,2.343-6.516A.935.935,0,0,0,178.534,167.928Z" transform="translate(-165.638 -162.564)" fill="#b0bec5"/>
        <g id="Grupo_931846" data-name="Grupo 931846" transform="translate(9.322 5.072)">
          <g id="Grupo_931844" data-name="Grupo 931844">
            <path id="Trazado_741948" data-name="Trazado 741948" d="M178.127,167.648a.845.845,0,0,0-.137-.012.881.881,0,0,0-.166.016c-.787,2.191-2.157,6.021-2.765,7.823a.643.643,0,0,0,.244.16C175.844,174.039,177.106,170.494,178.127,167.648Z" transform="translate(-175.059 -167.636)" fill="#d9e7ed"/>
          </g>
          <g id="Grupo_931845" data-name="Grupo 931845" transform="translate(0.515 0.101)">
            <path id="Trazado_741949" data-name="Trazado 741949" d="M178.865,167.974a.8.8,0,0,0-.234-.191c-.779,2.169-2.207,6.158-2.826,7.994l.09.032a.6.6,0,0,0,.187.034C176.634,174.222,177.863,170.769,178.865,167.974Z" transform="translate(-175.806 -167.783)" fill="#d9e7ed"/>
          </g>
        </g>
        <path id="Trazado_741950" data-name="Trazado 741950" d="M178.877,169.66a.522.522,0,1,1,.523-.522A.522.522,0,0,1,178.877,169.66Z" transform="translate(-166.761 -162.868)" fill="#7e9199"/>
        <path id="Trazado_741951" data-name="Trazado 741951" d="M178.877,169.936a.522.522,0,1,1,.523-.522A.522.522,0,0,1,178.877,169.936Z" transform="translate(-166.761 -162.954)" fill="#93aab2"/>
      </g>
      <g id="Grupo_931848" data-name="Grupo 931848" transform="translate(165.223 174.393)">
        <path id="Trazado_741952" data-name="Trazado 741952" d="M170.331,180.879l-3.417-.126c-.063-.063-.014,7.209.026,12.085h3.392Z" transform="translate(-166.883 -180.752)" fill="#355168"/>
        <path id="Trazado_741953" data-name="Trazado 741953" d="M166.964,198.284c.014,1.737.028,3.171.034,3.861h3.358v-3.861Z" transform="translate(-166.908 -186.198)" fill="#47687a"/>
        <path id="Trazado_741954" data-name="Trazado 741954" d="M167.013,203.884c0,.284,0,.443,0,.443h3.354v-.443Z" transform="translate(-166.924 -187.938)" fill="#355168"/>
      </g>
    </g>
  </g>
</svg>
