<svg xmlns="http://www.w3.org/2000/svg" width="155.571" height="175.467" viewBox="0 0 155.571 175.467">
  <g id="Grupo_933258" data-name="Grupo 933258" transform="translate(-1115 -1873.453)">
    <g id="Grupo_933100" data-name="Grupo 933100" transform="translate(1115 1873.453)">
      <path id="Trazado_743031" data-name="Trazado 743031" d="M321.79,82.557s2.676,11.37,3.677,17.9,4.432,10.121,6.433,12.751,9.448,12.183,9.448,12.183,5.456.231,6.614-.855a10.656,10.656,0,0,0,2-3.214l-13.907-16.279L334.884,88.33s6.92,4.287,11.905,6.873,10.522,9.7,12.443,11.9,4.546,5.6,4.546,5.6,6.135-.749,7.242-1.988-.652-7.558-.652-7.558-16.03-13.254-20.41-16.917S338.7,76.422,338.7,76.422Z" transform="translate(-286.415 -11.799)" fill="#39b4c6"/>
      <path id="Trazado_743032" data-name="Trazado 743032" d="M323.282,50.2s4.861-2.966,9.136-.035a47.547,47.547,0,0,1,5.972,4.616s.27,1.649-1.712,3.809a10.143,10.143,0,0,1-3.232,2.638l-5.706-3.518Z" transform="translate(-286.385 -12.34)" fill="#39b4c6"/>
      <path id="Trazado_743033" data-name="Trazado 743033" d="M316.676,51.975s-2.194,2.147-4.4,4.482a12.8,12.8,0,0,0-2.565,3.882c-.708,2.755,4.453,8.394,6.562,13.007s4.878,15.434,4.878,15.434,9.64,3.109,14.231-1.555a31.944,31.944,0,0,0,6.2-8.262s-6.026-10.693-7.533-13.812-3.454-10.61-4.516-12.411c-.594-1.008-2.033-3.514-4.754-2.8C321.484,50.794,319.817,50.2,316.676,51.975Z" transform="translate(-286.653 -12.322)" fill="#67d7e7"/>
      <g id="Grupo_933081" data-name="Grupo 933081" transform="translate(106.46 0)">
        <g id="Grupo_933078" data-name="Grupo 933078" transform="translate(3.607 99.911)">
          <path id="Trazado_743034" data-name="Trazado 743034" d="M400.594,117.931a5.819,5.819,0,0,0,1.472-3.213,9.427,9.427,0,0,0,0-2.7l5.155-.986a28.413,28.413,0,0,0,.6,4.321c.4,1.341-.974,4.451-2.691,4.441S400.594,117.931,400.594,117.931Z" transform="translate(-394.935 -111.031)" fill="#ffc5b3"/>
          <path id="Trazado_743035" data-name="Trazado 743035" d="M401.523,116.622s-1.819,2.594-3.345,4.308c-1.792,2.014-2.556,2.488-2.981,3.589s1.595,3.753,5.091,1.733a23.214,23.214,0,0,0,5.306-3.679c1.536-1.414,3.128-2.356,3.372-4.387a3.415,3.415,0,0,0-1.144-2.858s-.321,1.208-2.419,2.394C403.825,118.614,401.523,116.622,401.523,116.622Z" transform="translate(-395.042 -110.947)" fill="#e5dbcf"/>
          <path id="Trazado_743036" data-name="Trazado 743036" d="M395.2,124.478s2.319,1.426,2.616,1.56c2.02.912,3.948-1.208,5.876-2.524a11.555,11.555,0,0,0,3.854-4.039,9,9,0,0,1,1.444-2.059s1.153,2.712-.477,3.7c-1.977,1.2-5.191,3.545-6.108,4.094-.776.466-4.681,3.4-6.883,1.194A1.657,1.657,0,0,1,395.2,124.478Z" transform="translate(-395.044 -110.906)" fill="#d3c7ba"/>
          <path id="Trazado_743037" data-name="Trazado 743037" d="M400.109,118.375a4.845,4.845,0,0,1,1.771,1.311,16.754,16.754,0,0,1,1.125,1.413l-.712.53s-1.205-1.2-1.767-1.812a6.719,6.719,0,0,0-1.012-.667Z" transform="translate(-394.956 -110.887)" fill="#d3c7ba"/>
          <path id="Trazado_743038" data-name="Trazado 743038" d="M398.856,119.971a5.32,5.32,0,0,1,1.81,1.359,6.608,6.608,0,0,1,.877,1.15l-.63.7s-1.038-1.1-1.6-1.717a8.893,8.893,0,0,0-1.081-.753Z" transform="translate(-394.982 -110.856)" fill="#d3c7ba"/>
        </g>
        <path id="Trazado_743039" data-name="Trazado 743039" d="M391.507,46.506s.839-2.575,2.1-6.288c1.124-3.311,3.565-8.465,3.28-7.851-.144.313,5.692,5.163,5.73,4.717s-3.913,8.6-5.555,11.756C395.151,52.521,391.507,46.506,391.507,46.506Z" transform="translate(-391.507 -12.665)" fill="#ffc5b3"/>
        <g id="Grupo_933079" data-name="Grupo 933079" transform="translate(38.222 66.828)">
          <path id="Trazado_743040" data-name="Trazado 743040" d="M431.589,88.12A5.817,5.817,0,0,0,430.7,84.7a9.416,9.416,0,0,0-1.707-2.092l3.372-4.022a28.469,28.469,0,0,0,3.2,2.969c1.157.786,2.058,4.065.721,5.143S431.589,88.12,431.589,88.12Z" transform="translate(-428.993 -78.585)" fill="#ffc5b3"/>
          <path id="Trazado_743041" data-name="Trazado 743041" d="M431.45,86.758a50.252,50.252,0,0,1,.132,5.174c-.116,2.694-.409,3.543-.042,4.666s3.606,1.9,5.04-1.873a23.2,23.2,0,0,0,1.788-6.2c.3-2.067.936-3.8-.159-5.531a3.415,3.415,0,0,0-2.693-1.492s.515,1.139-.362,3.383C434.5,86.569,431.45,86.758,431.45,86.758Z" transform="translate(-428.947 -78.528)" fill="#e5dbcf"/>
          <path id="Trazado_743042" data-name="Trazado 743042" d="M431.536,96.58s2.7-.36,3.013-.444c2.141-.571,2.3-3.432,2.959-5.669a11.549,11.549,0,0,0,.435-5.566,9.01,9.01,0,0,1-.181-2.508s2.608,1.373,1.969,3.17c-.775,2.179-1.783,6.028-2.146,7.033-.308.85-1.482,5.59-4.581,5.274C432.285,97.8,431.9,97.465,431.536,96.58Z" transform="translate(-428.943 -78.51)" fill="#d3c7ba"/>
          <path id="Trazado_743043" data-name="Trazado 743043" d="M431.565,88.587a4.838,4.838,0,0,1,2.2-.1,16.817,16.817,0,0,1,1.765.385l-.216.861s-1.692-.167-2.516-.289a6.731,6.731,0,0,0-1.205.123Z" transform="translate(-428.943 -78.392)" fill="#d3c7ba"/>
          <path id="Trazado_743044" data-name="Trazado 743044" d="M431.6,90.616a5.313,5.313,0,0,1,2.262-.09,6.643,6.643,0,0,1,1.406.338l-.048.939s-1.5-.2-2.325-.32a8.907,8.907,0,0,0-1.313.1Z" transform="translate(-428.942 -78.352)" fill="#d3c7ba"/>
        </g>
        <path id="Trazado_743045" data-name="Trazado 743045" d="M401.484,39.033c4.178-4.261,6.493-12.3,3.224-14.131,0,0-2.078-1.834-4.95,1.906-1.333,1.735-3.7,4.8-5.089,6.954C396.446,37.2,399.067,38.154,401.484,39.033Z" transform="translate(-391.445 -12.819)" fill="#39b4c6"/>
        <path id="Trazado_743046" data-name="Trazado 743046" d="M416.971,72.64l1.161-17.079s-12.461,1.861-15.043,4.1c0,0,1,11.949,3.281,17.409A93.43,93.43,0,0,0,416.971,72.64Z" transform="translate(-391.28 -12.209)" fill="#249aaa"/>
        <path id="Trazado_743047" data-name="Trazado 743047" d="M435.256,78.751s-7.088-3.247-10.4-4.44c-4.492-1.617-7.253-2.831-7.832-3.09a97,97,0,0,1-8.649,6.818c3.285,3.513,7.4,4.265,11.317,5.583a97.661,97.661,0,0,1,11.023,4.811s3.612-1.587,4.357-3.868C436.311,80.751,435.256,78.751,435.256,78.751Z" transform="translate(-391.176 -11.901)" fill="#249aaa"/>
        <path id="Trazado_743048" data-name="Trazado 743048" d="M410.425,61.173c.732-2.009-7.052,22.035-7.64,25.01-.552,2.79-.192,9.109-.831,14.044s-2.693,14.609-2.693,14.609,2.652,2.534,5.344,2.584a11.572,11.572,0,0,0,5.85-1.351s2.322-17.194,2.428-19.736.662-7.682.662-7.682,6.23-10.664,8.657-17.628a26.526,26.526,0,0,0,1.084-9.927Z" transform="translate(-391.355 -12.101)" fill="#39b4c6"/>
        <path id="Trazado_743049" data-name="Trazado 743049" d="M402.673,27.941s-4.059,1.622-4.542,9.714a167.391,167.391,0,0,0,1.411,17.318c1.388,10.184,1.1,13.335,1.1,13.335s6.712,4.317,13.922,3.742c4.287-.342,10.3-9.22,10.3-9.22-3.345-7.268-5.019-7.689-6.17-13.708-1.53-8,.077-13.416-.088-14.608-.348-2.513-5.127-5.431-7.116-6.515C406.652,25.359,407.016,26.293,402.673,27.941Z" transform="translate(-391.377 -12.782)" fill="#67d7e7"/>
        <g id="Grupo_933080" data-name="Grupo 933080" transform="translate(4.461)">
          <path id="Trazado_743050" data-name="Trazado 743050" d="M403.2,29.3l-.919,5.03s-.929,4.109-.043,5.353c2.98-1.664,8.148-9.7,7.683-10.1L408.4,23.7Z" transform="translate(-395.765 -12.834)" fill="#ffad97"/>
          <path id="Trazado_743051" data-name="Trazado 743051" d="M401.93,30.44a51.493,51.493,0,0,0-1.093,6.373,36.5,36.5,0,0,0,.473,6.755s4.221-6,5.661-7.234a18.341,18.341,0,0,0,5.526-7.76l-2.913-2-.219.549a3.435,3.435,0,0,1,.06,2.584c-.454,1.125-.587,2.054-3.7,5.028-.827.79-3.274,3.607-3.274,3.607s.208-1.915.5-4.165c.249-1.962.993-4.9.993-4.9Z" transform="translate(-395.786 -12.777)" fill="#39b4c6"/>
          <path id="Trazado_743052" data-name="Trazado 743052" d="M406.632,16.853a5.635,5.635,0,0,0-8.794,2.995c-1.883,5.332,2.942,11.991,5.513,10.86,1.44-.634,4.467-2.885,5.319-5.692C409.631,21.856,408.246,18.082,406.632,16.853Z" transform="translate(-395.852 -12.99)" fill="#ffc5b3"/>
          <path id="Trazado_743053" data-name="Trazado 743053" d="M397.35,22.049c1.412.285,5.469.532,7.739-.762-.534.963-.063,2.049.387,2.995,0,0,.589-1.368,1.792-1.125.775.157.732,1.313.732,1.313a7.147,7.147,0,0,0,1.46,2.915c.533-.792,1.144-5.963,1.117-7.419-.039-2.033-.387-5.033-4.121-5.434-1.838-2.528-4.323-1.255-5.9-.425a14.607,14.607,0,0,0-4.678,3.934A13.614,13.614,0,0,0,397.35,22.049Z" transform="translate(-395.882 -13.043)" fill="#432b1f"/>
        </g>
        <path id="Trazado_743054" data-name="Trazado 743054" d="M410.453,41.7l-4.631-2.061.515-1.149,4.631,2.061Z" transform="translate(-391.226 -12.544)" fill="#fff"/>
        <path id="Trazado_743055" data-name="Trazado 743055" d="M414.012,39.379s-.189,1.8-.4,3.573c-.346,2.944-.662,8.669-.662,8.669l-6.922,9.13L409.3,64a42.922,42.922,0,0,0,6.672-6.553c2.138-2.714,2.373-3.349,2.728-5.265.561-3.021,1.264-11.732.881-11.737S414.012,39.379,414.012,39.379Z" transform="translate(-391.222 -12.526)" fill="#ffc5b3"/>
        <path id="Trazado_743056" data-name="Trazado 743056" d="M411.848,45.179c2.994,1.948,5.545,1.551,8.732.341.923-6.672-1.694-12.141-4.521-14.338-1.552-1.205-3.779,1.173-3.779,5.574C412.28,38.682,412,42.869,411.848,45.179Z" transform="translate(-391.108 -12.693)" fill="#39b4c6"/>
      </g>
      <g id="Grupo_933082" data-name="Grupo 933082" transform="translate(98.552 46.169)">
        <path id="Trazado_743057" data-name="Trazado 743057" d="M410.149,81.179c0-5.38-3.384-11.88-7.39-14.191l-10.817-6.246a5.428,5.428,0,0,0-2.678-.817,3.176,3.176,0,0,0-1.613.417c-1.463.844-2.3,2.885-2.3,5.6v7.567q-.809-.491-1.6-1.018V65.939c0-3.3,1.131-5.843,3.1-6.981,1.678-.967,3.77-.823,5.888.4L403.556,65.6c4.517,2.607,8.191,9.595,8.191,15.576v6.856c-.532-.377-1.054-.768-1.6-1.129Z" transform="translate(-383.751 -58.323)" fill="#a39088"/>
      </g>
      <g id="Grupo_933098" data-name="Grupo 933098" transform="translate(0 32.818)">
        <g id="Grupo_933084" data-name="Grupo 933084" transform="translate(82.64 34.351)">
          <g id="Grupo_933083" data-name="Grupo 933083" transform="translate(0 33.571)">
            <path id="Trazado_743058" data-name="Trazado 743058" d="M373.571,114.761a6.172,6.172,0,0,1-2.579,4.926c-1.423.822-2.578-.051-2.578-1.95a6.178,6.178,0,0,1,2.578-4.926C372.417,111.99,373.571,112.863,373.571,114.761Z" transform="translate(-368.14 -111.831)" fill="#432b1f"/>
            <path id="Trazado_743059" data-name="Trazado 743059" d="M374.529,113.78l-1.989-1.167-3.244,7.211,2.072,1.194Z" transform="translate(-368.122 -111.829)" fill="#432b1f"/>
            <path id="Trazado_743060" data-name="Trazado 743060" d="M375.614,115.941a6.174,6.174,0,0,1-2.578,4.926c-1.424.822-2.579-.05-2.579-1.949a6.172,6.172,0,0,1,2.579-4.926C374.46,113.171,375.614,114.043,375.614,115.941Z" transform="translate(-368.1 -111.808)" fill="#563729"/>
            <path id="Trazado_743061" data-name="Trazado 743061" d="M374.478,116.645a3.111,3.111,0,0,1-1.3,2.481c-.717.414-1.3-.025-1.3-.982a3.109,3.109,0,0,1,1.3-2.481C373.9,115.249,374.478,115.689,374.478,116.645Z" transform="translate(-368.072 -111.772)" fill="#fff"/>
            <path id="Trazado_743062" data-name="Trazado 743062" d="M370.2,113.016v4.245a16.752,16.752,0,0,0,2.171.9c1.165.383,1.636-.683,1.267-2.109a43.555,43.555,0,0,0-1.421-4.208Z" transform="translate(-368.105 -111.844)" fill="#d3c7ba"/>
            <path id="Trazado_743063" data-name="Trazado 743063" d="M370.246,113.011l-2.1-.954v4l2.1,1.195Z" transform="translate(-368.145 -111.84)" fill="#e5dbcf"/>
          </g>
          <path id="Trazado_743064" data-name="Trazado 743064" d="M368.145,112.02c0,.609.929,1.1,2.075,1.1s2.074-.495,2.074-1.1-.929-1.1-2.074-1.1S368.145,111.41,368.145,112.02Z" transform="translate(-368.145 -78.291)" fill="#f0e9df"/>
          <rect id="Rectángulo_313370" data-name="Rectángulo 313370" width="1.546" height="33.571" transform="translate(1.315)" fill="#a39088"/>
          <path id="Trazado_743065" data-name="Trazado 743065" d="M369.434,111.85c0,.226.347.411.774.411s.773-.185.773-.411-.346-.412-.773-.412S369.434,111.623,369.434,111.85Z" transform="translate(-368.12 -78.281)" fill="#a39088"/>
        </g>
        <path id="Trazado_743066" data-name="Trazado 743066" d="M296.475,113.441c0-6.305,3.87-13.669,8.627-16.416L363.239,63.46c2.219-1.281,4.4-1.432,6.146-.423,2.06,1.188,3.241,3.855,3.241,7.317v10.5l-74.633,43.088h0l-1.518.877Zm48.882-37.9-16.529,9.543v19.3l16.529-9.543Zm1.518,18.425L361.712,85.4v-19.3l-14.838,8.567Zm-19.565-8.005L310.779,95.5v19.3l16.53-9.544Zm41.316-21.606c-1.253-.726-2.9-.575-4.626.423l-.769.444v19.3l7.877-4.548V70.354C371.107,67.45,370.2,65.263,368.625,64.352ZM309.26,115.679v-19.3l-3.4,1.962c-4.266,2.462-7.869,9.377-7.869,15.1v8.743Z" transform="translate(-286.911 -44.893)" fill="#a39088"/>
        <g id="Grupo_933085" data-name="Grupo 933085" transform="translate(11.124 78.891)">
          <rect id="Rectángulo_313371" data-name="Rectángulo 313371" width="1.692" height="43.342" transform="translate(0 1.471) rotate(-60.375)" fill="#a39088"/>
        </g>
        <g id="Grupo_933086" data-name="Grupo 933086" transform="translate(10.409 86.496)">
          <path id="Trazado_743067" data-name="Trazado 743067" d="M335.7,153.824l.836-1.471-39.216-22.293L297.3,132Z" transform="translate(-297.304 -130.061)" fill="#a39088"/>
        </g>
        <g id="Grupo_933087" data-name="Grupo 933087" transform="translate(85.533 43.993)">
          <path id="Trazado_743068" data-name="Trazado 743068" d="M409.375,112.139l.836-1.47L370.995,88.376l-.013,1.939Z" transform="translate(-370.982 -88.376)" fill="#a39088"/>
        </g>
        <g id="Grupo_933088" data-name="Grupo 933088" transform="translate(86.397 35.882)">
          <rect id="Rectángulo_313372" data-name="Rectángulo 313372" width="1.692" height="43.342" transform="translate(0 1.471) rotate(-60.383)" fill="#a39088"/>
        </g>
        <g id="Grupo_933090" data-name="Grupo 933090" transform="translate(8.321 77.291)">
          <g id="Grupo_933089" data-name="Grupo 933089" transform="translate(0 33.571)">
            <path id="Trazado_743069" data-name="Trazado 743069" d="M300.682,156.874A6.172,6.172,0,0,1,298.1,161.8c-1.423.822-2.578-.05-2.578-1.948a6.174,6.174,0,0,1,2.578-4.926C299.528,154.1,300.682,154.976,300.682,156.874Z" transform="translate(-295.25 -153.945)" fill="#432b1f"/>
            <path id="Trazado_743070" data-name="Trazado 743070" d="M301.64,155.894l-1.989-1.167-3.244,7.211,2.072,1.194Z" transform="translate(-295.233 -153.943)" fill="#432b1f"/>
            <path id="Trazado_743071" data-name="Trazado 743071" d="M302.725,158.054a6.176,6.176,0,0,1-2.579,4.927c-1.423.822-2.578-.051-2.578-1.95a6.174,6.174,0,0,1,2.578-4.926C301.571,155.284,302.725,156.157,302.725,158.054Z" transform="translate(-295.21 -153.922)" fill="#563729"/>
            <path id="Trazado_743072" data-name="Trazado 743072" d="M301.589,158.758a3.109,3.109,0,0,1-1.3,2.481c-.717.414-1.3-.026-1.3-.981a3.109,3.109,0,0,1,1.3-2.481C301.008,157.363,301.589,157.8,301.589,158.758Z" transform="translate(-295.182 -153.886)" fill="#fff"/>
            <path id="Trazado_743073" data-name="Trazado 743073" d="M297.316,155.129v4.245a16.766,16.766,0,0,0,2.171.9c1.165.383,1.636-.683,1.267-2.11a43.493,43.493,0,0,0-1.421-4.207Z" transform="translate(-295.215 -153.958)" fill="#d3c7ba"/>
            <path id="Trazado_743074" data-name="Trazado 743074" d="M297.356,155.125l-2.1-.954v4l2.1,1.195Z" transform="translate(-295.256 -153.954)" fill="#e5dbcf"/>
          </g>
          <path id="Trazado_743075" data-name="Trazado 743075" d="M295.256,154.133c0,.61.929,1.1,2.074,1.1s2.075-.493,2.075-1.1-.929-1.1-2.075-1.1S295.256,153.523,295.256,154.133Z" transform="translate(-295.256 -120.405)" fill="#f0e9df"/>
          <rect id="Rectángulo_313373" data-name="Rectángulo 313373" width="1.546" height="33.571" transform="translate(1.315)" fill="#a39088"/>
          <path id="Trazado_743076" data-name="Trazado 743076" d="M296.545,153.963c0,.227.347.411.774.411s.773-.184.773-.411-.347-.411-.773-.411S296.545,153.736,296.545,153.963Z" transform="translate(-295.23 -120.394)" fill="#a39088"/>
        </g>
        <g id="Grupo_933091" data-name="Grupo 933091" transform="translate(0 21.707)">
          <path id="Trazado_743077" data-name="Trazado 743077" d="M322.471,141.92,417.6,86.943,382.228,66.518,287.1,121.5Z" transform="translate(-287.095 -66.518)" fill="#67d7e7"/>
          <path id="Trazado_743078" data-name="Trazado 743078" d="M287.1,120.438l35.376,20.424V148.8L287.1,128.376Z" transform="translate(-287.095 -65.46)" fill="#30aac1"/>
          <path id="Trazado_743079" data-name="Trazado 743079" d="M416.923,86.55v7.906L321.79,149.433v-7.906Z" transform="translate(-286.414 -66.125)" fill="#39b4c6"/>
        </g>
        <g id="Grupo_933093" data-name="Grupo 933093" transform="translate(4.402 23.874)">
          <path id="Trazado_743080" data-name="Trazado 743080" d="M391.851,78.69s-1.962,2.953-1.681,4.3c.876,4.221-1.312,4.685-1.312,4.685s.554-2.53,0-3.407c-.541,2.765-1.188,3.075-2.421,4.077s-3.566,2.617-3.566,2.617l-4.655-8.06-4.238-3.94s2.559-3.1,5.353-2.459a14.583,14.583,0,0,0,5.575.044Z" transform="translate(-289.792 -68.491)" fill="#563729"/>
          <path id="Trazado_743081" data-name="Trazado 743081" d="M365.742,80.879s-2.974,1.635-4.988,2.861a48.2,48.2,0,0,1-8.367,3.48c-2.52.823-5.141,2.643-8.022,3.66s-4.387,2.121-5.794,4.643c-.846,1.519,1.12,2.647,4.667,1.176,1.762-.731,2.1-2.453,4-3.365.769-.371,4.342-.336,8.267-2.317,2.179-1.1,10.951-5.078,12.206-6.219S365.742,80.879,365.742,80.879Z" transform="translate(-290.491 -68.403)" fill="#ffc5b3"/>
          <path id="Trazado_743082" data-name="Trazado 743082" d="M365.2,84.263l10.995-6.3a11.577,11.577,0,0,0-7.87-.549,27.48,27.48,0,0,0-5.357,2.51A10.8,10.8,0,0,1,365.2,84.263Z" transform="translate(-290.009 -68.48)" fill="#f29a51"/>
          <path id="Trazado_743083" data-name="Trazado 743083" d="M307.853,124.6s-1.489,2.122-4.314-1.191-3.633-5.186-2.268-6.217C303.14,115.781,308.268,120.221,307.853,124.6Z" transform="translate(-291.232 -67.696)" fill="#33211f"/>
          <path id="Trazado_743084" data-name="Trazado 743084" d="M336.97,123.191a115.422,115.422,0,0,0-12.351,6.725,11.783,11.783,0,0,0-3.549,3.911,5.1,5.1,0,0,1-3.037,1.8c-.9-.038-1.832-.767-3.207-1.641a17.385,17.385,0,0,1-5.114-4.62c-1.6-1.947-2.92-3.588-1.07-3.894,2.148-.355,3.98,1.168,6.108,2.062,2.368.992,4.263-.454,5.345-1.3,2.988-2.348,11.869-9.5,11.869-9.5Z" transform="translate(-291.092 -67.7)" fill="#ffc5b3"/>
          <path id="Trazado_743085" data-name="Trazado 743085" d="M308.046,121.217a35.992,35.992,0,0,0-2.612,3.085,5.1,5.1,0,0,1-3.037,1.8c-.9-.039-1.833-.768-3.207-1.642a17.349,17.349,0,0,1-5.115-4.62c-1.6-1.946-2.919-3.588-1.07-3.894,2.148-.355,3.98,1.169,6.109,2.062,2.367.993,5.344-1.3,5.344-1.3Z" transform="translate(-291.399 -67.716)" fill="#ffc5b3"/>
          <g id="Grupo_933092" data-name="Grupo 933092" transform="translate(10.04 22.476)">
            <path id="Trazado_743086" data-name="Trazado 743086" d="M354.62,90.749c-1.555-.932-20.8,8.89-29.085,13.2-7.136,3.712-24.276,13.756-24.276,13.756s2.679,0,4.761,3.27a23.263,23.263,0,0,1,1.821,4.138s12.776-6.167,16.4-8.113c1.887-1.015,12.459-7.189,14.05-7.969,4.076-2,8.109-3.5,8.109-3.5s-7.851,5.523-13.45,8.952a74.747,74.747,0,0,0-6.132,4.661,8.6,8.6,0,0,0,3.523-.49c-.9,2.367-3,6.021-3.557,7.411,1.994-.282,4.426-1.337,6.04-1.5,5.287-4.331,10.194-6.166,17.541-10.113,4.722-2.537,12.218-8.168,16.814-11.616Z" transform="translate(-301.259 -90.687)" fill="#563729"/>
            <path id="Trazado_743087" data-name="Trazado 743087" d="M364.78,102.182a106.7,106.7,0,0,1-17.495,11.725c-6.73,3.532-10.068,6.306-15.05,10.438-.372,1.421-.761,2.839-1.143,4.257,2.2-1.576,4.506-3.3,6.575-5.059,6.269-5.318,12.241-7.712,16.256-9.635a56.609,56.609,0,0,0,11.449-7.387C365.279,105.756,364.751,102.945,364.78,102.182Z" transform="translate(-300.674 -90.462)" fill="#492b1f"/>
          </g>
          <path id="Trazado_743088" data-name="Trazado 743088" d="M377.733,78.422a21.294,21.294,0,0,0-2.995-1.067c-2.673.536-5.359.318-7.071,1.21a6.276,6.276,0,0,0-2.842,2.71c-1.068,2.177-2.813,3.844-5.574,5.726a70.323,70.323,0,0,1-8.527,4.647,45.952,45.952,0,0,1,8.6,7.544,14.606,14.606,0,0,1,3,10.531,14.19,14.19,0,0,0,5.165-3.556c1.827-1.792,4.017-5.17,5.807-6.974a25.936,25.936,0,0,1,6.986-4.36c6.408-2.1,6.253-8.908,6.253-8.908l-2.215-3.194-9.015.251Z" transform="translate(-290.249 -68.472)" fill="#ffb578"/>
          <path id="Trazado_743089" data-name="Trazado 743089" d="M383.116,75.856s-2.977,3.063-6.037,3.784c-.1.024-.227.048-.362.07-.359.5-2.3,2.151-1.452,2.907,1.26,1.128,5.9.812,7.407.84.536-.585,1.731-2.3,3.206-2.948C387.25,79.912,383.116,75.856,383.116,75.856Z" transform="translate(-289.771 -68.502)" fill="#ffad97"/>
          <path id="Trazado_743090" data-name="Trazado 743090" d="M379.31,91.368s-4.393,4.651-7.006,6.837c-1.053,1.237-3.985,2.427-.764,4.891a3.124,3.124,0,0,0,3.709,0c.532-.488,3.911-2.968,4.467-3.413,1.909-1.527,5.192-3.41,6.8-7.62C386.61,91.806,379.31,91.368,379.31,91.368Z" transform="translate(-289.869 -68.198)" fill="#ffc5b3"/>
          <path id="Trazado_743091" data-name="Trazado 743091" d="M386.048,85.761c-5.812,1.2-7.774,5.264-10.105,8.407,3.342,1.058,4.274,2.94,5.339,6.109,1.918-1.715,4.06-3.221,5.262-5.426C388.377,91.491,387.675,86.768,386.048,85.761Z" transform="translate(-289.754 -68.308)" fill="#f29a51"/>
          <path id="Trazado_743092" data-name="Trazado 743092" d="M383.6,82.329l.7.975s-3.435.569-5.725.7-6.265-.814-3.835-4.047a5.866,5.866,0,0,1,2.537-1.556l1.348.678a6.374,6.374,0,0,0-2.643,2.242c-.694,1.471,1.362,1.471,3.506,1.461A24.721,24.721,0,0,0,383.6,82.329Z" transform="translate(-289.792 -68.452)" fill="#f29a51"/>
          <path id="Trazado_743093" data-name="Trazado 743093" d="M346.9,105.081a11.7,11.7,0,0,0,2.547-3.72c.877-2.167,1.26-4.062,0-4.183s-1.413,1.253-1.872,2.17-6.942,5.766-10.454,7.065-11.063,6.252-17.7,9.24c-5.5,2.473-12.791,6.41-12.791,6.41l1.105,2.924s11.806-5.976,16.4-8.113S346.9,105.081,346.9,105.081Z" transform="translate(-291.114 -68.084)" fill="#492b1f"/>
          <path id="Trazado_743094" data-name="Trazado 743094" d="M390.135,79.314c-2.794,2.339-6.515,2.493-8.314.345s-.993-5.785,1.8-8.123,6.515-2.493,8.314-.345S392.928,76.975,390.135,79.314Z" transform="translate(-289.657 -68.623)" fill="#ffc5b3"/>
          <path id="Trazado_743095" data-name="Trazado 743095" d="M297.493,117.235a8.251,8.251,0,0,0,2.171,3.237c1.412,1.105,3.965,3.231,5.783,3.846-.971,1.493-2.037,3.447-3.995,2.09a69.236,69.236,0,0,1-6.239-4.777c-2.724-2.356-4.233-3.351-3.691-5.719S297.493,117.235,297.493,117.235Z" transform="translate(-291.413 -67.732)" fill="#563729"/>
          <path id="Trazado_743096" data-name="Trazado 743096" d="M313.251,126.568a8.251,8.251,0,0,0,2.171,3.237c1.411,1.105,3.964,3.231,5.782,3.846-.971,1.493-2.037,3.446-3.995,2.09a69.225,69.225,0,0,1-6.238-4.777c-2.725-2.356-4.234-3.351-3.691-5.719S313.251,126.568,313.251,126.568Z" transform="translate(-291.103 -67.548)" fill="#563729"/>
          <path id="Trazado_743097" data-name="Trazado 743097" d="M374.263,98.045a64.423,64.423,0,0,0-6.676-7.7c-2.659-2.3-4.89-4.941-6.892-3.785-2.407,1.39-.635,3.06.427,4.219s3.805,2.132,4.513,3.548,4.985,9.107,6.7,9.509S374.263,98.045,374.263,98.045Z" transform="translate(-290.077 -68.298)" fill="#ffc5b3"/>
          <path id="Trazado_743098" data-name="Trazado 743098" d="M384.325,82.868s-14.342,2.686-17.455,3.473a17.149,17.149,0,0,0-6.675,3.464c-.939.869.654,1.907,1.539,2.538a13,13,0,0,1,3.628,3.64c.8,1.5,3.316,4.475,4,5.663a2.813,2.813,0,0,0,1.8,1.379s3.1-4.754,2.809-5.677-2.326-3.121-3.7-4.411-4.158-3.842-4.158-3.842a87.686,87.686,0,0,1,8.6-2.472c3.78-.641,10.862-1.941,10.862-1.941Z" transform="translate(-290.068 -68.364)" fill="#fff"/>
          <path id="Trazado_743099" data-name="Trazado 743099" d="M388.737,71.3a23.336,23.336,0,0,1,.026,5.534,27.9,27.9,0,0,0-.51,3.687s4.736-1.074,5.447-4.79a5.66,5.66,0,0,0-2.255-5.664,6.253,6.253,0,0,0-4.356-1.415c-2.684.147-4.535.236-4.535.236a1.612,1.612,0,0,0,.879.944,4.876,4.876,0,0,0,2.513.341,24.224,24.224,0,0,0-4.749,1.193,5.751,5.751,0,0,0,4.1,0A5.357,5.357,0,0,1,388.737,71.3Z" transform="translate(-289.651 -68.643)" fill="#563729"/>
          <path id="Trazado_743100" data-name="Trazado 743100" d="M388.345,76.993s1.534-.147,1.563.974-2.626,1.357-2.626,1.357Z" transform="translate(-289.531 -68.48)" fill="#ffc5b3"/>
          <path id="Trazado_743101" data-name="Trazado 743101" d="M382.248,72.947a9.184,9.184,0,0,1,5.134,1.066,30.308,30.308,0,0,1,5.286,3.829s.509.281,1.122-1.106a2.169,2.169,0,0,0-.006-2.181,7.193,7.193,0,0,0-3.776-3.452c-2.873-1.239-4.083-.957-4.083-.957A3.62,3.62,0,0,0,382.248,72.947Z" transform="translate(-289.63 -68.615)" fill="#fff"/>
        </g>
        <path id="Trazado_743102" data-name="Trazado 743102" d="M334.918,135.429c0-6.305,3.87-13.67,8.628-16.416l58.137-33.566c2.218-1.281,4.4-1.431,6.145-.423,2.06,1.188,3.241,3.855,3.241,7.317v10.5l-74.633,43.087h0l-1.518.877Zm48.883-37.9-16.53,9.544v19.3l16.53-9.543Zm1.518,18.425,14.836-8.566v-19.3l-14.836,8.567Zm-19.567-8-16.53,9.544v19.3l16.53-9.543Zm41.317-21.607c-1.254-.725-2.9-.575-4.627.423l-.768.444v19.3l7.877-4.547V92.34C409.551,89.438,408.647,87.25,407.069,86.339ZM347.7,137.666v-19.3l-3.4,1.962c-4.265,2.461-7.869,9.376-7.869,15.1v8.742Z" transform="translate(-286.157 -44.461)" fill="#a39088"/>
        <g id="Grupo_933095" data-name="Grupo 933095" transform="translate(47.418 99.71)">
          <g id="Grupo_933094" data-name="Grupo 933094" transform="translate(0 33.571)">
            <path id="Trazado_743103" data-name="Trazado 743103" d="M339.027,178.862a6.174,6.174,0,0,1-2.578,4.926c-1.424.822-2.579-.051-2.579-1.949a6.172,6.172,0,0,1,2.579-4.926C337.873,176.091,339.027,176.964,339.027,178.862Z" transform="translate(-333.596 -175.932)" fill="#432b1f"/>
            <path id="Trazado_743104" data-name="Trazado 743104" d="M339.985,177.881,338,176.714l-3.244,7.211,2.072,1.194Z" transform="translate(-333.579 -175.93)" fill="#432b1f"/>
            <path id="Trazado_743105" data-name="Trazado 743105" d="M341.07,180.042a6.174,6.174,0,0,1-2.578,4.926c-1.423.822-2.578-.051-2.578-1.948a6.175,6.175,0,0,1,2.578-4.926C339.916,177.271,341.07,178.144,341.07,180.042Z" transform="translate(-333.556 -175.909)" fill="#563729"/>
            <path id="Trazado_743106" data-name="Trazado 743106" d="M339.935,180.746a3.112,3.112,0,0,1-1.3,2.481c-.718.413-1.3-.027-1.3-.982a3.107,3.107,0,0,1,1.3-2.481C339.354,179.35,339.935,179.789,339.935,180.746Z" transform="translate(-333.528 -175.873)" fill="#fff"/>
            <path id="Trazado_743107" data-name="Trazado 743107" d="M335.662,177.117v4.245a16.859,16.859,0,0,0,2.17.9c1.166.383,1.638-.683,1.267-2.109a43.25,43.25,0,0,0-1.421-4.208Z" transform="translate(-333.561 -175.945)" fill="#d3c7ba"/>
            <path id="Trazado_743108" data-name="Trazado 743108" d="M335.7,177.112l-2.1-.954v4l2.1,1.195Z" transform="translate(-333.601 -175.941)" fill="#e5dbcf"/>
          </g>
          <path id="Trazado_743109" data-name="Trazado 743109" d="M333.6,176.121c0,.609.929,1.1,2.075,1.1s2.074-.495,2.074-1.1-.928-1.1-2.074-1.1S333.6,175.511,333.6,176.121Z" transform="translate(-333.601 -142.392)" fill="#f0e9df"/>
          <rect id="Rectángulo_313374" data-name="Rectángulo 313374" width="1.546" height="33.571" transform="translate(1.315)" fill="#a39088"/>
          <path id="Trazado_743110" data-name="Trazado 743110" d="M334.891,175.95c0,.227.346.412.773.412s.773-.185.773-.412-.346-.411-.773-.411S334.891,175.724,334.891,175.95Z" transform="translate(-333.576 -142.382)" fill="#a39088"/>
        </g>
        <g id="Grupo_933097" data-name="Grupo 933097" transform="translate(121.909 56.77)">
          <g id="Grupo_933096" data-name="Grupo 933096" transform="translate(0 33.571)">
            <path id="Trazado_743111" data-name="Trazado 743111" d="M412.083,136.748a6.174,6.174,0,0,1-2.578,4.926c-1.423.823-2.578-.05-2.578-1.948a6.174,6.174,0,0,1,2.578-4.926C410.929,133.978,412.083,134.851,412.083,136.748Z" transform="translate(-406.652 -133.819)" fill="#432b1f"/>
            <path id="Trazado_743112" data-name="Trazado 743112" d="M413.042,135.768l-1.989-1.167-3.244,7.211,2.072,1.194Z" transform="translate(-406.635 -133.817)" fill="#432b1f"/>
            <path id="Trazado_743113" data-name="Trazado 743113" d="M414.127,137.929a6.174,6.174,0,0,1-2.579,4.926c-1.423.822-2.578-.051-2.578-1.95a6.176,6.176,0,0,1,2.578-4.926C412.973,135.158,414.127,136.031,414.127,137.929Z" transform="translate(-406.612 -133.796)" fill="#563729"/>
            <path id="Trazado_743114" data-name="Trazado 743114" d="M412.991,138.632a3.109,3.109,0,0,1-1.3,2.481c-.717.414-1.3-.025-1.3-.981a3.109,3.109,0,0,1,1.3-2.481C412.41,137.237,412.991,137.676,412.991,138.632Z" transform="translate(-406.584 -133.76)" fill="#fff"/>
            <path id="Trazado_743115" data-name="Trazado 743115" d="M408.718,135v4.244a16.784,16.784,0,0,0,2.17.9c1.166.383,1.637-.683,1.267-2.11a43.175,43.175,0,0,0-1.421-4.207Z" transform="translate(-406.617 -133.832)" fill="#d3c7ba"/>
            <path id="Trazado_743116" data-name="Trazado 743116" d="M408.758,135l-2.1-.954v4l2.1,1.195Z" transform="translate(-406.658 -133.828)" fill="#e5dbcf"/>
          </g>
          <path id="Trazado_743117" data-name="Trazado 743117" d="M406.658,134.007c0,.61.928,1.1,2.074,1.1s2.075-.493,2.075-1.1-.929-1.1-2.075-1.1S406.658,133.4,406.658,134.007Z" transform="translate(-406.658 -100.279)" fill="#f0e9df"/>
          <rect id="Rectángulo_313375" data-name="Rectángulo 313375" width="1.546" height="33.571" transform="translate(1.315)" fill="#a39088"/>
          <path id="Trazado_743118" data-name="Trazado 743118" d="M407.947,133.837c0,.227.347.411.774.411s.773-.184.773-.411-.347-.411-.773-.411S407.947,133.609,407.947,133.837Z" transform="translate(-406.632 -100.269)" fill="#a39088"/>
        </g>
        <path id="Trazado_743119" data-name="Trazado 743119" d="M397.654,47.519s-2.007,5.107-3.538,9.816c-.493,1.515.5,2.939.352,3.332-.986.193-1,1.052-.266,1.692-.39.846-1.175,1.5-2.13,1.075-1.308-.586-3.187-1.23-3.407-2.01-.374-1.321.793-2.435,1.469-5.409.5-2.224.625-6.364,1.249-9.243C392.22,42.908,397.654,47.519,397.654,47.519Z" transform="translate(-285.104 -45.229)" fill="#ffc5b3"/>
        <path id="Trazado_743120" data-name="Trazado 743120" d="M409.655,63.275s-2.236,2.632-2.854,3.2a9.817,9.817,0,0,1-2.951,1.9,3,3,0,0,1-2.306-.75c-.348-.27-1.159-.425-1.314-.657s-1.112-.964-.885-1.564a4.327,4.327,0,0,1,.787-1.57,8.022,8.022,0,0,1,2.146-1.466c.842-.479,2.75-1.31,4-2.145C407.267,59.555,409.655,63.275,409.655,63.275Z" transform="translate(-284.893 -44.937)" fill="#ffc5b3"/>
      </g>
      <g id="Grupo_933099" data-name="Grupo 933099" transform="translate(26.202 24.844)">
        <path id="Trazado_743121" data-name="Trazado 743121" d="M322.519,47.922l1.813,8.973s1.861,3.844.885,4.349c-.992.512-4.83-2.323-6.065-3.381-2.449-2.1-2.8-3.065-2.8-3.065l1.206-6.7Z" transform="translate(-312.724 -37.203)" fill="#ffad97"/>
        <path id="Trazado_743122" data-name="Trazado 743122" d="M323.633,40.914a5.672,5.672,0,0,0-9.326.686c-3.187,4.717-.175,12.428,2.616,11.977,1.563-.252,5.084-1.676,6.626-4.195C325.285,46.549,324.894,42.52,323.633,40.914Z" transform="translate(-312.791 -37.382)" fill="#ffc5b3"/>
        <path id="Trazado_743123" data-name="Trazado 743123" d="M312.941,43.221c.613,1.068,2.108,2.279,4.727,2.518a10.429,10.429,0,0,0,3.864-.38l-.326,2.155a2.5,2.5,0,0,0,.79-.077c.326-1.079,1.295-.975,1.6-.368a4.712,4.712,0,0,1-.048,2.341,5.823,5.823,0,0,0,2.677-4.726c.073-2.046-1.544-6.548-5.274-7.158s-6.686,1.268-7.678,3.235A2.976,2.976,0,0,0,312.941,43.221Z" transform="translate(-312.793 -37.409)" fill="#432b1f"/>
      </g>
      <path id="Trazado_743124" data-name="Trazado 743124" d="M355.423,67.2a100.577,100.577,0,0,1-10.442-5.493c-1.728-1.216-5.124-4.261-6.98-5.781-.462,1.838-2.05,3.066-3.719,4.484A43.014,43.014,0,0,0,341.5,65.1a73.131,73.131,0,0,0,9.546,3.8v1.3s1-.556,1.486-.144c.384.324-.149.944-.738,1.467.311.534.511,1.016,1.779.982s1.731-.762,2.263-1.742S357.015,67.929,355.423,67.2Z" transform="translate(-286.169 -12.202)" fill="#ffc5b3"/>
      <path id="Trazado_743125" data-name="Trazado 743125" d="M307.869,66.951s.062,4.483-.318,8.141a19.783,19.783,0,0,0,.318,5.469c.244,1.255.821,1.316,1.822,1.9s7.5,3.086,10.1,3.3c.429.929.218,1.6.81,2.1.871-.509,1.343.524,1.047,1.149a1.715,1.715,0,0,0,2.508.444c1.3-.98,1.508-1.6,1.722-3.34.109-.881-.889-1.213-2.046-1.887a47.014,47.014,0,0,0-5.516-2.772,28.267,28.267,0,0,1-5.266-3.106s1.786-6.066.606-10.875C313.305,66.072,307.869,66.951,307.869,66.951Z" transform="translate(-286.695 -11.991)" fill="#ffc5b3"/>
      <path id="Trazado_743126" data-name="Trazado 743126" d="M310.879,58.323a8.374,8.374,0,0,0-3.762,5.406,42.858,42.858,0,0,0-.485,8.837s5.3,1.094,9.2,0C315.861,68.845,314.813,60.091,310.879,58.323Z" transform="translate(-286.713 -12.155)" fill="#39b4c6"/>
      <path id="Trazado_743127" data-name="Trazado 743127" d="M313.973,54.6a53.126,53.126,0,0,0,3.976,3.884c2.389,2.037,8.626,4.839,8.626,4.839s.459-4.775-.367-7.283-2.057-5.979-2.057-5.979l-1.247.284a32.229,32.229,0,0,0,.888,4.676A17.439,17.439,0,0,1,325,60.7c-2.035-1.239-3.415-1.951-5.509-3.274a8.509,8.509,0,0,1-2.808-2.6s.151-.922.222-1.473a1.58,1.58,0,0,1-1.329-.363Z" transform="translate(-286.568 -12.317)" fill="#39b4c6"/>
    </g>
  </g>
</svg>
