<svg xmlns="http://www.w3.org/2000/svg" width="323.922" height="283.419" viewBox="0 0 323.922 283.419">
  <g id="Grupo_933257" data-name="Grupo 933257" transform="translate(-205.078 -3483.201)">
    <g id="Grupo_932967" data-name="Grupo 932967" transform="translate(198.528 3431.581)">
      <g id="Floor" transform="translate(6.549 167.453)">
        <ellipse id="Floor-2" data-name="Floor" cx="161.961" cy="83.793" rx="161.961" ry="83.793" transform="translate(0)" fill="#f5f5f5"/>
      </g>
      <g id="Shadows" transform="translate(15.118 210.612)">
        <ellipse id="Shadow" cx="41.257" cy="23.82" rx="41.257" ry="23.82" transform="translate(0 9.804)" fill="#e0e0e0"/>
        <ellipse id="Shadow-2" data-name="Shadow" cx="41.257" cy="23.82" rx="41.257" ry="23.82" transform="translate(226.252 9.804)" fill="#e0e0e0"/>
        <path id="Shadow-3" data-name="Shadow" d="M229.177,396.017c-10.833,0-44.072-4.452-77.68-18.211l-.3-.124a92.874,92.874,0,0,1-14.625-6.738c-16.318-9.421-25.305-22.132-25.305-35.793s8.989-26.372,25.308-35.793c15.787-9.114,36.712-14.134,58.919-14.134s43.131,5.02,58.918,14.134a67.366,67.366,0,0,1,12.047,8.744c24.866,20.274,32.431,40.3,32.2,46.821-.347,9.662-8.768,19.952-23.1,28.229-13.638,7.874-30.823,12.683-45.971,12.864Z" transform="translate(-23.572 -285.224)" fill="#e0e0e0"/>
      </g>
      <g id="Character_2" data-name="Character 2" transform="translate(229.281 55.725)">
        <g id="Character" transform="translate(0 0)">
          <g id="Bottom" transform="translate(23.873 68.711)">
            <g id="Grupo_932878" data-name="Grupo 932878" transform="translate(0 83.895)">
              <path id="Trazado_742615" data-name="Trazado 742615" d="M363.029,333.221a1.967,1.967,0,0,0,.566,2.064,10.729,10.729,0,0,0,7.63,1.751,12.871,12.871,0,0,0,7.033-2.9c1.438-1.229,3.453-2.961,5.1-3.348a11.864,11.864,0,0,0,4.064-2.094c.482-.475.375-2.549.375-2.549Z" transform="translate(-362.813 -318.184)" fill="#263238"/>
              <path id="Trazado_742616" data-name="Trazado 742616" d="M386.152,312.83a.585.585,0,0,1,.561.476c.123.57.275,2.23.534,3.165a16.541,16.541,0,0,1,.452,5.035c-.181,1.066-3.07,2.394-4.655,3.021a20.351,20.351,0,0,0-5.115,3.308,14.719,14.719,0,0,1-7.647,2.956c-2.815.028-6-.814-6.749-2.086-.928-1.574-1.617-3.41,2.52-5.385.783-.374,3.527-2.039,4.462-2.641,2.528-1.63,4.3-3.116,5.425-5.942a1.563,1.563,0,0,1,.584-.868,1.344,1.344,0,0,1,.809-.086,27.773,27.773,0,0,1,4.116.7c.565.254,1.365.545,1.366,1.252a2.339,2.339,0,0,1-.144.72c-.047.145-.083.337.047.42s.281-.016.389-.114a10.676,10.676,0,0,0,1.1-1.348,11.938,11.938,0,0,1,1.052-1.22,7.206,7.206,0,0,0,.705-.468C386.213,313.469,386.147,313.161,386.152,312.83Z" transform="translate(-362.775 -312.83)" fill="#455a64"/>
              <path id="Trazado_742617" data-name="Trazado 742617" d="M377.893,334.6c.717-.6,1.479-1.188,2.245-1.712v0s-4.852,3.022-6.859,1.723a1.735,1.735,0,0,1-.681-2.225c.025-.334-4.528-2.61-5.772-2.734h0c-.342.194-.625.36-.809.437-3.234,1.339-3.637,3-3.056,5.07.75,1.272,3.6,2.55,7.237,2.487A15.128,15.128,0,0,0,377.893,334.6Z" transform="translate(-362.739 -319.591)" fill="#37474f"/>
              <path id="Trazado_742618" data-name="Trazado 742618" d="M378.692,324.638c-2.575,1.066-1.46,1.524-.731,1.613s5.048-2.5,7.673-4.618c2.738-2.212,4.849-5.155,5.866-5.967.379-.3.786-.674,1.149-1.021-.079-.561-.144-1.072-.2-1.34a.585.585,0,0,0-.561-.476c-.005.331.061.639-.188.892a7.2,7.2,0,0,1-.705.468,11.915,11.915,0,0,0-1.052,1.22,10.625,10.625,0,0,1-1.1,1.348A33.638,33.638,0,0,1,378.692,324.638Z" transform="translate(-368.507 -312.83)" fill="#37474f"/>
              <g id="Grupo_932877" data-name="Grupo 932877" transform="translate(3.434 4.137)">
                <g id="Grupo_932872" data-name="Grupo 932872" transform="translate(0 5.805)">
                  <path id="Trazado_742619" data-name="Trazado 742619" d="M374.679,332.56a.256.256,0,0,0,.162-.06.25.25,0,0,0,.029-.356c-.749-.87-4.258-2.9-6.163-2.666a.253.253,0,1,0,.064.5c1.779-.219,5.114,1.8,5.707,2.491A.257.257,0,0,0,374.679,332.56Z" transform="translate(-368.482 -329.458)" fill="#263238"/>
                </g>
                <g id="Grupo_932873" data-name="Grupo 932873" transform="translate(2.238 4.395)">
                  <path id="Trazado_742620" data-name="Trazado 742620" d="M378.422,330.2a.258.258,0,0,0,.161-.06.25.25,0,0,0,.029-.356c-.748-.869-4.256-2.9-6.163-2.665a.253.253,0,1,0,.064.5c1.78-.217,5.114,1.8,5.708,2.491A.256.256,0,0,0,378.422,330.2Z" transform="translate(-372.225 -327.101)" fill="#263238"/>
                </g>
                <g id="Grupo_932874" data-name="Grupo 932874" transform="translate(4.477 3.057)">
                  <path id="Trazado_742621" data-name="Trazado 742621" d="M382.168,327.964a.259.259,0,0,0,.161-.06.25.25,0,0,0,.029-.356c-.749-.87-4.258-2.907-6.163-2.665a.253.253,0,1,0,.064.5c1.78-.219,5.114,1.8,5.708,2.491A.256.256,0,0,0,382.168,327.964Z" transform="translate(-375.971 -324.862)" fill="#263238"/>
                </g>
                <g id="Grupo_932875" data-name="Grupo 932875" transform="translate(6.547 1.537)">
                  <path id="Trazado_742622" data-name="Trazado 742622" d="M385.63,325.421a.256.256,0,0,0,.161-.06.25.25,0,0,0,.029-.356c-.748-.87-4.265-2.9-6.163-2.665a.253.253,0,1,0,.064.5c1.778-.217,5.114,1.8,5.707,2.491A.255.255,0,0,0,385.63,325.421Z" transform="translate(-379.433 -322.321)" fill="#263238"/>
                </g>
                <g id="Grupo_932876" data-name="Grupo 932876" transform="translate(8.139)">
                  <path id="Trazado_742623" data-name="Trazado 742623" d="M388.728,322.869a.254.254,0,0,0,.158-.058.25.25,0,0,0,.035-.356c-1.029-1.234-4.7-2.922-6.6-2.683a.254.254,0,0,0-.222.282.257.257,0,0,0,.287.219c1.715-.213,5.226,1.409,6.14,2.5A.257.257,0,0,0,388.728,322.869Z" transform="translate(-382.096 -319.749)" fill="#263238"/>
                </g>
              </g>
            </g>
            <g id="Grupo_932885" data-name="Grupo 932885" transform="translate(41.149 86.482)">
              <path id="Trazado_742624" data-name="Trazado 742624" d="M433.861,347.811a10.328,10.328,0,0,0,1.949,5.627c1.113,1.392,3.094,1.63,5.057.942s4.444-2.189,4.9-4.494a12.627,12.627,0,0,0-.3-6.172Z" transform="translate(-432.489 -327.836)" fill="#263238"/>
              <path id="Trazado_742625" data-name="Trazado 742625" d="M440.723,317.157c.82-.044.6,1.981.985,5.448.419,3.75,2.109,6.689,2.711,9.7.687,3.436.557,5.024-.724,7.309s-6.077,4.96-8.641,2.226c-2.089-2.229-2.3-4.957-2.3-8.473a78.585,78.585,0,0,0-.255-8.915c-.288-2.6-1.379-5-.683-5.38.074.378.77,3.011,1.229,2.969a4.765,4.765,0,0,0-.039-.988,1.122,1.122,0,0,1,.182-.872,3.812,3.812,0,0,1,1.319-.67c.8-.24,2.222-.537,3.036-.7.405-.082.813-.149,1.222-.2a3.6,3.6,0,0,1,1.042,0,.636.636,0,0,1,.46.3.983.983,0,0,1,.062.394,2.5,2.5,0,0,0,.138.706c.035.1.121.216.237.177a.22.22,0,0,0,.123-.228C440.812,319.538,440.751,317.378,440.723,317.157Z" transform="translate(-431.576 -317.156)" fill="#455a64"/>
              <path id="Trazado_742626" data-name="Trazado 742626" d="M444.969,340.861c.1.5.75,3.778-.247,4.505-1.08.789-1.819-1.764-1.819-1.764a11.462,11.462,0,0,0-6.367,1.548c.221.518-.277,2.378-1.337,2.128s-1.65-4.031-1.657-4.08c.007,3.369.268,6.007,2.3,8.17,2.564,2.734,7.361.06,8.641-2.226s1.411-3.873.723-7.309C445.134,341.49,445.055,341.169,444.969,340.861Z" transform="translate(-432.361 -326.689)" fill="#37474f"/>
              <path id="Trazado_742627" data-name="Trazado 742627" d="M447.973,334.331c.079,1.262,1.468.663,1.441-1.13s-.967-6.148-1.323-9.081c-.238-4.218-.406-7.006-1.226-6.963.005.042.006.086.011.128,0,0,.085,2.4.1,2.677.147,2.577.181,7.584.547,9.912A36.267,36.267,0,0,1,447.973,334.331Z" transform="translate(-437.718 -317.156)" fill="#37474f"/>
              <path id="Trazado_742628" data-name="Trazado 742628" d="M436.18,336.814a35.689,35.689,0,0,1-1-4.342c-.4-2.3-1.776-6.915-2.459-9.4-.221-.407-.915-2.724-.915-2.724-.567.16,0,2.37.265,3.4s.59,2.142.922,3.625c.848,2.924.93,7.312,1.476,9S436.509,338.024,436.18,336.814Z" transform="translate(-431.566 -318.441)" fill="#37474f"/>
              <g id="Grupo_932884" data-name="Grupo 932884" transform="translate(1.661 5.927)">
                <g id="Grupo_932879" data-name="Grupo 932879" transform="translate(2.092 10.659)">
                  <path id="Trazado_742629" data-name="Trazado 742629" d="M438.191,346.886a.373.373,0,0,0,.109-.042,11.22,11.22,0,0,1,6.267-1.349.335.335,0,0,0,.361-.236.247.247,0,0,0-.231-.3,11.742,11.742,0,0,0-6.7,1.446.266.266,0,0,0-.109.377A.294.294,0,0,0,438.191,346.886Z" transform="translate(-437.844 -344.898)" fill="#263238"/>
                </g>
                <g id="Grupo_932880" data-name="Grupo 932880" transform="translate(1.275 7.863)">
                  <path id="Trazado_742630" data-name="Trazado 742630" d="M436.824,342.344a.37.37,0,0,0,.1-.037,13.891,13.891,0,0,1,7.018-1.508.337.337,0,0,0,.354-.246.25.25,0,0,0-.243-.295,14.381,14.381,0,0,0-7.413,1.6.271.271,0,0,0-.126.376A.293.293,0,0,0,436.824,342.344Z" transform="translate(-436.477 -340.222)" fill="#263238"/>
                </g>
                <g id="Grupo_932881" data-name="Grupo 932881" transform="translate(0.896 5.203)">
                  <path id="Trazado_742631" data-name="Trazado 742631" d="M443.36,336.427a.331.331,0,0,0,.248-.212.245.245,0,0,0-.206-.318A12.057,12.057,0,0,0,436,337.43a.266.266,0,0,0-.11.377.317.317,0,0,0,.414.064,11.541,11.541,0,0,1,6.932-1.44A.343.343,0,0,0,443.36,336.427Z" transform="translate(-435.844 -335.772)" fill="#263238"/>
                </g>
                <g id="Grupo_932882" data-name="Grupo 932882" transform="translate(0.436 2.728)">
                  <path id="Trazado_742632" data-name="Trazado 742632" d="M442.719,332.329a.329.329,0,0,0,.246-.207.244.244,0,0,0-.2-.322,10.87,10.87,0,0,0-7.557,1.531.262.262,0,0,0-.084.381.318.318,0,0,0,.421.039,10.354,10.354,0,0,1,7.04-1.42A.334.334,0,0,0,442.719,332.329Z" transform="translate(-435.074 -331.633)" fill="#263238"/>
                </g>
                <g id="Grupo_932883" data-name="Grupo 932883">
                  <path id="Trazado_742633" data-name="Trazado 742633" d="M442.042,327.762a.332.332,0,0,0,.245-.2.244.244,0,0,0-.194-.324c-3.838-.79-7.456,1.513-7.607,1.612a.263.263,0,0,0-.094.379.312.312,0,0,0,.419.048c.035-.022,3.53-2.246,7.094-1.511A.335.335,0,0,0,442.042,327.762Z" transform="translate(-434.345 -327.07)" fill="#263238"/>
                </g>
              </g>
            </g>
            <g id="Grupo_932886" data-name="Grupo 932886" transform="translate(11.042)">
              <path id="Trazado_742634" data-name="Trazado 742634" d="M416.12,172.5c1.556,20.341,2.241,50.69,2.241,50.69a105.886,105.886,0,0,1,1.735,11.326c.756,8.038,1.641,27.008,1.641,27.008s-3.575,3.994-10.406,2.128c0,0-6.666-24.635-8.861-34.1-2.078-8.959-3.006-23.768-3.006-23.768L397,219.281s.31,5.8.165,9.857c-.169,4.721-2.521,30.367-2.521,30.367a13.519,13.519,0,0,1-11.924-.847s-1.117-33.076-1.26-38.753c-.28-11.136-.6-33.037.718-47.4Z" transform="translate(-381.208 -172.502)" fill="#37474f"/>
              <path id="Trazado_742635" data-name="Trazado 742635" d="M405.04,216.213l-2.22-14.469s-5.115-.78-7.744-3.309a10.391,10.391,0,0,0,6.527,4.647l2.2,13.169-1.235,13.459Z" transform="translate(-386.785 -182.931)" fill="#263238"/>
            </g>
            <g id="Grupo_932887" data-name="Grupo 932887" transform="translate(39.354 31.773)">
              <path id="Trazado_742636" data-name="Trazado 742636" d="M436.963,225.648s.588,14.314.548,15.356-7.822,3.1-8.023,2.441c-.336-1.1-.252-3.563-.924-15.421C435.015,227.19,436.963,225.648,436.963,225.648Z" transform="translate(-428.564 -225.648)" fill="#455a64"/>
              <path id="Trazado_742637" data-name="Trazado 742637" d="M430.57,235.342a2.5,2.5,0,0,1,.734-.061c.286-.007.57-.019.855-.043a13.368,13.368,0,0,0,1.792-.275,14.234,14.234,0,0,0,1.965-.6c.521-.2,1.015-.47,1.537-.665.049-.018.057.077.025.1a7.529,7.529,0,0,1-1.644.836,12.29,12.29,0,0,1-1.624.523,13.235,13.235,0,0,1-1.788.318q-.451.048-.9.066a1.973,1.973,0,0,1-.952-.068C430.527,235.452,430.522,235.358,430.57,235.342Z" transform="translate(-429.357 -228.885)" fill="#37474f"/>
              <path id="Trazado_742638" data-name="Trazado 742638" d="M436.113,233.3a.387.387,0,0,0,.135.326.534.534,0,0,0,.557.01.54.54,0,0,0,.278-.538.47.47,0,0,0-.193-.325.561.561,0,0,0-.392-.1c-.168.02-.225.111-.3.258A.818.818,0,0,0,436.113,233.3Zm.322-.326a.3.3,0,0,1,.218-.057c.243.026.284.411.085.525a.279.279,0,1,1-.3-.468Z" transform="translate(-431.6 -228.47)" fill="#37474f"/>
            </g>
          </g>
          <g id="Top">
            <g id="Grupo_932890" data-name="Grupo 932890" transform="translate(0 31.111)">
              <g id="Grupo_932889" data-name="Grupo 932889">
                <g id="Grupo_932888" data-name="Grupo 932888">
                  <path id="Trazado_742639" data-name="Trazado 742639" d="M331.26,127.156c1.236,1.013,2.509,2.579,4.614,4.378s5.29,4.941,8.367,6.846,4.6,2.685,8.555-1.253a107.591,107.591,0,0,0,10-12.053l3.2-14.922c-3.864.438-6.218,2.134-9.3,6.012-4.327,5.445-9.8,12.5-9.8,12.5s-9.047-5.571-10.22-6.449a4.885,4.885,0,0,1-1.816-2.653,22.76,22.76,0,0,0-.874-2.617c-.349-.91-.483-1.254-.888-2.394s-.682-3.05-.808-3.473c-.253-.482-.962-.457-1.593.689a4.593,4.593,0,0,0-.323,2.284c.019.694.208,1.542-.005,1.649a13.343,13.343,0,0,1-2.172-.683,5.3,5.3,0,0,0-2.958-.41,1.3,1.3,0,0,0-.942,1.7,1.682,1.682,0,0,0,.569.68,1.4,1.4,0,0,0-1.065.3,1.518,1.518,0,0,0-.075,1.922.862.862,0,0,0-.861.736c-.134.646-.08,1.293.564,1.565,0,0-.54.112-.582.425a1.543,1.543,0,0,0,.466,1.444,5.025,5.025,0,0,0,1.849.488s.091.236.7.573a15.584,15.584,0,0,0,2.04,1.17A13.153,13.153,0,0,1,331.26,127.156Z" transform="translate(-322.807 -109.828)" fill="#ffbda7"/>
                  <path id="Trazado_742640" data-name="Trazado 742640" d="M363.1,140.655a7.243,7.243,0,0,1,3.019,4.847,5.589,5.589,0,0,0-2.478-5.541Z" transform="translate(-339.012 -121.816)" fill="#f0997a"/>
                  <path id="Trazado_742641" data-name="Trazado 742641" d="M384.37,109.61c-3.1.173-4.951.9-6.856,2.8-1.374,1.374-3.646,3.982-6.094,7.056-1.635,2.053-3.906,4.978-3.906,4.978s-.186,5.629,6.861,8.784l6.635-8.2Z" transform="translate(-340.786 -109.61)" fill="#37474f"/>
                  <path id="Trazado_742642" data-name="Trazado 742642" d="M327.386,125.991a.556.556,0,0,1-.145.47,4.479,4.479,0,0,1-.478.449,2.593,2.593,0,0,1-.255.2,1.09,1.09,0,0,1-.277.135l-.648.216a2.7,2.7,0,0,0,.7-.036.884.884,0,0,0,.349-.129,2.726,2.726,0,0,0,.292-.205,2.92,2.92,0,0,0,.474-.528.755.755,0,0,0,.109-.361.472.472,0,0,0-.072-.225,3.126,3.126,0,0,0,.527-.182,1.729,1.729,0,0,0,.739-.485,1.305,1.305,0,0,0,.16-.423.516.516,0,0,0,.005-.145l.209-.288a3.821,3.821,0,0,0,.884,1.584,4.568,4.568,0,0,0,1.817,1.263,3.952,3.952,0,0,1-1.749-4.95.278.278,0,0,0,.047-.014.621.621,0,0,0,.217-.252.836.836,0,0,0,.04-.609,1.719,1.719,0,0,0-.26-.512,3.213,3.213,0,0,0-1.837-1.122,1.539,1.539,0,0,0-.26-.4,2.4,2.4,0,0,0-.367-.341,3.05,3.05,0,0,1,.324.375,1.435,1.435,0,0,1,.221.424l.007.026.029.01a3.325,3.325,0,0,1,1.709,1.154.915.915,0,0,1,.188.889c-.088.154-.148.2-.317.167s-.345-.069-.524-.1c-.365-.063-.725-.078-1.073-.131a4.219,4.219,0,0,1-1.007-.292c-.326-.138-.638-.314-.954-.484a7.4,7.4,0,0,1-.92-.557,8.743,8.743,0,0,0,1.8,1.2,3.6,3.6,0,0,0,1.046.344c.362.062.723.083,1.066.149.071.013.139.029.209.044a.668.668,0,0,1,.221.426.735.735,0,0,1-.388.7,4.421,4.421,0,0,1-.8.424,2.485,2.485,0,0,1-.858.176,6.184,6.184,0,0,1-1.707-.578c-.573-.233-1.147-.464-1.734-.668.543.3,1.1.572,1.657.842.277.138.559.264.846.389a2.733,2.733,0,0,0,.93.254,2.772,2.772,0,0,0,.59-.1.879.879,0,0,1,.473.322.409.409,0,0,1,.066.344,1.177,1.177,0,0,1-.161.348,1.844,1.844,0,0,1-.674.389,1.732,1.732,0,0,1-.757.176,3.09,3.09,0,0,1-.764-.253,5.109,5.109,0,0,0-.831-.2c-.555-.094-1.111-.169-1.672-.214.543.143,1.091.265,1.633.4a8.019,8.019,0,0,1,.794.224,3.062,3.062,0,0,0,.82.286A1.194,1.194,0,0,0,327.386,125.991Zm2.148-3.629s-.008-.011-.013-.016h0Z" transform="translate(-323.227 -113.427)" fill="#f0997a"/>
                </g>
              </g>
            </g>
            <g id="Chest" transform="translate(35.833 30.95)">
              <path id="Trazado_742643" data-name="Trazado 742643" d="M397.611,109.342s11.781.653,14.717,1.991c1.343.612,4.284,4.107,3.676,12.509-.244,3.38-1.608,10.282-1.637,12.813-.041,3.584,3.127,15.22,3.127,15.22-11.054,6.8-30.6,4.709-34.559,1.07,0,0,1.343-15.037,1.764-22.767,0,0-2.118-3.568-1.945-5.969.255-3.524.987-4.775,4.212-8.716a66.17,66.17,0,0,1,5.514-6.019Z" transform="translate(-382.744 -109.342)" fill="#455a64"/>
            </g>
            <g id="Grupo_932898" data-name="Grupo 932898" transform="translate(40.913 1.044)">
              <path id="Trazado_742644" data-name="Trazado 742644" d="M411.618,64.956c3.8.421,4.719,6.633,3.817,10.137-1.74,6.759-6.3,7.549-6.478,10.435l-6.829-4.006-5.313-3.117a14.468,14.468,0,0,1-4.09-3.136,6.926,6.926,0,0,1-.888-1.314,6.347,6.347,0,0,1-.58-3.246,12.261,12.261,0,0,1,5.15-8.676c2.15-1.633,5.415-3.193,8.2-2.577C407.592,60.113,410.711,61.829,411.618,64.956Z" transform="translate(-391.24 -59.319)" fill="#263238"/>
              <path id="Trazado_742645" data-name="Trazado 742645" d="M422.515,97.157a2.406,2.406,0,0,1,0,1.545,3.52,3.52,0,0,0,2.377-2.519,3.624,3.624,0,0,0,2.439-.683,3.308,3.308,0,0,0,1.1-2.122c.1-.473-.133-1.881-.752-2.011a1.59,1.59,0,0,0,1.852-2,.793.793,0,0,1-1.083.454,1.465,1.465,0,0,1-.752-1.054c-.1-.436-.086-.89-.145-1.334-.536-4.028-5.682-4.242-8.72-3.578a7.839,7.839,0,0,0-2.14.74,6.261,6.261,0,0,0-1.706,1.431,9.037,9.037,0,0,0-1.089,9.614,5.042,5.042,0,0,0,3.3,3.016,5.668,5.668,0,0,0,4.178-.542,1.969,1.969,0,0,0,.854-1.519A2.3,2.3,0,0,1,422.515,97.157Z" transform="translate(-399.99 -69.068)" fill="#263238"/>
              <g id="Grupo_932897" data-name="Grupo 932897" transform="translate(0.945 7.078)">
                <path id="Trazado_742646" data-name="Trazado 742646" d="M409.431,92.995l.379-6.267a2.739,2.739,0,0,0,3.366-.671c1.872-1.941,2.057-4.059,1.035-5.418-1.129-1.5-3.625-.933-4.706.9-1.63.39-2.291-1.939-1.054-4.327,0,0-7.893.538-11.552-5.464a1.978,1.978,0,0,0-3.187.5,9.64,9.64,0,0,0-.528,5.391c.136,1.119-.4,2.454-.362,3.964.166,5.961,1.524,7.88,3.156,8.885a9.049,9.049,0,0,0,4.434.983l-.088,1.2-.06.812-.959.554c-.6.033-1.131.066-1.131.066s-3.517,5.2,2.488,5.858,10.662-3.186,12.533-4.8c0,0-.5-.085-1.886-.289S409.546,94.165,409.431,92.995Z" transform="translate(-392.821 -71.158)" fill="#ffbda7"/>
                <g id="Grupo_932896" data-name="Grupo 932896" transform="translate(1.369 3.605)">
                  <g id="Grupo_932891" data-name="Grupo 932891" transform="translate(4.818 9.793)">
                    <path id="Trazado_742647" data-name="Trazado 742647" d="M406.407,93.569l-3.238,1.047a1.672,1.672,0,0,0,2.113,1.154A1.781,1.781,0,0,0,406.407,93.569Z" transform="translate(-403.169 -93.569)" fill="#b16668"/>
                    <path id="Trazado_742648" data-name="Trazado 742648" d="M406.99,94.824a1.873,1.873,0,0,0-1.866,1.467,1.621,1.621,0,0,0,.944-.016,1.749,1.749,0,0,0,1.173-1.42A1.92,1.92,0,0,0,406.99,94.824Z" transform="translate(-403.955 -94.073)" fill="#f28f8f"/>
                  </g>
                  <g id="Grupo_932892" data-name="Grupo 932892">
                    <path id="Trazado_742649" data-name="Trazado 742649" d="M395.2,78.866l2.145-.957a1.128,1.128,0,0,0-1.515-.621A1.234,1.234,0,0,0,395.2,78.866Z" transform="translate(-395.11 -77.189)" fill="#263238"/>
                    <path id="Trazado_742650" data-name="Trazado 742650" d="M397.9,82.454a1.007,1.007,0,0,1-.9,1.071.943.943,0,0,1-1.053-.86,1.007,1.007,0,0,1,.9-1.071A.944.944,0,0,1,397.9,82.454Z" transform="translate(-395.445 -78.958)" fill="#263238"/>
                  </g>
                  <g id="Grupo_932893" data-name="Grupo 932893" transform="translate(7.909 0.759)">
                    <path id="Trazado_742651" data-name="Trazado 742651" d="M411.018,80.243l-2.09-1.137a1.142,1.142,0,0,1,1.578-.506A1.25,1.25,0,0,1,411.018,80.243Z" transform="translate(-408.576 -78.459)" fill="#263238"/>
                    <path id="Trazado_742652" data-name="Trazado 742652" d="M410.294,82.8a1.007,1.007,0,0,1-.9,1.071.944.944,0,0,1-1.053-.861,1.007,1.007,0,0,1,.9-1.071A.944.944,0,0,1,410.294,82.8Z" transform="translate(-408.34 -79.858)" fill="#263238"/>
                  </g>
                  <g id="Grupo_932894" data-name="Grupo 932894" transform="translate(2.173 1.729)">
                    <path id="Trazado_742653" data-name="Trazado 742653" d="M402.707,80.081l-.7,6.7-3.265-1.728Z" transform="translate(-398.746 -80.081)" fill="#f0997a"/>
                  </g>
                  <g id="Grupo_932895" data-name="Grupo 932895" transform="translate(6.136 12.611)">
                    <path id="Trazado_742654" data-name="Trazado 742654" d="M405.461,102.375c4.318.07,7.074-1.489,8.241-4.093a6.429,6.429,0,0,1-2.123,3.761c-1.962,1.477-6.206,1.534-6.206,1.534Z" transform="translate(-405.373 -98.282)" fill="#f0997a"/>
                  </g>
                </g>
              </g>
            </g>
            <g id="Grupo_932902" data-name="Grupo 932902" transform="translate(32.628 30.445)">
              <g id="Grupo_932900" data-name="Grupo 932900">
                <path id="Trazado_742655" data-name="Trazado 742655" d="M394.057,108.5a26.856,26.856,0,0,0-4.152,4.915c-3.427,4.867-5.776,10.571-6.235,15.315-.627,6.481-.8,33.291-.8,33.291s-3.75.008-5.488-1.255c1.016-14.865,2.054-29.424,2.782-36.87a19.529,19.529,0,0,1,2.217-7.147,24.3,24.3,0,0,1,5.956-7.583Z" transform="translate(-377.383 -108.496)" fill="#fd9927"/>
                <g id="Grupo_932899" data-name="Grupo 932899" transform="translate(0.606 33.289)">
                  <path id="Trazado_742656" data-name="Trazado 742656" d="M379.333,166.5a44.038,44.038,0,0,0,4.533.966c.014-.766.029-1.533.045-2.3a41.661,41.661,0,0,1-4.41-.989Q379.417,165.32,379.333,166.5Z" transform="translate(-378.773 -164.177)" fill="#fafafa"/>
                  <path id="Trazado_742657" data-name="Trazado 742657" d="M383.4,178.486a41.856,41.856,0,0,1-4.838-1.129q-.081,1.152-.163,2.323a43.87,43.87,0,0,0,4.97,1.1C383.376,180.042,383.387,179.274,383.4,178.486Z" transform="translate(-378.397 -169.477)" fill="#fafafa"/>
                </g>
              </g>
              <g id="Grupo_932901" data-name="Grupo 932901" transform="translate(23.988 0.496)">
                <path id="Trazado_742658" data-name="Trazado 742658" d="M419.6,109.326c.777.917-.038,2.852-.567,5.183a66.917,66.917,0,0,0-1.526,13.512c-.132,10.928,3.259,35.163,3.259,35.163s7.863-.117,12.784-3.573c.03-2.625-2.2-11.857-3.3-15.688a28.623,28.623,0,0,1-.1-14.766c1.431-6.077.4-13.642-2.424-17.887Z" transform="translate(-417.507 -109.326)" fill="#fd9927"/>
                <path id="Trazado_742659" data-name="Trazado 742659" d="M421,182a31.7,31.7,0,0,0,12.5-3.259c-.16-.705-.312-1.4-.493-2.115a39.376,39.376,0,0,1-12.276,3.153C420.824,180.545,420.913,181.289,421,182Z" transform="translate(-418.805 -136.391)" fill="#fafafa"/>
                <path id="Trazado_742660" data-name="Trazado 742660" d="M430.921,166c-.163-.567-.31-1.16-.439-1.773a41.862,41.862,0,0,1-11.305,2.01q.113,1.141.231,2.271a44.1,44.1,0,0,0,11.638-2.068C431,166.288,430.961,166.14,430.921,166Z" transform="translate(-418.178 -131.405)" fill="#fafafa"/>
              </g>
            </g>
            <g id="Grupo_932903" data-name="Grupo 932903" transform="translate(37.602)">
              <path id="Trazado_742661" data-name="Trazado 742661" d="M416.4,73.092a12.567,12.567,0,0,1-1.131,3.43,12.916,12.916,0,0,0-.788-1.037,21.116,21.116,0,0,0-5.759-4.682l-.01,0c-5.045-2.869-11.4-4.208-16.647-3.194a12.068,12.068,0,0,1,1.19-2.864,12.482,12.482,0,0,1,23.144,8.35Z" transform="translate(-388.261 -57.913)" fill="#feca2e"/>
              <path id="Trazado_742662" data-name="Trazado 742662" d="M414.874,60.148c-.6-.352-3.66-1.541-3.9-1.637a7.457,7.457,0,0,0-7.057,1.19,12.685,12.685,0,0,0-4.74,6.443l3.249,1.312,1.056.187c.588-2.416,4.244-7.438,8.795-7.272a4.283,4.283,0,0,1,.641.06,5.949,5.949,0,0,1,1.727.5,17.093,17.093,0,0,1,1.647,1.552A2.793,2.793,0,0,0,414.874,60.148Z" transform="translate(-391.12 -57.779)" fill="#feca2e"/>
              <path id="Trazado_742663" data-name="Trazado 742663" d="M414.874,60.148c-.6-.352-3.66-1.541-3.9-1.637a7.457,7.457,0,0,0-7.057,1.19,12.685,12.685,0,0,0-4.74,6.443l3.249,1.312,1.056.187c.588-2.416,4.244-7.438,8.795-7.272a4.283,4.283,0,0,1,.641.06,5.949,5.949,0,0,1,1.727.5,17.093,17.093,0,0,1,1.647,1.552A2.793,2.793,0,0,0,414.874,60.148Z" transform="translate(-391.12 -58.086)" fill="#fff" opacity="0.45"/>
              <path id="Trazado_742664" data-name="Trazado 742664" d="M405.663,68.53c.691-2.811,5.578-9.214,11.161-6.721a17.078,17.078,0,0,1,1.654,1.552,2.814,2.814,0,0,0-1.417-2.33c-1.44-.836-4.409-1.431-7.716.872a12.652,12.652,0,0,0-4.734,6.44Z" transform="translate(-393.307 -58.664)" fill="#feca2e"/>
              <path id="Trazado_742665" data-name="Trazado 742665" d="M405.663,68.53c.691-2.811,5.578-9.214,11.161-6.721a17.078,17.078,0,0,1,1.654,1.552,2.814,2.814,0,0,0-1.417-2.33c-1.44-.836-4.409-1.431-7.716.872a12.652,12.652,0,0,0-4.734,6.44Z" transform="translate(-393.307 -58.664)" opacity="0.3"/>
              <path id="Trazado_742666" data-name="Trazado 742666" d="M406.325,72.378a13.976,13.976,0,0,0-5.147-5.366c-2.445-1.568-7.675-2.054-10.026-2.2-4.117-.262-5.168.534-5.268,1.135-.023.142-.134.8-.166.953a.588.588,0,0,0,.055.4c.542.982,3.734,2.862,3.734,2.862,5.252-1.013,11.6.325,16.647,3.194Z" transform="translate(-385.704 -60.462)" fill="#feca2e"/>
              <path id="Trazado_742667" data-name="Trazado 742667" d="M406.325,72.378a13.976,13.976,0,0,0-5.147-5.366c-2.445-1.568-7.675-2.054-10.026-2.2-4.117-.262-5.168.534-5.268,1.135-.023.142-.134.8-.166.953a.588.588,0,0,0,.055.4c.542.982,3.734,2.862,3.734,2.862,5.252-1.013,11.6.325,16.647,3.194Z" transform="translate(-385.704 -60.462)" opacity="0.15"/>
              <path id="Trazado_742668" data-name="Trazado 742668" d="M406.152,74c-5.045-2.869-11.395-4.208-16.647-3.194,0,0-3.192-1.88-3.734-2.862-.288-.542.114-1.838,5.207-1.514,2.351.149,7.581.637,10.026,2.2A13.988,13.988,0,0,1,406.152,74Z" transform="translate(-385.703 -61.115)" fill="#feca2e"/>
              <path id="Trazado_742669" data-name="Trazado 742669" d="M406.152,74c-5.045-2.869-11.395-4.208-16.647-3.194,0,0-3.192-1.88-3.734-2.862-.288-.542.114-1.838,5.207-1.514,2.351.149,7.581.637,10.026,2.2A13.988,13.988,0,0,1,406.152,74Z" transform="translate(-385.615 -61.115)" opacity="0.3"/>
            </g>
            <g id="Grupo_932912" data-name="Grupo 932912" transform="translate(21.276 32.881)">
              <g id="Grupo_932908" data-name="Grupo 932908" transform="translate(0 20.658)">
                <path id="Trazado_742670" data-name="Trazado 742670" d="M358.815,147.125l21.341,5.467,7.879,24.12-.418.533-20.325-5.6L358.4,147.658Z" transform="translate(-358.395 -147.125)" fill="#4dd0e1"/>
                <path id="Trazado_742671" data-name="Trazado 742671" d="M394.093,156.8l7.879,24.12.418-.533-7.879-24.12Z" transform="translate(-372.751 -150.802)" opacity="0.35"/>
                <path id="Trazado_742672" data-name="Trazado 742672" d="M358.4,148.016l21.341,5.467,7.879,24.12L367.291,172Z" transform="translate(-358.397 -147.481)" opacity="0.25"/>
                <g id="Grupo_932904" data-name="Grupo 932904" transform="translate(6.428 3.948)" opacity="0.1">
                  <path id="Trazado_742673" data-name="Trazado 742673" d="M369.4,154.805s-.109-.363-.244-.811,1.1-.316,2.76.294l3.835.8c1.659.61,3.213,1.037,3.348,1.484l.244.811Z" transform="translate(-369.146 -153.729)"/>
                </g>
                <g id="Grupo_932905" data-name="Grupo 932905" transform="translate(5.111 0.781)">
                  <path id="Trazado_742674" data-name="Trazado 742674" d="M366.954,149.049c-.086-.28.392-.264,1.068-.146l1.228.3s-.592-1.154,2.3-.64c3.178.566,3.382,2.109,3.382,2.109a13.516,13.516,0,0,0,1.539.411c1.059.243,1.192.435,1.3.716l.2.511-10.877-2.781S367.039,149.329,366.954,149.049Z" transform="translate(-366.944 -148.431)" fill="#37474f"/>
                </g>
                <g id="Grupo_932906" data-name="Grupo 932906" transform="translate(5.968 1.883)">
                  <path id="Trazado_742675" data-name="Trazado 742675" d="M368.78,151.275c1.016.357,1.441.537,1.649,1.227.238.788.3,1.12.3,1.12l5.686,1.68s-.4-1.155-.511-1.543.618-.456,1.609-.1l-.314-.965-8.823-2.42Z" transform="translate(-368.378 -150.274)" fill="#37474f"/>
                </g>
                <g id="Grupo_932907" data-name="Grupo 932907" transform="translate(6.146 3.987)">
                  <path id="Trazado_742676" data-name="Trazado 742676" d="M368.928,154.87l-.244-.811c-.135-.447,1.1-.316,2.76.295l3.835.8c1.658.61,3.213,1.037,3.348,1.484l.244.811Z" transform="translate(-368.674 -153.794)" fill="#37474f"/>
                </g>
              </g>
              <g id="Grupo_932911" data-name="Grupo 932911" transform="translate(16.006)">
                <path id="Trazado_742677" data-name="Trazado 742677" d="M423.214,123.826c-1.942-7.783-4.131-9.555-8.56-10.372-3.939,6.291-1.686,16.091-1.686,16.091l2.673,11.931c-.728.637-11.648,7.647-13.582,8.323a5.489,5.489,0,0,1-2.741-.226,11.922,11.922,0,0,0-5.042-.255l.845,2.586a12.6,12.6,0,0,1-2.357.591,14.1,14.1,0,0,1-3.825.044c-1.153-.112-2.418-.328-3.388.306-.229.15-.45.41-.365.671.059.182.243.286.4.395a2.334,2.334,0,0,1,.863,1.11,3.958,3.958,0,0,0,1.545,2.091,10.18,10.18,0,0,0,5.829,2.382,6.816,6.816,0,0,0,1.446.149,21.78,21.78,0,0,0,5.461-1.228c2.2-.669,3.46-1.248,5.244-1.834,1.192-.392,3.481-1.235,4.656-1.676,6.839-2.568,16.135-5.916,16.615-9.2S425.22,131.863,423.214,123.826Z" transform="translate(-385.167 -112.926)" fill="#ffbda7"/>
                <g id="Grupo_932910" data-name="Grupo 932910" transform="translate(26.48)">
                  <g id="Grupo_932909" data-name="Grupo 932909">
                    <path id="Trazado_742678" data-name="Trazado 742678" d="M432.541,112.571c5.275,1.242,6.026,2.251,7.471,6.249a173.162,173.162,0,0,1,4.664,18.865c-2.309,2.275-9.37,3.722-11.881,2.075L430.42,129.4C429.6,125.919,427.977,118.049,432.541,112.571Z" transform="translate(-429.458 -112.571)" fill="#37474f"/>
                  </g>
                </g>
              </g>
            </g>
          </g>
        </g>
      </g>
      <g id="Character_1" data-name="Character 1" transform="translate(25.315 51.62)">
        <g id="Chartacter" transform="translate(0 0)">
          <g id="Bottom-2" data-name="Bottom" transform="translate(3.47 71.189)">
            <g id="Grupo_932919" data-name="Grupo 932919" transform="translate(31.721 75.295)">
              <path id="Trazado_742679" data-name="Trazado 742679" d="M98.552,304.411l-.943-8.687,10.058.655s-.153,4.715-.294,7.384c-.083,1.578,2.067,4.507,2.067,4.507s-4.725,2.5-7.256,1.627a6.614,6.614,0,0,1-3.835-4.669C98.384,304.549,98.552,304.411,98.552,304.411Z" transform="translate(-97.126 -295.724)" fill="#ffbda7"/>
              <path id="Trazado_742680" data-name="Trazado 742680" d="M122.459,329.167a2.152,2.152,0,0,1-.426,2.314,11.287,11.287,0,0,1-7.748,1.767,14.111,14.111,0,0,1-7.538-2.635c-1.563-1.169-3.755-2.819-5.507-3.146a11.03,11.03,0,0,1-3.926-1.409c-.526-.455-.488-2.517-.488-2.517Z" transform="translate(-96.812 -306.91)" fill="#263238"/>
              <path id="Trazado_742681" data-name="Trazado 742681" d="M98.225,310.227a.613.613,0,0,0-.576.492c-.109.57-.211,2.224-.451,3.161a15.442,15.442,0,0,0-.3,5.015c.23,1.053,2.885,1.742,4.584,2.309a21.808,21.808,0,0,1,5.525,3.1,16.206,16.206,0,0,0,8.189,2.668c2.976-.07,6.312-1.018,7.058-2.308.924-1.6,1.586-3.442-2.857-5.259-.841-.344-3.8-1.9-4.81-2.466-2.732-1.53-4.658-2.943-5.949-5.71a1.56,1.56,0,0,0-.648-.842,1.513,1.513,0,0,0-.859-.057,30.954,30.954,0,0,0-4.324.838c-.588.271-1.423.589-1.4,1.29a2.185,2.185,0,0,0,.178.71c.055.142.1.332-.034.419s-.3-.006-.415-.1a10.824,10.824,0,0,1-1.211-1.3,4.2,4.2,0,0,0-.71-.646,7.52,7.52,0,0,1-.763-.44C98.185,310.864,98.244,310.556,98.225,310.227Z" transform="translate(-96.801 -301.556)" fill="#455a64"/>
              <path id="Trazado_742682" data-name="Trazado 742682" d="M112.24,330.212c-.78-.575-1.606-1.128-2.434-1.621v0s5.237,2.831,7.312,1.471a1.659,1.659,0,0,0,.64-2.233c-.038-.331,4.693-2.751,6-2.917h0c.369.181.678.326.871.405,4.443,1.817,3.781,3.663,2.857,5.259-.747,1.289-3.158,2.326-7,2.391A16.649,16.649,0,0,1,112.24,330.212Z" transform="translate(-102.031 -307.46)" fill="#37474f"/>
              <path id="Trazado_742683" data-name="Trazado 742683" d="M112.609,320.961c2.76.968,1.6,1.462.831,1.577s-5.426-2.3-8.277-4.316c-2.973-2.1-4.864-4.42-5.968-5.191-.411-.288-.855-.642-1.251-.973.063-.56.114-1.069.165-1.338a.613.613,0,0,1,.576-.492c.019.329-.041.637.231.879a7.516,7.516,0,0,0,.763.44,4.2,4.2,0,0,1,.71.646,10.824,10.824,0,0,0,1.211,1.3A35.548,35.548,0,0,0,112.609,320.961Z" transform="translate(-97.261 -301.556)" fill="#37474f"/>
              <g id="Grupo_932918" data-name="Grupo 932918" transform="translate(6.432 11.856)">
                <g id="Grupo_932913" data-name="Grupo 932913" transform="translate(9.27 5.477)">
                  <path id="Trazado_742684" data-name="Trazado 742684" d="M123.341,327.994a.282.282,0,0,1-.173-.054.238.238,0,0,1-.044-.353c.76-.89,4.4-3.034,6.418-2.863a.256.256,0,0,1,.245.273.262.262,0,0,1-.3.228c-1.888-.155-5.341,1.968-5.943,2.674A.279.279,0,0,1,123.341,327.994Z" transform="translate(-123.065 -324.715)" fill="#263238"/>
                </g>
                <g id="Grupo_932914" data-name="Grupo 932914" transform="translate(6.855 4.156)">
                  <path id="Trazado_742685" data-name="Trazado 742685" d="M119.3,325.784a.288.288,0,0,1-.173-.054.239.239,0,0,1-.044-.353c.76-.89,4.394-3.031,6.418-2.862a.256.256,0,0,1,.246.273.266.266,0,0,1-.3.228c-1.889-.153-5.341,1.967-5.943,2.673A.277.277,0,0,1,119.3,325.784Z" transform="translate(-119.025 -322.505)" fill="#263238"/>
                </g>
                <g id="Grupo_932915" data-name="Grupo 932915" transform="translate(4.44 2.905)">
                  <path id="Trazado_742686" data-name="Trazado 742686" d="M115.261,323.692a.286.286,0,0,1-.173-.054.239.239,0,0,1-.044-.353c.76-.891,4.4-3.035,6.419-2.863a.256.256,0,0,1,.245.273.264.264,0,0,1-.3.228c-1.889-.155-5.341,1.967-5.943,2.673A.278.278,0,0,1,115.261,323.692Z" transform="translate(-114.985 -320.413)" fill="#263238"/>
                </g>
                <g id="Grupo_932916" data-name="Grupo 932916" transform="translate(2.197 1.469)">
                  <path id="Trazado_742687" data-name="Trazado 742687" d="M111.51,321.29a.279.279,0,0,1-.173-.054.238.238,0,0,1-.044-.353c.759-.89,4.4-3.033,6.418-2.862a.256.256,0,0,1,.245.272.265.265,0,0,1-.3.228c-1.886-.154-5.34,1.968-5.943,2.673A.277.277,0,0,1,111.51,321.29Z" transform="translate(-111.235 -318.012)" fill="#263238"/>
                </g>
                <g id="Grupo_932917" data-name="Grupo 932917">
                  <path id="Trazado_742688" data-name="Trazado 742688" d="M107.835,318.864a.282.282,0,0,1-.169-.051.239.239,0,0,1-.05-.352c1.044-1.261,4.859-3.066,6.88-2.9a.256.256,0,0,1,.246.273.267.267,0,0,1-.3.228c-1.82-.152-5.473,1.581-6.4,2.7A.277.277,0,0,1,107.835,318.864Z" transform="translate(-107.559 -315.554)" fill="#263238"/>
                </g>
              </g>
            </g>
            <g id="Grupo_932926" data-name="Grupo 932926" transform="translate(0 78.921)">
              <path id="Trazado_742689" data-name="Trazado 742689" d="M59.829,311.587l2.3-8.229L51.888,301.79l-.459,7.965s-1.089,2.843-.464,3.891,7.43,2.235,8.064,1.551S59.829,311.587,59.829,311.587Z" transform="translate(-46.569 -301.79)" fill="#ffbda7"/>
              <path id="Trazado_742690" data-name="Trazado 742690" d="M55.951,345.354a10.191,10.191,0,0,1-2.034,5.562c-1.136,1.368-3.129,1.577-5.089.867s-4.431-2.235-4.859-4.532a12.411,12.411,0,0,1,.386-6.127Z" transform="translate(-43.743 -317.608)" fill="#263238"/>
              <path id="Trazado_742691" data-name="Trazado 742691" d="M48.8,315.114c-.823-.054-.661,3.448-1.352,6.844-.742,3.639-2.1,5-2.747,7.981-.737,3.4-.628,4.983.625,7.27s6.032,5.01,8.643,2.329c2.128-2.186,2.382-4.894,2.423-8.386a77.24,77.24,0,0,1,.379-8.852c.325-2.579,1.117-4.867.424-5.252-.079.374-.163.852-.245,1.219-.063.282-.234,1.679-.694,1.63a4.772,4.772,0,0,1,.053-.981,1.1,1.1,0,0,0-.171-.869,3.835,3.835,0,0,0-1.315-.683c-.8-.249-2.223-.564-3.038-.74-.406-.087-.814-.16-1.224-.211a3.616,3.616,0,0,0-1.046-.01.639.639,0,0,0-.466.293.971.971,0,0,0-.068.39,2.454,2.454,0,0,1-.148.7c-.036.1-.125.213-.241.172a.218.218,0,0,1-.12-.228c.024-.42.1-.716.157-1.2.025-.224.086-.525.1-.751S48.774,315.333,48.8,315.114Z" transform="translate(-43.945 -307.148)" fill="#455a64"/>
              <path id="Trazado_742692" data-name="Trazado 742692" d="M44.955,338.3c-.112.49-.806,3.742.186,4.478,1.073.8,1.85-1.727,1.85-1.727a11.613,11.613,0,0,1,6.37,1.624c-.23.512.245,2.366,1.312,2.132s1.712-3.982,1.72-4.03c-.053,3.346-.352,5.962-2.418,8.085-2.611,2.681-7.39-.042-8.643-2.329s-1.363-3.867-.625-7.27C44.78,338.922,44.864,338.6,44.955,338.3Z" transform="translate(-43.945 -316.472)" fill="#37474f"/>
              <path id="Trazado_742693" data-name="Trazado 742693" d="M48.349,331.989c-.1,1.254-1.482.639-1.431-1.142s1.425-5.839,1.608-8.89c.3-4.187.53-6.9,1.352-6.844-.006.042-.007.085-.012.127l-.22,1.743a7.083,7.083,0,0,0-.094.746c-.183,2.558-.286,7.532-.686,9.839A35.706,35.706,0,0,0,48.349,331.989Z" transform="translate(-45.019 -307.148)" fill="#37474f"/>
              <path id="Trazado_742694" data-name="Trazado 742694" d="M58.722,334.561a35.03,35.03,0,0,0,1.06-4.3c.43-2.283,1.878-6.845,2.6-9.3a5.523,5.523,0,0,0,.376-1.391c.077-.343.155-.778.229-1.14.007-.025.014-.05.02-.075.5.286.3,2.268.018,3.291s-.622,2.12-.976,3.589c-.893,2.892-1.034,7.251-1.606,8.915S58.375,335.758,58.722,334.561Z" transform="translate(-49.746 -308.452)" fill="#37474f"/>
              <g id="Grupo_932925" data-name="Grupo 932925" transform="translate(2.742 13.702)">
                <g id="Grupo_932920" data-name="Grupo 932920" transform="translate(0 10.563)">
                  <path id="Trazado_742695" data-name="Trazado 742695" d="M55.076,344.429a.374.374,0,0,1-.109-.044,11.356,11.356,0,0,0-6.273-1.426.338.338,0,0,1-.359-.239.246.246,0,0,1,.237-.3,11.887,11.887,0,0,1,6.708,1.527.264.264,0,0,1,.1.377A.3.3,0,0,1,55.076,344.429Z" transform="translate(-48.328 -342.378)" fill="#263238"/>
                </g>
                <g id="Grupo_932921" data-name="Grupo 932921" transform="translate(0.126 7.786)">
                  <path id="Trazado_742696" data-name="Trazado 742696" d="M56.017,339.928a.382.382,0,0,1-.1-.038,14.06,14.06,0,0,0-7.024-1.593.337.337,0,0,1-.352-.249.248.248,0,0,1,.248-.289,14.56,14.56,0,0,1,7.421,1.685.269.269,0,0,1,.12.375A.3.3,0,0,1,56.017,339.928Z" transform="translate(-48.538 -337.732)" fill="#263238"/>
                </g>
                <g id="Grupo_932922" data-name="Grupo 932922" transform="translate(0.588 5.156)">
                  <path id="Trazado_742697" data-name="Trazado 742697" d="M49.568,333.965a.332.332,0,0,1-.246-.214.244.244,0,0,1,.212-.313,12.2,12.2,0,0,1,7.415,1.624.262.262,0,0,1,.1.376.32.32,0,0,1-.417.057A11.683,11.683,0,0,0,49.7,333.97.334.334,0,0,1,49.568,333.965Z" transform="translate(-49.311 -333.333)" fill="#263238"/>
                </g>
                <g id="Grupo_932923" data-name="Grupo 932923" transform="translate(0.954 2.707)">
                  <path id="Trazado_742698" data-name="Trazado 742698" d="M50.18,329.905a.33.33,0,0,1-.244-.209.241.241,0,0,1,.2-.316A11,11,0,0,1,57.706,331a.259.259,0,0,1,.078.38.322.322,0,0,1-.423.033,10.477,10.477,0,0,0-7.047-1.507A.35.35,0,0,1,50.18,329.905Z" transform="translate(-49.923 -329.236)" fill="#263238"/>
                </g>
                <g id="Grupo_932924" data-name="Grupo 932924" transform="translate(1.377)">
                  <path id="Trazado_742699" data-name="Trazado 742699" d="M50.888,325.376a.33.33,0,0,1-.243-.206.241.241,0,0,1,.2-.319c3.864-.733,7.464,1.6,7.615,1.705a.26.26,0,0,1,.088.378.316.316,0,0,1-.421.042c-.035-.023-3.513-2.279-7.1-1.6A.334.334,0,0,1,50.888,325.376Z" transform="translate(-50.632 -324.709)" fill="#263238"/>
                </g>
              </g>
            </g>
            <g id="Grupo_932927" data-name="Grupo 932927" transform="translate(3.379)">
              <path id="Trazado_742700" data-name="Trazado 742700" d="M57.137,171.582c-2.33,19.484-4.28,47.442-4.28,47.442-.168,1.532-1.284,4.144-2.147,11.7-.911,7.974-1.316,28.763-1.316,28.763.953,3.06,8.411,4.545,10.708,1.6,0,0,6.862-24.92,8.985-34.373,2.182-9.71,4.517-24.1,4.517-24.1l1.26,14.429s-.438,4.947-.34,8.98c.114,4.691,3.61,31.379,3.61,31.379s7.221,1.779,11.916-1.739c0,0,1.308-32.165,1.537-37.8.45-11.058-1.126-33.788-1.272-48.077Z" transform="translate(-49.394 -169.782)" fill="#37474f"/>
              <path id="Trazado_742701" data-name="Trazado 742701" d="M89.889,212.914l2.548-14.341s5.42-.7,8.235-3.176c0,0-1.846,3.306-6.967,4.522l-2.513,13.051-.042,14.373Z" transform="translate(-65.679 -180.083)" opacity="0.2"/>
            </g>
          </g>
          <g id="Top-2" data-name="Top">
            <g id="Grupo_932930" data-name="Grupo 932930" transform="translate(41.339 32.961)">
              <g id="Grupo_932929" data-name="Grupo 932929">
                <g id="Grupo_932928" data-name="Grupo 932928">
                  <path id="Trazado_742702" data-name="Trazado 742702" d="M140.6,123.814c-1.3,1.068-2.646,2.72-4.865,4.617s-5.58,5.211-8.825,7.22-4.85,2.831-9.022-1.321a113.442,113.442,0,0,1-10.543-12.712l-.245-15.656c3.466.972,5.482,2.775,7.676,5.989,4.137,6.057,6.934,9.963,9.332,13.457,0,0,9.542-5.876,10.779-6.8a5.151,5.151,0,0,0,1.915-2.8,24.11,24.11,0,0,1,.922-2.761c.368-.959.51-1.322.936-2.525s.719-3.216.852-3.663c.267-.508,1.015-.482,1.68.726A4.852,4.852,0,0,1,141.53,110c-.02.732-.219,1.626.005,1.74a14.048,14.048,0,0,0,2.291-.72,5.6,5.6,0,0,1,3.119-.432,1.371,1.371,0,0,1,.994,1.789,1.772,1.772,0,0,1-.6.716,1.475,1.475,0,0,1,1.124.315,1.6,1.6,0,0,1,.079,2.027.909.909,0,0,1,.909.776c.141.682.084,1.364-.595,1.651,0,0,.57.118.614.448a1.627,1.627,0,0,1-.491,1.523,5.3,5.3,0,0,1-1.951.515s-.1.249-.741.6a16.415,16.415,0,0,1-2.152,1.233A13.908,13.908,0,0,0,140.6,123.814Z" transform="translate(-107.09 -105.888)" fill="#ffbda7"/>
                  <path id="Trazado_742703" data-name="Trazado 742703" d="M133.368,138.039a7.643,7.643,0,0,0-3.184,5.112,5.84,5.84,0,0,1,2.724-5.779Z" transform="translate(-116.352 -118.52)" fill="#f0997a"/>
                  <path id="Trazado_742704" data-name="Trazado 742704" d="M107.09,105.839a10.919,10.919,0,0,1,5.18,2.875c1.477,1.422,4.154,5.51,5.749,7.772s3.3,4.653,3.3,4.653.2,5.937-7.237,9.264l-7-8.653Z" transform="translate(-107.085 -105.839)" fill="#37474f"/>
                  <path id="Trazado_742705" data-name="Trazado 742705" d="M167.9,122.554a3.222,3.222,0,0,0,.864-.3,8.527,8.527,0,0,1,.838-.236c.572-.139,1.149-.267,1.722-.418-.591.047-1.178.126-1.762.225a5.423,5.423,0,0,0-.876.209,3.227,3.227,0,0,1-.805.267,1.82,1.82,0,0,1-.8-.185,1.947,1.947,0,0,1-.711-.411,1.238,1.238,0,0,1-.17-.367.43.43,0,0,1,.069-.362.928.928,0,0,1,.5-.34,1.918,1.918,0,0,0,1.6-.164c.3-.132.6-.265.893-.41.587-.285,1.174-.573,1.747-.888-.619.215-1.224.459-1.829.7a6.539,6.539,0,0,1-1.8.609,2.6,2.6,0,0,1-.905-.186,4.6,4.6,0,0,1-.839-.447.775.775,0,0,1-.409-.74.7.7,0,0,1,.233-.448c.074-.017.146-.033.221-.047.362-.07.742-.093,1.124-.157a3.805,3.805,0,0,0,1.1-.363,9.187,9.187,0,0,0,1.9-1.266,7.794,7.794,0,0,1-.97.588c-.333.18-.662.365-1.006.511a4.474,4.474,0,0,1-1.063.307c-.366.056-.747.072-1.131.138-.19.031-.382.08-.552.1s-.242-.014-.335-.176a.963.963,0,0,1,.2-.937,3.506,3.506,0,0,1,1.8-1.218l.03-.01.008-.028a1.525,1.525,0,0,1,.233-.448,3.332,3.332,0,0,1,.341-.4,2.614,2.614,0,0,0-.386.36,1.639,1.639,0,0,0-.274.426,3.393,3.393,0,0,0-1.937,1.184,1.806,1.806,0,0,0-.274.54.879.879,0,0,0,.042.643.65.65,0,0,0,.228.265.4.4,0,0,0,.05.016,4.169,4.169,0,0,1-1.844,5.22,4.817,4.817,0,0,0,1.917-1.333,4.029,4.029,0,0,0,.933-1.67l.22.3a.517.517,0,0,0,.005.152,1.37,1.37,0,0,0,.169.447,1.821,1.821,0,0,0,.78.511,3.219,3.219,0,0,0,.556.191.5.5,0,0,0-.076.238.791.791,0,0,0,.115.38,3.064,3.064,0,0,0,.5.557,2.84,2.84,0,0,0,.308.216.93.93,0,0,0,.368.136,2.858,2.858,0,0,0,.734.038l-.683-.228a1.151,1.151,0,0,1-.293-.142,2.8,2.8,0,0,1-.269-.216,4.713,4.713,0,0,1-.5-.473.589.589,0,0,1-.152-.5A1.266,1.266,0,0,0,167.9,122.554Zm-2.557-3.868h0a.115.115,0,0,0-.013.016Z" transform="translate(-129.558 -109.629)" fill="#f0997a"/>
                </g>
              </g>
            </g>
            <path id="Chest-2" data-name="Chest" d="M69.377,103.619c-2.015.416-4.569.937-7.137,1.647a26.374,26.374,0,0,0-6.593,2.457A104.319,104.319,0,0,0,57.6,126.379c.44,2.043,1.925,7.683,2.182,12.011a68.943,68.943,0,0,1-.362,13.492s6.663,4.945,20.9,3.872c11.18-.842,12.631-4.958,12.631-4.958s-.2-18.635-.494-26.879c-.381-10.828-3.66-17.077-6.074-18.969l-7.337-1.222Z" transform="translate(-45.06 -71.985)" fill="#455a64"/>
            <g id="Grupo_932933" data-name="Grupo 932933" transform="translate(11.634 76.882)">
              <path id="Trazado_742706" data-name="Trazado 742706" d="M61.7,179.806c4.093,2.518,10.816,4.087,16.566,4.325s10.929-.774,13.462-2.119a10.5,10.5,0,0,0,3.5-2.71l.2,4.73s-4.082,3.872-15.134,4.232a42.142,42.142,0,0,1-18.982-4.25Z" transform="translate(-58.971 -179.303)" fill="#263238"/>
              <g id="Grupo_932932" data-name="Grupo 932932" transform="translate(0 3.957)">
                <path id="Trazado_742707" data-name="Trazado 742707" d="M62.1,185.921c-1.793.842-3.413,1.988-3.772,3.068-.525,1.579-1.419,9.332-.586,10.684s7.839,4.961,9.655,5.124,4.189-1.984,4.663-2.631,1.117-10.558,1.016-11.329S62.1,185.921,62.1,185.921Z" transform="translate(-57.398 -185.921)" fill="#455a64"/>
                <g id="Grupo_932931" data-name="Grupo 932931" transform="translate(0.368 4.206)" opacity="0.2">
                  <path id="Trazado_742708" data-name="Trazado 742708" d="M58.308,192.957a10.186,10.186,0,0,0,.029,2.881A4.1,4.1,0,0,0,59.72,198.2a9.188,9.188,0,0,0,2.427,1.438,11.519,11.519,0,0,0,2.7.834,3.61,3.61,0,0,0,2.592-.442,4.041,4.041,0,0,0,1.483-2.227,13.568,13.568,0,0,0,.339-1.408,2.826,2.826,0,0,1,.819-1.3,5.99,5.99,0,0,1,2.639-1.288,6.33,6.33,0,0,0-2.422,1.505,2.487,2.487,0,0,0-.653,1.177,13.569,13.569,0,0,1-.259,1.446,4.385,4.385,0,0,1-1.612,2.582,4.152,4.152,0,0,1-3.016.563,11.318,11.318,0,0,1-2.846-.916,8.663,8.663,0,0,1-2.51-1.626,4.421,4.421,0,0,1-1.356-2.658A9.155,9.155,0,0,1,58.308,192.957Z" transform="translate(-58.015 -192.957)"/>
                </g>
              </g>
            </g>
            <g id="Grupo_932934" data-name="Grupo 932934" transform="translate(18.169 15.953)">
              <path id="Trazado_742709" data-name="Trazado 742709" d="M68.329,78.64c0,.388,1.473,1.022,1.473,1.022l-.659-2.272Z" transform="translate(-68.329 -77.39)" fill="#ba68c8"/>
              <path id="Trazado_742710" data-name="Trazado 742710" d="M68.329,78.64c0,.388,1.473,1.022,1.473,1.022l-.659-2.272Z" transform="translate(-68.329 -77.39)" opacity="0.3"/>
            </g>
            <g id="Head" transform="translate(17.03 2.909)">
              <g id="Grupo_932938" data-name="Grupo 932938">
                <g id="Grupo_932937" data-name="Grupo 932937">
                  <g id="Grupo_932935" data-name="Grupo 932935">
                    <path id="Trazado_742711" data-name="Trazado 742711" d="M71.479,64.921a3.886,3.886,0,0,0-2.854,2.3c-.568,1.092-.974,3.084.58,8.777a22.919,22.919,0,0,0,2.738,6.282,2.815,2.815,0,0,0,1.635,1.305l-.114-4.376L73.3,76.164s2.458-2.232,2.67-4.423a7.008,7.008,0,0,0-.828-4.417Z" transform="translate(-67.105 -59.332)" fill="#37474f"/>
                    <path id="Trazado_742712" data-name="Trazado 742712" d="M72.744,61.309c.426-2.46,3.546-5.4,9.565-5.717a9.734,9.734,0,0,1,9.429,5.2,5.757,5.757,0,0,1,.288,5.475l-15.093-.78Z" transform="translate(-68.965 -55.573)" fill="#37474f"/>
                    <path id="Trazado_742713" data-name="Trazado 742713" d="M68.783,80.492a2.384,2.384,0,0,0,3.3-.692l-.019,9.232c4.353,5.826,16.33,3.513,11.565-.85l-.009-2.059a13.6,13.6,0,0,0,1.964-.192A4.249,4.249,0,0,0,89.438,82.5a28.122,28.122,0,0,0,.682-4.559,15.871,15.871,0,0,0-.413-5.965c-.4-1.118.068-2.589-.238-3.973a3.755,3.755,0,0,0-1.661-2.691c-2.409-1.191-4.638.527-7.994,1.835-1.39.542-4.761.78-5.651.363,1.172,1.293,1.162,5.377-.564,7.036a3.781,3.781,0,0,1-.865,1.126c-.734.639-1.336-1.01-1.953-1.655a2.528,2.528,0,0,0-3.934.905A4.119,4.119,0,0,0,68.783,80.492Z" transform="translate(-66.423 -59.329)" fill="#ffbda7"/>
                    <path id="Trazado_742714" data-name="Trazado 742714" d="M88.526,96.462a18.2,18.2,0,0,1-6.526-1c-1.554-.655-2.932-2.758-3.384-4.844,0,1.679.737,4.655,3.093,5.892a15.352,15.352,0,0,0,6.824,1.34Z" transform="translate(-71.326 -69.668)" fill="#f0997a"/>
                    <path id="Trazado_742715" data-name="Trazado 742715" d="M78.059,78.213c-.614,1.225.087,5.085,1.242,5.57s2.467-.288,4.991-1.015a9.28,9.28,0,0,1,5.42-.254c1.184.325,3.434,1.382,3.865.777-.147,2.869-.142,7.005-3.323,8.033-2.26.731-7.076.855-9.909-.622s-3.354-3.169-3.876-5.473a42.325,42.325,0,0,0-1.45-4.766Z" transform="translate(-69.88 -64.678)" fill="#37474f"/>
                    <path id="Trazado_742716" data-name="Trazado 742716" d="M95.352,88.65a2.646,2.646,0,0,0-.768-1.268,3.155,3.155,0,0,0-4.192-.01,2.917,2.917,0,0,0-.872,1.769c-.142,1.255,1.6,1.813,2.4.962a1.064,1.064,0,0,1,1.077-.2,2.249,2.249,0,0,1,.343.219,1.385,1.385,0,0,0,1.626-.12A1.31,1.31,0,0,0,95.352,88.65Z" transform="translate(-75.709 -68.042)" fill="#ffbda7"/>
                  </g>
                  <g id="Grupo_932936" data-name="Grupo 932936" transform="translate(11.226 9.54)">
                    <path id="Trazado_742717" data-name="Trazado 742717" d="M87.514,72.523l-2.226.937a1.268,1.268,0,0,1,.668-1.623A1.179,1.179,0,0,1,87.514,72.523Z" transform="translate(-85.201 -71.617)" fill="#37474f"/>
                    <path id="Trazado_742718" data-name="Trazado 742718" d="M101.664,73.222l-2.262-.9a1.168,1.168,0,0,1,1.541-.708A1.279,1.279,0,0,1,101.664,73.222Z" transform="translate(-90.912 -71.531)" fill="#37474f"/>
                    <path id="Trazado_742719" data-name="Trazado 742719" d="M86.793,76.763a.984.984,0,1,0,.949-1.019A.984.984,0,0,0,86.793,76.763Z" transform="translate(-85.841 -73.225)" fill="#263238"/>
                    <path id="Trazado_742720" data-name="Trazado 742720" d="M99.4,76.427a.984.984,0,1,0,.948-1.019A.985.985,0,0,0,99.4,76.427Z" transform="translate(-90.912 -73.09)" fill="#263238"/>
                    <path id="Trazado_742721" data-name="Trazado 742721" d="M92.883,73.461l.812,6.266,3.31-1.223A14.681,14.681,0,0,0,92.883,73.461Z" transform="translate(-88.29 -72.307)" fill="#f0997a"/>
                  </g>
                </g>
              </g>
              <path id="Trazado_742722" data-name="Trazado 742722" d="M92.266,88l2.561.847a1.325,1.325,0,0,1-1.681.9A1.413,1.413,0,0,1,92.266,88Z" transform="translate(-76.791 -68.614)" fill="#b16668"/>
              <path id="Trazado_742723" data-name="Trazado 742723" d="M92.54,88.753a1.443,1.443,0,0,0-.325-.031,1.394,1.394,0,0,0,.935,1.319,1.281,1.281,0,0,0,.428.06A1.234,1.234,0,0,0,92.54,88.753Z" transform="translate(-76.795 -68.904)" fill="#f28f8f"/>
            </g>
            <g id="Grupo_932939" data-name="Grupo 932939" transform="translate(17.217)">
              <path id="Trazado_742724" data-name="Trazado 742724" d="M66.816,65.343a11.407,11.407,0,0,0,.873,3.235,12.049,12.049,0,0,1,.8-.92A20.111,20.111,0,0,1,74.2,63.618h.01c4.93-2.4,11.008-3.312,15.912-2.1a11.013,11.013,0,0,0-.961-2.714,11.857,11.857,0,0,0-22.345,6.545Z" transform="translate(-66.736 -51.376)" fill="#feca2e"/>
              <path id="Trazado_742725" data-name="Trazado 742725" d="M74.03,53.527c.587-.295,3.546-1.239,3.783-1.316a7.156,7.156,0,0,1,6.6,1.464,11.65,11.65,0,0,1,4.111,6.21l-3.144,1.048-1.009.119c-.418-2.267-3.586-7.105-7.9-7.186a4.1,4.1,0,0,0-.609.023,5.705,5.705,0,0,0-1.66.373,16.148,16.148,0,0,0-1.645,1.352A2.6,2.6,0,0,1,74.03,53.527Z" transform="translate(-69.079 -51.198)" fill="#feca2e"/>
              <path id="Trazado_742726" data-name="Trazado 742726" d="M74.03,53.527c.587-.295,3.546-1.239,3.783-1.316a7.156,7.156,0,0,1,6.6,1.464,11.65,11.65,0,0,1,4.111,6.21l-3.144,1.048-1.009.119c-.418-2.267-3.586-7.105-7.9-7.186a4.1,4.1,0,0,0-.609.023,5.705,5.705,0,0,0-1.66.373,16.148,16.148,0,0,0-1.645,1.352A2.6,2.6,0,0,1,74.03,53.527Z" transform="translate(-69.079 -51.928)" fill="#fff" opacity="0.45"/>
              <path id="Trazado_742727" data-name="Trazado 742727" d="M84.371,61.763c-.493-2.639-4.746-8.819-10.164-6.8a16.3,16.3,0,0,0-1.652,1.353,2.62,2.62,0,0,1,1.472-2.085c1.408-.7,4.247-1.1,7.241,1.2a11.616,11.616,0,0,1,4.105,6.207Z" transform="translate(-69.077 -51.906)" fill="#feca2e"/>
              <path id="Trazado_742728" data-name="Trazado 742728" d="M84.371,61.763c-.493-2.639-4.746-8.819-10.164-6.8a16.3,16.3,0,0,0-1.652,1.353,2.62,2.62,0,0,1,1.472-2.085c1.408-.7,4.247-1.1,7.241,1.2a11.616,11.616,0,0,1,4.105,6.207Z" transform="translate(-69.077 -51.907)" opacity="0.3"/>
              <path id="Trazado_742729" data-name="Trazado 742729" d="M79.059,65.469a13.2,13.2,0,0,1,5.17-4.705c2.4-1.326,7.37-1.509,9.6-1.527,3.9-.031,4.853.76,4.913,1.322.014.133.081.751.1.891a.534.534,0,0,1-.074.364c-.567.882-3.691,2.459-3.691,2.459-4.9-1.208-10.982-.294-15.912,2.1Z" transform="translate(-71.692 -54.137)" fill="#feca2e"/>
              <path id="Trazado_742730" data-name="Trazado 742730" d="M79.059,65.469a13.2,13.2,0,0,1,5.17-4.705c2.4-1.326,7.37-1.509,9.6-1.527,3.9-.031,4.853.76,4.913,1.322.014.133.081.751.1.891a.534.534,0,0,1-.074.364c-.567.882-3.691,2.459-3.691,2.459-4.9-1.208-10.982-.294-15.912,2.1Z" transform="translate(-71.636 -54.137)" opacity="0.15"/>
              <path id="Trazado_742731" data-name="Trazado 742731" d="M79.238,66.988c4.93-2.4,11.008-3.312,15.912-2.1,0,0,3.124-1.577,3.691-2.459.3-.487,0-1.707-4.834-1.669-2.23.018-7.2.2-9.6,1.527A13.2,13.2,0,0,0,79.238,66.988Z" transform="translate(-71.764 -54.748)" fill="#feca2e"/>
              <path id="Trazado_742732" data-name="Trazado 742732" d="M79.238,66.988c4.93-2.4,11.008-3.312,15.912-2.1,0,0,3.124-1.577,3.691-2.459.3-.487,0-1.707-4.834-1.669-2.23.018-7.2.2-9.6,1.527A13.2,13.2,0,0,0,79.238,66.988Z" transform="translate(-71.764 -54.748)" opacity="0.3"/>
            </g>
            <g id="Grupo_932944" data-name="Grupo 932944" transform="translate(10.312 31.762)">
              <g id="Grupo_932941" data-name="Grupo 932941" transform="translate(0 0.203)">
                <path id="Trazado_742733" data-name="Trazado 742733" d="M67.513,104.19l.036-.007S67.526,104.159,67.513,104.19Zm1.952,6.933c-1.913-5.91-2-6.815-1.952-6.933-.371.068-4.856.9-7.395,1.672a28.481,28.481,0,0,0-4.931,2.085s.221,12.229,1.545,17.9a70.029,70.029,0,0,1,1.926,15.63c0,4.563-.883,12.512-.883,12.512s.472,2.107,4.864,3.747a20.962,20.962,0,0,0,9.181.9s.662-15.053.662-23.314S71.893,118.63,69.465,111.123Z" transform="translate(-55.187 -104.174)" fill="#fd9927"/>
                <g id="Grupo_932940" data-name="Grupo 932940" transform="translate(3.15 35.467)">
                  <path id="Trazado_742734" data-name="Trazado 742734" d="M60.892,163.5c.038.621.06,1.232.06,1.831,0,.093,0,.189,0,.285a31.867,31.867,0,0,0,13.674,2.534c.017-.621.033-1.242.048-1.857C70.142,166.371,64.9,165.614,60.892,163.5Z" transform="translate(-60.631 -163.498)" fill="#fff"/>
                  <path id="Trazado_742735" data-name="Trazado 742735" d="M74.312,176.909c-4.517.054-9.733-.722-13.711-2.852-.044.68-.094,1.363-.146,2.027,4.044,2,9.288,2.736,13.793,2.683C74.271,178.164,74.291,177.544,74.312,176.909Z" transform="translate(-60.456 -167.744)" fill="#fff"/>
                </g>
              </g>
              <g id="Grupo_932943" data-name="Grupo 932943" transform="translate(23.926)">
                <path id="Trazado_742736" data-name="Trazado 742736" d="M95.207,103.834s4.817,3.875,6.8,12.078c1.571,6.512,1.633,14.617,1.96,24.579s.033,15.728.033,15.728,4.169-.718,5.43-2.744c-.4-12.249-.639-24.09-.642-28.663a49.343,49.343,0,0,0-2.371-14.145,14.076,14.076,0,0,0-3.92-6.025Z" transform="translate(-95.207 -103.834)" fill="#fd9927"/>
                <g id="Grupo_932942" data-name="Grupo 932942" transform="translate(8.788 35.939)">
                  <path id="Trazado_742737" data-name="Trazado 742737" d="M109.907,165.746q.028.954.047,1.862a19.275,19.275,0,0,0,2.953-.711,17.258,17.258,0,0,0,2.093-.859q-.027-1.062-.052-2.09a12.408,12.408,0,0,1-1.378.725A16.36,16.36,0,0,1,109.907,165.746Z" transform="translate(-109.907 -163.948)" fill="#fff"/>
                  <path id="Trazado_742738" data-name="Trazado 742738" d="M112.979,177.21a17.1,17.1,0,0,0,2.26-.936q-.03-1.064-.06-2.111a12.927,12.927,0,0,1-1.537.822,16.223,16.223,0,0,1-3.555,1.052q.005.981,0,1.873A19.279,19.279,0,0,0,112.979,177.21Z" transform="translate(-109.979 -168.056)" fill="#fff"/>
                </g>
              </g>
            </g>
            <g id="Grupo_932953" data-name="Grupo 932953" transform="translate(0 34.478)">
              <g id="Grupo_932949" data-name="Grupo 932949" transform="translate(30.064 21.787)">
                <path id="Trazado_742739" data-name="Trazado 742739" d="M119.042,144.819l-22.507,5.765-8.309,25.438.441.562,21.436-5.91,9.38-25.293Z" transform="translate(-88.225 -144.819)" fill="#4dd0e1"/>
                <path id="Trazado_742740" data-name="Trazado 742740" d="M96.976,155.025l-8.309,25.438-.441-.562,8.309-25.438Z" transform="translate(-88.225 -148.697)" opacity="0.35"/>
                <path id="Trazado_742741" data-name="Trazado 742741" d="M119.78,145.759l-22.507,5.766-8.309,25.438,21.437-5.91Z" transform="translate(-88.521 -145.195)" opacity="0.25"/>
                <g id="Grupo_932945" data-name="Grupo 932945" transform="translate(13.725 4.164)" opacity="0.1">
                  <path id="Trazado_742742" data-name="Trazado 742742" d="M121.67,152.919l.257-.855c.142-.472-1.161-.333-2.911.311l-4.045.844c-1.749.643-3.389,1.093-3.531,1.565l-.257.855Z" transform="translate(-111.183 -151.784)"/>
                </g>
                <g id="Grupo_932946" data-name="Grupo 932946" transform="translate(14.242 0.823)">
                  <path id="Trazado_742743" data-name="Trazado 742743" d="M123.663,146.848c.09-.3-.414-.277-1.127-.154l-1.295.316s.624-1.217-2.422-.675c-3.352.6-3.567,2.224-3.567,2.224a14.3,14.3,0,0,1-1.623.434c-1.117.256-1.257.459-1.373.756l-.21.538,11.472-2.932S123.574,147.144,123.663,146.848Z" transform="translate(-112.047 -146.197)" fill="#37474f"/>
                </g>
                <g id="Grupo_932947" data-name="Grupo 932947" transform="translate(15.327 1.986)">
                  <path id="Trazado_742744" data-name="Trazado 742744" d="M123.077,149.2c-1.072.376-1.52.566-1.74,1.294-.251.832-.319,1.181-.319,1.181l-6,1.772s.424-1.219.537-1.628-.652-.481-1.7-.105l.331-1.018,9.306-2.552Z" transform="translate(-113.863 -148.141)" fill="#37474f"/>
                </g>
                <g id="Grupo_932948" data-name="Grupo 932948" transform="translate(14.023 4.205)">
                  <path id="Trazado_742745" data-name="Trazado 742745" d="M122.168,152.988s.115-.383.257-.854-1.161-.334-2.911.31l-4.045.844c-1.749.643-3.389,1.093-3.531,1.565l-.257.855Z" transform="translate(-111.681 -151.853)" fill="#37474f"/>
                </g>
              </g>
              <g id="Grupo_932952" data-name="Grupo 932952">
                <path id="Trazado_742746" data-name="Trazado 742746" d="M42.254,120.247c2.049-8.209,4.358-10.077,9.028-10.939,4.154,6.635,1.778,16.97,1.778,16.97l-2.818,12.584c.767.671,12.284,8.064,14.324,8.778a5.793,5.793,0,0,0,2.89-.238,12.581,12.581,0,0,1,5.318-.269l-.891,2.728a13.314,13.314,0,0,0,2.486.623,14.867,14.867,0,0,0,4.034.045c1.215-.118,2.55-.346,3.573.323.242.158.475.432.386.707-.062.192-.256.3-.422.416a2.458,2.458,0,0,0-.911,1.171,4.176,4.176,0,0,1-1.63,2.206,14.32,14.32,0,0,1-2.05,1.364,14.34,14.34,0,0,1-4.1,1.148,7.223,7.223,0,0,1-1.526.157,22.979,22.979,0,0,1-5.759-1.295c-2.321-.705-3.649-1.317-5.531-1.934-1.257-.413-3.671-1.3-4.911-1.767-7.212-2.708-17.017-6.239-17.524-9.7S40.139,128.723,42.254,120.247Z" transform="translate(-37.938 -108.751)" fill="#ffbda7"/>
                <g id="Grupo_932951" data-name="Grupo 932951" transform="translate(0.466)">
                  <g id="Grupo_932950" data-name="Grupo 932950">
                    <path id="Trazado_742747" data-name="Trazado 742747" d="M51.516,108.377c-5.3,1.625-6.355,2.373-7.879,6.591a182.661,182.661,0,0,0-4.919,19.9c2.435,2.4,9.882,3.926,12.53,2.188l2.5-10.924C54.615,122.453,56.33,114.154,51.516,108.377Z" transform="translate(-38.718 -108.377)" fill="#37474f"/>
                  </g>
                </g>
              </g>
            </g>
          </g>
        </g>
      </g>
      <g id="Hat" transform="translate(88.718 152.955)">
        <g id="Hat-2" data-name="Hat" transform="translate(0 0)">
          <path id="Trazado_742748" data-name="Trazado 742748" d="M121.923,329.979c0-11.641,7.693-23.283,23.079-32.166,30.77-17.765,80.659-17.765,111.428,0a62.151,62.151,0,0,1,11.23,8.159h0c23.822,19.4,30.416,38.105,30.236,43.1-.031.862.024,3,0,3.682-.3,8.348-8.314,17.639-20.941,24.928s-28.718,11.918-43.177,12.09c-8.646.1-41.051-3.7-74.646-17.457l.018-.011A87.37,87.37,0,0,1,145,365.827c-15.385-8.882-23.077-20.524-23.076-32.166Z" transform="translate(-114.802 -227.272)" fill="#feca2e"/>
          <path id="Trazado_742749" data-name="Trazado 742749" d="M121.923,329.979c0-11.641,7.693-23.283,23.079-32.166,30.77-17.765,80.659-17.765,111.428,0a62.151,62.151,0,0,1,11.23,8.159h0c23.822,19.4,30.416,38.105,30.236,43.1-.031.862.024,3,0,3.682-.3,8.348-8.314,17.639-20.941,24.928s-28.718,11.918-43.177,12.09c-8.646.1-41.051-3.7-74.646-17.457l.018-.011A87.37,87.37,0,0,1,145,365.827c-15.385-8.882-23.077-20.524-23.076-32.166Z" transform="translate(-114.802 -227.272)" opacity="0.2"/>
          <path id="Trazado_742750" data-name="Trazado 742750" d="M145,297.814c30.77-17.765,80.659-17.765,111.428,0a62.151,62.151,0,0,1,11.23,8.159h0c23.822,19.4,30.416,38.105,30.236,43.1-.3,8.348-8.314,17.639-20.941,24.929s-28.718,11.918-43.177,12.09c-8.646.1-41.051-3.7-74.646-17.457l.018-.01A87.432,87.432,0,0,1,145,362.145c-15.385-8.882-23.077-20.524-23.076-32.166S129.616,306.7,145,297.814Z" transform="translate(-121.923 -232.019)" fill="#feca2e"/>
          <g id="Grupo_932954" data-name="Grupo 932954" transform="translate(4.445 41.238)">
            <path id="Trazado_742751" data-name="Trazado 742751" d="M125.386,305.218c0-11.236,7.423-22.474,22.274-31.046,29.7-17.145,77.852-17.145,107.546,0,14.851,8.573,22.275,19.809,22.275,31.046v12.811c0,11.236-7.427,22.473-22.275,31.047-29.7,17.145-77.851,17.145-107.549,0-14.851-8.573-22.271-19.81-22.271-31.047Z" transform="translate(-120.64 -259.189)" fill="#feca2e"/>
            <path id="Trazado_742752" data-name="Trazado 742752" d="M125.386,305.218c0-11.236,7.423-22.474,22.274-31.046,29.7-17.145,77.852-17.145,107.546,0,14.851,8.573,22.275,19.809,22.275,31.046v12.811c0,11.236-7.427,22.473-22.275,31.047-29.7,17.145-77.851,17.145-107.549,0-14.851-8.573-22.271-19.81-22.271-31.047Z" transform="translate(-120.64 -261.313)" fill="#fff" opacity="0.2"/>
            <path id="Trazado_742753" data-name="Trazado 742753" d="M125.388,335.013v12.545c0,11.235,7.421,22.476,22.269,31.046,29.7,17.151,77.852,17.151,107.553,0,14.848-8.57,22.275-19.81,22.275-31.046V334.748c-.006,11.235-7.427,22.476-22.281,31.046-29.7,17.151-77.846,17.151-107.547,0C132.925,357.294,125.5,346.168,125.388,335.013Z" transform="translate(-125.388 -290.842)" fill="#feca2e" opacity="0.4"/>
            <path id="Trazado_742754" data-name="Trazado 742754" d="M255.206,274.172c14.85,8.573,22.274,19.809,22.273,31.046s-7.425,22.473-22.275,31.046c-29.7,17.146-77.851,17.146-107.549,0-14.849-8.573-22.273-19.809-22.273-31.046s7.426-22.473,22.275-31.046C177.357,257.025,225.508,257.025,255.206,274.172Z" transform="translate(-120.638 -259.189)" fill="#feca2e"/>
            <path id="Trazado_742755" data-name="Trazado 742755" d="M255.206,274.172c14.85,8.573,22.274,19.809,22.273,31.046s-7.425,22.473-22.275,31.046c-29.7,17.146-77.851,17.146-107.549,0-14.849-8.573-22.273-19.809-22.273-31.046s7.426-22.473,22.275-31.046C177.357,257.025,225.508,257.025,255.206,274.172Z" transform="translate(-118.264 -258.936)" opacity="0.2"/>
          </g>
          <path id="Sphere_1_2" data-name="Sphere 1/2" d="M125.382,277.359c0,11.241,7.421,22.47,22.276,31.047,29.7,17.142,77.849,17.142,107.546,0,14.854-8.577,22.275-19.806,22.275-31.047a76.049,76.049,0,0,0-152.1,0Z" transform="translate(-116.193 -193.821)" fill="#feca2e"/>
          <path id="Sphere_1_2-2" data-name="Sphere 1/2" d="M125.382,277.359c0,11.241,7.421,22.47,22.276,31.047,29.7,17.142,77.849,17.142,107.546,0,14.854-8.577,22.275-19.806,22.275-31.047a76.049,76.049,0,0,0-152.1,0Z" transform="translate(-116.193 -201.31)" fill="#fff" opacity="0.2"/>
          <path id="Trazado_742756" data-name="Trazado 742756" d="M192.519,251.141q1.518,1.092,2.936,2.3c4.728,4.044,8.231,9.972,7.911,16.186-.545,10.58-11.1,17.55-20.234,20.335a47.761,47.761,0,0,1-32.072-1.515c-4.125-1.73-7.757-4.656-9.335-8.987-1.736-4.763-.994-10.122.783-14.87A33.427,33.427,0,0,1,157.45,247C168.9,240.744,182.331,243.818,192.519,251.141Z" transform="translate(-122.368 -210.84)" fill="#fff" opacity="0.2"/>
          <path id="Trazado_742757" data-name="Trazado 742757" d="M199.036,327.721c44.3-4.832,70.857-49.825,58.3-77.14l1.492-5.509a75.755,75.755,0,0,1,18.648,49.885c0,11.241-7.421,22.47-22.275,31.047-29.7,17.142-77.849,17.142-107.546,0-14.854-8.577-22.276-19.806-22.276-31.047a76.9,76.9,0,0,1,.417-7.984C124.822,305.592,154.752,332.553,199.036,327.721Z" transform="translate(-116.193 -211.42)" fill="#feca2e" opacity="0.4"/>
          <g id="Grupo_932955" data-name="Grupo 932955" transform="translate(77.532 7.49)">
            <path id="Trazado_742758" data-name="Trazado 742758" d="M238.013,208.661c9.3-12.729,30.851-12.671,48.729,2.821,16.172,14.015,22.9,31.3,26.282,37.058s5.709-2.415-4.448-22.4-30.809-32.328-47.032-33.306C243.106,191.728,235.173,198.614,238.013,208.661Z" transform="translate(-235.078 -190.35)" fill="#feca2e"/>
            <path id="Trazado_742759" data-name="Trazado 742759" d="M238.013,208.661c9.3-12.729,30.851-12.671,48.729,2.821,16.172,14.015,22.9,31.3,26.282,37.058s5.709-2.415-4.448-22.4-30.809-32.328-47.032-33.306C243.106,191.728,235.173,198.614,238.013,208.661Z" transform="translate(-235.078 -192.722)" fill="#fff" opacity="0.5"/>
            <path id="Trazado_742760" data-name="Trazado 742760" d="M239.245,201.839c-.906,5.643,5.1.013,11.915-1.433,9.554-2.028,20.607-.931,32.881,7.709,11.822,8.322,21.78,24.685,26.134,31.993,3.9,6.545,4.245,4.753,2.052-3.311,5.8,14.131,3.694,19.408.8,14.482-3.386-5.757-10.109-23.044-26.282-37.059-17.878-15.492-39.426-15.55-48.729-2.821C236.969,207.7,237.388,204.439,239.245,201.839Z" transform="translate(-237.453 -193.087)" fill="#feca2e" opacity="0.4"/>
          </g>
          <g id="Grupo_932956" data-name="Grupo 932956" transform="translate(121.62 118.689)">
            <path id="Trazado_742761" data-name="Trazado 742761" d="M365.212,407.259l-21.453-19.95q-10.693,11.381-30.318,17.607l31.137,15.1A73.375,73.375,0,0,0,365.212,407.259Z" transform="translate(-313.44 -387.309)" fill="#feca2e"/>
            <path id="Trazado_742762" data-name="Trazado 742762" d="M365.212,407.259l-21.453-19.95q-10.693,11.381-30.318,17.607l31.137,15.1A73.375,73.375,0,0,0,365.212,407.259Z" transform="translate(-313.44 -387.308)" fill="#fff" opacity="0.2"/>
            <path id="Trazado_742763" data-name="Trazado 742763" d="M313.44,419.1v-2.343l31.138,15.1Z" transform="translate(-313.44 -399.152)" fill="#ba68c8"/>
            <path id="Trazado_742764" data-name="Trazado 742764" d="M313.44,419.1v-2.343l31.138,15.1Z" transform="translate(-313.44 -399.152)" opacity="0.2"/>
          </g>
          <g id="Grupo_932959" data-name="Grupo 932959" transform="translate(60.134 123.302)">
            <g id="Grupo_932957" data-name="Grupo 932957" transform="translate(0 2.685)">
              <path id="Trazado_742765" data-name="Trazado 742765" d="M210.594,417.773V399.516l27.345,2.4v18.257A128.917,128.917,0,0,1,210.594,417.773Z" transform="translate(-210.594 -399.516)" fill="#feca2e"/>
              <path id="Trazado_742766" data-name="Trazado 742766" d="M210.594,417.773V399.516l27.345,2.4v18.257A128.917,128.917,0,0,1,210.594,417.773Z" transform="translate(-210.594 -399.516)" fill="#fff" opacity="0.3"/>
            </g>
            <g id="Grupo_932958" data-name="Grupo 932958">
              <path id="Trazado_742767" data-name="Trazado 742767" d="M238.065,397.429l-.126,2.685a128.428,128.428,0,0,1-27.345-2.4l.125-2.685A128.435,128.435,0,0,0,238.065,397.429Z" transform="translate(-210.594 -395.025)" fill="#feca2e"/>
              <path id="Trazado_742768" data-name="Trazado 742768" d="M238.065,397.429l-.126,2.685a128.428,128.428,0,0,1-27.345-2.4l.125-2.685A128.435,128.435,0,0,0,238.065,397.429Z" transform="translate(-210.594 -395.025)" fill="#fff" opacity="0.5"/>
            </g>
            <path id="Trazado_742769" data-name="Trazado 742769" d="M256.333,401.731l.125-2.685V417.3l-.125,2.685Z" transform="translate(-228.988 -396.642)" fill="#ba68c8"/>
          </g>
          <g id="Grupo_932962" data-name="Grupo 932962" transform="translate(7.168 81.284)">
            <g id="Grupo_932960" data-name="Grupo 932960" transform="translate(0 1.217)">
              <path id="Trazado_742770" data-name="Trazado 742770" d="M122,326.779v18.775a28.641,28.641,0,0,0,6.336,17.577V344.356Z" transform="translate(-122.001 -326.779)" fill="#feca2e"/>
              <path id="Trazado_742771" data-name="Trazado 742771" d="M122,326.779v18.775a28.641,28.641,0,0,0,6.336,17.577V344.356Z" transform="translate(-122.001 -326.779)" fill="#fff" opacity="0.3"/>
            </g>
            <g id="Grupo_932961" data-name="Grupo 932961" transform="translate(0.001)">
              <path id="Trazado_742772" data-name="Trazado 742772" d="M124.057,324.744a29.035,29.035,0,0,0,6.3,17.6l-2.023,1.2A29.027,29.027,0,0,1,122,325.961Z" transform="translate(-122.002 -324.744)" fill="#feca2e"/>
              <path id="Trazado_742773" data-name="Trazado 742773" d="M124.057,324.744a29.035,29.035,0,0,0,6.3,17.6l-2.023,1.2A29.027,29.027,0,0,1,122,325.961Z" transform="translate(-122.002 -324.744)" fill="#fff" opacity="0.5"/>
            </g>
            <path id="Trazado_742774" data-name="Trazado 742774" d="M134.622,354.176l-2.023,1.2v18.775l2.023-1.2Z" transform="translate(-126.263 -336.58)" fill="#feca2e"/>
          </g>
          <g id="Grupo_932963" data-name="Grupo 932963" transform="translate(161.136 78.698)">
            <path id="Trazado_742775" data-name="Trazado 742775" d="M379.789,343.05l2.162-2.344V323.53l-2.162,2.34Z" transform="translate(-379.638 -321.669)" fill="#feca2e"/>
            <path id="Trazado_742776" data-name="Trazado 742776" d="M379.789,343.05l2.162-2.344V323.53l-2.162,2.34Z" transform="translate(-379.638 -321.431)" opacity="0.2"/>
            <path id="Trazado_742777" data-name="Trazado 742777" d="M381.849,322.278a15.993,15.993,0,0,0-2.313-1.86s.114,2.337.151,4.2Z" transform="translate(-379.536 -320.418)" fill="#feca2e"/>
            <path id="Trazado_742778" data-name="Trazado 742778" d="M381.849,322.278a15.993,15.993,0,0,0-2.313-1.86s.114,2.337.151,4.2Z" transform="translate(-379.536 -320.418)" fill="#fff" opacity="0.4"/>
          </g>
          <g id="Grupo_932964" data-name="Grupo 932964" transform="translate(27.301 3.212)">
            <path id="Trazado_742779" data-name="Trazado 742779" d="M184.348,201.177a41.888,41.888,0,0,1,44.315-1.319,111.906,111.906,0,0,1,55.8,96.645v16.978c-4.819,5.875-16.676,13.206-28.695,16.561V315.527a111.908,111.908,0,0,0-55.8-96.645,41.889,41.889,0,0,0-44.293,1.3Z" transform="translate(-155.676 -194.156)" fill="#feca2e"/>
            <path id="Trazado_742780" data-name="Trazado 742780" d="M184.348,201.177a41.888,41.888,0,0,1,44.315-1.319,111.906,111.906,0,0,1,55.8,96.645v16.978c-4.819,5.875-16.676,13.206-28.695,16.561V315.527a111.908,111.908,0,0,0-55.8-96.645,41.889,41.889,0,0,0-44.293,1.3Z" transform="translate(-155.676 -194.156)" fill="#fff" opacity="0.4"/>
          </g>
          <g id="Grupo_932965" data-name="Grupo 932965" transform="translate(8.355 22.235)">
            <path id="Trazado_742781" data-name="Trazado 742781" d="M133.889,251.225a36.442,36.442,0,0,1,50.45-14.55h0a105.826,105.826,0,0,1,52.913,91.648v14.056l5.771,2.364V328.323a111.907,111.907,0,0,0-55.8-96.645,42.147,42.147,0,0,0-63.238,36.51v17.351l.869-.514A75.711,75.711,0,0,1,133.889,251.225Z" transform="translate(-123.986 -225.975)" fill="#feca2e"/>
            <path id="Trazado_742782" data-name="Trazado 742782" d="M133.889,251.225a36.442,36.442,0,0,1,50.45-14.55h0a105.826,105.826,0,0,1,52.913,91.648v14.056l5.771,2.364V328.323a111.907,111.907,0,0,0-55.8-96.645,42.147,42.147,0,0,0-63.238,36.51v17.351l.869-.514A75.711,75.711,0,0,1,133.889,251.225Z" transform="translate(-123.986 -225.975)" opacity="0.2"/>
          </g>
          <path id="Trazado_742783" data-name="Trazado 742783" d="M155.676,220.185l28.672-19.008a41.888,41.888,0,0,1,44.315-1.319,111.253,111.253,0,0,1,32.227,28.133L232.2,247.015a111.254,111.254,0,0,0-32.227-28.134,41.889,41.889,0,0,0-44.293,1.3Z" transform="translate(-128.375 -190.944)" fill="#fff" opacity="0.4"/>
          <g id="Grupo_932966" data-name="Grupo 932966" transform="translate(14.523 35.775)">
            <path id="Trazado_742784" data-name="Trazado 742784" d="M134.817,267.147c9.3-12.729,30.821-11.681,48.7,3.811,16.173,14.015,22.776,29.807,26.161,35.564s7.079-4.758-3.078-24.738-30.938-32.091-47.162-33.068C141,247.606,131.977,257.1,134.817,267.147Z" transform="translate(-131.93 -248.625)" fill="#feca2e"/>
            <path id="Trazado_742785" data-name="Trazado 742785" d="M134.817,267.147c9.3-12.729,30.821-11.681,48.7,3.811,16.173,14.015,22.776,29.807,26.161,35.564s7.079-4.758-3.078-24.738-30.938-32.091-47.162-33.068C141,247.606,131.977,257.1,134.817,267.147Z" transform="translate(-131.93 -248.628)" fill="#fff" opacity="0.5"/>
            <path id="Trazado_742786" data-name="Trazado 742786" d="M134.817,271.975a12.224,12.224,0,0,1,1.153-9.713c-2.679,5.462,4.292.6,11.11-.851,9.555-2.028,21.459-.372,33.733,8.268,11.822,8.322,21.66,23.191,26.013,30.5,4.169,7,5.963,3.772,3.247-5.773,5.646,14.8,2.515,21.9-.4,16.944-3.386-5.757-9.988-21.55-26.161-35.565C165.638,260.293,144.121,259.246,134.817,271.975Z" transform="translate(-134.304 -253.453)" fill="#feca2e" opacity="0.4"/>
          </g>
        </g>
      </g>
      <g id="Speech_Bubble" data-name="Speech Bubble" transform="translate(140.434 57.028)">
        <g id="Speech_Bubble-2" data-name="Speech Bubble" transform="translate(0 0)">
          <g id="Speech_Bubble-3" data-name="Speech Bubble">
            <path id="Trazado_742787" data-name="Trazado 742787" d="M258.617,89.745a26.273,26.273,0,0,1-7.076,17.991l-2.177,2.076A26.3,26.3,0,0,1,212.21,72.827l2.074-2.183a26.3,26.3,0,0,1,44.333,19.1Z" transform="translate(-203.746 -61.253)" fill="#fff"/>
            <path id="Trazado_742788" data-name="Trazado 742788" d="M230.73,59.752a28.547,28.547,0,0,0-4.624,56.707l3.224,8.264a1.658,1.658,0,0,0,3.093-.007l3.187-8.28a28.547,28.547,0,0,0-4.88-56.685Zm26.385,28.492a26.27,26.27,0,0,1-7.075,17.991l-2.177,2.076a26.3,26.3,0,0,1-37.155-36.984l2.075-2.183a26.3,26.3,0,0,1,44.332,19.1Z" transform="translate(-202.245 -59.752)" fill="#4dd0e1"/>
            <path id="Trazado_742789" data-name="Trazado 742789" d="M258.616,89.745a26.27,26.27,0,0,1-7.075,17.991l-2.177,2.076a26.3,26.3,0,0,1-37.155-36.984l2.075-2.183a26.3,26.3,0,0,1,44.332,19.1Z" transform="translate(-203.745 -61.253)" fill="#fff"/>
          </g>
          <g id="Check" transform="translate(12.024 14.26)">
            <path id="Trazado_742790" data-name="Trazado 742790" d="M235.1,112.186a3.9,3.9,0,0,1-2.848-1.235l-8.846-9.445a3.9,3.9,0,0,1,5.7-5.335l5.745,6.135,13.592-17.216a3.9,3.9,0,1,1,6.126,4.836l-16.4,20.777a3.9,3.9,0,0,1-2.9,1.481C235.215,112.185,235.159,112.186,235.1,112.186Z" transform="translate(-222.357 -83.604)" fill="#feca2e"/>
          </g>
        </g>
      </g>
    </g>
  </g>
</svg>
