<svg xmlns="http://www.w3.org/2000/svg" xmlns:xlink="http://www.w3.org/1999/xlink" width="549.058" height="324.566" viewBox="0 0 549.058 324.566">
  <defs>
    <linearGradient id="linear-gradient" x1="0.5" x2="0.5" y2="1" gradientUnits="objectBoundingBox">
      <stop offset="0" stop-color="#2e7d87"/>
      <stop offset="1" stop-color="#43b8c8"/>
    </linearGradient>
    <filter id="Trazado_736392" x="3.32" y="0" width="325.203" height="324.566" filterUnits="userSpaceOnUse">
      <feOffset dx="2" dy="9" input="SourceAlpha"/>
      <feGaussianBlur stdDeviation="3.5" result="blur"/>
      <feFlood flood-color="#b9b9b9" flood-opacity="0.98"/>
      <feComposite operator="in" in2="blur"/>
      <feComposite in="SourceGraphic"/>
    </filter>
  </defs>
  <g id="Grupo_933258" data-name="Grupo 933258" transform="translate(11983.221 20843.262)">
    <g id="Grupo_933257" data-name="Grupo 933257" transform="translate(-3844.004 -33486.844) rotate(-99)" opacity="0.57">
      <path id="Trazado_736393" data-name="Trazado 736393" d="M0,0V410.884S-.02,553.9.373,553.114s.95,0,.95,0" transform="translate(-11402.52 -9491.22) rotate(180)" fill="none" stroke="#3c9aa7" stroke-width="4"/>
      <g transform="matrix(-0.16, 0.99, -0.99, -0.16, -11214.66, -10016.9)" filter="url(#Trazado_736392)">
        <path id="Trazado_736392-2" data-name="Trazado 736392" d="M251.734,165.648l-86.565,86.815a45.954,45.954,0,0,1-65.118,0L13.485,165.648a46.28,46.28,0,0,1,0-65.309L100.05,13.525a45.954,45.954,0,0,1,65.118,0l86.565,86.814A46.272,46.272,0,0,1,251.734,165.648Z" transform="translate(274.53 1.5) rotate(81)" opacity="0.999" fill="url(#linear-gradient)"/>
      </g>
    </g>
  </g>
</svg>
