<svg xmlns="http://www.w3.org/2000/svg" width="1178" height="381" viewBox="0 0 1178 381">
  <g id="Grupo_933256" data-name="Grupo 933256" transform="translate(-198 -2624)">
    <text id="Piso_o_escaleras_deslizantes:_encerado_mojado_enjabonado_resbaloso_desgastado_cuarteado_roto._" data-name="Piso o escaleras deslizantes: encerado, mojado, enjabonado, resbaloso, desgastado, cuarteado, roto. " transform="translate(198 2635)" fill="#12263f" font-size="16" font-family="Roboto-Regular, Roboto"><tspan x="0" y="17">Piso o escaleras deslizantes: encerado, mojado, </tspan><tspan x="0" y="41">enjabonado, resbaloso, desgastado, cuarteado, roto. </tspan></text>
    <text id="Calzado_inadecuado._" data-name="Calzado inadecuado.  " transform="translate(421 2699)" fill="#12263f" font-size="16" font-family="Roboto-Regular, Roboto"><tspan x="0" y="17" xml:space="preserve">Calzado inadecuado.  </tspan></text>
    <text id="Espacios_con_obstáculos." data-name="Espacios con obstáculos." transform="translate(387 2744)" fill="#12263f" font-size="16" font-family="Roboto-Regular, Roboto"><tspan x="0" y="17">Espacios con obstáculos.</tspan></text>
    <text id="Pisos_deteriorados." data-name="Pisos deteriorados." transform="translate(434 2841)" fill="#12263f" font-size="16" font-family="Roboto-Regular, Roboto"><tspan x="0" y="17">Pisos deteriorados.</tspan></text>
    <text id="Iluminación_deficiente." data-name="Iluminación deficiente." transform="translate(413 2907)" fill="#12263f" font-size="16" font-family="Roboto-Regular, Roboto"><tspan x="0" y="17">Iluminación deficiente.</tspan></text>
    <text id="Manchas_de_aceite_u_otras_sustancias_en_el_piso." data-name="Manchas de aceite u otras sustancias en el piso." transform="translate(230 2876)" fill="#12263f" font-size="16" font-family="Roboto-Regular, Roboto"><tspan x="0" y="17">Manchas de aceite u otras sustancias en el piso.</tspan></text>
    <text id="Escaleras_sin_pasamanos_y_sin_cintas_antideslizantes." data-name="Escaleras sin pasamanos y sin cintas antideslizantes." transform="translate(303 2954)" fill="#12263f" font-size="16" font-family="Roboto-Regular, Roboto"><tspan x="0" y="17">Escaleras sin pasamanos y sin cintas </tspan><tspan x="0" y="41">antideslizantes.</tspan></text>
    <text id="Cables_sueltos_sin_entubar_o_sin_organizar_adecuadamente." data-name="Cables sueltos, sin entubar o sin organizar adecuadamente." transform="translate(340 2780)" fill="#12263f" font-size="16" font-family="Roboto-Regular, Roboto"><tspan x="0" y="17">Cables sueltos, sin entubar o sin </tspan><tspan x="0" y="41">organizar adecuadamente.</tspan></text>
    <text id="Condiciones_inseguras:" data-name="Condiciones inseguras:" transform="translate(722 2782)" fill="#12263f" font-size="16" font-family="Roboto-Regular, Roboto"><tspan x="0" y="17">Condiciones </tspan><tspan x="0" y="41">inseguras:</tspan></text>
    <text id="Actos_inseguros:" data-name="Actos inseguros:" transform="translate(864 2782)" fill="#12263f" font-size="16" font-family="Roboto-Regular, Roboto"><tspan x="0" y="17">Actos </tspan><tspan x="0" y="41">inseguros:</tspan></text>
    <text id="Saltar_los_peldaños_de_escaleras_de_dos_en_dos_o_de_tres_en_tres._" data-name="Saltar los peldaños de escaleras de dos en dos o de tres en tres. " transform="translate(1087 2628)" fill="#12263f" font-size="16" font-family="Roboto-Regular, Roboto"><tspan x="0" y="17">Saltar los peldaños de escaleras de dos </tspan><tspan x="0" y="41">en dos o de tres en tres. </tspan></text>
    <text id="Falta_de_auto_cuidado_por_parte_del_trabajador." data-name="Falta de auto cuidado por parte del trabajador." transform="translate(1087 2702)" fill="#12263f" font-size="16" font-family="Roboto-Regular, Roboto"><tspan x="0" y="17">Falta de auto cuidado por parte del </tspan><tspan x="0" y="41">trabajador.</tspan></text>
    <text id="Caminar_sobre_tablones_sueltos." data-name="Caminar sobre tablones sueltos." transform="translate(1087 2770)" fill="#12263f" font-size="16" font-family="Roboto-Regular, Roboto"><tspan x="0" y="17">Caminar sobre tablones sueltos.</tspan></text>
    <text id="Correr_saltar_desde_partes_elevadas." data-name="Correr, saltar desde partes elevadas." transform="translate(1087 2808)" fill="#12263f" font-size="16" font-family="Roboto-Regular, Roboto"><tspan x="0" y="17">Correr, saltar desde partes elevadas.</tspan></text>
    <text id="Caminar_sobre_tablones_sueltos.-2" data-name="Caminar sobre tablones sueltos." transform="translate(1087 2908)" fill="#12263f" font-size="16" font-family="Roboto-Regular, Roboto"><tspan x="0" y="17">Caminar sobre tablones sueltos.</tspan></text>
    <text id="Correr_saltar_desde_partes_elevadas.-2" data-name="Correr, saltar desde partes elevadas." transform="translate(1087 2963)" fill="#12263f" font-size="16" font-family="Roboto-Regular, Roboto"><tspan x="0" y="17">Correr, saltar desde partes elevadas.</tspan></text>
    <text id="Falta_de_auto_cuidado_por_parte_del_trabajador.-2" data-name="Falta de auto cuidado por parte del trabajador." transform="translate(1087 2853)" fill="#12263f" font-size="16" font-family="Roboto-Regular, Roboto"><tspan x="0" y="17">Falta de auto cuidado por parte del </tspan><tspan x="0" y="41">trabajador.</tspan></text>
    <g id="Grupo_929471" data-name="Grupo 929471" transform="translate(671.07 2564.514)">
      <path id="Trazado_736419" data-name="Trazado 736419" d="M242.945,144.3a114.807,114.807,0,0,1,.134,201.9" fill="none" stroke="#fd9927" stroke-miterlimit="10" stroke-width="4"/>
      <g id="Grupo_929469" data-name="Grupo 929469">
        <g id="Grupo_929461" data-name="Grupo 929461">
          <path id="Trazado_736420" data-name="Trazado 736420" d="M246.883,140.342,307.516,79.33h71.131" fill="none" stroke="#08477a" stroke-linecap="round" stroke-miterlimit="10" stroke-width="3" stroke-dasharray="0 10"/>
          <path id="Trazado_736433" data-name="Trazado 736433" d="M361.459,79.33h17.188" transform="translate(18.282)" fill="none" stroke="#08477a" stroke-linecap="round" stroke-miterlimit="10" stroke-width="3" stroke-dasharray="0 10"/>
          <path id="Trazado_736434" data-name="Trazado 736434" d="M361.459,79.33h17.188" transform="translate(35.47)" fill="none" stroke="#08477a" stroke-linecap="round" stroke-miterlimit="10" stroke-width="3" stroke-dasharray="0 10"/>
          <g id="Trazado_736421" data-name="Trazado 736421" fill="#fff" stroke-miterlimit="10">
            <path d="M 243.5370025634766 150.0189971923828 C 240.3995208740234 150.0189971923828 237.8470001220703 147.4660339355469 237.8470001220703 144.3280029296875 C 237.8470001220703 141.1916351318359 240.3995208740234 138.6399993896484 243.5370025634766 138.6399993896484 C 246.6744842529297 138.6399993896484 249.2270050048828 141.1916351318359 249.2270050048828 144.3280029296875 C 249.2270050048828 147.4660339355469 246.6744842529297 150.0189971923828 243.5370025634766 150.0189971923828 Z" stroke="none"/>
            <path d="M 243.5370025634766 139.6399993896484 C 240.9470062255859 139.6399993896484 238.8470001220703 141.7389984130859 238.8470001220703 144.3280029296875 C 238.8470001220703 146.9179992675781 240.9470062255859 149.0189971923828 243.5370025634766 149.0189971923828 C 246.1269989013672 149.0189971923828 248.2270050048828 146.9179992675781 248.2270050048828 144.3280029296875 C 248.2270050048828 141.7389984130859 246.1269989013672 139.6399993896484 243.5370025634766 139.6399993896484 M 243.5370025634766 137.6399993896484 C 247.2258758544922 137.6399993896484 250.2270050048828 140.6402130126953 250.2270050048828 144.3280029296875 C 250.2270050048828 148.0174255371094 247.2258758544922 151.0189971923828 243.5370025634766 151.0189971923828 C 239.8481292724609 151.0189971923828 236.8470001220703 148.0174255371094 236.8470001220703 144.3280029296875 C 236.8470001220703 140.6402130126953 239.8481292724609 137.6399993896484 243.5370025634766 137.6399993896484 Z" stroke="none" fill="#08477a"/>
          </g>
        </g>
        <g id="Grupo_929462" data-name="Grupo 929462">
          <path id="Trazado_736422" data-name="Trazado 736422" d="M281.456,169.559l15.563-16.068h77.772" fill="none" stroke="#2e7d87" stroke-linecap="round" stroke-miterlimit="10" stroke-width="3" stroke-dasharray="0 10" opacity="0.7"/>
          <path id="Trazado_736445" data-name="Trazado 736445" d="M297.019,153.491h27.91" transform="translate(91)" fill="none" stroke="#2e7d87" stroke-linecap="round" stroke-miterlimit="10" stroke-width="3" stroke-dasharray="0 10" opacity="0.7"/>
          <g id="Trazado_736423" data-name="Trazado 736423" fill="#fff" stroke-miterlimit="10">
            <path d="M 278.8748168945312 178.4140014648438 L 278.8746337890625 178.4140014648438 L 278.8726196289062 178.4140014648438 C 277.3529968261719 178.4134216308594 275.9244079589844 177.8208312988281 274.8499450683594 176.7454223632812 C 273.7756958007812 175.6702270507812 273.1844177246094 174.2415618896484 273.1849975585938 172.7226104736328 C 273.1862182617188 169.5870056152344 275.7388000488281 167.0359954833984 278.8751831054688 167.0359954833984 C 280.3970031738281 167.0365905761719 281.8255615234375 167.6289520263672 282.8999633789062 168.7039794921875 C 283.9742736816406 169.7789306640625 284.5655822753906 171.2074432373047 284.5650024414062 172.7263793945312 C 284.5637817382812 175.862548828125 282.0111694335938 178.4140014648438 278.8748168945312 178.4140014648438 Z" stroke="none"/>
            <path d="M 278.8748168945312 177.4140014648438 C 281.4639587402344 177.4140014648438 283.5639953613281 175.3143768310547 283.5650024414062 172.7259979248047 C 283.5660095214844 170.1380004882812 281.4670104980469 168.0370025634766 278.8770141601562 168.0359954833984 C 278.8763732910156 168.0359954833984 278.8758239746094 168.0359954833984 278.8751831054688 168.0359954833984 C 276.2860412597656 168.0359954833984 274.1860046386719 170.1346435546875 274.1849975585938 172.7230072021484 C 274.1839904785156 175.3110046386719 276.2829895019531 177.4129943847656 278.8729858398438 177.4140014648438 C 278.8736267089844 177.4140014648438 278.8741760253906 177.4140014648438 278.8748168945312 177.4140014648438 M 278.8748168945312 179.4140014648438 L 278.8729858398438 179.4140014648438 C 277.0854797363281 179.4132995605469 275.4057922363281 178.7165985107422 274.1425170898438 177.4522094726562 C 272.8794860839844 176.1880798339844 272.1842956542969 174.5082702636719 272.1849975585938 172.7222290039062 C 272.1864318847656 169.0354309082031 275.1876220703125 166.0359954833984 278.8751831054688 166.0359954833984 C 280.6644592285156 166.0366973876953 282.3440856933594 166.733154296875 283.6072692871094 167.9970703125 C 284.8704223632812 169.260986328125 285.5657043457031 170.9406890869141 285.5650024414062 172.7267761230469 C 285.5635681152344 176.4141235351562 282.5623779296875 179.4140014648438 278.8748168945312 179.4140014648438 Z" stroke="none" fill="#2e7d87"/>
          </g>
        </g>
        <g id="Grupo_929463" data-name="Grupo 929463">
          <g id="Trazado_736424" data-name="Trazado 736424" fill="#fff" stroke-miterlimit="10">
            <path d="M 242.7870025634766 352.4779968261719 C 239.6495208740234 352.4779968261719 237.0970001220703 349.9259338378906 237.0970001220703 346.7890014648438 C 237.0970001220703 343.6515197753906 239.6495208740234 341.0989990234375 242.7870025634766 341.0989990234375 C 245.9244842529297 341.0989990234375 248.4770050048828 343.6515197753906 248.4770050048828 346.7890014648438 C 248.4770050048828 349.9259338378906 245.9244842529297 352.4779968261719 242.7870025634766 352.4779968261719 Z" stroke="none"/>
            <path d="M 242.7870025634766 351.4779968261719 C 245.3769989013672 351.4779968261719 247.4770050048828 349.3779907226562 247.4770050048828 346.7890014648438 C 247.4770050048828 344.1990051269531 245.3769989013672 342.0989990234375 242.7870025634766 342.0989990234375 C 240.1970062255859 342.0989990234375 238.0970001220703 344.1990051269531 238.0970001220703 346.7890014648438 C 238.0970001220703 349.3779907226562 240.1970062255859 351.4779968261719 242.7870025634766 351.4779968261719 M 242.7870025634766 353.4779968261719 C 239.0981292724609 353.4779968261719 236.0970001220703 350.4773254394531 236.0970001220703 346.7890014648438 C 236.0970001220703 343.1001281738281 239.0981292724609 340.0989990234375 242.7870025634766 340.0989990234375 C 246.4758758544922 340.0989990234375 249.4770050048828 343.1001281738281 249.4770050048828 346.7890014648438 C 249.4770050048828 350.4773254394531 246.4758758544922 353.4779968261719 242.7870025634766 353.4779968261719 Z" stroke="none" fill="#4dd0e1"/>
          </g>
          <path id="Trazado_736425" data-name="Trazado 736425" d="M252.46,356.383l55.056,54.865h71.131" fill="none" stroke="#4dd0e1" stroke-linecap="round" stroke-miterlimit="10" stroke-width="3" stroke-dasharray="0 10"/>
          <path id="Trazado_736440" data-name="Trazado 736440" d="M307.516,411.248h36.413" transform="translate(72)" fill="none" stroke="#4dd0e1" stroke-linecap="round" stroke-miterlimit="10" stroke-width="3" stroke-dasharray="0 10"/>
        </g>
        <g id="Grupo_929464" data-name="Grupo 929464" transform="translate(0 7)">
          <path id="Trazado_736443" data-name="Trazado 736443" d="M0,0H93.051" transform="translate(297.961 207.583)" fill="none" stroke="#4dd0e1" stroke-linecap="round" stroke-width="3" stroke-dasharray="0 10" opacity="0.7"/>
          <path id="Trazado_736444" data-name="Trazado 736444" d="M0,0H18.583" transform="translate(399.961 207.583)" fill="none" stroke="#4dd0e1" stroke-linecap="round" stroke-width="3" stroke-dasharray="0 10" opacity="0.7"/>
          <g id="Trazado_736426" data-name="Trazado 736426" fill="#fff" stroke-miterlimit="10">
            <path d="M 296.7367553710938 213.2729949951172 L 296.7363891601562 213.2729949951172 L 296.7359924316406 213.2729949951172 C 293.5998229980469 213.2729949951172 291.0464172363281 210.7217102050781 291.0440063476562 207.5857696533203 C 291.0440063476562 204.4481964111328 293.5959167480469 201.8952178955078 296.7326049804688 201.8939971923828 C 299.8699951171875 201.8939971923828 302.4225769042969 204.44482421875 302.4249877929688 207.5802307128906 C 302.4249877929688 210.7171630859375 299.8732604980469 213.2705841064453 296.7367553710938 213.2729949951172 Z" stroke="none"/>
            <path d="M 296.7348327636719 202.8939971923828 C 296.7341918945312 202.8939971923828 296.733642578125 202.8939971923828 296.7330017089844 202.8939971923828 C 294.1430053710938 202.8950042724609 292.0440063476562 204.9960021972656 292.0440063476562 207.5850067138672 C 292.0459899902344 210.1750030517578 294.1470031738281 212.2729949951172 296.7359924316406 212.2729949951172 C 299.3259887695312 212.27099609375 301.4249877929688 210.1710052490234 301.4249877929688 207.5809936523438 C 301.4230041503906 204.9936370849609 299.3229370117188 202.8940277099609 296.7348327636719 202.8939971923828 M 296.7322082519531 200.8939971923828 L 296.7348327636719 200.8939971923828 C 300.4209899902344 200.8940582275391 303.4221801757812 203.8931427001953 303.4249877929688 207.5794677734375 C 303.4249877929688 211.2681274414062 300.4250183105469 214.2701416015625 296.737548828125 214.2729949951172 C 293.048828125 214.2729949951172 290.0468139648438 211.2734680175781 290.0440063476562 207.5865325927734 C 290.0440063476562 203.8970031738281 293.0443420410156 200.8954315185547 296.7322082519531 200.8939971923828 Z" stroke="none" fill="#4dd0e1"/>
          </g>
        </g>
        <g id="Grupo_929465" data-name="Grupo 929465" transform="translate(0 14)">
          <path id="Trazado_736441" data-name="Trazado 736441" d="M0,0H93.051" transform="translate(303.878 240.578)" fill="none" stroke="#feca2e" stroke-linecap="round" stroke-width="3" stroke-dasharray="0 10" opacity="0.7"/>
          <path id="Trazado_736442" data-name="Trazado 736442" d="M0,0H16.377" transform="translate(402.878 240.578)" fill="none" stroke="#feca2e" stroke-linecap="round" stroke-width="3" stroke-dasharray="0 10" opacity="0.7"/>
          <g id="Trazado_736427" data-name="Trazado 736427" fill="#fff" stroke-miterlimit="10">
            <path d="M 302.6537780761719 246.2680053710938 L 302.6534118652344 246.2680053710938 L 302.6530151367188 246.2680053710938 C 299.516845703125 246.2680053710938 296.9634399414062 243.7167205810547 296.9609985351562 240.5807800292969 C 296.9609985351562 237.4431762695312 299.5129089355469 234.8902130126953 302.6495971679688 234.8890075683594 C 305.7869567871094 234.8890075683594 308.3395690917969 237.4398345947266 308.3420104980469 240.5752258300781 C 308.3420104980469 243.712158203125 305.790283203125 246.2655792236328 302.6537780761719 246.2680053710938 Z" stroke="none"/>
            <path d="M 302.6518249511719 235.8890075683594 C 302.6512145996094 235.8890075683594 302.650634765625 235.8890075683594 302.6499938964844 235.8890075683594 C 300.0599975585938 235.8899993896484 297.9609985351562 237.9909973144531 297.9609985351562 240.5800018310547 C 297.9630126953125 243.1699981689453 300.0639953613281 245.2680053710938 302.6530151367188 245.2680053710938 C 305.2430114746094 245.2660064697266 307.3420104980469 243.1660003662109 307.3420104980469 240.5760040283203 C 307.3399963378906 237.9886322021484 305.239990234375 235.8890228271484 302.6518249511719 235.8890075683594 M 302.6492309570312 233.8890075683594 L 302.6518249511719 233.8890075683594 C 306.3379516601562 233.8890380859375 309.3391418457031 236.8881225585938 309.3420104980469 240.5744476318359 C 309.3420104980469 244.2631378173828 306.342041015625 247.2651519775391 302.6545715332031 247.2680053710938 C 298.9658813476562 247.2680053710938 295.9638671875 244.2684783935547 295.9609985351562 240.5815582275391 C 295.9609985351562 236.8919982910156 298.9613342285156 233.8904266357422 302.6492309570312 233.8890075683594 Z" stroke="none" fill="#feca2e"/>
          </g>
        </g>
        <g id="Grupo_929467" data-name="Grupo 929467" transform="translate(-6 6.368)">
          <path id="Trazado_736429" data-name="Trazado 736429" d="M267.411,332.849,279.9,346.2H357.67" fill="none" stroke="#08477a" stroke-linecap="round" stroke-miterlimit="10" stroke-width="3" stroke-dasharray="0 10" opacity="0.7"/>
          <path id="Trazado_736439" data-name="Trazado 736439" d="M301.251,346.2h59.006" transform="translate(61.672)" fill="none" stroke="#08477a" stroke-linecap="round" stroke-miterlimit="10" stroke-width="3" stroke-dasharray="0 10" opacity="0.7"/>
          <g id="Trazado_736430" data-name="Trazado 736430" fill="#fff" stroke-miterlimit="10">
            <path d="M 265.3084106445312 335.822998046875 L 265.3081970214844 335.822998046875 L 265.30615234375 335.822998046875 C 262.1703491210938 335.8229675292969 259.6182250976562 333.2723999023438 259.6170043945312 330.1373901367188 C 259.6164245605469 328.6180419921875 260.2077026367188 327.1890869140625 261.2818908691406 326.11376953125 C 262.3563232421875 325.0382385253906 263.7849426269531 324.4455871582031 265.3045959472656 324.4450073242188 C 268.44384765625 324.4450073242188 270.9960021972656 326.9966125488281 270.9960021972656 330.1329956054688 C 270.99658203125 331.6519470214844 270.4052429199219 333.0806274414062 269.3309020996094 334.1554565429688 C 268.2566223144531 335.2301940917969 266.8280639648438 335.8224182128906 265.3084106445312 335.822998046875 Z" stroke="none"/>
            <path d="M 265.3068237304688 325.4450073242188 C 265.3062133789062 325.4450073242188 265.3056335449219 325.4450073242188 265.3049926757812 325.4450073242188 C 262.7149963378906 325.4460144042969 260.6159973144531 327.5480041503906 260.6170043945312 330.1369934082031 C 260.6180114746094 332.7253723144531 262.718017578125 334.822998046875 265.3061828613281 334.822998046875 C 265.3067932128906 334.822998046875 265.307373046875 334.822998046875 265.3080139160156 334.822998046875 C 267.8980102539062 334.8219909667969 269.9970092773438 332.7219848632812 269.9960021972656 330.1329956054688 C 269.9960021972656 327.5446472167969 267.8949890136719 325.4450378417969 265.3068237304688 325.4450073242188 M 265.30419921875 323.4450073242188 L 265.3068237304688 323.4450073242188 C 268.9952697753906 323.4450378417969 271.9960021972656 326.4452514648438 271.9960021972656 330.1329956054688 C 271.9967041015625 331.9187316894531 271.3013916015625 333.5986022949219 270.0381774902344 334.8623962402344 C 268.7751159667969 336.1260070800781 267.0955200195312 336.8222961425781 265.3088073730469 336.822998046875 C 261.6191711425781 336.822998046875 258.6184387207031 333.8240356445312 258.6170043945312 330.1377563476562 C 258.6163024902344 328.3513488769531 259.3114624023438 326.6712951660156 260.5744323730469 325.4070129394531 C 261.837646484375 324.1424865722656 263.5173950195312 323.4457092285156 265.30419921875 323.4450073242188 Z" stroke="none" fill="#08477a"/>
          </g>
        </g>
        <g id="Grupo_929468" data-name="Grupo 929468">
          <line id="Línea_1058" data-name="Línea 1058" x2="93.051" transform="translate(291.678 298.541)" fill="none" stroke="#cba124" stroke-linecap="round" stroke-miterlimit="10" stroke-width="3" stroke-dasharray="0 10" opacity="0.7"/>
          <line id="Línea_1062" data-name="Línea 1062" x2="25.751" y2="0.445" transform="translate(390.678 298.541)" fill="none" stroke="#cba124" stroke-linecap="round" stroke-miterlimit="10" stroke-width="3" stroke-dasharray="0 10" opacity="0.7"/>
          <g id="Trazado_736431" data-name="Trazado 736431" fill="#fff" stroke-miterlimit="10">
            <path d="M 290.4547729492188 304.2300109863281 L 290.4544067382812 304.2300109863281 L 290.4540100097656 304.2300109863281 C 287.3172912597656 304.2300109863281 284.763427734375 301.6791687011719 284.760986328125 298.5437927246094 C 284.760986328125 295.4056091308594 287.3128967285156 292.8522033691406 290.4496459960938 292.8510131835938 C 293.5870056152344 292.8510131835938 296.1395874023438 295.4022827148438 296.1419982910156 298.5382385253906 C 296.1419982910156 301.6745910644531 293.5907287597656 304.2275695800781 290.4547729492188 304.2300109863281 Z" stroke="none"/>
            <path d="M 290.4518737792969 293.8510131835938 C 290.4512329101562 293.8510131835938 290.4506530761719 293.8510131835938 290.4500122070312 293.8510131835938 C 287.8599853515625 293.8519897460938 285.760986328125 295.9540100097656 285.760986328125 298.5429992675781 C 285.7630004882812 301.1329956054688 287.864013671875 303.2300109863281 290.4540100097656 303.2300109863281 C 293.0440063476562 303.2279968261719 295.1419982910156 301.1289978027344 295.1419982910156 298.5390014648438 C 295.1400146484375 295.9506530761719 293.0409851074219 293.8510437011719 290.4518737792969 293.8510131835938 M 290.4492492675781 291.8510131835938 L 290.4518737792969 291.8510131835938 C 294.1380004882812 291.8510437011719 297.1391906738281 294.8505859375 297.1419982910156 298.5374755859375 C 297.1419982910156 302.2255554199219 294.1424865722656 305.2271423339844 290.45556640625 305.2300109863281 C 286.7663269042969 305.2300109863281 283.7638549804688 302.2309265136719 283.760986328125 298.5445556640625 C 283.760986328125 294.8544311523438 286.7613220214844 291.8524169921875 290.4492492675781 291.8510131835938 Z" stroke="none" fill="#cba124"/>
          </g>
        </g>
      </g>
      <g id="Grupo_929470" data-name="Grupo 929470">
        <text id="TITLE_GOES_HERE" data-name="TITLE GOES HERE" transform="translate(290.267 66.487)" fill="#fff" font-size="7.658" font-family="Montserrat-Bold, Montserrat" font-weight="700"><tspan x="0" y="0">TITLE GOES HERE</tspan></text>
      </g>
      <path id="Trazado_736432" data-name="Trazado 736432" d="M243.076,173.676c20.892,12.866,35.081,38.012,35.081,66.926,0,28.879-14.154,54-35,66.879" fill="none" stroke="#4dd0e1" stroke-miterlimit="10" stroke-width="4"/>
    </g>
    <g id="Grupo_929472" data-name="Grupo 929472" transform="translate(591 2624)">
      <path id="Trazado_736419-2" data-name="Trazado 736419" d="M303.14,144.3a114.807,114.807,0,0,0-.134,201.9" transform="translate(-149.156 -59.487)" fill="none" stroke="#fd9927" stroke-miterlimit="10" stroke-width="4"/>
      <g id="Grupo_929469-2" data-name="Grupo 929469" transform="translate(0 19.843)">
        <g id="Grupo_929461-2" data-name="Grupo 929461" transform="translate(18.282)">
          <path id="Trazado_736420-2" data-name="Trazado 736420" d="M378.647,140.342,318.014,79.33H246.883" transform="translate(-246.883 -79.33)" fill="none" stroke="#fd9927" stroke-linecap="round" stroke-miterlimit="10" stroke-width="3" stroke-dasharray="0 10"/>
          <path id="Trazado_736435" data-name="Trazado 736435" d="M278.235,79.33H246.883" transform="translate(-278.235 -79.33)" fill="none" stroke="#fd9927" stroke-linecap="round" stroke-miterlimit="10" stroke-width="3" stroke-dasharray="0 10"/>
          <g id="Trazado_736421-2" data-name="Trazado 736421" transform="translate(-108.427 -79.33)" fill="#fff" stroke-miterlimit="10">
            <path d="M 243.5369873046875 150.0189971923828 C 240.3995208740234 150.0189971923828 237.8470001220703 147.4660339355469 237.8470001220703 144.3280029296875 C 237.8470001220703 141.1916351318359 240.3995208740234 138.6399993896484 243.5369873046875 138.6399993896484 C 246.6744689941406 138.6399993896484 249.2269897460938 141.1916351318359 249.2269897460938 144.3280029296875 C 249.2269897460938 147.4660339355469 246.6744689941406 150.0189971923828 243.5369873046875 150.0189971923828 Z" stroke="none"/>
            <path d="M 243.5369873046875 139.6399993896484 C 240.9470062255859 139.6399993896484 238.8470001220703 141.7389984130859 238.8470001220703 144.3280029296875 C 238.8470001220703 146.9179992675781 240.9470062255859 149.0189971923828 243.5369873046875 149.0189971923828 C 246.1269836425781 149.0189971923828 248.2269897460938 146.9179992675781 248.2269897460938 144.3280029296875 C 248.2269897460938 141.7389984130859 246.1269836425781 139.6399993896484 243.5369873046875 139.6399993896484 M 243.5369873046875 137.6399993896484 C 247.2258605957031 137.6399993896484 250.2269897460938 140.6402130126953 250.2269897460938 144.3280029296875 C 250.2269897460938 148.0174255371094 247.2258605957031 151.0189971923828 243.5369873046875 151.0189971923828 C 239.8481140136719 151.0189971923828 236.8470001220703 148.0174255371094 236.8470001220703 144.3280029296875 C 236.8470001220703 140.6402130126953 239.8481140136719 137.6399993896484 243.5369873046875 137.6399993896484 Z" stroke="none" fill="#fd9927"/>
          </g>
        </g>
        <g id="Grupo_929462-2" data-name="Grupo 929462" transform="translate(28.138 69.688)">
          <path id="Trazado_736422-2" data-name="Trazado 736422" d="M374.791,169.559l-15.562-16.068H281.456" transform="translate(-281.456 -153.491)" fill="none" stroke="#4fc8f0" stroke-linecap="round" stroke-miterlimit="10" stroke-width="3" stroke-dasharray="0 10" opacity="0.7"/>
          <g id="Trazado_736423-2" data-name="Trazado 736423" transform="translate(-182.959 -153.491)" fill="#fff" stroke-miterlimit="10">
            <path d="M 278.8774108886719 178.4140014648438 L 278.877197265625 178.4140014648438 L 278.8751831054688 178.4140014648438 C 275.7388000488281 178.4139556884766 273.1862182617188 175.8624877929688 273.1849975585938 172.7263641357422 C 273.1844177246094 171.2074279785156 273.7757263183594 169.7789154052734 274.8500366210938 168.7039642333984 C 275.9244384765625 167.6289367675781 277.3529968261719 167.0365753173828 278.8725891113281 167.0359802246094 C 282.0111999511719 167.0359802246094 284.5637817382812 169.5869903564453 284.5650024414062 172.7225952148438 C 284.5655822753906 174.2415466308594 283.9743041992188 175.6702117919922 282.9000549316406 176.7454071044922 C 281.8255920410156 177.8208312988281 280.3970031738281 178.4134063720703 278.8774108886719 178.4140014648438 Z" stroke="none"/>
            <path d="M 278.8751831054688 177.4140014648438 C 278.8758239746094 177.4140014648438 278.8763732910156 177.4140014648438 278.8770141601562 177.4140014648438 C 281.4670104980469 177.4129943847656 283.5660095214844 175.3110046386719 283.5650024414062 172.7229919433594 C 283.5639953613281 170.1346282958984 281.4639587402344 168.0359802246094 278.8748168945312 168.0359802246094 C 278.8741760253906 168.0359802246094 278.8736267089844 168.0359802246094 278.8729858398438 168.0359802246094 C 276.2829895019531 168.0369873046875 274.1839904785156 170.1379852294922 274.1849975585938 172.7259826660156 C 274.1860046386719 175.3143615722656 276.2860412597656 177.4139709472656 278.8751831054688 177.4140014648438 M 278.8777770996094 179.4140014648438 L 278.8751831054688 179.4140014648438 C 275.1876220703125 179.4139404296875 272.1864318847656 176.4140625 272.1849975585938 172.7267456054688 C 272.1842956542969 170.940673828125 272.8795776367188 169.2609710693359 274.1427307128906 167.9970550537109 C 275.4059143066406 166.7331390380859 277.0855407714844 166.0366821289062 278.8722229003906 166.0359802246094 C 282.5623779296875 166.0359802246094 285.5635681152344 169.0354156494141 285.5650024414062 172.7222137451172 C 285.5657043457031 174.5082550048828 284.8705139160156 176.1880645751953 283.6074829101562 177.4522094726562 C 282.3442077636719 178.7165832519531 280.6645202636719 179.4132995605469 278.8777770996094 179.4140014648438 Z" stroke="none" fill="#4dd0e1"/>
          </g>
        </g>
        <g id="Grupo_929463-2" data-name="Grupo 929463" transform="translate(18.282 262.769)">
          <g id="Trazado_736424-2" data-name="Trazado 736424" transform="translate(-106.927 -342.099)" fill="#fff" stroke-miterlimit="10">
            <path d="M 242.7869873046875 352.4779968261719 C 239.6495208740234 352.4779968261719 237.0970001220703 349.9259033203125 237.0970001220703 346.7889709472656 C 237.0970001220703 343.6514892578125 239.6495208740234 341.0989685058594 242.7869873046875 341.0989685058594 C 245.9244537353516 341.0989685058594 248.4769744873047 343.6514892578125 248.4769744873047 346.7889709472656 C 248.4769744873047 349.9259033203125 245.9244537353516 352.4779968261719 242.7869873046875 352.4779968261719 Z" stroke="none"/>
            <path d="M 242.7869873046875 351.4779968261719 C 245.3769836425781 351.4779968261719 247.4769744873047 349.3779907226562 247.4769744873047 346.7889709472656 C 247.4769744873047 344.198974609375 245.3769836425781 342.0989685058594 242.7869873046875 342.0989685058594 C 240.1969909667969 342.0989685058594 238.0970001220703 344.198974609375 238.0970001220703 346.7889709472656 C 238.0970001220703 349.3779907226562 240.1969909667969 351.4779968261719 242.7869873046875 351.4779968261719 M 242.7869873046875 353.4779968261719 C 239.0981140136719 353.4779968261719 236.0970001220703 350.4773254394531 236.0970001220703 346.7889709472656 C 236.0970001220703 343.10009765625 239.0981140136719 340.0989685058594 242.7869873046875 340.0989685058594 C 246.4758605957031 340.0989685058594 249.4769744873047 343.10009765625 249.4769744873047 346.7889709472656 C 249.4769744873047 350.4773254394531 246.4758605957031 353.4779968261719 242.7869873046875 353.4779968261719 Z" stroke="none" fill="#0b5999"/>
          </g>
          <path id="Trazado_736425-2" data-name="Trazado 736425" d="M378.647,356.383l-55.056,54.865H252.46" transform="translate(-252.46 -342.099)" fill="none" stroke="#0b5999" stroke-linecap="round" stroke-miterlimit="10" stroke-width="3" stroke-dasharray="0 10"/>
          <path id="Trazado_736437" data-name="Trazado 736437" d="M285.743,411.248H252.46" transform="translate(-285.742 -342.099)" fill="none" stroke="#0b5999" stroke-linecap="round" stroke-miterlimit="10" stroke-width="3" stroke-dasharray="0 10"/>
        </g>
        <g id="Grupo_929464-2" data-name="Grupo 929464" transform="translate(13.917 107.564)">
          <line id="Línea_1055" data-name="Línea 1055" x1="93.051" transform="translate(0 4.689)" fill="none" stroke="#0b5999" stroke-linecap="round" stroke-miterlimit="10" stroke-width="3" stroke-dasharray="0 10" opacity="0.7"/>
          <path id="Trazado_736436" data-name="Trazado 736436" d="M95.146,0H66.579" transform="translate(-102.095 4.689)" fill="none" stroke="#ff4a2a" stroke-linecap="round" stroke-width="3" stroke-dasharray="0 10" opacity="0.7"/>
          <g id="Trazado_736426-2" data-name="Trazado 736426" transform="translate(-202.457 -202.894)" fill="#fff" stroke-miterlimit="10">
            <path d="M 296.7329711914062 213.2729949951172 L 296.7325744628906 213.2729949951172 L 296.7322082519531 213.2729949951172 C 293.595703125 213.2705688476562 291.0440063476562 210.7171478271484 291.0440063476562 207.5809783935547 C 291.0464172363281 204.4448089599609 293.5989990234375 201.8939819335938 296.734130859375 201.8939819335938 C 299.873046875 201.8952026367188 302.4249572753906 204.4481811523438 302.4249572753906 207.5849914550781 C 302.4225463867188 210.7217102050781 299.869140625 213.2729949951172 296.7329711914062 213.2729949951172 Z" stroke="none"/>
            <path d="M 296.734130859375 202.8939819335938 C 294.1460571289062 202.8939819335938 292.0459899902344 204.9936218261719 292.0440063476562 207.5809783935547 C 292.0440063476562 210.1709899902344 294.1430053710938 212.27099609375 296.7329711914062 212.2729949951172 C 299.3219604492188 212.2729949951172 301.4229736328125 210.1749877929688 301.4249572753906 207.5849914550781 C 301.4249572753906 204.9959869384766 299.3259582519531 202.8949890136719 296.7359619140625 202.8939819335938 C 296.7353210449219 202.8939819335938 296.7347717285156 202.8939819335938 296.734130859375 202.8939819335938 M 296.734130859375 200.8939819335938 L 296.7359619140625 200.8939819335938 C 300.4246520996094 200.8954162597656 303.4249572753906 203.8969879150391 303.4249572753906 207.5849914550781 C 303.4221496582031 211.2734527587891 300.4201354980469 214.2729949951172 296.7329711914062 214.2729949951172 C 293.0439758300781 214.2701416015625 290.0440063476562 211.2681274414062 290.0440063476562 207.5809783935547 C 290.0468139648438 203.89306640625 293.0480041503906 200.8939819335938 296.734130859375 200.8939819335938 Z" stroke="none" fill="#0b5999"/>
          </g>
        </g>
        <g id="Grupo_929465-2" data-name="Grupo 929465" transform="translate(2 143.559)">
          <line id="Línea_1056" data-name="Línea 1056" x1="93.051" transform="translate(0 4.689)" fill="none" stroke="#3da6b4" stroke-linecap="round" stroke-miterlimit="10" stroke-width="3" stroke-dasharray="0 10" opacity="0.7"/>
          <line id="Línea_1061" data-name="Línea 1061" x1="16.551" y2="0.408" transform="translate(-20.5 4.689)" fill="none" stroke="#3da6b4" stroke-linecap="round" stroke-miterlimit="10" stroke-width="3" stroke-dasharray="0 10" opacity="0.7"/>
          <g id="Trazado_736427-2" data-name="Trazado 736427" transform="translate(-208.374 -235.889)" fill="#fff" stroke-miterlimit="10">
            <path d="M 302.6499633789062 246.2680053710938 L 302.6495666503906 246.2680053710938 L 302.6492004394531 246.2680053710938 C 299.5126953125 246.2655792236328 296.9609680175781 243.712158203125 296.9609680175781 240.5760040283203 C 296.9634094238281 237.4398345947266 299.5160217285156 234.8890075683594 302.6511535644531 234.8890075683594 C 305.7900695800781 234.8902130126953 308.3419799804688 237.4431762695312 308.3419799804688 240.5800018310547 C 308.3395385742188 243.7167205810547 305.7861328125 246.2680053710938 302.6499633789062 246.2680053710938 Z" stroke="none"/>
            <path d="M 302.6511535644531 235.8890075683594 C 300.06298828125 235.8890075683594 297.9629821777344 237.9886322021484 297.9609680175781 240.5760040283203 C 297.9609680175781 243.1660003662109 300.0599670410156 245.2660064697266 302.6499633789062 245.2680053710938 C 305.2389831542969 245.2680053710938 307.3399658203125 243.1699981689453 307.3419799804688 240.5800018310547 C 307.3419799804688 237.9909973144531 305.2429809570312 235.8899993896484 302.6529846191406 235.8890075683594 C 302.65234375 235.8890075683594 302.6517639160156 235.8890075683594 302.6511535644531 235.8890075683594 M 302.6511535644531 233.8890075683594 L 302.6529846191406 233.8890075683594 C 306.3416442871094 233.8904266357422 309.3419799804688 236.8919982910156 309.3419799804688 240.5800018310547 C 309.339111328125 244.2684783935547 306.3370971679688 247.2680053710938 302.6499633789062 247.2680053710938 C 298.9609375 247.2651519775391 295.9609680175781 244.2631378173828 295.9609680175781 240.5760040283203 C 295.9638366699219 236.8880767822266 298.9650268554688 233.8890075683594 302.6511535644531 233.8890075683594 Z" stroke="none" fill="#3da6b4"/>
          </g>
        </g>
        <g id="Grupo_929466" data-name="Grupo 929466" transform="translate(8 203.27)">
          <line id="Línea_1057" data-name="Línea 1057" x1="93.051" transform="translate(0 4.689)" fill="none" stroke="#a9c5db" stroke-linecap="round" stroke-miterlimit="10" stroke-width="3" stroke-dasharray="0 10" opacity="0.7"/>
          <line id="Línea_1060" data-name="Línea 1060" x1="18.551" y1="0.303" transform="translate(-26.5 4.387)" fill="none" stroke="#a9c5db" stroke-linecap="round" stroke-miterlimit="10" stroke-width="3" stroke-dasharray="0 10" opacity="0.7"/>
          <g id="Trazado_736428" data-name="Trazado 736428" transform="translate(-207.147 -263.6)" fill="#fff" stroke-miterlimit="10">
            <path d="M 301.4229736328125 273.97900390625 L 301.4225769042969 273.97900390625 L 301.4222106933594 273.97900390625 C 298.2862548828125 273.9765625 295.7349853515625 271.4231262207031 295.7349853515625 268.2869873046875 C 295.7373962402344 265.1508178710938 298.2899780273438 262.6000061035156 301.4251098632812 262.6000061035156 C 304.5635070800781 262.6012268066406 307.1149597167969 265.1542053222656 307.1149597167969 268.2909851074219 C 307.1125183105469 271.4277038574219 304.5591125488281 273.97900390625 301.4229736328125 273.97900390625 Z" stroke="none"/>
            <path d="M 301.4251098632812 263.6000061035156 C 298.8359985351562 263.6000061035156 296.7369689941406 265.6986389160156 296.7349853515625 268.2869873046875 C 296.7349853515625 270.8770141601562 298.8329772949219 272.9769897460938 301.4229736328125 272.97900390625 C 304.0129699707031 272.97900390625 306.1129455566406 270.8810119628906 306.1149597167969 268.2909851074219 C 306.1149597167969 265.7019958496094 304.0169677734375 263.6010131835938 301.4269714355469 263.6000061035156 C 301.4263305664062 263.6000061035156 301.4257507324219 263.6000061035156 301.4251098632812 263.6000061035156 M 301.4251098632812 261.6000061035156 L 301.4269714355469 261.6000061035156 C 305.1150817871094 261.6014404296875 308.1149597167969 264.6029968261719 308.1149597167969 268.2909851074219 C 308.1120910644531 271.9794616699219 305.1100769042969 274.97900390625 301.4229736328125 274.97900390625 C 297.7344970703125 274.9761352539062 294.7349853515625 271.97412109375 294.7349853515625 268.2869873046875 C 294.73779296875 264.5990905761719 297.7389831542969 261.6000061035156 301.4251098632812 261.6000061035156 Z" stroke="none" fill="#a9c5db"/>
          </g>
        </g>
        <g id="Grupo_929467-2" data-name="Grupo 929467" transform="translate(44.259 252.115)">
          <path id="Trazado_736429-2" data-name="Trazado 736429" d="M357.67,332.849,345.183,346.2H267.411" transform="translate(-267.411 -325.445)" fill="none" stroke="#feca2e" stroke-linecap="round" stroke-miterlimit="10" stroke-width="3" stroke-dasharray="0 10" opacity="0.7"/>
          <path id="Trazado_736438" data-name="Trazado 736438" d="M321.259,346.2H267.411" transform="translate(-326.67 -325.445)" fill="none" stroke="#feca2e" stroke-linecap="round" stroke-miterlimit="10" stroke-width="3" stroke-dasharray="0 10" opacity="0.7"/>
          <g id="Trazado_736430-2" data-name="Trazado 736430" transform="translate(-172.943 -325.445)" fill="#fff" stroke-miterlimit="10">
            <path d="M 265.3068237304688 335.822998046875 L 265.306640625 335.822998046875 L 265.3045959472656 335.822998046875 C 263.7849426269531 335.8224182128906 262.3563842773438 335.2301940917969 261.2821044921875 334.1554260253906 C 260.207763671875 333.0806274414062 259.616455078125 331.6519470214844 259.6170349121094 330.1325988769531 C 259.6170349121094 326.9966125488281 262.1691589355469 324.4450073242188 265.3061828613281 324.4450073242188 C 266.8280639648438 324.4455871582031 268.2566833496094 325.0382385253906 269.3311157226562 326.11376953125 C 270.4053039550781 327.1890869140625 270.99658203125 328.6180419921875 270.9960021972656 330.1373901367188 C 270.9947814941406 333.2724304199219 268.442626953125 335.822998046875 265.3068237304688 335.822998046875 Z" stroke="none"/>
            <path d="M 265.3061828613281 325.4450073242188 C 262.718017578125 325.4450073242188 260.6170349121094 327.5446472167969 260.6170349121094 330.1329956054688 C 260.6160278320312 332.7219848632812 262.7149963378906 334.8219909667969 265.3049926757812 334.822998046875 C 265.3056335449219 334.822998046875 265.3062133789062 334.822998046875 265.3068237304688 334.822998046875 C 267.8949890136719 334.822998046875 269.9949951171875 332.7253723144531 269.9960021972656 330.1369934082031 C 269.9970092773438 327.5480041503906 267.8980102539062 325.4460144042969 265.3080139160156 325.4450073242188 C 265.307373046875 325.4450073242188 265.3067932128906 325.4450073242188 265.3061828613281 325.4450073242188 M 265.3061828613281 323.4450073242188 L 265.3080139160156 323.4450073242188 C 267.0956115722656 323.4457092285156 268.7753601074219 324.1424865722656 270.03857421875 325.4070129394531 C 271.3015441894531 326.6712951660156 271.9967041015625 328.3513488769531 271.9960021972656 330.1377868652344 C 271.9945678710938 333.8240356445312 268.9938354492188 336.822998046875 265.3068237304688 336.822998046875 C 263.5174865722656 336.8222961425781 261.8379211425781 336.1260070800781 260.5748596191406 334.8623962402344 C 259.3116455078125 333.5986022949219 258.6163330078125 331.9187316894531 258.6170349121094 330.1322021484375 C 258.6170349121094 326.4452209472656 261.6177673339844 323.4450073242188 265.3061828613281 323.4450073242188 Z" stroke="none" fill="#feca2e"/>
          </g>
        </g>
        <g id="Grupo_929468-2" data-name="Grupo 929468" transform="translate(25.166 235.521)">
          <line id="Línea_1058-2" data-name="Línea 1058" x1="93.051" transform="translate(0 4.69)" fill="none" stroke="#4dd0e1" stroke-linecap="round" stroke-miterlimit="10" stroke-width="3" stroke-dasharray="0 10" opacity="0.7"/>
          <line id="Línea_1059" data-name="Línea 1059" x1="33.717" y2="0.445" transform="translate(-39.666 4.689)" fill="none" stroke="#4dd0e1" stroke-linecap="round" stroke-miterlimit="10" stroke-width="3" stroke-dasharray="0 10" opacity="0.7"/>
          <g id="Trazado_736431-2" data-name="Trazado 736431" transform="translate(-196.174 -293.851)" fill="#fff" stroke-miterlimit="10">
            <path d="M 290.448974609375 304.2300109863281 L 290.4485778808594 304.2300109863281 L 290.4482116699219 304.2300109863281 C 287.312255859375 304.2275695800781 284.760986328125 301.6745910644531 284.760986328125 298.5390014648438 C 284.7633972167969 295.4022827148438 287.3159790039062 292.8510131835938 290.4511413574219 292.8510131835938 C 293.590087890625 292.8522033691406 296.1419982910156 295.4056091308594 296.1419982910156 298.5429992675781 C 296.1395568847656 301.6791687011719 293.585693359375 304.2300109863281 290.448974609375 304.2300109863281 Z" stroke="none"/>
            <path d="M 290.4511413574219 293.8510131835938 C 287.8619995117188 293.8510131835938 285.7629699707031 295.9506530761719 285.760986328125 298.5390014648438 C 285.760986328125 301.1289978027344 287.8589782714844 303.2279968261719 290.448974609375 303.2300109863281 C 293.0389709472656 303.2300109863281 295.1399841308594 301.1329956054688 295.1419982910156 298.5429992675781 C 295.1419982910156 295.9540100097656 293.0429992675781 293.8519897460938 290.4529724121094 293.8510131835938 C 290.4523315429688 293.8510131835938 290.4517517089844 293.8510131835938 290.4511413574219 293.8510131835938 M 290.4511413574219 291.8510131835938 L 290.4529724121094 291.8510131835938 C 294.1416625976562 291.8524169921875 297.1419982910156 294.8544311523438 297.1419982910156 298.5429992675781 C 297.1391296386719 302.2309265136719 294.1366577148438 305.2300109863281 290.448974609375 305.2300109863281 C 286.760498046875 305.2271423339844 283.760986328125 302.2255554199219 283.760986328125 298.5390014648438 C 283.7637939453125 294.8505249023438 286.7649841308594 291.8510131835938 290.4511413574219 291.8510131835938 Z" stroke="none" fill="#4dd0e1"/>
          </g>
        </g>
        <g id="Grupo_929473" data-name="Grupo 929473" transform="translate(-3.563 81.65)">
          <path id="Trazado_736422-3" data-name="Trazado 736422" d="M359.862,153.491H328.98l-8.056.555" transform="translate(-335.133 -165.491)" fill="none" stroke="#4fc8f0" stroke-linecap="round" stroke-miterlimit="10" stroke-width="3" stroke-dasharray="0 10" opacity="0.7"/>
        </g>
      </g>
      <g id="Grupo_929470-2" data-name="Grupo 929470" transform="translate(35.662 0)">
        <text id="TITLE_GOES_HERE-2" data-name="TITLE GOES HERE" transform="matrix(-1, 0, 0, 1, 64, 7)" fill="#fff" font-size="7" font-family="Montserrat-Bold, Montserrat" font-weight="700"><tspan x="0" y="0">TITLE GOES HERE</tspan></text>
      </g>
      <path id="Trazado_736432-2" data-name="Trazado 736432" d="M278.157,173.676c-20.892,12.866-35.081,38.012-35.081,66.926,0,28.879,14.154,54,35,66.879" transform="translate(-124.304 -59.487)" fill="none" stroke="#4dd0e1" stroke-miterlimit="10" stroke-width="4"/>
    </g>
  </g>
</svg>
