<svg xmlns="http://www.w3.org/2000/svg" xmlns:xlink="http://www.w3.org/1999/xlink" width="308.961" height="198.256" viewBox="0 0 308.961 198.256">
  <defs>
    <linearGradient id="linear-gradient" x1="0.5" y1="1" x2="0.5" gradientUnits="objectBoundingBox">
      <stop offset="0" stop-color="#2e7d87"/>
      <stop offset="1" stop-color="#43b8c8"/>
    </linearGradient>
    <filter id="Trazado_736394">
      <feOffset dx="2" dy="2" input="SourceAlpha"/>
      <feGaussianBlur stdDeviation="8" result="blur"/>
      <feFlood flood-color="#2c2a2a" flood-opacity="0.161" result="color"/>
      <feComposite operator="out" in="SourceGraphic" in2="blur"/>
      <feComposite operator="in" in="color"/>
      <feComposite operator="in" in2="SourceGraphic"/>
    </filter>
  </defs>
  <g id="Grupo_933257" data-name="Grupo 933257" transform="translate(16874.338 16897.895)">
    <g id="Grupo_933017" data-name="Grupo 933017" transform="translate(-8491.89 -3331.988) rotate(14)" opacity="0.57">
      <path id="Trazado_736393" data-name="Trazado 736393" d="M188.143,0H0" transform="translate(-11214.354 -11093.632) rotate(180)" fill="none" stroke="#3c9aa7" stroke-width="4"/>
      <g data-type="innerShadowGroup">
        <path id="Trazado_736394-2" data-name="Trazado 736394" d="M154.873,101.91l-53.257,53.411a28.273,28.273,0,0,1-40.062,0L8.3,101.91a28.473,28.473,0,0,1,0-40.179L61.553,8.321a28.272,28.272,0,0,1,40.062,0l53.257,53.41A28.468,28.468,0,0,1,154.873,101.91Z" transform="translate(-11106.01 -11007.843) rotate(180)" opacity="0.999" fill="url(#linear-gradient)"/>
        <g transform="matrix(0.97, -0.24, 0.24, 0.97, -11415.34, -11135.04)" filter="url(#Trazado_736394)">
          <path id="Trazado_736394-3" data-name="Trazado 736394" d="M154.873,101.91l-53.257,53.411a28.273,28.273,0,0,1-40.062,0L8.3,101.91a28.473,28.473,0,0,1,0-40.179L61.553,8.321a28.272,28.272,0,0,1,40.062,0l53.257,53.41A28.468,28.468,0,0,1,154.873,101.91Z" transform="translate(269.37 198.26) rotate(-166)" fill="#fff" opacity="0.999"/>
        </g>
      </g>
    </g>
  </g>
</svg>
