<svg xmlns="http://www.w3.org/2000/svg" width="125.126" height="106.009" viewBox="0 0 125.126 106.009">
  <g id="Grupo_933261" data-name="Grupo 933261" transform="translate(-834.541 -6228.598)">
    <g id="Grupo_932830" data-name="Grupo 932830" transform="translate(538.215 6206.51)">
      <g id="Grupo_932823" data-name="Grupo 932823" transform="translate(296.326 36.378)">
        <g id="Grupo_932822" data-name="Grupo 932822">
          <path id="Trazado_742365" data-name="Trazado 742365" d="M359.136,87.832V85.663L296.326,49.4v2.169Z" transform="translate(-296.326 -25.894)" fill="#c9b5b5"/>
          <path id="Trazado_742366" data-name="Trazado 742366" d="M359.136,92.184l40.713-23.506-62.81-36.263L296.326,55.92Z" transform="translate(-296.326 -32.414)" fill="#fff"/>
          <path id="Trazado_742367" data-name="Trazado 742367" d="M357.663,88.634,394.037,67.5,335.988,33.981,299.614,55.119Z" transform="translate(-295.064 -31.813)" fill="#8b98f7"/>
          <path id="Trazado_742368" data-name="Trazado 742368" d="M382.426,58.618v2.169L341.712,84.293V82.124Z" transform="translate(-278.902 -22.355)" fill="#e0d1d1"/>
        </g>
        <path id="Trazado_742369" data-name="Trazado 742369" d="M344.656,37.641l-39.141,22.6,1.06.612,39-22.519Z" transform="translate(-292.798 -30.408)" fill="#fff"/>
        <path id="Trazado_742370" data-name="Trazado 742370" d="M353.686,42.712l-39.141,22.6,1.06.612,39-22.519Z" transform="translate(-289.332 -28.461)" fill="#fff"/>
        <path id="Trazado_742371" data-name="Trazado 742371" d="M362.543,47.877,323.4,70.475l1.06.612,39-22.519Z" transform="translate(-285.932 -26.478)" fill="#fff"/>
        <path id="Trazado_742372" data-name="Trazado 742372" d="M371.572,52.948l-39.141,22.6,1.06.612,39-22.519Z" transform="translate(-282.465 -24.531)" fill="#fff"/>
        <path id="Trazado_742373" data-name="Trazado 742373" d="M317.677,38.519l59.882,34.467-1.06.612L316.755,39.21Z" transform="translate(-288.483 -30.071)" fill="#fff"/>
        <path id="Trazado_742374" data-name="Trazado 742374" d="M308.647,43.59l59.882,34.467-1.06.612L307.725,44.281Z" transform="translate(-291.95 -28.124)" fill="#fff"/>
      </g>
      <g id="Grupo_932825" data-name="Grupo 932825" transform="translate(341.192 22.089)">
        <path id="Trazado_742375" data-name="Trazado 742375" d="M376.847,34.858a3.576,3.576,0,0,0,1.708-1.349c.85-1.144,1.445-1.809,2.4-1.965,1.612-.263,2.156,1,3.314,1.232a16.256,16.256,0,0,0,3.168-.143c2.5-.112,5.024,1.95.948,3.656s-8.8,2.135-9.506,2.726S376.847,34.858,376.847,34.858Z" transform="translate(-310.28 -18.472)" fill="#351817"/>
        <path id="Trazado_742376" data-name="Trazado 742376" d="M370.511,31.128a3.57,3.57,0,0,0,1.706-1.349c.851-1.143,1.446-1.809,2.405-1.965,1.611-.262,2.156,1,3.314,1.232A16.234,16.234,0,0,0,381.1,28.9c2.5-.112,5.025,1.949.949,3.655s-8.8,2.135-9.507,2.726S370.511,31.128,370.511,31.128Z" transform="translate(-312.712 -19.904)" fill="#351817"/>
        <path id="Trazado_742377" data-name="Trazado 742377" d="M376.425,29.418c-.891.358-4.47,1.344-9.1,3.058a12.034,12.034,0,0,0-2.523,1.287c-.433-1.308-.792-2.382-.792-2.382L356.8,33.574a27.356,27.356,0,0,0,1.666,6.175c1.118,2.4,2.005,3.932,3.49,3.489,0,0,6.636-3.218,10.949-5.52s4.976-2.2,6.868-3.638C380.107,32.847,379.241,28.684,376.425,29.418Z" transform="translate(-317.975 -19.308)" fill="#f6d87e"/>
        <path id="Trazado_742378" data-name="Trazado 742378" d="M342.084,35.916c-.775-1.355-2.52-1.365-3.857-1.958-.515,2.277-1.2,4.918-1.637,7a38.77,38.77,0,0,1-1.121,5.228c-.624,1.706-4.455,4.889-2.574,5.417a2.939,2.939,0,0,0,2.988-.234c1-.587,1.38-2.213,1.665-2.523.071-.075.6-.462.743.216.176.84.833.926.908.489.2-1.135.044-2.048-.85-2.523-.151-1.143,1.518-3.137,2.463-5.336C341.922,39.109,342.333,36.351,342.084,35.916Z" transform="translate(-327.351 -17.532)" fill="#ffb9a4"/>
        <path id="Trazado_742379" data-name="Trazado 742379" d="M367.525,24.962c-2.721-2.265-5.978-.566-9.714-.313-2.665.18-4.989,1.742-9.012,1.9-2.973.115-8.943,1-10.635,3.969s2.256,8.867,4.322,10.666c3.017,2.625,5.844,3.584,9.52,2.632,2.614-.678,7.214-2.329,9.251-4.792.72.292,1.424.352,1.542-.587.545-.5,2.991-1,4.458-1.232,2.616-.408,4.314-2.646,4.42-5.632C371.79,28.382,369.753,26.818,367.525,24.962Z" transform="translate(-325.288 -21.431)" fill="#ff9d3a"/>
        <path id="Trazado_742380" data-name="Trazado 742380" d="M345.94,34.1c-.983-2.556-1.643-3.872-4.01-4.892-1.47-.632-2.912,2.719-4.875,3.6.2,1.143,2.826,4.95,3,4.788a10.384,10.384,0,0,1,3.77,2.408c.2.166,1.676-.538,1.818-.745C344.365,37.789,344.228,36.739,345.94,34.1Z" transform="translate(-325.556 -19.386)" fill="#ffb9a4"/>
        <path id="Trazado_742381" data-name="Trazado 742381" d="M338.668,30.912a2.82,2.82,0,0,1,1.409-2.288,12.346,12.346,0,0,1,4.985-1.91c2.112-.26,6.489-.729,6.489-.729l-.565-.469a65.77,65.77,0,0,0-7.039.41c-1.877.353-4.517,1.467-5.572,2.639a4.354,4.354,0,0,0-1.173,1.951Z" transform="translate(-325.5 -20.773)" fill="#feca2e"/>
        <path id="Trazado_742382" data-name="Trazado 742382" d="M389.918,36.979a70.821,70.821,0,0,1-8.158,3.446,11.883,11.883,0,0,0-3.306,1.857,16.985,16.985,0,0,0-.736-1.982,49.507,49.507,0,0,0-3.226-6.371,8.438,8.438,0,0,0-.118-7.1,11.8,11.8,0,0,0-3.45-3.337,8.612,8.612,0,0,0-4.291-1.356c-2.732-.28-5.923.659-9.092,1.407-5.475,1.294-10.716,2.939-12.2,3.348,1.98.339,3.8,1.954,5.223,3.332a9,9,0,0,0,2.346.125c2.371-.425,4.046-1.232,6.158,0a4.983,4.983,0,0,1,2.678,3.929c.383,1.917-.511,3.266-1.251,4.485.645-.176,3.384.032,3.617-.291.793,2.768,5.7,8.858,9.012,11.951a3.108,3.108,0,0,0,3.26.692l.01.066a84.749,84.749,0,0,0,9.889-5.525c4.031-2.772,4.7-3.028,6.048-3.5C393.408,40.293,392.117,36.7,389.918,36.979Z" transform="translate(-322.376 -22.089)" fill="#feca2e"/>
        <path id="Trazado_742383" data-name="Trazado 742383" d="M339.06,30.228a2.734,2.734,0,0,1,2.683,0,6.039,6.039,0,0,1,2.854,4.2c.152,1.782.14,3.8-.352,4.286a5.012,5.012,0,0,1-1.607.839l.645.451s1.149.393,1.7-.392.411-5.513.411-5.513a5.533,5.533,0,0,0-1.878-3.755c-1.717-1.237-1.877-1.2-2.991-1.216a3.475,3.475,0,0,0-2.054.805Z" transform="translate(-325.012 -19.386)" fill="#fc811d"/>
        <path id="Trazado_742384" data-name="Trazado 742384" d="M345.086,42.821s-2.517-3.785-.3-7.609,7.617-6.377,11.14-6.863.775-1.968.775-1.968a22.74,22.74,0,0,0-9.687,4.373c-3.572,2.867-3.8,3.977-4.34,6.071-.645,2.492.929,5.659.929,5.659Z" transform="translate(-323.46 -20.44)" fill="#feca2e"/>
        <path id="Trazado_742385" data-name="Trazado 742385" d="M341.611,32.051c-3.278-2.553-8.006-2.481-10.161,1.436-.213.387-.028,3.355,4.052,5.674a8.547,8.547,0,0,0,6.115.966C346.35,39.054,344.34,34.177,341.611,32.051Z" transform="translate(-327.73 -18.932)" fill="#ffc9b6"/>
        <path id="Trazado_742386" data-name="Trazado 742386" d="M343.844,30.971c-2.026-.967-2.321-1.378-4.2-2.264-2.218-1.046-4.488-1.353-5.837-.3s-2.718,3.285-1.7,4.707A5,5,0,0,0,329.88,36.5c-.25,2.141,1.662,4.174,3.3,5.292,2.322-.484,4.982-4.058,5.334-5.994A28.97,28.97,0,0,0,343.844,30.971Z" transform="translate(-328.319 -19.913)" fill="#351817"/>
        <path id="Trazado_742387" data-name="Trazado 742387" d="M336.783,34.8a1.592,1.592,0,0,1,.181-2.65c1.74-1.349,2.4,1.454,2.4,1.454Z" transform="translate(-325.907 -18.369)" fill="#ffc9b6"/>
        <path id="Trazado_742388" data-name="Trazado 742388" d="M355.173,29.923a12.972,12.972,0,0,1,.41,2.566,18.637,18.637,0,0,0,.212,2.362,4.857,4.857,0,0,0,.61-2.479A5.225,5.225,0,0,0,355.173,29.923Z" transform="translate(-318.6 -19.081)" fill="#fc811d"/>
        <path id="Trazado_742389" data-name="Trazado 742389" d="M353.979,31.16a5.58,5.58,0,0,0,0,2.364c.293,1.146.88,1.637.88,1.508a6.05,6.05,0,0,0-.234-1.926C354.332,32.089,353.979,31.16,353.979,31.16Z" transform="translate(-319.109 -18.606)" fill="#fc811d"/>
        <path id="Trazado_742390" data-name="Trazado 742390" d="M359.411,32.692a14.394,14.394,0,0,0,3.955-2.054,8.184,8.184,0,0,0,1.676-2.58l1.232.41a5.055,5.055,0,0,1-2.628,3.882c-2.434,1.232-2.827,1.456-2.827,1.456Z" transform="translate(-316.974 -19.796)" fill="#d8a610"/>
        <g id="Grupo_932824" data-name="Grupo 932824" transform="translate(0 6.905)">
          <path id="Trazado_742391" data-name="Trazado 742391" d="M336.168,33.352a30.18,30.18,0,0,1,4.3,2.459,15.29,15.29,0,0,0,2.1,1.477,1.506,1.506,0,0,0-.162-1.968c-.9-1.093-5.44-3.861-5.44-3.861Z" transform="translate(-325.896 -25.396)" fill="#351817"/>
          <path id="Trazado_742392" data-name="Trazado 742392" d="M331.03,40.781c1.668,2.02,5.45.36,6.841-2.524a23.473,23.473,0,0,0,1.82-6.342,6.769,6.769,0,0,0-8.594,3.392C330.079,37.259,329.731,39.209,331.03,40.781Z" transform="translate(-328.192 -25.396)" fill="#ffbc15"/>
          <path id="Trazado_742393" data-name="Trazado 742393" d="M340.068,28.967s-5.21-4.438-8.975.291c-3.462,4.348-2.858,8.883.268,10.681s6.589-.31,8.226-4.333C341.243,31.538,340.068,28.967,340.068,28.967Z" transform="translate(-328.746 -27.078)" fill="#ffd140"/>
          <path id="Trazado_742394" data-name="Trazado 742394" d="M329.858,38.739s3.641,1.648,5.991-.411,2.386-3.184,3.287-6.676a6.343,6.343,0,0,0-.231-3.593l.736.531s1.576,2.163-.273,6.976-5.435,4.708-6.891,4.567A3.727,3.727,0,0,1,329.858,38.739Z" transform="translate(-328.319 -26.701)" fill="#ffa300"/>
          <path id="Trazado_742395" data-name="Trazado 742395" d="M337.795,28.714s-3.541-1.409-5.527,1.012c-2.164,2.638-2.124,4.563-1.8,6.039a6.266,6.266,0,0,0,1.694,2.733,7.276,7.276,0,0,0,4.864-4.3C338.341,30.7,337.795,28.714,337.795,28.714Z" transform="translate(-328.147 -26.606)" fill="#ffbc15"/>
        </g>
      </g>
      <path id="Trazado_742418" data-name="Trazado 742418" d="M344.483,36.19c-.169,1.244.667,3.806,2.881,4.307,2.164.489,7.531-.985,7.531-.985a44.7,44.7,0,0,0-5.615,5.7c-1.212.613-1.778.709-3.281,1.478a2.124,2.124,0,0,1,.558,1.1l-.042,4.336s.057.3.9-.544c1.05.329,2.265-.574,3.11-3.892,4.273-1.942,8.6-7.166,9.077-8.177.93-1.979-.219-3.613-1.639-4.577a16.715,16.715,0,0,0-7.984-2.494C348.828,32.437,344.841,33.548,344.483,36.19Z" transform="translate(18.479 3.973)" fill="#ffb9a4"/>
      <path id="Trazado_742419" data-name="Trazado 742419" d="M354.573,32.918a29.6,29.6,0,0,0-6.158-.958c-2.041.1-3.352,1.139-4.1,3.842s.422,4.512,2.393,5.235,5.642.006,5.642.006a5.423,5.423,0,0,0,2.67-3.6A6.4,6.4,0,0,0,354.573,32.918Z" transform="translate(18.333 3.787)" fill="#fc811d"/>
    </g>
    <g id="Grupo_932821" data-name="Grupo 932821" transform="translate(578.309 5964.021)">
      <g id="Grupo_932820" data-name="Grupo 932820" transform="translate(325.692 296.985)">
        <path id="Trazado_742320" data-name="Trazado 742320" d="M312.776,287.737l6.5-.787-.469,4.4s-4.438-.7-4.989-.333a5.716,5.716,0,0,1-2.2.333S311.237,287.923,312.776,287.737Z" transform="translate(-303.926 -265.592)" fill="#ffb9a4"/>
        <path id="Trazado_742321" data-name="Trazado 742321" d="M324.431,306.26s3.807.7,4.712,1.91.353,2.565.528,4.053-.462,2.914-2.057,2.844c-1.4-.062-1.347-1.3-1.583-2.093,0,0-3.932-.415-5.943-1.815S321.119,305.886,324.431,306.26Z" transform="translate(-300.259 -256.606)" fill="#351817"/>
        <path id="Trazado_742322" data-name="Trazado 742322" d="M315.35,293.817c3.15-.7,7.048.479,10.369,2.023a.647.647,0,0,1,.242.064c3.974,1.91,13.3,1.846,13.251,1.983a14.763,14.763,0,0,1,.671,7.611c-.626,2.384-2.714,4.7-5.56,4.336a7.5,7.5,0,0,1-6.67.613c.045.066.377.538.821,1.206a4.176,4.176,0,0,0-3.445,1.595,7.257,7.257,0,0,0-1.124,2.108c-1.253-.934-2.489-1.958-3.363-2.618-1.63-1.233-7.224-7.3-7.224-12.4A3.766,3.766,0,0,1,315.35,293.817Z" transform="translate(-303.685 -262.489)" fill="#e7ae03"/>
        <path id="Trazado_742323" data-name="Trazado 742323" d="M314.01,314.822a17.513,17.513,0,0,1,2.488-6.784c2.5-3.734,4.521-9.215,7.2-10.929,3.228-2.066,10.479-.443,10.724-.573-.06,1.762.613,5.972.344,7.919a14.124,14.124,0,0,1-1.136,4.243c-.787,1.53-2.917,2.888-6.057,2.976a12.145,12.145,0,0,1-3.826,4.021,34.338,34.338,0,0,1,3.738,2.889,68.629,68.629,0,0,0,8.211,6.707,6.174,6.174,0,0,0-1.721,1.448,4.225,4.225,0,0,0-.888,2.082c-5.39-1.231-9.661-4.052-14.088-7.174a16.954,16.954,0,0,1-3.592-3.674A1.935,1.935,0,0,1,314.01,314.822Z" transform="translate(-302.992 -261.351)" fill="#feca2e"/>
        <path id="Trazado_742324" data-name="Trazado 742324" d="M323.2,290.6c-.773-3.732-1.292-8.876-1.292-8.876s3.948-4.309,7.843.6c1.2,1.516,1.108,3.558,1.454,4.389a5.082,5.082,0,0,1,.8,2.48C329.727,291.752,325.963,291.63,323.2,290.6Z" transform="translate(-299.111 -268.841)" fill="#9dd4ea"/>
        <g id="Grupo_932813" data-name="Grupo 932813" transform="translate(7.207 1.292)">
          <path id="Trazado_742325" data-name="Trazado 742325" d="M319.576,285.978l3.167,2.6c1.706-.607,3.007-2.624,3.738-4.556-.624-.5-2.838-1.765-2.995-2.435.66-1.841-.337-3.392-2.047-5.046a5.56,5.56,0,0,0-6.96-.185,3.046,3.046,0,0,0-1.535,2.907c.215,1.96,1.336,6.666,3,7.515C317.1,287.365,318.457,286.4,319.576,285.978Z" transform="translate(-310.502 -272.349)" fill="#ffc9b6"/>
          <path id="Trazado_742326" data-name="Trazado 742326" d="M324.9,277.422a4.319,4.319,0,0,0-2.583-3.568c-1.806-.828-5.03-.946-6.484.683a.915.915,0,0,0-.075-.157,1.187,1.187,0,0,0-1.717-.086,2.991,2.991,0,0,0-.934,1.289,1.411,1.411,0,0,0-.96.018c-1.05.434-1.01,1.922-.639,2.79.768,1.8,3.612,3.772,5.71,3.281-.106,1.048.408,1.617,1.248,2.3a4.394,4.394,0,0,0,4.688.394,5.4,5.4,0,0,0,3.095-4.725A2.8,2.8,0,0,0,324.9,277.422Z" transform="translate(-311.273 -273.262)" fill="#351817"/>
          <path id="Trazado_742327" data-name="Trazado 742327" d="M314.824,279.546a.927.927,0,0,1,1.538-.459c1.157.768-.227,3.058-.227,3.058Z" transform="translate(-309.618 -270.666)" fill="#ffc9b6"/>
        </g>
        <path id="Trazado_742328" data-name="Trazado 742328" d="M320.016,285c4.037-3.1,3.9-3.457,5.842-4.3,1.7-.736,6.623,3.828,8.17,8.594a108.646,108.646,0,0,1,3.354,15.746c-3.885,3.546-9.942,2.819-14.638.657a25.965,25.965,0,0,1-4.389-7.183,27.748,27.748,0,0,1-2.217-6.661C315.772,289.933,315.98,288.107,320.016,285Z" transform="translate(-301.856 -268.539)" fill="#cbecfd"/>
        <path id="Trazado_742329" data-name="Trazado 742329" d="M327.112,314.635a26.714,26.714,0,0,1,4.122,0c1.195.2,1.371,2.362,2.42,3.382s4.09,1.547,4.9,3.646-.668,5.349-2.568,4.549c-3.118-1.312-9.417-6.562-9.417-6.562A4.515,4.515,0,0,1,327.112,314.635Z" transform="translate(-297.175 -252.734)" fill="#351817"/>
        <path id="Trazado_742354" data-name="Trazado 742354" d="M306.721,288.756a2.835,2.835,0,0,1-.232-2.237l2.093,1.2c.828.605,1.489-1.111,2.183-1.337.941-.3.566.871.281,1.337s-1.045,1.456-.664,2.07a17.092,17.092,0,0,0,3.1,2h0a15.122,15.122,0,0,1,2.642,1.514c.306-.7,2.266-4.052,4.685-5.251,0,0,4.722,2.908,4.235,4.333-1.091,3.187-5.355,4.959-6.384,5.342s-1.753.874-3.178.412a13.868,13.868,0,0,1-3.364-2.4l-.015-.006v-.006c-.979-.849-2.01-1.8-2.939-2.694C306.914,290.874,306.719,289.97,306.721,288.756Z" transform="translate(-306.356 -265.881)" fill="#ffc9b6"/>
        <path id="Trazado_742355" data-name="Trazado 742355" d="M319.421,297.349a9.57,9.57,0,0,1-5.915-5.323c.334-.362,1.138-1.605,1.544-1.982,1.533-4.009,3.681-5.584,5.382-5.675a3.533,3.533,0,0,1,3.662,4.354C323.307,293.631,321.85,295.418,319.421,297.349Z" transform="translate(-303.025 -266.797)" fill="#9dd4ea"/>
        <path id="Trazado_742356" data-name="Trazado 742356" d="M322.842,281.091a13.2,13.2,0,0,1,3.882,2.884,17.49,17.49,0,0,1,3.537,7.053h1.312s-1.721-5.336-3.811-7.707a8.86,8.86,0,0,0-4.578-2.993A.941.941,0,0,0,322.842,281.091Z" transform="translate(-298.677 -268.678)" fill="#feca2e"/>
        <path id="Trazado_742357" data-name="Trazado 742357" d="M326.067,280.69s-1.959-1.164-2.885-.676-3.858,2.482-4.4,3.533a14.194,14.194,0,0,0-.913,2.85,21.741,21.741,0,0,0,5.716-3.238C326.067,281.089,326.067,280.69,326.067,280.69Z" transform="translate(-300.991 -268.88)" fill="#9dd4ea"/>
        <path id="Trazado_742358" data-name="Trazado 742358" d="M320.122,301.574s1.542,1.665,3.746-.314a8.012,8.012,0,0,0,2.375-9.337,81.567,81.567,0,0,0,6.276-5.382c1.223,1.986,1.693,5.9,2.774,8.412a14.177,14.177,0,0,1,1.108,7.381,11.043,11.043,0,0,1-6.28,4.137c-5.84,1.686-11.124-2.181-10.857-2.926S320.122,301.574,320.122,301.574Z" transform="translate(-300.347 -265.782)" fill="#feca2e"/>
        <path id="Trazado_742359" data-name="Trazado 742359" d="M321.9,287.273a18.848,18.848,0,0,1,5.53,6.924l1.058-1.108s-3.3-5.443-6.227-7.454a11.111,11.111,0,0,0-3.194-1.563,1.4,1.4,0,0,0-1.624.758S318.746,285.025,321.9,287.273Z" transform="translate(-301.193 -266.961)" fill="#feca2e"/>
        <path id="Trazado_742360" data-name="Trazado 742360" d="M337.541,296.722V298.9s-1.982,2.422-6.746,3.458-9,.035-10.531-.786a18.351,18.351,0,0,1-3.174-2.354l1.146-.97s.705.837,3.825,1.767a19.456,19.456,0,0,0,9.369.152C333.783,299.565,337.541,296.722,337.541,296.722Z" transform="translate(-301.355 -261.039)" fill="#e4b939"/>
        <path id="Trazado_742361" data-name="Trazado 742361" d="M320.931,309.812a2.8,2.8,0,0,1-1.369.875,6.818,6.818,0,0,1-2.244-.441s.793-.217,1.533-.434C319.427,309.642,320.316,309.922,320.931,309.812Z" transform="translate(-301.249 -254.965)" fill="#ea462a"/>
        <g id="Grupo_932819" data-name="Grupo 932819" transform="translate(10.532)">
          <path id="Trazado_742362" data-name="Trazado 742362" d="M321.8,276.6a18.132,18.132,0,0,0,4.219,4.028c2.307,1.5-.471,4.128-2.516,4.046a6.386,6.386,0,0,1-5.4-3.131,8.922,8.922,0,0,0-2.087-2.353Z" transform="translate(-312.389 -270.413)" fill="#05457a"/>
          <path id="Trazado_742363" data-name="Trazado 742363" d="M313.541,276.662c.334-3.712,5.647-5.813,9.712-2.942,2.224,1.57,3.433,4.905,1.28,8.46C324.043,283.609,314.424,283.137,313.541,276.662Z" transform="translate(-313.541 -272.381)" fill="#0b5999"/>
          <path id="Trazado_742364" data-name="Trazado 742364" d="M318.542,273.075c-.139.29.183.733.718.989s1.083.229,1.221-.06-.183-.733-.718-.989S318.682,272.786,318.542,273.075Z" transform="translate(-311.226 -272.167)" fill="#1579ca"/>
        </g>
      </g>
    </g>
  </g>
</svg>
