<svg xmlns="http://www.w3.org/2000/svg" width="91.404" height="168.913" viewBox="0 0 91.404 168.913">
  <g id="Grupo_933262" data-name="Grupo 933262" transform="translate(-222.25 -2761.913)">
    <g id="Grupo_931619" data-name="Grupo 931619" transform="translate(94.694 2569.994)">
      <g id="Grupo_931606" data-name="Grupo 931606" transform="translate(127.771 191.919)">
        <g id="Grupo_931602" data-name="Grupo 931602" transform="translate(17.948 6.869)">
          <path id="Trazado_741306" data-name="Trazado 741306" d="M140.937,199.433l71.422,41.236,1.154-2.555L142.16,196.957Z" transform="translate(-140.638 -196.875)" fill="#135f9d"/>
          <path id="Trazado_741307" data-name="Trazado 741307" d="M140.72,198.733c0,.665.4.971.9.683a2.164,2.164,0,0,0,.9-1.727c0-.665-.4-.971-.9-.683A2.164,2.164,0,0,0,140.72,198.733Z" transform="translate(-140.72 -196.897)" fill="#9dd4ea"/>
        </g>
        <g id="Grupo_931603" data-name="Grupo 931603" transform="translate(17.948 97.319)">
          <path id="Trazado_741308" data-name="Trazado 741308" d="M140.937,264.988l71.422,41.236,1.154-2.555L142.16,262.512Z" transform="translate(-140.638 -262.43)" fill="#1562a2"/>
          <path id="Trazado_741309" data-name="Trazado 741309" d="M140.72,264.288c0,.665.4.971.9.683a2.164,2.164,0,0,0,.9-1.728c0-.665-.4-.971-.9-.683A2.163,2.163,0,0,0,140.72,264.288Z" transform="translate(-140.72 -262.452)" fill="#9dd4ea"/>
        </g>
        <g id="Grupo_931601" data-name="Grupo 931601" transform="translate(15.922)">
          <rect id="Rectángulo_313335" data-name="Rectángulo 313335" width="3.549" height="116.196" transform="translate(3.549 117.34) rotate(180)" fill="#0869b9"/>
          <path id="Trazado_741304" data-name="Trazado 741304" d="M139.252,277.278c0,.632.793,1.144,1.774,1.144s1.774-.512,1.774-1.144-.795-1.145-1.774-1.145S139.252,276.646,139.252,277.278Z" transform="translate(-139.251 -159.938)" fill="#cbecfd"/>
          <path id="Trazado_741305" data-name="Trazado 741305" d="M139.252,193.064c0,.632.793,1.144,1.774,1.144s1.774-.512,1.774-1.144-.795-1.145-1.774-1.145S139.252,192.431,139.252,193.064Z" transform="translate(-139.251 -191.919)" fill="#e3f7ff"/>
        </g>
        <g id="Grupo_931604" data-name="Grupo 931604" transform="translate(87.64 41.273)">
          <rect id="Rectángulo_313336" data-name="Rectángulo 313336" width="3.549" height="116.196" transform="translate(3.549 117.34) rotate(180)" fill="#0869b9"/>
          <path id="Trazado_741310" data-name="Trazado 741310" d="M191.23,307.191c0,.632.795,1.144,1.774,1.144s1.774-.512,1.774-1.144-.795-1.145-1.774-1.145S191.23,306.559,191.23,307.191Z" transform="translate(-191.23 -189.851)" fill="#cbecfd"/>
          <path id="Trazado_741311" data-name="Trazado 741311" d="M191.23,222.976c0,.632.795,1.145,1.774,1.145s1.774-.513,1.774-1.145-.795-1.144-1.774-1.144S191.23,222.344,191.23,222.976Z" transform="translate(-191.23 -221.832)" fill="#e3f7ff"/>
        </g>
        <g id="Grupo_931605" data-name="Grupo 931605" transform="translate(0 101.24)">
          <path id="Trazado_741312" data-name="Trazado 741312" d="M127.712,274.623l73.951,42.7,16.159-9.329-73.951-42.7Z" transform="translate(-127.712 -265.294)" fill="#dd895f"/>
          <path id="Trazado_741313" data-name="Trazado 741313" d="M197.468,296.238V298.7l-16.159,9.329v-2.459Z" transform="translate(-107.358 -253.542)" fill="#c17249"/>
          <path id="Trazado_741314" data-name="Trazado 741314" d="M127.712,272.056v2.459l73.951,42.7v-2.459Z" transform="translate(-127.712 -262.726)" fill="#b2603d"/>
        </g>
      </g>
      <g id="Grupo_931607" data-name="Grupo 931607" transform="translate(178.749 277.897)">
        <path id="Trazado_741315" data-name="Trazado 741315" d="M186.081,306.228a11.82,11.82,0,0,0,6.982-2.272l-.5-.693a11.02,11.02,0,0,1-9.76,1.646c-5.16-1.46-9.807-6.1-12.43-12.405-4.372-10.515-4.854-37.994-4.859-38.27l-.853.012c.018,1.136.49,27.919,4.924,38.586,2.722,6.547,7.576,11.369,12.985,12.9A12.871,12.871,0,0,0,186.081,306.228Z" transform="translate(-164.659 -254.233)" fill="#5b3332"/>
      </g>
      <g id="Grupo_931610" data-name="Grupo 931610" transform="translate(160.766 214.319)">
        <g id="Grupo_931609" data-name="Grupo 931609" transform="translate(0.491)">
          <path id="Trazado_741316" data-name="Trazado 741316" d="M152.973,277.814s-1,3.961.68,4.766c1.5.719,3.184-.373,5.632-1.609,1.585-.8,2.72-1.761,3.023-3.194s-1.194-2.337-2.666-1.583S152.973,277.814,152.973,277.814Z" transform="translate(-151.717 -182.419)" fill="#492624"/>
          <path id="Trazado_741317" data-name="Trazado 741317" d="M162.014,283.9s3.327-.5,4.662.392.831,3.35-1.813,4.251a6.42,6.42,0,0,1-4.7.148c-1.3.931-4.872-.076-4.872-1.006,0-1.91.482-2.837.958-5.912C156.763,278.433,162.014,283.9,162.014,283.9Z" transform="translate(-150.726 -180.606)" fill="#492624"/>
          <g id="Grupo_931608" data-name="Grupo 931608" transform="translate(20.36)">
            <path id="Trazado_741318" data-name="Trazado 741318" d="M166.738,208.168c.094-.007.168-.012.223-.014-.028.012-.057.018-.084.032C166.829,208.176,166.786,208.176,166.738,208.168Z" transform="translate(-166.738 -208.154)" fill="#ffb600"/>
          </g>
          <path id="Trazado_741319" data-name="Trazado 741319" d="M153.832,248.55c2.583-2.806,6.03-1.5,7.594.379,2.179,2.616,1.166,12.984.887,14.827-.264,1.748-1.024,4.422-1.391,6.147-.459,2.159-2.2,16.848-2.444,19.536-.86,1.184-4.883,1.214-5.883-.93-.195-3.945.015-8.557.066-12.371.055-4.17.43-3.763,1.6-7.521.012-.8-1.312-6.4-1.508-11.92A7.225,7.225,0,0,1,153.832,248.55Z" transform="translate(-151.981 -193.429)" fill="#f0ca59"/>
          <path id="Trazado_741320" data-name="Trazado 741320" d="M155.507,295.915c-.3-2.119.364-9.734.451-12.4.139-4.237,2.771-9.215,4.4-11.184-2.111-2.475-4.276-10.723-3.88-13.083-2.186-3.716-2.125-7.048.459-10.17.163-.2,11.543-1.867,11.544-1.652,0,.883.894,1.475.894,4.045a106.017,106.017,0,0,1-.879,11.1c-.143,1.773-.775,10.006-1.738,13.208a187.45,187.45,0,0,0-4.6,20.763C161.342,297.433,157.067,298.211,155.507,295.915Z" transform="translate(-150.867 -193.247)" fill="#feca2e"/>
          <path id="Trazado_741321" data-name="Trazado 741321" d="M155.4,233.684c.935-2.249,2.695-6.675,4.608-7.024.8-1.817,3.222-5.283,3.84-7.165,1.1-3.345,2.26-4.417,2.958-6.729,1.062-.61,2.4-.462,2.679.339a3.35,3.35,0,0,0-.579,1.623c-.377,2.655-.621,6.3-1.463,8.821-.694,2.079-1.711,3.867-3.8,4.7a16.291,16.291,0,0,1-1.423,3.654,46.524,46.524,0,0,1-2.954,3.981C157.84,234.381,157.459,233.747,155.4,233.684Z" transform="translate(-150.684 -206.545)" fill="#ffc9b6"/>
          <path id="Trazado_741322" data-name="Trazado 741322" d="M167.219,240.73c.936-2.248,3.142-6.18,4.847-7.527.8-1.816,3.059-5,3.677-6.886,1.1-3.346,2.183-4.193,2.881-6.506,1.064-.61,2.4-.462,2.679.339a4.116,4.116,0,0,0-.98,1.787c-.377,2.655-.483,5.983-1.325,8.5-.694,2.079-1.449,4.021-3.534,4.848a16.331,16.331,0,0,1-1.423,3.654,46.832,46.832,0,0,1-2.955,3.981C169.661,241.427,169.28,240.793,167.219,240.73Z" transform="translate(-146.195 -203.87)" fill="#ffc9b6"/>
          <path id="Trazado_741323" data-name="Trazado 741323" d="M163.346,215.263c-.1-1.189-.822-3.324.788-5.254a1.8,1.8,0,0,1,2.708.291.853.853,0,0,1,.706,1.381c-.435.5-.887.613-.454,1.017.292.273.953-.436,1.25-.557.9-.368,1.389.386.9.949a11.552,11.552,0,0,1-2.078,1.573,12.749,12.749,0,0,0-1.187,1.152A3.223,3.223,0,0,1,163.346,215.263Z" transform="translate(-147.761 -207.633)" fill="#351817"/>
          <path id="Trazado_741324" data-name="Trazado 741324" d="M166.687,213.568a3.478,3.478,0,0,1,3.723,1.33c0,3.433-2.789,11.375-3.215,12.117-1.968,3.441-7.162,10.674-8.021,11.816a.185.185,0,0,1-.124.261c-.023,0-.037-.007-.059,0-1.475,2.039-1.036,4.853-2.849,6.619-.166.161-.947.691-1.721-.322a9.22,9.22,0,0,1,1.113-11.376,44.091,44.091,0,0,1,4.916-9.7C160.317,223.51,164.941,213.951,166.687,213.568Z" transform="translate(-151.61 -206.138)" fill="#fc811d"/>
          <path id="Trazado_741325" data-name="Trazado 741325" d="M154.285,245.012c0-2.617.152-4.167-.007-5.162-.386-2.421-1.188-9.391,5.055-10.192.628-.081,2.335,1.478,3.182,1.9a37.586,37.586,0,0,0,5.682,2.257,10.624,10.624,0,0,1,2.344,1.21c1.687,1.138.77,4.811.413,6.627-.316,1.6-.413,9.446-1.3,11.115-1.02,1.915-.428,2.627-.437,3.578-.014,1.243-14.258-.89-14.839-2.191s.153-1.947.135-3.382C154.489,249.06,154.285,246.259,154.285,245.012Z" transform="translate(-151.208 -199.989)" fill="#ff9d3a"/>
          <path id="Trazado_741326" data-name="Trazado 741326" d="M165.4,234.5a5.753,5.753,0,0,1-6.886-2.608,8.232,8.232,0,0,0,1.89-4.468,43.423,43.423,0,0,1,5.436,1.607A14.929,14.929,0,0,0,165.4,234.5Z" transform="translate(-149.503 -200.84)" fill="#ffb9a4"/>
          <path id="Trazado_741327" data-name="Trazado 741327" d="M165.546,221.71c2.776,1.274,4.793,7.474,1.893,9.853-2.853,2.339-7.648-.12-8.683-3.107C157.339,224.369,161.289,219.759,165.546,221.71Z" transform="translate(-149.52 -203.181)" fill="#ffc9b6"/>
          <path id="Trazado_741328" data-name="Trazado 741328" d="M167.12,233.176A15.5,15.5,0,0,0,163.7,238.8a32.02,32.02,0,0,0-2.05,9.813c-.339,3.233-.617,7.238-.617,7.238l-1.493-.429s.537-10.013,1.44-13.941a15.715,15.715,0,0,1,5.124-8.81Z" transform="translate(-149.112 -198.845)" fill="#feca2e"/>
          <path id="Trazado_741329" data-name="Trazado 741329" d="M160.461,230.215a15.721,15.721,0,0,0-3.587,5.438c-.818,2.731-.911,17.748-.911,17.748l-1.3-1.661s.128-9.807,0-12.412c-.341-6.857,3.854-9.039,5.039-9.534Z" transform="translate(-150.969 -199.936)" fill="#feca2e"/>
          <path id="Trazado_741330" data-name="Trazado 741330" d="M159.388,229.9c.628,1.671,1.98,2.01,3.861,2.474.97.239,2.5.233,3.485,1.341-1.261.786-4.651,1.853-6.718.446-.8-.546-2.2-1.734-2.143-2.788A1.539,1.539,0,0,1,159.388,229.9Z" transform="translate(-149.745 -199.895)" fill="#fc811d"/>
          <path id="Trazado_741331" data-name="Trazado 741331" d="M157.524,225.424c-.579-.9.425-2.3,1.584-2.657a2.366,2.366,0,0,1,3.082-1.879c.21-.2.589-.643,2.771-.211a3.824,3.824,0,0,0,2.4-.432c.88,1.769.923,2.76.453,5.04-.188.908.3,1.233-1.02,2.794-.752.893-1.351.235-1.351.584a4.166,4.166,0,0,1-1.6,3.164,7.85,7.85,0,0,1-3.47,2.092c0-1.824-1.565-2.746-2.5-4.344C156.787,227.724,156.6,225.751,157.524,225.424Z" transform="translate(-150.101 -203.563)" fill="#351817"/>
          <path id="Trazado_741332" data-name="Trazado 741332" d="M163.942,226.4s-.751-1.073-1.394,0a1.4,1.4,0,0,0,.847,2.144C164.05,228.6,163.942,226.4,163.942,226.4Z" transform="translate(-148.056 -201.406)" fill="#ffc9b6"/>
          <path id="Trazado_741333" data-name="Trazado 741333" d="M174.286,217.035c0-1.12.689-1.127,1.113-.414.239.4.817,1.744.817,1.744a6.8,6.8,0,0,0,.69-1.246,1.085,1.085,0,0,1,1.527-.581,1.359,1.359,0,0,1,1.6,1.282c.886.07,1.8.545.763,1.863-1,1.278-2.5,2.336-3.154,3.51a2.156,2.156,0,0,1-2.112-1,9.762,9.762,0,0,1-.455-2.392C175.124,219.04,174.286,218.155,174.286,217.035Z" transform="translate(-143.511 -205.125)" fill="#351817"/>
          <path id="Trazado_741334" data-name="Trazado 741334" d="M164.32,240.541c.568-1.2,1.446-3.662,4.9-4.408.382-1.333,2.017-3.324,4.687-6.421a41.015,41.015,0,0,1,5.123-9.38,2.591,2.591,0,0,1,3.84,2.107c0,2.289-2.423,10.169-4.821,12.044-1.417,5.994-8.33,12.77-9.483,13.054-.935.944-1.646,2.279-3.122,2.017C161.7,248.891,163.331,242.62,164.32,240.541Z" transform="translate(-147.758 -203.65)" fill="#fc811d"/>
          <path id="Trazado_741335" data-name="Trazado 741335" d="M165.1,240.27l-9.068-3.872-.883,3.263-1.305,2.657.185,4.475s.56,1.325-.153,1.629-.657.722-.239,1.69a12.207,12.207,0,0,1,.644,2.041s1.565,1.708,6.13,2.554,8.912-1.235,9.569-1.434c1.26-.382.824-2.381.824-2.381s-3.047-1.09-3.749-2.016C165.607,246.974,165.1,240.27,165.1,240.27Z" transform="translate(-151.47 -197.428)" fill="#feca2e"/>
          <path id="Trazado_741336" data-name="Trazado 741336" d="M169.982,249.37v2.38s-1.89.916-5.841.611a22.773,22.773,0,0,1-8.635-2.108,11.874,11.874,0,0,1-2.184-1.609l.5-1.965a10.233,10.233,0,0,0,4.232,1.928C165.688,250.527,169.982,249.37,169.982,249.37Z" transform="translate(-151.472 -193.524)" fill="#351817"/>
        </g>
        <path id="Trazado_741337" data-name="Trazado 741337" d="M168.72,255.429a48.3,48.3,0,0,0-6.62,1.258c-3.013.741-5.769,4.041-5.769,4.041s-1.082-2.337-.184-3.576c3.244-2.926,12.774-4.222,12.774-4.222A3.578,3.578,0,0,1,168.72,255.429Z" transform="translate(-150.043 -191.15)" fill="#351817"/>
        <path id="Trazado_741338" data-name="Trazado 741338" d="M158.7,258.873a6.434,6.434,0,0,1-5.236-3.488,10.476,10.476,0,0,1-1.158-5.031s-1.743,2.743.341,6.775a7.291,7.291,0,0,0,5.264,3.943Z" transform="translate(-151.625 -192.128)" fill="#351817"/>
        <path id="Trazado_741339" data-name="Trazado 741339" d="M164.111,225.582l1.585,4.335a2.679,2.679,0,0,1-1.334.72,16.665,16.665,0,0,1-1.314-3.276Z" transform="translate(-147.287 -201.536)" fill="#351817"/>
        <path id="Trazado_741340" data-name="Trazado 741340" d="M166.163,227.867s3.147-2.213,3.5-5.123c.443-3.7-3.836-5.431-6.9-4.152a6.215,6.215,0,0,0-3.7,3.832Z" transform="translate(-148.804 -204.349)" fill="#ffbc15"/>
        <path id="Trazado_741341" data-name="Trazado 741341" d="M168.177,226.523a7.571,7.571,0,0,1-6.024,5.592c-4.527,1.1-7.266-5.54-4.886-9.879a6.343,6.343,0,0,1,7.6-2.867C167.614,220.206,169.107,223.4,168.177,226.523Z" transform="translate(-149.816 -204.015)" fill="#ffd140"/>
        <path id="Trazado_741342" data-name="Trazado 741342" d="M163.273,219.436A4.422,4.422,0,0,1,165.34,221a6.018,6.018,0,0,1-3.887,9.293s-2.737-2.973-2.8-5.425S159.206,220.232,163.273,219.436Z" transform="translate(-148.956 -203.87)" fill="#ffbc15"/>
        <path id="Trazado_741343" data-name="Trazado 741343" d="M161.872,219.1s-2.072.47-3.948,3.575a11.51,11.51,0,0,0-1.131,5.685,7.858,7.858,0,0,1,.1-5.329A6.157,6.157,0,0,1,161.872,219.1Z" transform="translate(-149.816 -203.999)" fill="#ffbc15"/>
        <path id="Trazado_741344" data-name="Trazado 741344" d="M168.207,223.454a7.5,7.5,0,0,1-2.253,6.692c-3.131,3.2-7.049,2.059-8.008.72a13.925,13.925,0,0,1-.906-1.6,5.5,5.5,0,0,0,4.414,1.777,6.045,6.045,0,0,0,5.6-4.724,7.5,7.5,0,0,0-.989-6.5C166.986,220.128,167.869,221.954,168.207,223.454Z" transform="translate(-149.569 -203.727)" fill="#ffa300"/>
      </g>
      <g id="Grupo_931615" data-name="Grupo 931615" transform="translate(127.556 246.7)">
        <g id="Grupo_931612" data-name="Grupo 931612" transform="translate(2.026 51.694)">
          <path id="Trazado_741347" data-name="Trazado 741347" d="M129.241,271.623l71.422,41.236,1.154-2.555-71.353-41.156Z" transform="translate(-128.942 -269.065)" fill="#125c99"/>
          <path id="Trazado_741348" data-name="Trazado 741348" d="M129.024,270.923c0,.666.4.971.9.683a2.163,2.163,0,0,0,.9-1.726c0-.666-.4-.971-.9-.684A2.166,2.166,0,0,0,129.024,270.923Z" transform="translate(-129.024 -269.088)" fill="#9dd4ea"/>
        </g>
        <g id="Grupo_931613" data-name="Grupo 931613" transform="translate(2.026 5.59)">
          <path id="Trazado_741349" data-name="Trazado 741349" d="M129.241,238.208l71.422,41.236,1.154-2.555-71.353-41.156Z" transform="translate(-128.942 -235.651)" fill="#074577"/>
          <path id="Trazado_741350" data-name="Trazado 741350" d="M129.024,237.508c0,.666.4.973.9.684a2.166,2.166,0,0,0,.9-1.727c0-.666-.4-.971-.9-.683A2.163,2.163,0,0,0,129.024,237.508Z" transform="translate(-129.024 -235.673)" fill="#9dd4ea"/>
        </g>
        <g id="Grupo_931614" data-name="Grupo 931614" transform="translate(71.718 41.273)">
          <rect id="Rectángulo_313338" data-name="Rectángulo 313338" width="3.549" height="70.57" transform="translate(3.549 71.715) rotate(180)" fill="#0869b9"/>
          <path id="Trazado_741351" data-name="Trazado 741351" d="M179.534,313.826c0,.632.795,1.145,1.774,1.145s1.774-.513,1.774-1.145-.795-1.144-1.774-1.144S179.534,313.194,179.534,313.826Z" transform="translate(-179.534 -242.111)" fill="#cbecfd"/>
          <path id="Trazado_741352" data-name="Trazado 741352" d="M179.534,262.68c0,.632.795,1.144,1.774,1.144s1.774-.512,1.774-1.144-.795-1.145-1.774-1.145S179.534,262.048,179.534,262.68Z" transform="translate(-179.534 -261.535)" fill="#e3f7ff"/>
        </g>
        <g id="Grupo_931611" data-name="Grupo 931611">
          <rect id="Rectángulo_313337" data-name="Rectángulo 313337" width="3.549" height="70.57" transform="translate(3.549 71.715) rotate(180)" fill="#0869b9"/>
          <path id="Trazado_741345" data-name="Trazado 741345" d="M127.556,283.913c0,.633.793,1.145,1.774,1.145s1.774-.512,1.774-1.145-.795-1.144-1.774-1.144S127.556,283.281,127.556,283.913Z" transform="translate(-127.556 -212.198)" fill="#cbecfd"/>
          <path id="Trazado_741346" data-name="Trazado 741346" d="M127.556,232.767c0,.632.793,1.144,1.774,1.144s1.774-.512,1.774-1.144-.795-1.145-1.774-1.145S127.556,232.135,127.556,232.767Z" transform="translate(-127.556 -231.622)" fill="#e3f7ff"/>
        </g>
      </g>
      <g id="Grupo_931618" data-name="Grupo 931618" transform="translate(206.321 321.173)">
        <g id="Grupo_931616" data-name="Grupo 931616">
          <path id="Trazado_741353" data-name="Trazado 741353" d="M187.327,293.955a1.626,1.626,0,0,0,.429-.055,1.366,1.366,0,0,0,.835-.618l-.752-.4h0a.553.553,0,0,1-.323.2,1.725,1.725,0,0,1-1.254-.364c-1.414-.873-.571-3.322.15-4.633.654-1.189,1.652-1.711,1.85-1.628a.5.5,0,0,1,.028.2v3.256l.854.493v-3.749a.934.934,0,0,0-.672-1.024c-.81-.207-2.074.708-2.808,2.045-1.076,1.955-1.683,4.64.149,5.77A2.943,2.943,0,0,0,187.327,293.955Z" transform="translate(-184.642 -285.598)" fill="#9dd4ea"/>
        </g>
        <path id="Trazado_741354" data-name="Trazado 741354" d="M188.146,286.006l-.514-.328-.244.15.563.475Z" transform="translate(-183.599 -285.567)" fill="#9dd4ea"/>
        <g id="Grupo_931617" data-name="Grupo 931617" transform="translate(0.392 0.246)">
          <path id="Trazado_741355" data-name="Trazado 741355" d="M187.611,294.133a1.626,1.626,0,0,0,.429-.055,1.371,1.371,0,0,0,.835-.62l-.753-.4h0a.54.54,0,0,1-.321.2,1.725,1.725,0,0,1-1.254-.364c-1.414-.873-.571-3.324.15-4.633.654-1.189,1.652-1.711,1.85-1.628a.5.5,0,0,1,.028.195v3.256l.854.493v-3.749a.934.934,0,0,0-.672-1.022c-.81-.207-2.074.708-2.809,2.043-1.075,1.957-1.682,4.642.15,5.772A2.943,2.943,0,0,0,187.611,294.133Z" transform="translate(-184.926 -285.776)" fill="#cbecfd"/>
        </g>
      </g>
    </g>
  </g>
</svg>
