<svg xmlns="http://www.w3.org/2000/svg" width="72.33" height="168.912" viewBox="0 0 72.33 168.912">
  <g id="Grupo_933260" data-name="Grupo 933260" transform="translate(-830.129 -2752.915)">
    <g id="Grupo_931599" data-name="Grupo 931599" transform="translate(16.064 -158)">
      <g id="Grupo_931598" data-name="Grupo 931598" transform="translate(814.064 2910.915)">
        <g id="Grupo_931571" data-name="Grupo 931571" transform="translate(39.314 27.357)">
          <path id="Trazado_741215" data-name="Trazado 741215" d="M413.173,151.385,388.19,165.8v2.888l24.983-14.415Z" transform="translate(-386.648 -150.453)" fill="#c9b5b5"/>
          <path id="Trazado_741216" data-name="Trazado 741216" d="M388.515,162.961l-1.542-.932v2.888l1.542.932Z" transform="translate(-386.972 -147.614)" fill="#b29d9d"/>
          <path id="Trazado_741217" data-name="Trazado 741217" d="M413.5,151.581l-1.542-.932-24.983,14.415,1.542.932Z" transform="translate(-386.972 -150.649)" fill="#fff"/>
        </g>
        <g id="Grupo_931580" data-name="Grupo 931580" transform="translate(40.47 36.249)">
          <g id="Grupo_931572" data-name="Grupo 931572" transform="translate(2.293 8.472)">
            <path id="Trazado_741218" data-name="Trazado 741218" d="M401.773,205.115c-4.2-8.991-11.971-40.2-12.078-40.412l.7-.346c.105.215,7.885,31.429,12.084,40.426Z" transform="translate(-389.695 -164.357)" fill="#351817"/>
          </g>
          <g id="Grupo_931573" data-name="Grupo 931573" transform="translate(5.862 6.382)">
            <path id="Trazado_741219" data-name="Trazado 741219" d="M402.172,206.768l-9.659-43.755.721-.306,9.659,43.754Z" transform="translate(-392.513 -162.707)" fill="#351817"/>
          </g>
          <g id="Grupo_931576" data-name="Grupo 931576" transform="translate(3.217)">
            <g id="Grupo_931574" data-name="Grupo 931574" transform="translate(0.36)">
              <path id="Trazado_741220" data-name="Trazado 741220" d="M392.376,165.343a1.492,1.492,0,0,1-.393-.052,7.644,7.644,0,0,1-1.126-.343l1.054-.6a.481.481,0,0,0,.293.189,1.583,1.583,0,0,0,1.151-.334c1.3-.8.524-3.05-.138-4.254-.6-1.092-1.516-1.569-1.7-1.495a.441.441,0,0,0-.027.18v1.281l-.783.452v-1.733a.859.859,0,0,1,.617-.94c.742-.19,1.9.65,2.578,1.877.988,1.795,1.544,4.26-.137,5.3A2.718,2.718,0,0,1,392.376,165.343Z" transform="translate(-390.709 -157.669)" fill="#c6b0b0"/>
            </g>
            <g id="Grupo_931575" data-name="Grupo 931575" transform="translate(0 0.225)">
              <path id="Trazado_741221" data-name="Trazado 741221" d="M392.093,165.519a1.491,1.491,0,0,1-.394-.051,1.244,1.244,0,0,1-.766-.569l.69-.37h0a.507.507,0,0,0,.3.186,1.583,1.583,0,0,0,1.151-.334c1.3-.8.524-3.051-.138-4.254-.6-1.092-1.516-1.571-1.7-1.495a.438.438,0,0,0-.027.179v1.264l-.783.452v-1.716a.857.857,0,0,1,.617-.939c.744-.19,1.9.65,2.578,1.876.988,1.8,1.544,4.261-.137,5.3A2.706,2.706,0,0,1,392.093,165.519Z" transform="translate(-390.425 -157.847)" fill="#e0d1d1"/>
            </g>
          </g>
          <g id="Grupo_931579" data-name="Grupo 931579" transform="translate(0 1.885)">
            <g id="Grupo_931577" data-name="Grupo 931577" transform="translate(0.358)">
              <path id="Trazado_741222" data-name="Trazado 741222" d="M389.836,166.829a1.49,1.49,0,0,1-.393-.051,7.805,7.805,0,0,1-1.126-.343l1.054-.6a.481.481,0,0,0,.293.189,1.58,1.58,0,0,0,1.15-.334c1.3-.8.526-3.051-.137-4.255-.6-1.091-1.517-1.569-1.7-1.493a.438.438,0,0,0-.027.179V161.4l-.784.452v-1.734a.857.857,0,0,1,.618-.939c.742-.19,1.9.65,2.578,1.876.988,1.8,1.544,4.261-.137,5.3A2.706,2.706,0,0,1,389.836,166.829Z" transform="translate(-388.168 -159.157)" fill="#c6b0b0"/>
            </g>
            <g id="Grupo_931578" data-name="Grupo 931578" transform="translate(0 0.225)">
              <path id="Trazado_741223" data-name="Trazado 741223" d="M389.552,167.007a1.492,1.492,0,0,1-.393-.051,1.253,1.253,0,0,1-.766-.569l.69-.37h0a.514.514,0,0,0,.3.186,1.584,1.584,0,0,0,1.151-.334c1.3-.8.524-3.051-.138-4.255-.6-1.092-1.517-1.569-1.7-1.493a.438.438,0,0,0-.026.179v1.264l-.783.452V160.3a.855.855,0,0,1,.617-.939c.742-.191,1.9.649,2.578,1.876.988,1.795,1.544,4.261-.137,5.3A2.718,2.718,0,0,1,389.552,167.007Z" transform="translate(-387.885 -159.335)" fill="#e0d1d1"/>
            </g>
          </g>
        </g>
        <g id="Grupo_931581" data-name="Grupo 931581" transform="translate(40.209 84.149)">
          <path id="Trazado_741224" data-name="Trazado 741224" d="M404.268,222.39c1.236-2.908,1.2-8.482.82-10.245-2.167-.412-4.855-.583-6.492.252.157,1.882.005,2.165.077,3.515a41.35,41.35,0,0,1,.039,4.293,2.488,2.488,0,0,0-4.308.935,6.276,6.276,0,0,0,.75,2.955c2.118,1.873,3.687,1.2,4.7,1.149a3.441,3.441,0,0,0,4.047.641C404.349,225.606,404.6,222.9,404.268,222.39Z" transform="translate(-385.888 -191.132)" fill="#492624"/>
          <path id="Trazado_741225" data-name="Trazado 741225" d="M392.831,217.876a39.884,39.884,0,0,0-.143,4.877c-1.344-.5-2.611-1.282-3.794-.607a2.41,2.41,0,0,0-1.1,2.942,6.569,6.569,0,0,0,2.2,1.9,16.438,16.438,0,0,0,4.061,1.334,3.662,3.662,0,0,0,3.331.6c1.053-.516,1.587-.958,1.311-2.115-.459-1.93-.115-2.673-.023-5.953C398.747,218.091,393.064,216.259,392.831,217.876Z" transform="translate(-387.678 -189.674)" fill="#492624"/>
          <path id="Trazado_741226" data-name="Trazado 741226" d="M415.152,195.484a12.713,12.713,0,0,1,.959,6.226,5.292,5.292,0,0,1-3.849,4.455,30.7,30.7,0,0,1-4.332,3.157,38.223,38.223,0,0,1-4.346,2.1s.728.353.336,1.363a6.23,6.23,0,0,1,1.258,3.87,31.418,31.418,0,0,1-1.431,10.092c-.26.622-1.669.419-2.993.02a3.94,3.94,0,0,1-2.562-2.205c-.481-1.463-.746-11.574-1.326-13.023-.775-1.936-.863-2.728,1.111-4.478,1.068-.946,7.7-6.118,7.7-6.118Z" transform="translate(-385.365 -195.484)" fill="#f1b80f"/>
          <path id="Trazado_741227" data-name="Trazado 741227" d="M405.358,203.122a5.472,5.472,0,0,0,5.7.6c2.465-1.268,2.749-3.034,2.749-3.034s.646,2.6-3.064,4.435a6.644,6.644,0,0,1-6,.043Z" transform="translate(-383.126 -194.097)" fill="#351817"/>
          <path id="Trazado_741228" data-name="Trazado 741228" d="M401.807,195.919s-4.635,3.944-6.8,5.955a22.848,22.848,0,0,0-4.379,6.137c-.491.931-1.644,2.105-1.031,4.164a61.289,61.289,0,0,1,1.648,8.973c.4,3.053.982,7.3.982,7.3s1.021,4.019,6.133,2.641c1.086-.732.713-8.151.614-9.783-.2-3.206-.443-6.328-1.675-7.175.764-1.039-.546-1.423-.546-1.423s1.994-1.212,3.976-2.248,4.482-1.662,5.781-3.054c1.383.388,4.67-1,5.52-4.176,1.064-3.981-.076-6.1-.583-5.97S401.807,195.919,401.807,195.919Z" transform="translate(-387.214 -195.368)" fill="#f0d176"/>
          <path id="Trazado_741229" data-name="Trazado 741229" d="M394.93,209.625a3.531,3.531,0,0,1-1.787.218,2.326,2.326,0,0,1-1.586-1.032S394.032,208.858,394.93,209.625Z" transform="translate(-386.644 -191.93)" fill="#e8c355"/>
          <path id="Trazado_741230" data-name="Trazado 741230" d="M395.392,210.274a3.527,3.527,0,0,1-1.355,1.186,2.323,2.323,0,0,1-1.891.041S394.218,210.145,395.392,210.274Z" transform="translate(-386.487 -191.542)" fill="#e8c355"/>
          <path id="Trazado_741231" data-name="Trazado 741231" d="M395.649,199.245a23.158,23.158,0,0,1,4.532,4.677,19.466,19.466,0,0,1,2.593,4.313s1.9.13,2.1-1.552c-1.488-3.695-7.838-8.622-7.838-8.622S395.667,197.93,395.649,199.245Z" transform="translate(-385.553 -194.798)" fill="#351817"/>
        </g>
        <g id="Grupo_931593" data-name="Grupo 931593" transform="translate(0 0)">
          <path id="Trazado_741242" data-name="Trazado 741242" d="M374.077,274.8a19.042,19.042,0,0,0,1.492,3.059,1.734,1.734,0,0,1-.965,2.717c-1.084.429-2.642.279-5.3-.945s-3.861-2.518-4-3.4,1.08-2.237,3.345-1.669a30.232,30.232,0,0,1,3.424,1.027Z" transform="translate(-345.025 -116.399)" fill="#492624"/>
          <path id="Trazado_741243" data-name="Trazado 741243" d="M375.352,279.566c.478-2.389-.552-11.406-1.311-14.721-1.07-4.679,3.843-7.425,3.092-8.6-3.891-1.163-7.942-2.348-11.225-.723-2.7-.684-3.31,2.694-2.7,3.1-.7,2.122,1.767,6.471,2.94,10.109,1.049,3.252,2.713,8.929,4.349,12a1.5,1.5,0,0,0,1.031,2.115c1.3.177,4.965.167,4.531-1.709A3.676,3.676,0,0,0,375.352,279.566Z" transform="translate(-345.639 -121.654)" fill="#e6bd42"/>
          <g id="Grupo_931583" data-name="Grupo 931583" transform="translate(30.208 96.999)">
            <path id="Trazado_741244" data-name="Trazado 741244" d="M382.009,229.04a1.926,1.926,0,0,0-1.672-2.792c-.823.664-1.081,2.421-1.535,3.3-.331-.722-.794-1.905-1.488-1.829s.086.916.175,1.392c.141.745-.179,1.466-.028,2.209a4.259,4.259,0,0,0,.556,1.556,1.827,1.827,0,0,1,.133.434,3.44,3.44,0,0,1,2.546-.326c-.189-.39-.331-.683-.388-.8C379.943,231.419,381.791,229.684,382.009,229.04Z" transform="translate(-372.103 -226.248)" fill="#351817"/>
            <path id="Trazado_741245" data-name="Trazado 741245" d="M378.393,232.37c-.621,2.285-.323,3.9-.323,6.112-9.79-1.856-1.989,7.864-1.9,7.864,1.9,0,6.4-1.913,7.047-5.343a20.066,20.066,0,0,0-1.141-9.533C381.334,230.459,379.171,231.116,378.393,232.37Z" transform="translate(-373.141 -224.987)" fill="#fc811d"/>
          </g>
          <path id="Trazado_741246" data-name="Trazado 741246" d="M367.59,254.9c-.38-.749,2.094-1.367,2.094-1.367l.644,1.747S368.315,256.331,367.59,254.9Z" transform="translate(-344.423 -121.971)" fill="#f1d88c"/>
          <path id="Trazado_741247" data-name="Trazado 741247" d="M367.259,278.366a18.911,18.911,0,0,0,1.491,3.059,1.734,1.734,0,0,1-.965,2.717c-1.083.429-2.642.279-5.3-.945s-3.861-2.518-4-3.4,1.08-2.237,3.345-1.669a30.23,30.23,0,0,1,3.424,1.027Z" transform="translate(-346.843 -115.448)" fill="#492624"/>
          <path id="Trazado_741248" data-name="Trazado 741248" d="M368.124,282.95c.478-2.39-.552-11.408-1.311-14.723-1.072-4.679-2.134-5.153-2.887-6.328-2.212.659-3.2-.936-4.566-2.912-1.949.266-1.885,3.448-1.275,3.849-.7,2.123-.341,5.637.833,9.273,1.049,3.252,2.712,8.929,4.349,12a1.5,1.5,0,0,0,1.03,2.114c1.3.177,4.967.167,4.532-1.709A3.665,3.665,0,0,0,368.124,282.95Z" transform="translate(-347.048 -120.518)" fill="#efd075"/>
          <g id="Grupo_931584" data-name="Grupo 931584" transform="translate(12.318 134.624)">
            <path id="Trazado_741249" data-name="Trazado 741249" d="M396.946,262.95l-25.808,14.72-12.122-7,25.808-14.72Z" transform="translate(-359.016 -255.951)" fill="#dd895f"/>
            <path id="Trazado_741250" data-name="Trazado 741250" d="M359.016,267.572v1.844l12.122,7v-1.844Z" transform="translate(-359.016 -252.852)" fill="#c17249"/>
            <path id="Trazado_741251" data-name="Trazado 741251" d="M394.394,261.476v1.844l-25.808,14.72V276.2Z" transform="translate(-356.464 -254.478)" fill="#b2603d"/>
          </g>
          <g id="Grupo_931588" data-name="Grupo 931588" transform="translate(37.837)">
            <g id="Grupo_931586" data-name="Grupo 931586" transform="translate(0 118.357)">
              <g id="Grupo_931585" data-name="Grupo 931585">
                <path id="Trazado_741252" data-name="Trazado 741252" d="M389.146,266.73a.393.393,0,0,1-.383-.3l-4.618-20.143-4.212,15.01a.392.392,0,1,1-.755-.211l5.044-17.973,5.3,23.142a.392.392,0,0,1-.294.47A.421.421,0,0,1,389.146,266.73Z" transform="translate(-379.163 -243.109)" fill="#c9b5b5"/>
              </g>
            </g>
            <g id="Grupo_931587" data-name="Grupo 931587" transform="translate(4.553)">
              <path id="Trazado_741253" data-name="Trazado 741253" d="M383.149,270.123a.391.391,0,0,1-.391-.391V150.064a.391.391,0,1,1,.783,0V269.732A.391.391,0,0,1,383.149,270.123Z" transform="translate(-382.758 -149.671)" fill="#c9b5b5"/>
            </g>
          </g>
          <path id="Trazado_741254" data-name="Trazado 741254" d="M372.345,266.369c1.6.854,2.388,1.925,4.414,1.768,2.9-.225,4.525-1.23,5.584-2.851,2.092-3.2,1.276-8.626-1.9-10.878-.218-.153-1.286.257-1.145.431l.089.108a22.625,22.625,0,0,0-3.923,1.539,12.512,12.512,0,0,0-3.014,1.426c-1.531,1.341-.475,4.938-.282,6.65C372.229,265.084,372.286,265.7,372.345,266.369Z" transform="translate(-343.333 -121.748)" fill="#e6bd42"/>
          <path id="Trazado_741255" data-name="Trazado 741255" d="M380.673,254.553c-.013-.137-3.485,3.563-4.683,3.8-1.409.282-5.477-1.13-5.092-.917-.7,1.53-.3.115-.56,1.786a30.121,30.121,0,0,0-7.536-.282c-4.541.279-4.1,1.491-4.1,5.062.953,2.2,6.716,2.665,11.214,4.82a14.561,14.561,0,0,0,5.653,1.1,11.236,11.236,0,0,0,5.136-2.086C384.027,265.494,383.806,258.284,380.673,254.553Z" transform="translate(-346.787 -121.701)" fill="#f0cd67"/>
          <path id="Trazado_741256" data-name="Trazado 741256" d="M369.257,230.128a3.992,3.992,0,0,1,4.368.408,3.561,3.561,0,0,1,1.707,3.058,10.588,10.588,0,0,1-.42,2.329,15.825,15.825,0,0,1-2.839,3.41,2.944,2.944,0,0,1-3.6.693c-1.83-.913-1.478-3.457-1.476-5.2C367,232.819,367.424,231.172,369.257,230.128Z" transform="translate(-344.577 -128.341)" fill="#ffc9b6"/>
          <path id="Trazado_741257" data-name="Trazado 741257" d="M371.968,239.788c3.817-1.861,5.007-3.81,7.646-1.488,1.638,1.441,1.916,7.325,1.695,9.771s.17,6.881.686,7.987c.59,1.264,1.369,1.876.863,2.789.84.346-13.452,4.564-13.581,1.481-.051-1.22-2.767-9.743-2.976-13.53S367.526,241.955,371.968,239.788Z" transform="translate(-344.761 -126.318)" fill="#ff9d3a"/>
          <path id="Trazado_741258" data-name="Trazado 741258" d="M373.531,233.88s1.709,1.477,1.181,2.389c-.636,1.1.975,3.2.975,3.2a1.836,1.836,0,0,1-.846,2.842c-2.128.912-4.661-.961-4.661-.961a9.861,9.861,0,0,0-.826-3.181C368.763,236.7,373.531,233.88,373.531,233.88Z" transform="translate(-343.956 -127.213)" fill="#ffc9b6"/>
          <path id="Trazado_741259" data-name="Trazado 741259" d="M369.887,228.9a5.146,5.146,0,0,1,6.485,1,4.69,4.69,0,0,1,1.118,3.6c-.222,1.98-2.144,3.661-2.921,6.235-1.591-.175-2.107-1.439-2.918-2.342a10.16,10.16,0,0,1-1.829-1.887,2.51,2.51,0,0,1-2.43-1.9,5.029,5.029,0,0,1-2.051-3.457C367.042,228.956,367.766,227.835,369.887,228.9Z" transform="translate(-345.012 -128.734)" fill="#351817"/>
          <path id="Trazado_741260" data-name="Trazado 741260" d="M377.07,254.552s-2.551,2.608-4.954,2.8a12.836,12.836,0,0,1-3.32-.013,9.158,9.158,0,0,1,3.382-1.54C373.988,255.464,377.07,254.552,377.07,254.552Z" transform="translate(-344.091 -121.7)" fill="#f45a37"/>
          <path id="Trazado_741261" data-name="Trazado 741261" d="M380.827,256.712s-1.336,2.181-5.77,2.72a11.542,11.542,0,0,1-7.045-1.078l.181-1.466s5.352,1.259,8.355.044a39.7,39.7,0,0,1,3.976-1.467Z" transform="translate(-344.3 -121.457)" fill="#ea462a"/>
          <path id="Trazado_741262" data-name="Trazado 741262" d="M381.69,244.59l1.168,3.951s.041,4.3-.187,5.742c.228.551.607.668.188,1.316.873.032.58.89.162,1.585a8.039,8.039,0,0,1-3.491,2.889c-1.4.741-6,1.868-7.765,1.428s-3.931-.948-3.776-1.795a5.277,5.277,0,0,0,.132-1.125l-.538-1.291a5.468,5.468,0,0,0,4.183-.32c1.393-.666,3.936-3.844,3.252-9.073A33.562,33.562,0,0,0,381.69,244.59Z" transform="translate(-344.415 -124.357)" fill="#feca2e"/>
          <path id="Trazado_741263" data-name="Trazado 741263" d="M376.231,249.732a48.357,48.357,0,0,0-2.308-6.531c-1.107-2.146-3.112-3.568-3.888-3.439a1.915,1.915,0,0,0-1.39.736,6.39,6.39,0,0,1,3.271,1.973c1.236,1.539,2.891,6.7,2.908,7.7S376.231,249.732,376.231,249.732Z" transform="translate(-344.131 -125.647)" fill="#feca2e"/>
          <path id="Trazado_741264" data-name="Trazado 741264" d="M375.072,238.434c.337.287,1.1.731,2.1,3.076.643,1.5,1.986,6.181,1.986,6.181l.968-.674a46.7,46.7,0,0,0-1.829-5.69c-.973-2.267-1.8-3.044-2.437-3.445a1.41,1.41,0,0,0-1.875.147C374.073,238.258,375.072,238.434,375.072,238.434Z" transform="translate(-342.706 -126.223)" fill="#feca2e"/>
          <path id="Trazado_741265" data-name="Trazado 741265" d="M375.3,255.46a6.516,6.516,0,0,1-2.812.75,7.124,7.124,0,0,1-2.614-.709,11.937,11.937,0,0,1,2.435-.113A27.922,27.922,0,0,0,375.3,255.46Z" transform="translate(-343.804 -121.487)" fill="#ecb91f"/>
          <path id="Trazado_741266" data-name="Trazado 741266" d="M375.935,237.822c.808.294,1.844,1.932-.082,3.439s-3.962.242-4.742-.144a6.882,6.882,0,0,0-1.808-.529s.36-1.177,2.262-1.164c1.149.008,2.874-.328,3.378-1.031C375.473,237.654,375.473,237.654,375.935,237.822Z" transform="translate(-343.956 -126.186)" fill="#fc811d"/>
          <g id="Grupo_931589" data-name="Grupo 931589" transform="translate(0 116.581)">
            <path id="Trazado_741267" data-name="Trazado 741267" d="M356.336,244.776c-.234-.262-1.439-1.429-1.771-1.777a13.231,13.231,0,0,0-1.3-1.187c-.465-.4-.624.462-.442.619a1.3,1.3,0,0,1,.508.877c.205,1.349-2.91-.285-3.486-.062-1.15.445-.2,2.067.2,2.5.659.714,2,.688,2.926.913a11.339,11.339,0,0,0,2.575-.206c.2.243.491.63.86,1.081a5.8,5.8,0,0,1,1.034-2.272A4.334,4.334,0,0,1,356.336,244.776Z" transform="translate(-349.292 -241.707)" fill="#351817"/>
          </g>
          <path id="Trazado_741268" data-name="Trazado 741268" d="M362.087,247.943c.894-1.04,5.712-3.181,6.626-3.683a7.089,7.089,0,0,1,1.421-2.445c2.715-2.2,3.5-.747,4.411.8a8.235,8.235,0,0,1-.536,7.164c-1.53,2.143-2.3,1.645-3.623,1.739-.916.344-8.46,2.627-9.965,2.611-2.7-1.6-5.586-5.6-6.1-6.2-1.3-1.5-.22-4.7,1.594-3.58C357.4,245.274,361.37,247.17,362.087,247.943Z" transform="translate(-348.105 -125.396)" fill="#fc811d"/>
          <path id="Trazado_741269" data-name="Trazado 741269" d="M375.144,229.546s-5.605-4.836-9.164-.587c-2.718,3.247,3.559,7.718,3.559,7.718Z" transform="translate(-345.024 -128.992)" fill="#ffbc15"/>
          <path id="Trazado_741270" data-name="Trazado 741270" d="M367.424,229.754a5.813,5.813,0,0,1,7.575-1.81c3.936,2.271,3.136,8.08,1.13,9.714a6.328,6.328,0,0,1-6.986-.7C366.6,234.545,366.254,231.474,367.424,229.754Z" transform="translate(-344.628 -128.992)" fill="#ffd140"/>
          <path id="Trazado_741271" data-name="Trazado 741271" d="M370.318,235.928l-.859,2.968a3.03,3.03,0,0,1-1.3-.337,7.924,7.924,0,0,1,.977-3.4Z" transform="translate(-344.263 -126.873)" fill="#351817"/>
          <path id="Trazado_741272" data-name="Trazado 741272" d="M366.933,230.141a7.1,7.1,0,0,0,3.06,5.521c2.718,2.075,6.753.546,6.753.546l-1.012,1.139a7.857,7.857,0,0,1-5.741-.5C366.87,234.994,366.329,232.4,366.933,230.141Z" transform="translate(-344.646 -128.211)" fill="#ffa300"/>
          <path id="Trazado_741273" data-name="Trazado 741273" d="M372.547,229.184c2.793,1.283,3.307,4.577,2.6,7.266-4.655.8-7.865-2.842-7.614-5.13C367.771,229.051,370.772,228.368,372.547,229.184Z" transform="translate(-344.432 -128.554)" fill="#ffbc15"/>
          <path id="Trazado_741274" data-name="Trazado 741274" d="M376.54,235.876s.105-3.833-2.12-6.3a5.383,5.383,0,0,0-4.7-2.046s2.147-1.518,5.209.939C378.509,231.343,376.54,235.876,376.54,235.876Z" transform="translate(-343.844 -129.03)" fill="#ffbc15"/>
          <path id="Trazado_741275" data-name="Trazado 741275" d="M368.167,257.614l-.282,1.616a10.514,10.514,0,0,0,5.5.694,20.762,20.762,0,0,0,7.85-2.01A6.118,6.118,0,0,0,383.178,256l-.238-1.468a10.622,10.622,0,0,1-4.051,1.908C371.954,258.269,368.167,257.614,368.167,257.614Z" transform="translate(-344.334 -121.706)" fill="#351817"/>
          <path id="Trazado_741276" data-name="Trazado 741276" d="M367.667,260.171s1.453,1.428,4.221,4.264c1.976,2.025,3.615,4.023,3.615,4.023a2.195,2.195,0,0,0,2.338-1.232c-2.4-3.177-9.779-9.427-9.779-9.427A3.243,3.243,0,0,0,367.667,260.171Z" transform="translate(-344.415 -120.835)" fill="#351817"/>
          <g id="Grupo_931592" data-name="Grupo 931592" transform="translate(14.723 13.431)">
            <g id="Grupo_931590" data-name="Grupo 931590" transform="translate(0 117.835)">
              <path id="Trazado_741277" data-name="Trazado 741277" d="M370.9,276.921a.391.391,0,0,1-.381-.3l-4.62-20.144-4.212,15.012a.392.392,0,0,1-.755-.213l5.044-17.972,5.306,23.141a.392.392,0,0,1-.3.47A.427.427,0,0,1,370.9,276.921Z" transform="translate(-360.916 -253.3)" fill="#c9b5b5"/>
            </g>
            <g id="Grupo_931591" data-name="Grupo 931591" transform="translate(4.59)">
              <path id="Trazado_741278" data-name="Trazado 741278" d="M364.93,280.727a.392.392,0,0,1-.391-.393V160.667a.392.392,0,1,1,.784,0V280.335A.393.393,0,0,1,364.93,280.727Z" transform="translate(-364.539 -160.274)" fill="#c9b5b5"/>
            </g>
          </g>
        </g>
        <g id="Grupo_931594" data-name="Grupo 931594" transform="translate(35.66 3.7)">
          <path id="Trazado_741279" data-name="Trazado 741279" d="M380.174,286.053a2.9,2.9,0,0,1-1.726-.638.392.392,0,1,1,.469-.628,1.735,1.735,0,0,0,2.08.238c1.589-.979,2.718-4.869,1.861-9.683-1.153-6.47-4.677-47.1-5.14-63.451-.451-15.92-.205-58.48-.2-58.909a.391.391,0,0,1,.391-.39h0a.392.392,0,0,1,.39.394c0,.428-.248,42.976.2,58.882.462,16.33,3.979,56.883,5.128,63.336.835,4.683-.12,9.191-2.221,10.488A2.334,2.334,0,0,1,380.174,286.053Z" transform="translate(-377.444 -152.592)" fill="#351817"/>
        </g>
        <g id="Grupo_931597" data-name="Grupo 931597" transform="translate(38.902 17.254)">
          <g id="Grupo_931595" data-name="Grupo 931595" transform="translate(14.329 45.184)">
            <path id="Trazado_741280" data-name="Trazado 741280" d="M400.846,184.923l-2.887-2.437a4.44,4.44,0,0,1,2.189-2.656c1.018-.372,4.419,2.19,4.419,2.19Z" transform="translate(-397.959 -177.958)" fill="#cebcbc"/>
            <path id="Trazado_741281" data-name="Trazado 741281" d="M405.793,179.845s4.362-3.733,6.877.576c1.951,3.342.879,6.6-1.244,8.1S405.793,179.845,405.793,179.845Z" transform="translate(-395.87 -178.344)" fill="#cebcbc"/>
            <path id="Trazado_741282" data-name="Trazado 741282" d="M411.125,179.039c-1.816.166-1.8.49-5.943,1.948a32.1,32.1,0,0,0-3.876,1.44,3.9,3.9,0,0,0-2.362,3.3,27.939,27.939,0,0,0,.015,6.531c.353,4.451,1.719,5.907,1.719,5.907s-.68.863-1.225,1.415c-.443.448.329.972,1.069,1.819,1.547,1.77,6.318,5.667,13.241,1.121a3.9,3.9,0,0,0,1.889-3.062c.693-4.326.025-8.25.035-11.115C415.7,184.026,412.719,178.894,411.125,179.039Z" transform="translate(-397.744 -178.16)" fill="#fff"/>
            <path id="Trazado_741283" data-name="Trazado 741283" d="M402.087,181.689s1.558.665,4.615-.389,2.247-2.091,2.247-2.091a7.469,7.469,0,0,0-3.288.827C403.8,180.935,402.087,181.689,402.087,181.689Z" transform="translate(-396.858 -178.114)" fill="#cebcbc"/>
            <path id="Trazado_741284" data-name="Trazado 741284" d="M405.487,199.088a33.558,33.558,0,0,1-5.563-2.816c-.242.253-.457.549-.622.75l-.006.009a14.978,14.978,0,0,0,3.191,2.45,10.691,10.691,0,0,0,7.624,1.389,6.785,6.785,0,0,0,2.332-.888l.07-1.387S407.39,199.614,405.487,199.088Z" transform="translate(-397.603 -173.563)" fill="#ceaf51"/>
            <path id="Trazado_741285" data-name="Trazado 741285" d="M399.792,196.409a6.5,6.5,0,0,0,4.659-.024,6.782,6.782,0,0,0,4.376-6.881,68.919,68.919,0,0,0,6.47-2.669c.457,1.92.49,3.409,1.072,5.619s.547,4.294-.688,5.554c-.855,2.284-3.833,4.229-7.58,4.219a11.7,11.7,0,0,1-6.9-2.2c-2.3-1.443-1.934-1.638-2.234-2.237C398.43,196.711,399.792,196.409,399.792,196.409Z" transform="translate(-397.723 -176.08)" fill="#feca2e"/>
            <path id="Trazado_741286" data-name="Trazado 741286" d="M401.394,181.539A8.2,8.2,0,0,1,405.513,185a23.85,23.85,0,0,1,2.616,7.029l1.145-.612s-1.217-5.25-3.039-7.641a7.078,7.078,0,0,0-3.523-2.78Z" transform="translate(-397.043 -177.637)" fill="#feca2e"/>
            <path id="Trazado_741287" data-name="Trazado 741287" d="M407.5,179.248s1.707.308,3.107,4.283a24.147,24.147,0,0,1,1.483,6.5l1.042-.442a36.413,36.413,0,0,0-1.714-6.986,7.015,7.015,0,0,0-2.907-3.542Z" transform="translate(-395.414 -178.153)" fill="#feca2e"/>
            <path id="Trazado_741288" data-name="Trazado 741288" d="M399.073,195.484l-.613,1.35a14.591,14.591,0,0,0,8.4,3.654,11.579,11.579,0,0,0,8.551-2.288l.371-2.5a9.152,9.152,0,0,1-7.085,2.536A29.687,29.687,0,0,1,399.073,195.484Z" transform="translate(-397.825 -173.773)" fill="#351817"/>
          </g>
          <path id="Trazado_741289" data-name="Trazado 741289" d="M404.982,185.258c.076-.082.148-.168.227-.248-.516-.18-.983-.336-1.354-.447-1.825-1.847-5.475-2.327-5.475-2.327s-.067-8.655-.089-11.086a10.646,10.646,0,0,0-1.252-5.44c-.714-1.115-1.766-1.7-1.876-.946s.917,1.515.845,2.01a8.841,8.841,0,0,0,.023,3.121c.3,1.07.64,2.447.64,2.447l-1.478,13.476a12.642,12.642,0,0,0,2.362,2.028c.872.6,1.661,1.239,2.736,1.872A7.075,7.075,0,0,1,404.982,185.258Z" transform="translate(-384.378 -136.873)" fill="#fcb9a4"/>
          <path id="Trazado_741290" data-name="Trazado 741290" d="M402.632,179.587s.113,1.083.464,3.064c1.289.717,5.428-2.323,5.428-2.323L406,177.788Z" transform="translate(-382.384 -133.309)" fill="#fcb9a4"/>
          <path id="Trazado_741291" data-name="Trazado 741291" d="M401.579,171.932c-2.68,1.3-3.443,5.217-2.464,8.027a3.617,3.617,0,0,0,1.181,2.024c1.412,1.217,3.3.313,4.7-.448,1.632-.885,3.382-2.183,3.63-4.176C409.019,174.2,404.581,170.479,401.579,171.932Z" transform="translate(-383.431 -134.957)" fill="#ffc9b6"/>
          <path id="Trazado_741292" data-name="Trazado 741292" d="M405.666,185.135c-.371-1.321-1.593-2.7-3.091-2.274-3.367.951-3.6,5.065-4.186,7.238-2.388,4.342-2.809,6.238-3.024,7.359a32.33,32.33,0,0,0-4.623,8.326,5.044,5.044,0,0,0,.9,1.382,2.983,2.983,0,0,0,1.207.821,14.054,14.054,0,0,1,2.167-2.055c1.422-1.307,3.586-4.727,3.043-6.56,2.711-1.8,3.416-3.193,3.548-6.542C405.462,193.557,406.45,187.929,405.666,185.135Z" transform="translate(-385.555 -131.977)" fill="#ffc9b6"/>
          <path id="Trazado_741293" data-name="Trazado 741293" d="M402.349,181.927c-1.663,0-3.538,1.758-4.882,4.227-.318,1-1.021,2.827-1.651,5.119.271.86,2.035,3.587,4.853,3.338a15.381,15.381,0,0,0,2.706-2.647,4.391,4.391,0,0,0,2.542-3.685C406.146,184.854,405.424,181.927,402.349,181.927Z" transform="translate(-384.201 -132.205)" fill="#cebcbc"/>
          <path id="Trazado_741294" data-name="Trazado 741294" d="M405.333,176.343c-.025.056-1.283,3.9-3.939,5.111a4.628,4.628,0,0,0,2.885-1.182,12.093,12.093,0,0,0,2.385-3.629C406.03,176.66,405.917,176.47,405.333,176.343Z" transform="translate(-382.714 -133.694)" fill="#351817"/>
          <path id="Trazado_741295" data-name="Trazado 741295" d="M404.5,176.488a8.084,8.084,0,0,0,.993,2.528,4.936,4.936,0,0,0,1.607,1.1,5.2,5.2,0,0,0,.218-3.629C406.623,174.938,404.5,176.488,404.5,176.488Z" transform="translate(-381.884 -133.839)" fill="#351817"/>
          <path id="Trazado_741296" data-name="Trazado 741296" d="M398.751,174.249a16.758,16.758,0,0,0,4.678,2.547,20.994,20.994,0,0,0,5.164,1.232s3.775-5.733-2.555-8.4c-2.371-1-3.564-.486-4.636.351A9.889,9.889,0,0,0,398.751,174.249Z" transform="translate(-383.419 -135.632)" fill="#ffd140"/>
          <path id="Trazado_741297" data-name="Trazado 741297" d="M399.361,172.445c-1.059.065-2.852,2.582.87,4.522s8.565.163,8.565.163S401.489,174.957,399.361,172.445Z" transform="translate(-383.622 -134.734)" fill="#ffbc15"/>
          <path id="Trazado_741298" data-name="Trazado 741298" d="M399.072,172.606l.343-.766a13.142,13.142,0,0,0,4.166,2.953,10.522,10.522,0,0,0,5.453,1.33l-.527,1.169S401.275,176.143,399.072,172.606Z" transform="translate(-383.333 -134.895)" fill="#ffa300"/>
          <path id="Trazado_741299" data-name="Trazado 741299" d="M401.394,173.209a5.622,5.622,0,0,1,2.132-2.452c2.381-1.211,4.746.764,4.746.764a4.315,4.315,0,0,1,.413,4.411C405.931,176.288,401.394,173.209,401.394,173.209Z" transform="translate(-382.714 -135.289)" fill="#ffbc15"/>
          <path id="Trazado_741300" data-name="Trazado 741300" d="M399.636,171.8l.88.788a9.011,9.011,0,0,1,2.436-2.551,5.768,5.768,0,0,1,1.985-.716,3.28,3.28,0,0,0-3.544.5A7.877,7.877,0,0,0,399.636,171.8Z" transform="translate(-383.183 -135.647)" fill="#ffbc15"/>
          <path id="Trazado_741301" data-name="Trazado 741301" d="M392.568,199.493l-1.611,2.5a22.369,22.369,0,0,0-3,1.6c-1.385.9-1.811,1.847-.584,1.756.732-.054,2.072-1.112,2.151-.612s-1.207,3.663-.228,4.764,3.229-1.547,3.573-2.451c.307-.807.2-2.326.746-3.1.684-.974,1.623-1.428,1.876-1.925A4.773,4.773,0,0,0,392.568,199.493Z" transform="translate(-386.647 -127.52)" fill="#351817"/>
          <path id="Trazado_741302" data-name="Trazado 741302" d="M398.321,171.427s-.96,1.3-1.623.974-1.112-2.383-.887-3.976l.224-1.592s-1.406-1.493-.854-2.352,1.927.375,2.6,1.867S398.321,171.427,398.321,171.427Z" transform="translate(-384.405 -136.933)" fill="#351817"/>
          <g id="Grupo_931596" data-name="Grupo 931596" transform="translate(27.689 0)">
            <path id="Trazado_741303" data-name="Trazado 741303" d="M409.02,213.358a.392.392,0,0,1-.123-.764c4.558-1.514,6.309-6.482,2.514-28.351a206.743,206.743,0,0,1-2.783-41.2.379.379,0,0,1,.413-.37.392.392,0,0,1,.37.413,205.716,205.716,0,0,0,2.773,41.019c3.891,22.431,1.934,27.578-3.041,29.23A.379.379,0,0,1,409.02,213.358Z" transform="translate(-408.506 -142.673)" fill="#5b3332"/>
          </g>
        </g>
      </g>
    </g>
  </g>
</svg>
