<svg xmlns="http://www.w3.org/2000/svg" width="102.677" height="122.445" viewBox="0 0 102.677 122.445">
  <g id="Grupo_933257" data-name="Grupo 933257" transform="translate(-210.323 -6052.266)">
    <g id="Grupo_931684" data-name="Grupo 931684" transform="translate(7.322 199.994)">
      <g id="Grupo_931449" data-name="Grupo 931449" transform="translate(0.776 5816.263)">
        <g id="Grupo_931422" data-name="Grupo 931422" transform="translate(235.999 36.009)">
          <path id="Trazado_737819" data-name="Trazado 737819" d="M243.728,114.249l57.207,33.028V70.737L243.728,37.709Z" transform="translate(-240.459 -36.191)" fill="#5b3332"/>
          <g id="Grupo_931415" data-name="Grupo 931415" transform="translate(57.132 33.191)">
            <g id="Grupo_931414" data-name="Grupo 931414" transform="translate(0 0.973)">
              <path id="Trazado_737820" data-name="Trazado 737820" d="M308.293,154.257l1.685-.973V75.628l-1.685.973Z" transform="translate(-304.529 -74.431)" fill="#b29d9d"/>
              <path id="Trazado_737821" data-name="Trazado 737821" d="M307.84,154.112l-3.764-2.17V74.286l3.764,2.171Z" transform="translate(-304.076 -74.286)" fill="#e0d1d1"/>
            </g>
            <path id="Trazado_737822" data-name="Trazado 737822" d="M304.076,74.169l1.607-.973,3.841,2.17-1.685.973Z" transform="translate(-304.076 -73.196)" fill="#fff"/>
          </g>
          <g id="Grupo_931417" data-name="Grupo 931417" transform="translate(37.989 22.007)">
            <g id="Grupo_931416" data-name="Grupo 931416" transform="translate(0 0.973)">
              <path id="Trazado_737823" data-name="Trazado 737823" d="M286.845,141.726l1.685-.973V63.1l-1.685.973Z" transform="translate(-283.081 -61.9)" fill="#b29d9d"/>
              <path id="Trazado_737824" data-name="Trazado 737824" d="M286.392,141.582l-3.764-2.171V61.756l3.764,2.17Z" transform="translate(-282.628 -61.756)" fill="#e0d1d1"/>
            </g>
            <path id="Trazado_737825" data-name="Trazado 737825" d="M282.628,61.639l1.607-.973,3.841,2.171-1.685.973Z" transform="translate(-282.628 -60.666)" fill="#fff"/>
          </g>
          <g id="Grupo_931419" data-name="Grupo 931419" transform="translate(19.143 11.184)">
            <g id="Grupo_931418" data-name="Grupo 931418" transform="translate(0 0.973)">
              <path id="Trazado_737826" data-name="Trazado 737826" d="M265.73,129.6l1.685-.973V50.971l-1.685.973Z" transform="translate(-261.967 -49.773)" fill="#b29d9d"/>
              <path id="Trazado_737827" data-name="Trazado 737827" d="M265.277,129.455l-3.764-2.171V49.629l3.764,2.17Z" transform="translate(-261.514 -49.629)" fill="#e0d1d1"/>
            </g>
            <path id="Trazado_737828" data-name="Trazado 737828" d="M261.514,49.512l1.607-.973,3.841,2.17-1.685.973Z" transform="translate(-261.514 -48.539)" fill="#fff"/>
          </g>
          <g id="Grupo_931421" data-name="Grupo 931421">
            <g id="Grupo_931420" data-name="Grupo 931420" transform="translate(0 0.973)">
              <path id="Trazado_737829" data-name="Trazado 737829" d="M244.283,117.069l1.685-.973V38.44l-1.685.973Z" transform="translate(-240.519 -37.243)" fill="#b29d9d"/>
              <path id="Trazado_737830" data-name="Trazado 737830" d="M243.829,116.925l-3.764-2.17V37.1l3.764,2.17Z" transform="translate(-240.066 -37.099)" fill="#e0d1d1"/>
            </g>
            <path id="Trazado_737831" data-name="Trazado 737831" d="M240.066,36.982l1.607-.973,3.841,2.17-1.685.973Z" transform="translate(-240.066 -36.009)" fill="#fff"/>
          </g>
        </g>
        <g id="Grupo_931444" data-name="Grupo 931444" transform="translate(202.224 69.346)">
          <path id="Trazado_737832" data-name="Trazado 737832" d="M288.345,169.4l-32.233-18.61,22.347-12.9,32.233,18.61Z" transform="translate(-208.015 -80.295)" fill="#ff9d3a"/>
          <path id="Trazado_737833" data-name="Trazado 737833" d="M282.554,162.415l-80.33-46.236,22.347-12.9,80.33,46.236Z" transform="translate(-202.224 -76.575)" fill="#ff9d3a"/>
          <g id="Grupo_931427" data-name="Grupo 931427" transform="translate(36.514 9.346)">
            <g id="Grupo_931423" data-name="Grupo 931423">
              <path id="Trazado_737834" data-name="Trazado 737834" d="M245.476,85.182l-2.341-1.352v26.745L245.476,112Z" transform="translate(-243.135 -83.831)" fill="#fc811d"/>
              <path id="Trazado_737835" data-name="Trazado 737835" d="M246.854,85.98l-1.1-.634v26.821l1.1-.633Z" transform="translate(-243.417 -83.994)" fill="#ea6f13"/>
            </g>
            <g id="Grupo_931424" data-name="Grupo 931424" transform="translate(15.494 8.821)">
              <path id="Trazado_737836" data-name="Trazado 737836" d="M262.835,95.065l-2.341-1.352v26.821l2.341,1.352Z" transform="translate(-260.494 -93.714)" fill="#fc811d"/>
              <path id="Trazado_737837" data-name="Trazado 737837" d="M264.214,95.054l-1.1.155V122.03l1.1-.633Z" transform="translate(-260.776 -93.858)" fill="#ea6f13"/>
            </g>
            <g id="Grupo_931425" data-name="Grupo 931425" transform="translate(31.199 17.852)">
              <path id="Trazado_737838" data-name="Trazado 737838" d="M280.431,105.184l-2.341-1.352v26.856l2.341,1.317Z" transform="translate(-278.09 -103.832)" fill="#fc811d"/>
              <path id="Trazado_737839" data-name="Trazado 737839" d="M281.81,105.578l-1.1-.231v26.821l1.1-.633Z" transform="translate(-278.372 -103.995)" fill="#ea6f13"/>
            </g>
            <g id="Grupo_931426" data-name="Grupo 931426" transform="translate(46.596 26.703)">
              <path id="Trazado_737840" data-name="Trazado 737840" d="M297.682,115.1l-2.341-1.352v26.821l2.341,1.352Z" transform="translate(-295.341 -113.75)" fill="#fc811d"/>
              <path id="Trazado_737841" data-name="Trazado 737841" d="M299.06,115.382l-1.1-.118v26.821l1.1-.633Z" transform="translate(-295.623 -113.912)" fill="#ea6f13"/>
            </g>
          </g>
          <g id="Grupo_931428" data-name="Grupo 931428" transform="translate(34.853 7.531)">
            <path id="Trazado_737842" data-name="Trazado 737842" d="M300.7,115.551,241.863,81.8l-.59.878L301.7,117.4Z" transform="translate(-241.273 -81.798)" fill="#ff9d3a"/>
            <path id="Trazado_737843" data-name="Trazado 737843" d="M306.906,120.434,242.018,83.222v1.086L306.3,121.237Z" transform="translate(-241.353 -81.951)" fill="#fc811d"/>
          </g>
          <g id="Grupo_931429" data-name="Grupo 931429" transform="translate(77.605 36.683)">
            <path id="Trazado_737844" data-name="Trazado 737844" d="M298.225,140.337c-.074,0-.149,0-.225-.009-2.4-.2-4.95-3.551-6.072-7.962-1.349-5.3-.929-12.178-1.316-14.854a3.783,3.783,0,0,0-1.44-2.6l.145-.448a4.045,4.045,0,0,1,1.848,3.081c.35,2.662-.032,9.464,1.3,14.688,1.05,4.123,3.451,7.368,5.584,7.548,1.04.086,1.907-.587,2.513-1.951,1.008-2.27.84-5.963.677-9.535-.165-3.62-.32-7.039.836-8.569l.44.334c-1.036,1.37-.885,4.693-.724,8.21.165,3.636.336,7.4-.724,9.784C300.406,139.534,299.4,140.337,298.225,140.337Z" transform="translate(-289.173 -114.46)" fill="#c9b5b5"/>
          </g>
          <g id="Grupo_931430" data-name="Grupo 931430" transform="translate(62.173 9.509)">
            <path id="Trazado_737845" data-name="Trazado 737845" d="M289.534,111.443c.268-.527-1.476-.963-1.476-.963l-.453,1.231S289.022,112.449,289.534,111.443Z" transform="translate(-273.573 -86.858)" fill="#ea462a"/>
            <path id="Trazado_737846" data-name="Trazado 737846" d="M282.51,93.6a3.052,3.052,0,0,0-3.339,1.785,5.285,5.285,0,0,0-.074,4.538c.628.98,3.812,2.45,4.884,2.909a13.808,13.808,0,0,1,1.561.766,9.227,9.227,0,0,0,3.031-1.294,7.771,7.771,0,0,0,1.383-2.062,3.1,3.1,0,0,0-1.328-2.028,9.029,9.029,0,0,0-2.722,2.065s-1.534-1.795-1.469-2.836S283.674,93.848,282.51,93.6Z" transform="translate(-272.608 -85.038)" fill="#e0d1d1"/>
            <path id="Trazado_737847" data-name="Trazado 737847" d="M283.971,143.651a13.452,13.452,0,0,1-.926,2.212,1.221,1.221,0,0,0,.789,1.872c.779.259,1.87.09,3.688-.878s2.614-1.928,2.679-2.551-.851-1.53-2.421-1.039a21.237,21.237,0,0,0-2.367.86Z" transform="translate(-273.06 -90.366)" fill="#492624"/>
            <path id="Trazado_737848" data-name="Trazado 737848" d="M273.88,140.158a18.884,18.884,0,0,0-1.885,1.939,8.771,8.771,0,0,0,1.2,2.573c.884,1.579,2.462,2.4,3.753,1.559s2.167-2.194,1.083-2.558a3.211,3.211,0,0,0-2.016,0s-.362-.866-.755-1.8A5.232,5.232,0,0,0,273.88,140.158Z" transform="translate(-271.895 -90.047)" fill="#492624"/>
            <path id="Trazado_737849" data-name="Trazado 737849" d="M271.983,142.33a2.192,2.192,0,0,1,1.846,1.574,6.68,6.68,0,0,0,1.607,2.854c-1.276-.152-1.672-.592-2.468-2.089C272.3,143.406,271.625,142.572,271.983,142.33Z" transform="translate(-271.883 -90.28)" fill="#492624"/>
            <path id="Trazado_737850" data-name="Trazado 737850" d="M283.782,113.811a8.828,8.828,0,0,0-2.122-1,15.913,15.913,0,0,0-2.765-1.084l.062-.077c.1-.122-.653-.411-.807-.3-2.236,1.586-2.52,3.639-1.2,6.44-1.213,2.911.022,8.5.993,10.014a7.257,7.257,0,0,0-2.379,2.615c-.983,2.363-1.094,4.6-2.246,6.315-.3.444-.245.8-.019.982.231-.217.939-.136,1.561.614a3.9,3.9,0,0,1,.837,1.226c1.456-.551,3.042-4.065,4.567-6.383,1.043-1.585,1.519-2.507,1.519-3.719a.981.981,0,0,0,.623-1.495c1.1-2.128,1.3-7.071,1.57-9.456C284.117,117.29,284.861,114.755,283.782,113.811Z" transform="translate(-272.016 -86.948)" fill="#ea462a"/>
            <path id="Trazado_737851" data-name="Trazado 737851" d="M290.037,126.755c-.066-1.369-.75-6.722-.971-8.139a27.807,27.807,0,0,0-1.081-5.087c.271-.149-2.6.846-3.588.646-.844-.169-3.291-2.776-3.3-2.679-2.208,2.629-2.343,6.258,0,7.911.019.013,1.309,5.957,4.983,9.369-.436,1.136-1.369,1.687-1.967,3.715-.678,2.3-1.429,5.783-1,7.445a2.593,2.593,0,0,0-.432,1.13c-.229,1.338,2.347,1.2,3.257,1.019a1.059,1.059,0,0,0,.64-1.529,62.725,62.725,0,0,0,2.852-6.866c.45-1.4,1.184-3.678.6-5.143A1.173,1.173,0,0,0,290.037,126.755Z" transform="translate(-272.69 -86.967)" fill="#f45a37"/>
            <path id="Trazado_737852" data-name="Trazado 737852" d="M288.056,86.931a2.813,2.813,0,0,0-3.077.288,2.5,2.5,0,0,0-1.2,2.155,7.4,7.4,0,0,0,.3,1.64,11.127,11.127,0,0,0,2,2.4,2.075,2.075,0,0,0,2.534.488c1.29-.643,1.042-2.436,1.04-3.667A3.359,3.359,0,0,0,288.056,86.931Z" transform="translate(-273.161 -84.291)" fill="#ffc9b6"/>
            <path id="Trazado_737853" data-name="Trazado 737853" d="M285.638,95.979c-2.689-1.311-3.528-2.686-5.387-1.049-1.154,1.016-1.35,5.161-1.194,6.884a17.577,17.577,0,0,1-.484,5.627c-.416.891-.965,1.323-.608,1.965-.592.245,9.479,3.216,9.57,1.044.036-.86,1.949-6.866,2.1-9.533S288.768,97.5,285.638,95.979Z" transform="translate(-272.524 -85.106)" fill="#fff"/>
            <path id="Trazado_737854" data-name="Trazado 737854" d="M284.491,90.823s-1.2,1.042-.831,1.684c.447.772-.688,2.252-.688,2.252a1.294,1.294,0,0,0,.6,2c1.5.643,3.285-.677,3.285-.677a6.95,6.95,0,0,1,.582-2.242C287.85,92.813,284.491,90.823,284.491,90.823Z" transform="translate(-273.046 -84.745)" fill="#ffc9b6"/>
            <path id="Trazado_737855" data-name="Trazado 737855" d="M287.769,85.632a3.625,3.625,0,0,0-4.57.705,3.306,3.306,0,0,0-.788,2.539c.156,1.4,1.511,2.579,2.058,4.392,1.122-.123,1.484-1.014,2.056-1.649a7.189,7.189,0,0,0,1.289-1.33,1.769,1.769,0,0,0,1.712-1.337,3.542,3.542,0,0,0,1.445-2.435C289.774,85.669,289.264,84.879,287.769,85.632Z" transform="translate(-273.012 -84.133)" fill="#351817"/>
            <path id="Trazado_737856" data-name="Trazado 737856" d="M282.019,111.5s1.8,1.837,3.491,1.974a8.989,8.989,0,0,0,2.339-.009,6.459,6.459,0,0,0-2.383-1.084C284.191,112.139,282.019,111.5,282.019,111.5Z" transform="translate(-272.972 -86.967)" fill="#f45a37"/>
            <path id="Trazado_737857" data-name="Trazado 737857" d="M279.218,113.288s.942,1.537,4.066,1.915a8.125,8.125,0,0,0,4.964-.76l-.128-1.032s-3.771.886-5.887.03a28.037,28.037,0,0,0-2.8-1.033Z" transform="translate(-272.671 -87.065)" fill="#ea462a"/>
            <path id="Trazado_737858" data-name="Trazado 737858" d="M278.48,101.534l-.823,2.783s-.029,3.028.132,4.046c-.161.389-.428.471-.132.927-.614.023-.409.628-.114,1.117a5.667,5.667,0,0,0,2.46,2.037c.988.522,4.228,1.316,5.471,1.006s2.77-.669,2.661-1.266a3.721,3.721,0,0,1-.093-.793l.38-.909a3.853,3.853,0,0,1-2.948-.225c-.982-.469-2.773-2.71-2.291-6.394A23.61,23.61,0,0,1,278.48,101.534Z" transform="translate(-272.461 -85.896)" fill="#f45a37"/>
            <path id="Trazado_737859" data-name="Trazado 737859" d="M282.713,103.728a34.118,34.118,0,0,1,1.626-4.6c.78-1.513,2.193-2.514,2.739-2.423a1.343,1.343,0,0,1,.979.519,4.5,4.5,0,0,0-2.3,1.391,16.74,16.74,0,0,0-2.049,5.426C283.691,104.747,282.713,103.728,282.713,103.728Z" transform="translate(-273.047 -85.377)" fill="#f45a37"/>
            <path id="Trazado_737860" data-name="Trazado 737860" d="M282.074,95.129a4.519,4.519,0,0,0-1.482,2.167c-.453,1.06-1.4,4.356-1.4,4.356l-.682-.475a32.855,32.855,0,0,1,1.29-4.009,4.828,4.828,0,0,1,1.716-2.428.992.992,0,0,1,1.321.1C282.778,95,282.074,95.129,282.074,95.129Z" transform="translate(-272.596 -85.144)" fill="#f45a37"/>
            <path id="Trazado_737861" data-name="Trazado 737861" d="M283.193,112.372a4.6,4.6,0,0,0,1.981.527,5.036,5.036,0,0,0,1.843-.5,8.424,8.424,0,0,0-1.716-.079A19.656,19.656,0,0,1,283.193,112.372Z" transform="translate(-273.099 -87.053)" fill="#ea462a"/>
            <path id="Trazado_737862" data-name="Trazado 737862" d="M282.722,94.738c-.569.207-1.3,1.361.058,2.423s2.792.171,3.342-.1a4.848,4.848,0,0,1,1.274-.373s-.254-.828-1.594-.819a3.469,3.469,0,0,1-2.38-.727C283.048,94.621,283.048,94.621,282.722,94.738Z" transform="translate(-272.971 -85.159)" fill="#e0d1d1"/>
            <path id="Trazado_737863" data-name="Trazado 737863" d="M284.276,85.8s3.949-3.408,6.458-.413c1.915,2.288-2.508,5.438-2.508,5.438Z" transform="translate(-273.215 -84.029)" fill="#ffbc15"/>
            <path id="Trazado_737864" data-name="Trazado 737864" d="M289.178,85.946a4.1,4.1,0,0,0-5.337-1.275c-2.773,1.6-2.21,5.693-.8,6.845a4.46,4.46,0,0,0,4.922-.494C289.76,89.323,290,87.158,289.178,85.946Z" transform="translate(-272.957 -84.029)" fill="#ffd140"/>
            <path id="Trazado_737865" data-name="Trazado 737865" d="M287.485,92.643l.605,2.091A2.135,2.135,0,0,0,289,94.5a5.57,5.57,0,0,0-.688-2.4Z" transform="translate(-273.56 -84.882)" fill="#351817"/>
            <path id="Trazado_737866" data-name="Trazado 737866" d="M289.628,87.085a5.006,5.006,0,0,1-2.157,3.891c-1.915,1.461-4.758.384-4.758.384l.713.8a5.539,5.539,0,0,0,4.045-.353A4.017,4.017,0,0,0,289.628,87.085Z" transform="translate(-273.047 -84.344)" fill="#ffa300"/>
            <path id="Trazado_737867" data-name="Trazado 737867" d="M285.614,86.029c-1.968.905-2.33,3.225-1.828,5.12,3.279.562,5.541-2,5.364-3.614S286.866,85.455,285.614,86.029Z" transform="translate(-273.141 -84.205)" fill="#ffbc15"/>
            <path id="Trazado_737868" data-name="Trazado 737868" d="M282.2,90.219a7.131,7.131,0,0,1,1.495-4.438A3.794,3.794,0,0,1,287,84.34s-1.513-1.068-3.67.662C280.809,87.024,282.2,90.219,282.2,90.219Z" transform="translate(-272.951 -84.014)" fill="#ffbc15"/>
            <path id="Trazado_737869" data-name="Trazado 737869" d="M287.966,113.647l.2,1.139a7.4,7.4,0,0,1-3.873.49,14.609,14.609,0,0,1-5.531-1.417,4.313,4.313,0,0,1-1.372-1.348l.168-1.035a7.484,7.484,0,0,0,2.854,1.344C285.3,114.109,287.966,113.647,287.966,113.647Z" transform="translate(-272.475 -86.965)" fill="#351817"/>
            <path id="Trazado_737870" data-name="Trazado 737870" d="M289.074,117.8a16.432,16.432,0,0,0-3.709,1.965,13.59,13.59,0,0,0-3.152,3.246s-.965-1.343-.549-2.234c1.694-2.238,7.131-4.65,7.131-4.65A2.288,2.288,0,0,1,289.074,117.8Z" transform="translate(-272.923 -87.464)" fill="#351817"/>
            <path id="Trazado_737871" data-name="Trazado 737871" d="M281.837,121.173a4.134,4.134,0,0,1-3.725-1.569,6.732,6.732,0,0,1-1.337-3.035,4.486,4.486,0,0,0,1.033,4.233,4.68,4.68,0,0,0,3.8,1.852Z" transform="translate(-272.391 -87.512)" fill="#351817"/>
          </g>
          <g id="Grupo_931439" data-name="Grupo 931439" transform="translate(0 0.967)">
            <path id="Trazado_737872" data-name="Trazado 737872" d="M202.224,117.733V121l80.33,46.236v-3.268Z" transform="translate(-202.224 -79.095)" fill="#fc811d"/>
            <path id="Trazado_737873" data-name="Trazado 737873" d="M314.573,155.08l-22.347,12.9v3.268l22.347-12.9Z" transform="translate(-211.896 -83.108)" fill="#ea6f13"/>
            <g id="Grupo_931431" data-name="Grupo 931431" transform="translate(0 11.922)">
              <path id="Trazado_737874" data-name="Trazado 737874" d="M204.565,89.152,202.224,87.8v26.821l2.341,1.352Z" transform="translate(-202.224 -87.8)" fill="#fc811d"/>
              <path id="Trazado_737875" data-name="Trazado 737875" d="M205.944,88.605l-1.1.633V116.06l1.1-.633Z" transform="translate(-202.506 -87.887)" fill="#ea6f13"/>
            </g>
            <g id="Grupo_931432" data-name="Grupo 931432" transform="translate(15.705 20.964)">
              <path id="Trazado_737876" data-name="Trazado 737876" d="M222.161,99.283l-2.341-1.352v27.443l2.341,1.428Z" transform="translate(-219.82 -97.931)" fill="#fc811d"/>
              <path id="Trazado_737877" data-name="Trazado 737877" d="M223.54,98.736l-1.1.633v26.821l1.1-.633Z" transform="translate(-220.102 -98.018)" fill="#ea6f13"/>
            </g>
            <g id="Grupo_931433" data-name="Grupo 931433" transform="translate(31.199 29.785)">
              <path id="Trazado_737878" data-name="Trazado 737878" d="M239.52,109.166l-2.341-1.352v26.821l2.341,1.352Z" transform="translate(-237.179 -107.814)" fill="#fc811d"/>
              <path id="Trazado_737879" data-name="Trazado 737879" d="M240.9,108.619l-1.1.633v26.821l1.1-.633Z" transform="translate(-237.461 -107.901)" fill="#ea6f13"/>
            </g>
            <g id="Grupo_931434" data-name="Grupo 931434" transform="translate(46.904 38.816)">
              <path id="Trazado_737880" data-name="Trazado 737880" d="M257.116,119.284l-2.341-1.352v27.443l2.341,1.428Z" transform="translate(-254.775 -117.933)" fill="#fc811d"/>
              <path id="Trazado_737881" data-name="Trazado 737881" d="M258.495,118.738l-1.1.633v26.821l1.1-.633Z" transform="translate(-255.057 -118.019)" fill="#ea6f13"/>
            </g>
            <g id="Grupo_931435" data-name="Grupo 931435" transform="translate(62.301 47.668)">
              <path id="Trazado_737882" data-name="Trazado 737882" d="M274.367,129.2l-2.341-1.352v26.821l2.341,1.352Z" transform="translate(-272.026 -127.85)" fill="#fc811d"/>
              <path id="Trazado_737883" data-name="Trazado 737883" d="M275.746,128.655l-1.1.633V156.11l1.1-.633Z" transform="translate(-272.308 -127.937)" fill="#ea6f13"/>
            </g>
            <g id="Grupo_931436" data-name="Grupo 931436" transform="translate(78.006 56.699)">
              <path id="Trazado_737884" data-name="Trazado 737884" d="M291.963,139.32l-2.341-1.352v27.443l2.341,1.428Z" transform="translate(-289.622 -137.969)" fill="#fc811d"/>
              <path id="Trazado_737885" data-name="Trazado 737885" d="M293.342,138.774l-1.1.633v26.821l1.1-.633Z" transform="translate(-289.904 -138.055)" fill="#ea6f13"/>
            </g>
            <g id="Grupo_931437" data-name="Grupo 931437" transform="translate(21.25)">
              <path id="Trazado_737886" data-name="Trazado 737886" d="M228.373,75.435l-2.341-.992v26.462l2.341,1.352Z" transform="translate(-226.032 -74.443)" fill="#fc811d"/>
              <path id="Trazado_737887" data-name="Trazado 737887" d="M229.752,75.093l-1.1.412v26.821l1.1-.633Z" transform="translate(-226.314 -74.513)" fill="#ea6f13"/>
            </g>
            <g id="Grupo_931438" data-name="Grupo 931438" transform="translate(99.218 44.42)">
              <path id="Trazado_737888" data-name="Trazado 737888" d="M315.729,125.563l-2.341-1.352v26.821l2.341,1.352Z" transform="translate(-313.388 -124.212)" fill="#fc811d"/>
              <path id="Trazado_737889" data-name="Trazado 737889" d="M317.108,125.017l-1.1.633v27.614l1.1-.633Z" transform="translate(-313.67 -124.298)" fill="#ea6f13"/>
            </g>
            <path id="Trazado_737890" data-name="Trazado 737890" d="M292.249,138.016V139.1l22.305-13.01v-1.087Z" transform="translate(-211.898 -79.877)" fill="#ea6f13"/>
            <path id="Trazado_737891" data-name="Trazado 737891" d="M202.224,87.8v1.086L282.575,135.1v-1.087Z" transform="translate(-202.224 -75.878)" fill="#fc811d"/>
            <path id="Trazado_737892" data-name="Trazado 737892" d="M224.729,74.695v1.087L205.434,86.934l-.943-.542Z" transform="translate(-202.468 -74.47)" fill="#ea6f13"/>
          </g>
          <g id="Grupo_931440" data-name="Grupo 931440" transform="translate(0 0)">
            <path id="Trazado_737893" data-name="Trazado 737893" d="M240.862,82.546v1.087l-13.7-7.851V74.695Z" transform="translate(-204.904 -73.504)" fill="#fc811d"/>
            <path id="Trazado_737894" data-name="Trazado 737894" d="M224.558,73.36l13.5,7.758.121,1.285-13.7-7.851L204.343,86.18l78.331,44.848,19.957-11.654-9.777-5.586.579-.912,11.449,6.59-22.305,13L202.224,86.249Z" transform="translate(-202.224 -73.36)" fill="#ff9d3a"/>
          </g>
          <g id="Grupo_931443" data-name="Grupo 931443" transform="translate(90.034 37.725)">
            <g id="Grupo_931441" data-name="Grupo 931441">
              <path id="Trazado_737895" data-name="Trazado 737895" d="M304.836,121.033a1.05,1.05,0,0,0,.277-.036,5.51,5.51,0,0,0,.793-.242l-.743-.421a.339.339,0,0,1-.206.133,1.116,1.116,0,0,1-.811-.236c-.914-.565-.369-2.15.1-3,.423-.769,1.069-1.107,1.2-1.053a.307.307,0,0,1,.019.126v1.853l.552.318v-2.171a.6.6,0,0,0-.435-.661c-.523-.134-1.341.458-1.816,1.322-.7,1.266-1.088,3,.1,3.733A1.907,1.907,0,0,0,304.836,121.033Z" transform="translate(-303.098 -115.627)" fill="#c9b5b5"/>
            </g>
            <g id="Grupo_931442" data-name="Grupo 931442" transform="translate(0.253 0.159)">
              <path id="Trazado_737896" data-name="Trazado 737896" d="M305.12,121.211a1.05,1.05,0,0,0,.277-.036.88.88,0,0,0,.54-.4l-.486-.261h0a.363.363,0,0,1-.209.131,1.116,1.116,0,0,1-.811-.236c-.914-.565-.37-2.15.1-3,.423-.769,1.068-1.106,1.2-1.052a.309.309,0,0,1,.019.126v1.84l.552.319v-2.158a.6.6,0,0,0-.435-.661c-.523-.134-1.341.457-1.816,1.322-.7,1.265-1.088,3,.1,3.733A1.915,1.915,0,0,0,305.12,121.211Z" transform="translate(-303.382 -115.805)" fill="#fff"/>
            </g>
          </g>
        </g>
        <g id="Grupo_931448" data-name="Grupo 931448" transform="translate(282.893 87.691)">
          <path id="Trazado_737897" data-name="Trazado 737897" d="M298.912,104.016l-2.342,1.331-1.393-.8,2.342-1.331Z" transform="translate(-292.882 -94.913)" fill="#2f3856"/>
          <path id="Trazado_737898" data-name="Trazado 737898" d="M298.912,102.937l-2.342,1.331-1.393-.8,2.342-1.331Z" transform="translate(-292.882 -94.797)" fill="#441f1f"/>
          <path id="Trazado_737899" data-name="Trazado 737899" d="M295.753,103.329l-.576.263,1.393.8-.019-.607Z" transform="translate(-292.882 -94.925)" fill="#4f4193"/>
          <path id="Trazado_737900" data-name="Trazado 737900" d="M297.8,102.132l.64.6.683.186.07.019Z" transform="translate(-293.164 -94.797)" fill="#4f4193"/>
          <g id="Grupo_931445" data-name="Grupo 931445" transform="translate(2.871 4.818)">
            <path id="Trazado_737901" data-name="Trazado 737901" d="M297.388,100.064v1.749l1.069-.618a.465.465,0,0,0,.232-.4V99.312Z" transform="translate(-295.99 -99.312)" fill="#fc811d"/>
            <path id="Trazado_737902" data-name="Trazado 737902" d="M298.229,100.327l-1.609.929-.8-.461,1.609-.929Z" transform="translate(-295.822 -99.372)" fill="#b29d9d"/>
            <path id="Trazado_737903" data-name="Trazado 737903" d="M296.716,101.311v2.162l1.609-.929v-2.162Z" transform="translate(-295.918 -99.427)" fill="#351817"/>
            <path id="Trazado_737904" data-name="Trazado 737904" d="M295.822,100.907v2.162l.8.461v-2.162Z" transform="translate(-295.822 -99.483)" fill="#441f1f"/>
          </g>
          <path id="Trazado_737905" data-name="Trazado 737905" d="M305.418,94.267l-3.273,1.89a.189.189,0,0,1-.258-.07h0a.19.19,0,0,1,.069-.258l3.274-1.889a.19.19,0,0,1,.258.069h0A.191.191,0,0,1,305.418,94.267Z" transform="translate(-293.601 -93.914)" fill="#351817"/>
          <path id="Trazado_737906" data-name="Trazado 737906" d="M295.367,101.252c0,.026-1.641.96-2.173,1.188s-.064.986.47,1.126a3.242,3.242,0,0,0,2.048-.619c.327-.3.909-.694.619-.853s-.34-.055-.55.1a1.136,1.136,0,0,1-.489.182Z" transform="translate(-292.644 -94.702)" fill="#ffb9a4"/>
          <path id="Trazado_737907" data-name="Trazado 737907" d="M302.955,95.52l-.01-.016a1.377,1.377,0,0,0-1.877-.5l-1.077.621c.441.811.837,1.649,1.32,2.435l1.141-.659A1.378,1.378,0,0,0,302.955,95.52Z" transform="translate(-293.4 -94.011)" fill="#441f1f"/>
          <g id="Grupo_931446" data-name="Grupo 931446" transform="translate(5.632 1.308)">
            <path id="Trazado_737908" data-name="Trazado 737908" d="M301.835,97.223a2.179,2.179,0,0,0-.909-1.739.576.576,0,0,0-.593-.042l0-.005-1.047.6,1.181,2.527,1.053-.615A.793.793,0,0,0,301.835,97.223Z" transform="translate(-298.955 -95.379)" fill="#e0d1d1"/>
            <path id="Trazado_737909" data-name="Trazado 737909" d="M300.735,97.909c0,.669-.407.977-.91.687a2.178,2.178,0,0,1-.909-1.738c0-.67.407-.978.909-.688A2.179,2.179,0,0,1,300.735,97.909Z" transform="translate(-298.916 -95.452)" fill="#f7f4f9"/>
          </g>
          <path id="Trazado_737910" data-name="Trazado 737910" d="M300.6,97.928a2.921,2.921,0,0,0-1.219-2.33.773.773,0,0,0-.794-.057l0-.007-5.2,3.055,1.6,3.37,5.184-3.052A1.067,1.067,0,0,0,300.6,97.928Z" transform="translate(-292.69 -94.08)" fill="#441f1f"/>
          <path id="Trazado_737911" data-name="Trazado 737911" d="M295.959,100.96a2.921,2.921,0,0,0-1.219-2.33.773.773,0,0,0-.794-.057l-.561.342,1.6,3.37.572-.336A1.077,1.077,0,0,0,295.959,100.96Z" transform="translate(-292.69 -94.405)" fill="#e0d1d1"/>
          <path id="Trazado_737912" data-name="Trazado 737912" d="M295.39,101.324c0,.9-.545,1.31-1.219.922a2.921,2.921,0,0,1-1.219-2.33c0-.9.546-1.31,1.219-.922A2.919,2.919,0,0,1,295.39,101.324Z" transform="translate(-292.643 -94.444)" fill="#441f1f"/>
          <g id="Grupo_931447" data-name="Grupo 931447" transform="translate(0 4.955)">
            <path id="Trazado_737913" data-name="Trazado 737913" d="M294.939,101.309a2.178,2.178,0,0,0-.91-1.738.574.574,0,0,0-.593-.043l0-.005-.472.272,1.21,2.517.449-.273A.8.8,0,0,0,294.939,101.309Z" transform="translate(-292.644 -99.465)" fill="#fff"/>
            <path id="Trazado_737914" data-name="Trazado 737914" d="M294.426,101.618c0,.669-.407.978-.909.687a2.178,2.178,0,0,1-.91-1.738c0-.669.408-.977.91-.687A2.177,2.177,0,0,1,294.426,101.618Z" transform="translate(-292.606 -99.498)" fill="#fff"/>
          </g>
          <path id="Trazado_737915" data-name="Trazado 737915" d="M298.877,96.387v-.278l-.229.08a.963.963,0,0,0-.382.027l-.78.309-.315.108v.294h0a.2.2,0,0,0,.117.158.551.551,0,0,0,.493.021l1.01-.584a.142.142,0,0,0,.079-.112h0Z" transform="translate(-293.096 -94.15)" fill="#fc811d"/>
          <path id="Trazado_737916" data-name="Trazado 737916" d="M297.783,96.774l1.01-.584c.126-.072.11-.2-.036-.285h0a.55.55,0,0,0-.493-.02l-1.01.583c-.126.072-.11.2.036.285h0A.55.55,0,0,0,297.783,96.774Z" transform="translate(-293.096 -94.12)" fill="#ff8d40"/>
          <path id="Trazado_737917" data-name="Trazado 737917" d="M295.177,103.624v.964l1.393.8v-.964Z" transform="translate(-292.882 -94.957)" fill="#441f1f"/>
          <path id="Trazado_737918" data-name="Trazado 737918" d="M296.737,104.364v.964L299.08,104v-.964Z" transform="translate(-293.05 -94.894)" fill="#351817"/>
          <path id="Trazado_737919" data-name="Trazado 737919" d="M300.126,99.138l-2.472,1.427c-.095.054-.17,0-.17-.129v-.869a.408.408,0,0,1,.17-.327l2.472-1.427c.095-.054.171,0,.171.129v.869A.409.409,0,0,1,300.126,99.138Z" transform="translate(-293.13 -94.331)" fill="#5b3332"/>
        </g>
        <path id="Trazado_737920" data-name="Trazado 737920" d="M299.151,100.89a3.691,3.691,0,0,0-.168-1.161l-.914.556c-.483.353-.867-.646-1.27-.777-.547-.178-.329.507-.164.777s.608.847.386,1.2a9.893,9.893,0,0,1-1.8,1.162h0a8.745,8.745,0,0,0-1.536.881,7.6,7.6,0,0,0-2.726-3.055s-2.746,1.692-2.463,2.521c.635,1.855,3.114,2.886,3.713,3.108a2.33,2.33,0,0,0,1.848.24,8.075,8.075,0,0,0,1.957-1.4l.008,0v0c.569-.494,1.169-1.049,1.71-1.567C299.038,102.123,299.151,101.6,299.151,100.89Z" transform="translate(-9.269 -6.821)" fill="#ffc9b6"/>
        <path id="Trazado_737921" data-name="Trazado 737921" d="M289.33,104.745a5.568,5.568,0,0,0,3.44-3.1c-.194-.212-.66-.934-.9-1.154-.892-2.331-2.14-3.247-3.13-3.3a2.055,2.055,0,0,0-2.13,2.533C287.07,102.583,287.917,103.623,289.33,104.745Z" transform="translate(-9.065 -6.575)" fill="#e0d1d1"/>
      </g>
    </g>
  </g>
</svg>
