<svg xmlns="http://www.w3.org/2000/svg" width="56.75" height="137.851" viewBox="0 0 56.75 137.851">
  <g id="Grupo_933261" data-name="Grupo 933261" transform="translate(-222.25 -2975.783)">
    <g id="Grupo_931600" data-name="Grupo 931600" transform="translate(10.245 58)">
      <g id="Grupo_931569" data-name="Grupo 931569" transform="translate(212.005 2917.783)">
        <g id="Grupo_931552" data-name="Grupo 931552" transform="translate(0 11.207)">
          <path id="Trazado_741163" data-name="Trazado 741163" d="M29.944,308.453l-10.962,6.163V197.307l10.962-6.163Z" transform="translate(-13.467 -187.972)" fill="#e0d1d1"/>
          <path id="Trazado_741164" data-name="Trazado 741164" d="M15.327,310.428l5.515,3.184V196.3l-5.515-3.184Z" transform="translate(-15.327 -186.968)" fill="#c9b5b5"/>
          <path id="Trazado_741165" data-name="Trazado 741165" d="M31.8,192.213l-5.481-3.171-11,6.15,5.515,3.184Z" transform="translate(-15.327 -189.042)" fill="#fff"/>
        </g>
        <g id="Grupo_931553" data-name="Grupo 931553" transform="translate(20.206 0)">
          <path id="Trazado_741166" data-name="Trazado 741166" d="M43.337,301.026l-10.962,6.163V189.879l10.962-6.163Z" transform="translate(-26.859 -180.545)" fill="#e0d1d1"/>
          <path id="Trazado_741167" data-name="Trazado 741167" d="M28.719,303l5.515,3.184V188.874l-5.515-3.184Z" transform="translate(-28.719 -179.54)" fill="#b29d9d"/>
          <path id="Trazado_741168" data-name="Trazado 741168" d="M45.2,184.786l-5.481-3.171-11,6.15,5.515,3.184Z" transform="translate(-28.719 -181.614)" fill="#fff"/>
        </g>
        <g id="Grupo_931554" data-name="Grupo 931554" transform="translate(6.007 23.648)">
          <path id="Trazado_741169" data-name="Trazado 741169" d="M50.283,198.024l-29.757,17.17v3.439l29.757-17.17Z" transform="translate(-18.689 -196.913)" fill="#c9b5b5"/>
          <path id="Trazado_741170" data-name="Trazado 741170" d="M21.145,209.778l-1.837-1.11v3.44l1.837,1.11Z" transform="translate(-19.308 -191.498)" fill="#b29d9d"/>
          <path id="Trazado_741171" data-name="Trazado 741171" d="M50.9,198.4l-1.837-1.11-29.757,17.17,1.837,1.11Z" transform="translate(-19.308 -197.288)" fill="#fff"/>
        </g>
        <g id="Grupo_931555" data-name="Grupo 931555" transform="translate(6.007 108.347)">
          <path id="Trazado_741172" data-name="Trazado 741172" d="M50.283,254.162l-29.757,17.17v3.439L50.283,257.6Z" transform="translate(-18.689 -253.051)" fill="#c9b5b5"/>
          <path id="Trazado_741173" data-name="Trazado 741173" d="M21.145,265.916l-1.837-1.11v3.44l1.837,1.11Z" transform="translate(-19.308 -247.636)" fill="#b29d9d"/>
          <path id="Trazado_741174" data-name="Trazado 741174" d="M50.9,254.536l-1.837-1.11L19.308,270.6l1.837,1.11Z" transform="translate(-19.308 -253.426)" fill="#fff"/>
        </g>
        <g id="Grupo_931556" data-name="Grupo 931556" transform="translate(8.649 26.122)">
          <path id="Trazado_741175" data-name="Trazado 741175" d="M21.059,210.775c0,.6.365.877.816.617a1.955,1.955,0,0,0,.816-1.56c0-.6-.365-.877-.816-.617A1.955,1.955,0,0,0,21.059,210.775Z" transform="translate(-21.059 -193.743)" fill="#fff"/>
          <path id="Trazado_741176" data-name="Trazado 741176" d="M38.716,200.583c0,.6.365.878.816.617a1.952,1.952,0,0,0,.816-1.559c0-.6-.365-.877-.816-.617A1.952,1.952,0,0,0,38.716,200.583Z" transform="translate(-12.076 -198.927)" fill="#fff"/>
        </g>
        <g id="Grupo_931557" data-name="Grupo 931557" transform="translate(8.649 110.889)">
          <path id="Trazado_741177" data-name="Trazado 741177" d="M21.059,266.958c0,.6.365.877.816.617a1.954,1.954,0,0,0,.816-1.56c0-.6-.365-.877-.816-.617A1.957,1.957,0,0,0,21.059,266.958Z" transform="translate(-21.059 -249.926)" fill="#fff"/>
          <path id="Trazado_741178" data-name="Trazado 741178" d="M38.716,256.768c0,.6.365.877.816.616a1.952,1.952,0,0,0,.816-1.559c0-.6-.365-.877-.816-.617A1.955,1.955,0,0,0,38.716,256.768Z" transform="translate(-12.076 -255.11)" fill="#fff"/>
        </g>
        <g id="Grupo_931558" data-name="Grupo 931558" transform="translate(19.562 38.958)">
          <path id="Trazado_741179" data-name="Trazado 741179" d="M45.91,244.273c-5-10.709-17.493-36.171-17.618-36.428l.839-.41c.125.255,12.622,25.726,17.625,36.443Z" transform="translate(-28.292 -207.435)" fill="#351817"/>
        </g>
        <g id="Grupo_931559" data-name="Grupo 931559" transform="translate(23.813 36.468)">
          <rect id="Rectángulo_313334" data-name="Rectángulo 313334" width="0.933" height="41.172" transform="matrix(0.92, -0.391, 0.391, 0.92, 0, 0.365)" fill="#351817"/>
        </g>
        <g id="Grupo_931562" data-name="Grupo 931562" transform="translate(20.662 28.867)">
          <g id="Grupo_931560" data-name="Grupo 931560" transform="translate(0.428)">
            <path id="Trazado_741180" data-name="Trazado 741180" d="M31.292,209.886a1.775,1.775,0,0,1-.468-.06,9.31,9.31,0,0,1-1.341-.409l1.255-.714a.572.572,0,0,0,.349.226,1.883,1.883,0,0,0,1.37-.4c1.546-.955.625-3.635-.163-5.068-.715-1.3-1.808-1.869-2.025-1.779a.587.587,0,0,0-.03.213v1.527l-.934.539V201.9a1.019,1.019,0,0,1,.736-1.118c.884-.226,2.266.772,3.07,2.234,1.177,2.138,1.839,5.076-.164,6.311A3.228,3.228,0,0,1,31.292,209.886Z" transform="translate(-29.305 -200.747)" fill="#c6b0b0"/>
          </g>
          <g id="Grupo_931561" data-name="Grupo 931561" transform="translate(0 0.267)">
            <path id="Trazado_741181" data-name="Trazado 741181" d="M31.008,210.064A1.775,1.775,0,0,1,30.54,210a1.488,1.488,0,0,1-.913-.676l.822-.442h0a.6.6,0,0,0,.353.222,1.872,1.872,0,0,0,1.371-.4c1.545-.954.623-3.633-.164-5.066-.715-1.3-1.808-1.869-2.023-1.78a.525.525,0,0,0-.032.214v1.5l-.934.539v-2.043a1.022,1.022,0,0,1,.736-1.119c.884-.226,2.266.774,3.07,2.236,1.177,2.138,1.839,5.074-.163,6.311A3.238,3.238,0,0,1,31.008,210.064Z" transform="translate(-29.021 -200.924)" fill="#e0d1d1"/>
          </g>
        </g>
        <g id="Grupo_931565" data-name="Grupo 931565" transform="translate(16.829 31.11)">
          <g id="Grupo_931563" data-name="Grupo 931563" transform="translate(0.428)">
            <path id="Trazado_741182" data-name="Trazado 741182" d="M28.752,211.373a1.767,1.767,0,0,1-.468-.06,9.106,9.106,0,0,1-1.341-.409l1.255-.712a.566.566,0,0,0,.349.225,1.882,1.882,0,0,0,1.37-.4c1.546-.954.625-3.633-.163-5.066-.715-1.3-1.808-1.869-2.025-1.78a.592.592,0,0,0-.03.214v1.525l-.934.539v-2.064a1.021,1.021,0,0,1,.736-1.119c.884-.226,2.266.774,3.07,2.236,1.177,2.138,1.839,5.074-.164,6.311A3.225,3.225,0,0,1,28.752,211.373Z" transform="translate(-26.765 -202.234)" fill="#c6b0b0"/>
          </g>
          <g id="Grupo_931564" data-name="Grupo 931564" transform="translate(0 0.269)">
            <path id="Trazado_741183" data-name="Trazado 741183" d="M28.468,211.551a1.774,1.774,0,0,1-.468-.06,1.482,1.482,0,0,1-.913-.677l.822-.441h0a.6.6,0,0,0,.353.222,1.882,1.882,0,0,0,1.37-.4c1.546-.955.625-3.635-.163-5.066-.715-1.3-1.808-1.871-2.025-1.78a.586.586,0,0,0-.03.213v1.506l-.934.539v-2.044a1.02,1.02,0,0,1,.736-1.118c.884-.226,2.266.774,3.07,2.234,1.177,2.139,1.839,5.076-.164,6.311A3.215,3.215,0,0,1,28.468,211.551Z" transform="translate(-26.481 -202.412)" fill="#e0d1d1"/>
          </g>
        </g>
        <g id="Grupo_931568" data-name="Grupo 931568" transform="translate(8.625 35.24)">
          <path id="Trazado_741184" data-name="Trazado 741184" d="M49.617,223.494c-2.634-1.384-8.181-4.357-8.74-4.913,0,0-.495-2.3-.917-4.093s-1.74-2.189-2.861-2.743-1.791.173-1.393,1.356a8.355,8.355,0,0,0,1.285,2.142c.324.588.724,1.78.57,1.682s-1.729-.741-2.066-.424.285.871.846,1.157.664,1.586,1.648,2.393a8.2,8.2,0,0,0,2.056,1.213,19.9,19.9,0,0,0,7.609,6.987S52.252,224.88,49.617,223.494Z" transform="translate(-13.739 -201.62)" fill="#351817"/>
          <path id="Trazado_741185" data-name="Trazado 741185" d="M41.372,222.234l-3.44-2.9s.757-2.489,2.609-3.164c1.213-.444,5.263,2.609,5.263,2.609Z" transform="translate(-12.451 -199.297)" fill="#ea6f13"/>
          <path id="Trazado_741186" data-name="Trazado 741186" d="M43.878,224.164c-2.627-.543-5.51-1.269-6.4-1.451-2.126-2.794-6.525-5.027-7.639-6.267-.459-.836-.683-2.375-1.252-3.6s-1.032-.427-1.079.495.143,1.759-.444,1.636-1.764-1.231-3.9-1.132-3.11,2.4-.762,3.76a47.341,47.341,0,0,0,6.251,2.844,67.58,67.58,0,0,1,5.667,6.1c.831,1.234,1.4.843,2.434,1.175s5.062,1.7,6.551,1.571S43.878,224.164,43.878,224.164Z" transform="translate(-21.043 -201.283)" fill="#351817"/>
          <path id="Trazado_741187" data-name="Trazado 741187" d="M45.767,216.462s5.2-4.446,8.191.686c2.324,3.98,1.047,7.859-1.482,9.644S45.767,216.462,45.767,216.462Z" transform="translate(-8.465 -200.034)" fill="#fc811d"/>
          <path id="Trazado_741188" data-name="Trazado 741188" d="M46.13,260.743c1.473-3.464,1.426-10.1.976-12.2-2.582-.49-5.785-.694-7.732.3.186,2.242.006,2.578.091,4.187a48.823,48.823,0,0,1,.048,5.113c-1.643-1.82-4.7-1.135-5.133,1.113a7.491,7.491,0,0,0,.893,3.52c2.523,2.231,4.394,1.432,5.6,1.368a4.1,4.1,0,0,0,4.822.763C46.227,264.574,46.524,261.353,46.13,260.743Z" transform="translate(-14.266 -183.011)" fill="#492624"/>
          <path id="Trazado_741189" data-name="Trazado 741189" d="M30.681,249.919a47.405,47.405,0,0,0-1.821,5.518c-1.365-1.03-2.545-2.351-4.125-1.982a2.874,2.874,0,0,0-2.26,2.984,7.842,7.842,0,0,0,1.865,2.915,19.539,19.539,0,0,0,4.181,2.9c.884,1.02,2.259,2.046,3.6,1.823,1.378-.229,2.138-.554,2.218-1.969.133-2.36.777-3.09,2-6.8C37.362,252.176,31.5,248.152,30.681,249.919Z" transform="translate(-20.315 -182.323)" fill="#492624"/>
          <path id="Trazado_741190" data-name="Trazado 741190" d="M58.72,231.814a15.143,15.143,0,0,1,1.142,7.416,6.3,6.3,0,0,1-4.585,5.306,36.569,36.569,0,0,1-5.16,3.76,45.634,45.634,0,0,1-5.178,2.5s.868.421.4,1.623a7.432,7.432,0,0,1,1.5,4.609c.1,3.979-.7,9.617-1.7,12.02-.309.741-1.99.5-3.565.024a4.69,4.69,0,0,1-3.052-2.627c-.573-1.743-.889-13.786-1.58-15.512-.925-2.305-1.027-3.25,1.323-5.333,1.272-1.127,9.172-7.287,9.172-7.287Z" transform="translate(-13.269 -191.314)" fill="#eebb21"/>
          <path id="Trazado_741191" data-name="Trazado 741191" d="M45.449,239.918a6.514,6.514,0,0,0,6.788.709c2.936-1.51,3.276-3.613,3.276-3.613s.769,3.1-3.651,5.282a7.915,7.915,0,0,1-7.141.051Z" transform="translate(-8.998 -188.669)" fill="#351817"/>
          <path id="Trazado_741192" data-name="Trazado 741192" d="M46.053,231.814s-3.977,1.669-7.135,3.227a27.19,27.19,0,0,0-7.087,5.516c-.878.895-2.592,1.844-2.592,4.4a72.931,72.931,0,0,1-1.172,10.8c-.579,3.621-1.359,8.665-1.359,8.665s-.2,4.937,6.1,5.1c1.488-.466,3.588-9.062,4.028-10.957.866-3.728,1.648-7.376.53-8.761,1.225-.925-.14-1.808-.14-1.808s2.689-.708,5.3-1.216,5.682-.373,7.639-1.519c1.447.913,5.673.444,7.72-2.891,2.569-4.181,1.99-6.99,1.365-7.013S46.053,231.814,46.053,231.814Z" transform="translate(-18.162 -191.314)" fill="#f2cf64"/>
          <g id="Grupo_931566" data-name="Grupo 931566" transform="translate(25.814 2.071)">
            <path id="Trazado_741193" data-name="Trazado 741193" d="M43.388,219.72l2.257,3.55c1.862-.047,3.776-1.6,5.112-3.248-.45-.688-2.2-2.634-2.142-3.337,1.234-1.586.759-3.419-.379-5.581a5.714,5.714,0,0,0-6.734-2.414,3.135,3.135,0,0,0-2.432,2.346c-.416,1.981.152,6.028,1.5,7.388A3.3,3.3,0,0,0,43.388,219.72Z" transform="translate(-37.754 -205.308)" fill="#ffc9b6"/>
            <path id="Trazado_741194" data-name="Trazado 741194" d="M51.272,212.975a4.436,4.436,0,0,0-1.378-4.312c-1.5-1.387-4.6-2.536-6.547-1.412a1.01,1.01,0,0,0-.024-.178,1.217,1.217,0,0,0-1.646-.634,3.065,3.065,0,0,0-1.326.958,1.441,1.441,0,0,0-.941-.291c-1.165.088-2.1,2.275-.042,3.976-.973,1.518.839,3.383,3.043,3.576a2.538,2.538,0,0,0,.478,2.649,6.254,6.254,0,0,0,5.169,2.527c1.91-.275,3.3-2.3,3.816-4.258A2.873,2.873,0,0,0,51.272,212.975Z" transform="translate(-38.153 -206.344)" fill="#351817"/>
            <path id="Trazado_741195" data-name="Trazado 741195" d="M40.4,212.159a.952.952,0,0,1,1.648.045c.883,1.121-1.2,2.912-1.2,2.912Z" transform="translate(-37.012 -203.622)" fill="#ffc9b6"/>
          </g>
          <path id="Trazado_741196" data-name="Trazado 741196" d="M53.461,215.369c-2.164.2-2.144.584-7.079,2.321a38.124,38.124,0,0,0-4.617,1.715,4.648,4.648,0,0,0-2.814,3.936,33.1,33.1,0,0,0,.018,7.779c.421,5.3,2.047,7.035,2.047,7.035s-.812,1.027-1.46,1.685c-.528.534.392,1.157,1.275,2.167,1.842,2.108,7.526,6.75,15.771,1.335a4.644,4.644,0,0,0,2.25-3.647c.824-5.152.03-9.827.042-13.239C58.914,221.309,55.359,215.2,53.461,215.369Z" transform="translate(-12.04 -199.683)" fill="#ff9d3a"/>
          <path id="Trazado_741197" data-name="Trazado 741197" d="M50.09,220.133s-1.4-1.083-3.956-.14a12.024,12.024,0,0,0-3.57,1.847s-4.925-1.21-6.174-1.4a34.523,34.523,0,0,0-7.687-5.765,9.993,9.993,0,0,0-3.4,4.505,55.572,55.572,0,0,0,7.509,7.793c3.3,1.741,14.01,5.143,15.255,4.59C54.232,228.822,51.354,222.224,50.09,220.133Z" transform="translate(-18.874 -200.034)" fill="#fc811d"/>
          <path id="Trazado_741198" data-name="Trazado 741198" d="M42.061,218.494s1.854.792,5.495-.463,2.677-2.491,2.677-2.491a8.9,8.9,0,0,0-3.917.985C44.1,217.594,42.061,218.494,42.061,218.494Z" transform="translate(-10.35 -199.595)" fill="#fc811d"/>
          <path id="Trazado_741199" data-name="Trazado 741199" d="M38.434,232.435a18.765,18.765,0,0,0,5.06,4.3,12.736,12.736,0,0,0,9.081,1.655,8.067,8.067,0,0,0,2.776-1.058l.083-1.652s-6.1,1.213-8.366.587-8.17-4.282-8.17-4.282Z" transform="translate(-12.196 -191.226)" fill="#e9af00"/>
          <path id="Trazado_741200" data-name="Trazado 741200" d="M39.8,234.568a7.745,7.745,0,0,0,5.549-.029,8.078,8.078,0,0,0,5.213-8.2,82.079,82.079,0,0,0,7.707-3.179c.545,2.287.584,4.06,1.275,6.693s.652,5.115-.818,6.617c-1.02,2.719-4.567,5.036-9.028,5.024a13.935,13.935,0,0,1-8.215-2.621c-2.743-1.718-2.1-1.23-2.277-2.008C38.8,235.08,39.8,234.568,39.8,234.568Z" transform="translate(-11.853 -195.714)" fill="#feca2e"/>
          <path id="Trazado_741201" data-name="Trazado 741201" d="M41.368,217.972a9.752,9.752,0,0,1,4.905,4.125,28.389,28.389,0,0,1,3.117,8.372l1.362-.729s-1.448-6.254-3.618-9.1-4.2-3.312-4.2-3.312Z" transform="translate(-10.703 -198.684)" fill="#feca2e"/>
          <path id="Trazado_741202" data-name="Trazado 741202" d="M47.477,215.614s2.035.367,3.7,5.1a28.762,28.762,0,0,1,1.767,7.741l1.242-.527a43.294,43.294,0,0,0-2.043-8.321,8.349,8.349,0,0,0-3.461-4.219Z" transform="translate(-7.595 -199.67)" fill="#feca2e"/>
          <path id="Trazado_741203" data-name="Trazado 741203" d="M33.858,243.23a4.207,4.207,0,0,1-2.114-.359,2.769,2.769,0,0,1-1.46-1.717S33.093,242.049,33.858,243.23Z" transform="translate(-16.342 -186.562)" fill="#d7a202"/>
          <path id="Trazado_741204" data-name="Trazado 741204" d="M34.278,243.517a4.209,4.209,0,0,1-1.949.892,2.772,2.772,0,0,1-2.174-.6S32.981,242.97,34.278,243.517Z" transform="translate(-16.408 -185.454)" fill="#d7a202"/>
          <g id="Grupo_931567" data-name="Grupo 931567" transform="translate(25.482)">
            <path id="Trazado_741205" data-name="Trazado 741205" d="M50.029,207.953s-7.076-5.987-11.316-.923c-3.238,3.867,4.641,9.418,4.641,9.418Z" transform="translate(-37.932 -204.958)" fill="#ffbc15"/>
            <path id="Trazado_741206" data-name="Trazado 741206" d="M40.426,208.139a6.926,6.926,0,0,1,9.022-2.155c4.688,2.705,3.737,9.624,1.346,11.571a7.537,7.537,0,0,1-8.319-.834C39.444,213.847,39.032,210.19,40.426,208.139Z" transform="translate(-37.053 -204.899)" fill="#ffd140"/>
            <path id="Trazado_741207" data-name="Trazado 741207" d="M39.853,208.042a8.463,8.463,0,0,0,3.645,6.577c3.238,2.471,8.045.649,8.045.649l-1.206,1.358s-3.8,1.209-6.839-.594C39.778,213.822,39.134,210.732,39.853,208.042Z" transform="translate(-37.087 -203.409)" fill="#ffa300"/>
            <path id="Trazado_741208" data-name="Trazado 741208" d="M46.388,207.148c3.327,1.528,3.939,5.45,3.091,8.653-5.543.951-9.368-3.386-9.069-6.109C40.7,206.988,44.274,206.177,46.388,207.148Z" transform="translate(-36.68 -204.064)" fill="#ffbc15"/>
            <path id="Trazado_741209" data-name="Trazado 741209" d="M50.724,215.46s.124-4.567-2.527-7.5c-2.7-2.989-5.595-2.437-5.595-2.437s2.559-1.807,6.206,1.118C53.068,210.06,50.724,215.46,50.724,215.46Z" transform="translate(-35.557 -204.971)" fill="#ffbc15"/>
          </g>
          <path id="Trazado_741210" data-name="Trazado 741210" d="M37.009,233.254a27.626,27.626,0,0,1,3.583,6.882,23.187,23.187,0,0,1,1.494,5.8s2.117.794,2.924-1.058c-.442-4.724-6.015-12.509-6.015-12.509A1.441,1.441,0,0,0,37.009,233.254Z" transform="translate(-12.921 -191.093)" fill="#351817"/>
          <path id="Trazado_741211" data-name="Trazado 741211" d="M39.679,231.062l-1.245,1.844a15.7,15.7,0,0,0,10,5.252,13.8,13.8,0,0,0,10.187-2.725l.442-2.975a10.9,10.9,0,0,1-8.439,3.019C45.177,235.164,39.679,231.062,39.679,231.062Z" transform="translate(-12.196 -191.697)" fill="#351817"/>
          <path id="Trazado_741212" data-name="Trazado 741212" d="M41.8,213.184s-1.548,2.275-1.248,3.552,2.031.54,2.031.54l.892-2.918Z" transform="translate(-11.137 -200.793)" fill="#351817"/>
        </g>
      </g>
    </g>
  </g>
</svg>
