<svg xmlns="http://www.w3.org/2000/svg" width="87.186" height="147.477" viewBox="0 0 87.186 147.477">
  <g id="Grupo_933259" data-name="Grupo 933259" transform="translate(-845.999 -2975.363)">
    <g id="Grupo_931683" data-name="Grupo 931683" transform="translate(4 59)">
      <g id="Grupo_931673" data-name="Grupo 931673" transform="translate(735.464 2682.281)">
        <g id="Grupo_931673-2" data-name="Grupo 931673" transform="translate(152.762 253.472)">
          <path id="Trazado_741492" data-name="Trazado 741492" d="M141.769,265.366v1.588a1.542,1.542,0,0,0,3.084,0v-1.588Z" transform="translate(-141.769 -214.581)" fill="#493b36"/>
          <path id="Trazado_741493" data-name="Trazado 741493" d="M144.853,265.851c0,.484-.691.875-1.541.875s-1.543-.39-1.543-.875.691-.875,1.543-.875S144.853,265.369,144.853,265.851Z" transform="translate(-141.769 -215.066)" fill="#544640"/>
          <path id="Trazado_741494" data-name="Trazado 741494" d="M143.947,265.608c0,.3-.431.543-.958.543s-.96-.242-.96-.543.431-.545.96-.545S143.947,265.307,143.947,265.608Z" transform="translate(-141.446 -214.958)" fill="#e2d5da"/>
          <path id="Trazado_741495" data-name="Trazado 741495" d="M143.947,293.376V243.684a.959.959,0,0,0-1.918,0v49.693Z" transform="translate(-141.446 -242.726)" fill="#c4bab1"/>
        </g>
        <g id="Grupo_931674" data-name="Grupo 931674" transform="translate(132.926 316.716)">
          <path id="Trazado_741496" data-name="Trazado 741496" d="M133.355,271.167l-.384,1.541a1.542,1.542,0,1,0,2.992.745l.384-1.541Z" transform="translate(-132.926 -270.613)" fill="#493b36"/>
          <path id="Trazado_741497" data-name="Trazado 741497" d="M136.118,272.219c-.117.469-.882.682-1.707.476s-1.4-.751-1.285-1.22.882-.682,1.707-.476S136.234,271.75,136.118,272.219Z" transform="translate(-132.696 -270.92)" fill="#544640"/>
          <path id="Trazado_741498" data-name="Trazado 741498" d="M135.036,271.8c-.063.249-.469.363-.911.253s-.745-.4-.684-.651.471-.363.911-.253S135.1,271.55,135.036,271.8Z" transform="translate(-132.295 -270.688)" fill="#dbd6d1"/>
        </g>
        <g id="Grupo_931675" data-name="Grupo 931675" transform="translate(134.072 234.082)">
          <path id="Trazado_741499" data-name="Trazado 741499" d="M163.266,236.09c1.655-.651,3.665-.336,5.814.9l4.987,2.712c4.522,2.611,5.98,7.295,4.222,13.519l-.15.478q.932-.239,1.871-.446c1.765-6.756-.029-12.075-5.108-15l-4.987-2.712c-2.6-1.5-5.114-1.853-7.261-1.012-2.351.922-4.168,3.259-5.253,6.754l-23.964,76.146c.511.222.877-.016,1.595.4L159,241.783C159.931,238.789,161.4,236.819,163.266,236.09Z" transform="translate(-133.437 -234.082)" fill="#dbd6d1"/>
        </g>
        <g id="Grupo_931676" data-name="Grupo 931676" transform="translate(135.652 295.673)">
          <path id="Trazado_741500" data-name="Trazado 741500" d="M154.924,278.308l-20.783-12,8.262-4.77,20.783,12Z" transform="translate(-134.141 -261.539)" fill="#dbd6d1"/>
          <path id="Trazado_741501" data-name="Trazado 741501" d="M134.141,263.665v1.866l20.783,12v-1.866Z" transform="translate(-134.141 -258.896)" fill="#c6bdb5"/>
          <path id="Trazado_741502" data-name="Trazado 741502" d="M151.668,266.888v1.866l-8.262,4.77v-1.866Z" transform="translate(-122.623 -254.889)" fill="#a09287"/>
        </g>
        <g id="Grupo_931677" data-name="Grupo 931677" transform="translate(139.782 282.562)">
          <path id="Trazado_741503" data-name="Trazado 741503" d="M156.766,272.463l-20.783-12,8.262-4.77,20.783,12Z" transform="translate(-135.982 -255.694)" fill="#dbd6d1"/>
          <path id="Trazado_741504" data-name="Trazado 741504" d="M135.982,257.821v1.866l20.783,12V269.82Z" transform="translate(-135.982 -253.051)" fill="#c6bdb5"/>
          <path id="Trazado_741505" data-name="Trazado 741505" d="M153.509,261.044v1.866l-8.262,4.77v-1.866Z" transform="translate(-124.464 -249.044)" fill="#a09287"/>
        </g>
        <g id="Grupo_931678" data-name="Grupo 931678" transform="translate(143.913 268.727)">
          <path id="Trazado_741506" data-name="Trazado 741506" d="M158.607,266.3l-20.783-12,8.262-4.77,20.783,12Z" transform="translate(-137.824 -249.527)" fill="#dbd6d1"/>
          <path id="Trazado_741507" data-name="Trazado 741507" d="M137.824,251.653v1.866l20.783,12v-1.866Z" transform="translate(-137.824 -246.883)" fill="#c6bdb5"/>
          <path id="Trazado_741508" data-name="Trazado 741508" d="M155.351,254.876v1.866l-8.262,4.77v-1.866Z" transform="translate(-126.306 -242.877)" fill="#a09287"/>
        </g>
        <g id="Grupo_931679" data-name="Grupo 931679" transform="translate(146.5 252.471)">
          <path id="Trazado_741509" data-name="Trazado 741509" d="M159.761,263.109l-20.783-12L154.4,242.28l20.783,12Z" transform="translate(-138.977 -242.28)" fill="#dbd6d1"/>
          <path id="Trazado_741510" data-name="Trazado 741510" d="M138.977,246.216v1.866l20.783,12v-1.866Z" transform="translate(-138.977 -237.386)" fill="#c6bdb5"/>
          <path id="Trazado_741511" data-name="Trazado 741511" d="M163.661,247.629v1.866l-15.419,8.831v-1.866Z" transform="translate(-127.459 -235.63)" fill="#a09287"/>
        </g>
        <g id="Grupo_931680" data-name="Grupo 931680" transform="translate(153.641 328.663)">
          <path id="Trazado_741512" data-name="Trazado 741512" d="M142.59,276.493l-.384,1.541a1.541,1.541,0,1,0,2.99.745l.384-1.541Z" transform="translate(-142.16 -275.939)" fill="#493b36"/>
          <path id="Trazado_741513" data-name="Trazado 741513" d="M145.35,277.545c-.117.469-.879.682-1.707.478s-1.4-.754-1.283-1.222.879-.682,1.707-.476S145.467,277.076,145.35,277.545Z" transform="translate(-141.931 -276.246)" fill="#544640"/>
          <path id="Trazado_741514" data-name="Trazado 741514" d="M144.271,277.125c-.063.251-.471.363-.911.253s-.747-.4-.684-.651.469-.363.911-.253S144.334,276.876,144.271,277.125Z" transform="translate(-141.529 -276.014)" fill="#dbd6d1"/>
        </g>
        <path id="Trazado_741515" data-name="Trazado 741515" d="M164.232,236.176q-.542.646-1.077,1.3c4.051,2.672,5.312,7.2,3.632,13.147l-24.1,76.083a11.174,11.174,0,0,1,1.543.5L168.4,251.1C170.253,244.521,168.772,239.263,164.232,236.176Z" transform="translate(12.137 2.604)" fill="#dbd6d1"/>
        <g id="Grupo_931681" data-name="Grupo 931681" transform="translate(174.409 266.644)">
          <path id="Trazado_741516" data-name="Trazado 741516" d="M151.419,271.238v1.588a1.542,1.542,0,0,0,3.084,0v-1.588Z" transform="translate(-151.419 -220.453)" fill="#493b36"/>
          <path id="Trazado_741517" data-name="Trazado 741517" d="M154.5,271.723c0,.484-.691.875-1.541.875s-1.543-.39-1.543-.875.691-.875,1.543-.875S154.5,271.241,154.5,271.723Z" transform="translate(-151.419 -220.938)" fill="#544640"/>
          <ellipse id="Elipse_12165" data-name="Elipse 12165" cx="0.958" cy="0.544" rx="0.958" ry="0.544" transform="translate(0.584 50.106)" fill="#c4bab1"/>
          <path id="Trazado_741518" data-name="Trazado 741518" d="M153.6,299.248V249.556a.959.959,0,0,0-1.918,0v49.693Z" transform="translate(-151.096 -248.598)" fill="#c4bab1"/>
        </g>
        <path id="Trazado_741519" data-name="Trazado 741519" d="M152.978,250.114a1.173,1.173,0,0,1-.487.933c-.269.155-.489-.011-.489-.37a1.175,1.175,0,0,1,.489-.933C152.76,249.59,152.978,249.753,152.978,250.114Z" transform="translate(23.715 19.399)" fill="#4b4b7f"/>
      </g>
      <g id="Grupo_931682" data-name="Grupo 931682">
        <g id="Grupo_931635" data-name="Grupo 931635" transform="translate(409.724 2860.693)">
          <g id="Grupo_931637" data-name="Grupo 931637" transform="translate(239.609 0.652)">
            <path id="Trazado_741388" data-name="Trazado 741388" d="M205.19,130.421l1.319,9.492a1.514,1.514,0,0,0,.853,1.274l10.948,6.32a3.119,3.119,0,0,0,1.54.39,2.524,2.524,0,0,0,1.258-.3l17.233-9.95a1.286,1.286,0,0,0,.7-1.11l.66-10.341Z" transform="translate(0.076 1.707)" fill="#493b36"/>
            <path id="Trazado_741389" data-name="Trazado 741389" d="M240.66,127.028h-.818c-.04-.027-.072-.059-.115-.083l-12.053-6.959a3.444,3.444,0,0,0-1.7-.429,2.789,2.789,0,0,0-1.386.331L205.62,130.842c-.037.022-.065.05-.1.073h-.671v1.149a1.668,1.668,0,0,0,.939,1.4l12.055,6.958a3.43,3.43,0,0,0,1.7.429,2.781,2.781,0,0,0,1.385-.331L239.9,129.569a1.417,1.417,0,0,0,.77-1.222C240.667,128.289,240.66,127.028,240.66,127.028Z" transform="translate(0 0.23)" fill="#332723"/>
            <path id="Trazado_741390" data-name="Trazado 741390" d="M219.539,139.821a3.43,3.43,0,0,1-1.7-.429l-12.055-6.958a1.668,1.668,0,0,1-.939-1.4,1.418,1.418,0,0,1,.77-1.222l18.972-10.954a2.789,2.789,0,0,1,1.386-.331,3.444,3.444,0,0,1,1.7.429l12.053,6.959a1.668,1.668,0,0,1,.939,1.4,1.418,1.418,0,0,1-.77,1.224L220.924,139.49A2.781,2.781,0,0,1,219.539,139.821Z" transform="translate(0)" fill="#493b36"/>
            <g id="Grupo_931636" data-name="Grupo 931636" transform="translate(205.586 119.256)">
              <path id="Trazado_741391" data-name="Trazado 741391" d="M205.853,130.9l18.972-10.953a2.616,2.616,0,0,1,2.348.1L239.228,127a1.231,1.231,0,0,1,.489.472c.2-.337.032-.757-.489-1.057l-12.055-6.959a2.62,2.62,0,0,0-2.348-.1L205.853,130.31a.631.631,0,0,0-.322.885A.88.88,0,0,1,205.853,130.9Z" transform="translate(-205.452 -119.123)" fill="#332723"/>
              <path id="Trazado_741392" data-name="Trazado 741392" d="M206.007,131.56l12.053,6.959a2.622,2.622,0,0,0,2.35.1l18.972-10.953a.865.865,0,0,0,.32-.3,1.231,1.231,0,0,0-.489-.472l-12.055-6.959a2.616,2.616,0,0,0-2.348-.1L205.839,130.79a.88.88,0,0,0-.322.3A1.251,1.251,0,0,0,206.007,131.56Z" transform="translate(-205.438 -119.017)" fill="#544640"/>
            </g>
            <g id="Grupo_931639" data-name="Grupo 931639" transform="translate(220.961 119.98)">
              <path id="Trazado_741393" data-name="Trazado 741393" d="M227.979,127.341l.276.16a2.871,2.871,0,0,0,2.574.106c.658-.379.575-1.048-.185-1.485l-.277-.16Z" transform="translate(-215.816 -118.325)" fill="#332723"/>
              <g id="Grupo_931638" data-name="Grupo 931638">
                <path id="Trazado_741394" data-name="Trazado 741394" d="M234.154,125.682h-.2a1.73,1.73,0,0,0-.512-.429l-8.211-4.742a3.24,3.24,0,0,0-2.914-.12l-3.781,2.182a1.312,1.312,0,0,0-.249.187h-.254v.554h.009a1.189,1.189,0,0,0,.7.941L226.955,129a3.241,3.241,0,0,0,2.913.121l3.781-2.183a.868.868,0,0,0,.494-.7h.011Z" transform="translate(-218.03 -119.629)" fill="#c6bdb5"/>
                <path id="Trazado_741395" data-name="Trazado 741395" d="M233.649,126.55l-3.781,2.183a3.234,3.234,0,0,1-2.913-.121l-8.212-4.741c-.862-.5-.956-1.252-.209-1.682l3.781-2.183a3.24,3.24,0,0,1,2.914.121l8.211,4.741C234.3,125.365,234.4,126.119,233.649,126.55Z" transform="translate(-218.03 -119.715)" fill="#dbd6d1"/>
                <g id="Grupo_931637-2" data-name="Grupo 931637" transform="translate(0.79 0.44)">
                  <path id="Trazado_741396" data-name="Trazado 741396" d="M219.1,122.58l3.213-1.856a2.754,2.754,0,0,1,2.475.1l7.712,4.451a1.188,1.188,0,0,1,.562.6c.122-.333-.066-.718-.562-1l-7.712-4.45a2.75,2.75,0,0,0-2.475-.1l-3.213,1.854a.671.671,0,0,0-.385.828A.816.816,0,0,1,219.1,122.58Z" transform="translate(-218.676 -120.075)" fill="#a09287"/>
                  <path id="Trazado_741397" data-name="Trazado 741397" d="M219.269,123.533l7.712,4.45a2.75,2.75,0,0,0,2.475.1l3.213-1.854a.822.822,0,0,0,.385-.425,1.188,1.188,0,0,0-.562-.6l-7.712-4.451a2.754,2.754,0,0,0-2.475-.1l-3.213,1.856a.816.816,0,0,0-.385.424A1.19,1.19,0,0,0,219.269,123.533Z" transform="translate(-218.669 -120.001)" fill="#c6bdb5"/>
                </g>
              </g>
            </g>
            <g id="Grupo_931643" data-name="Grupo 931643" transform="translate(218.546 123.322)">
              <g id="Grupo_931640" data-name="Grupo 931640" transform="translate(0 5.476)">
                <path id="Trazado_741398" data-name="Trazado 741398" d="M218.675,127.746h-.56v.134l-.836-.483a.487.487,0,0,0-.438.018l-.227.132v-.116h-.56v.5h0a.121.121,0,0,0,.072.127l1.32.762a.488.488,0,0,0,.436-.017l.681-.394c.082-.046.111-.109.1-.164h.009Z" transform="translate(-216.054 -126.834)" fill="#332723"/>
                <path id="Trazado_741399" data-name="Trazado 741399" d="M217.45,128.4l-1.32-.762c-.111-.065-.1-.178.032-.252l.68-.394a.491.491,0,0,1,.438-.018l1.32.763c.111.064.1.177-.032.252l-.681.394A.484.484,0,0,1,217.45,128.4Z" transform="translate(-216.054 -126.929)" fill="#493b36"/>
              </g>
              <g id="Grupo_931641" data-name="Grupo 931641" transform="translate(4.429 2.932)">
                <path id="Trazado_741400" data-name="Trazado 741400" d="M222.3,125.665h-.559v.134l-.836-.483a.487.487,0,0,0-.438.018l-.229.131v-.115h-.559v.5h0a.123.123,0,0,0,.073.126l1.32.763a.484.484,0,0,0,.436-.018l.681-.392c.081-.048.111-.109.1-.164h.007Z" transform="translate(-219.677 -124.753)" fill="#332723"/>
                <path id="Trazado_741401" data-name="Trazado 741401" d="M221.073,126.316l-1.32-.762c-.112-.065-.1-.178.031-.253l.681-.392a.487.487,0,0,1,.438-.018l1.32.762c.111.065.1.178-.032.253l-.681.392A.484.484,0,0,1,221.073,126.316Z" transform="translate(-219.677 -124.847)" fill="#493b36"/>
              </g>
              <g id="Grupo_931642" data-name="Grupo 931642" transform="translate(0.606)">
                <path id="Trazado_741402" data-name="Trazado 741402" d="M222.127,123l-.886-.491h0a.461.461,0,0,0-.484.031l-3.473,2a1.754,1.754,0,0,0-.731,1.4v2.719l.9.521V127.03a12.363,12.363,0,0,1,.741-1.705l2.8-1.513c.01.6.006,2.308.006,2.308l.484-.28.9.5V123.9Z" transform="translate(-216.55 -122.449)" fill="#f77b28"/>
                <path id="Trazado_741403" data-name="Trazado 741403" d="M221.093,126.418l-.9-.5-.006-2.308.907-.263.2,1.092Z" transform="translate(-215.741 -122.249)" fill="#e56813"/>
                <path id="Trazado_741404" data-name="Trazado 741404" d="M217.287,126.345v2.741l.484-.28s0-1.891.007-2.354a1.1,1.1,0,0,1,.223-.738c.251-.337.537-.285,1.054-.465a3.128,3.128,0,0,0,.7-.295,4.588,4.588,0,0,0,.7-.515c.516-.416.8-.8,1.054-.752.148.028.214.116.223.482.01.451.006,2.358.006,2.358l.485-.28V123.5c0-.538-.328-.786-.732-.553l-3.473,2A1.754,1.754,0,0,0,217.287,126.345Z" transform="translate(-216.386 -122.359)" fill="#ff8d40"/>
              </g>
            </g>
            <g id="Grupo_931646" data-name="Grupo 931646" transform="translate(207.596 127.771)">
              <path id="Trazado_741405" data-name="Trazado 741405" d="M217.046,133.714l.276.16a2.871,2.871,0,0,0,2.574.108c.658-.38.575-1.049-.185-1.486l-.277-.16Z" transform="translate(-204.883 -124.698)" fill="#332723"/>
              <g id="Grupo_931645" data-name="Grupo 931645">
                <path id="Trazado_741406" data-name="Trazado 741406" d="M223.221,132.055h-.2a1.714,1.714,0,0,0-.512-.429l-8.211-4.741a3.236,3.236,0,0,0-2.914-.121l-3.781,2.182a1.314,1.314,0,0,0-.249.187H207.1v.554h.009a1.192,1.192,0,0,0,.7.943l8.212,4.741a3.241,3.241,0,0,0,2.913.121l3.781-2.183a.866.866,0,0,0,.494-.7h.011Z" transform="translate(-207.097 -126.002)" fill="#c6bdb5"/>
                <path id="Trazado_741407" data-name="Trazado 741407" d="M222.716,132.923l-3.781,2.183a3.233,3.233,0,0,1-2.913-.121l-8.212-4.741c-.862-.5-.956-1.251-.209-1.682l3.781-2.183a3.24,3.24,0,0,1,2.914.121l8.211,4.741C223.37,131.739,223.463,132.492,222.716,132.923Z" transform="translate(-207.097 -126.088)" fill="#dbd6d1"/>
                <g id="Grupo_931644" data-name="Grupo 931644" transform="translate(0.79 0.44)">
                  <path id="Trazado_741408" data-name="Trazado 741408" d="M208.166,128.953l3.213-1.854a2.746,2.746,0,0,1,2.475.1l7.712,4.45a1.185,1.185,0,0,1,.562.6c.122-.334-.066-.719-.562-1l-7.712-4.451a2.75,2.75,0,0,0-2.475-.1l-3.213,1.854a.672.672,0,0,0-.385.828A.825.825,0,0,1,208.166,128.953Z" transform="translate(-207.743 -126.448)" fill="#a09287"/>
                  <path id="Trazado_741409" data-name="Trazado 741409" d="M208.336,129.906l7.712,4.45a2.746,2.746,0,0,0,2.475.1l3.213-1.854a.825.825,0,0,0,.385-.424,1.186,1.186,0,0,0-.562-.6l-7.712-4.45a2.746,2.746,0,0,0-2.475-.1l-3.213,1.854a.825.825,0,0,0-.385.424A1.186,1.186,0,0,0,208.336,129.906Z" transform="translate(-207.736 -126.374)" fill="#c6bdb5"/>
                </g>
              </g>
            </g>
            <g id="Grupo_931647" data-name="Grupo 931647" transform="translate(224.152 133.014)">
              <path id="Trazado_741410" data-name="Trazado 741410" d="M232.634,130.379a.957.957,0,0,1,.1.45v4a1.932,1.932,0,0,1-.806,1.538l-10.934,6.313a.637.637,0,0,1-.273.089.465.465,0,0,0,.705.159l10.934-6.313a1.934,1.934,0,0,0,.8-1.538v-4C233.165,130.615,232.942,130.351,232.634,130.379Z" transform="translate(-220.622 -130.377)" fill="#a09287"/>
              <path id="Trazado_741411" data-name="Trazado 741411" d="M231.946,136.371a1.932,1.932,0,0,0,.806-1.538v-4a.957.957,0,0,0-.1-.45.673.673,0,0,0-.273.089l-10.934,6.313a1.932,1.932,0,0,0-.806,1.538v4.006a.955.955,0,0,0,.1.449.637.637,0,0,0,.273-.089Z" transform="translate(-220.64 -130.377)" fill="#c6bdb5"/>
            </g>
          </g>
          <g id="Grupo_931636-2" data-name="Grupo 931636">
            <g id="Grupo_931631" data-name="Grupo 931631" transform="translate(426.276 102.895)">
              <g id="Grupo_931630" data-name="Grupo 931630" transform="translate(28.657)">
                <path id="Trazado_741367" data-name="Trazado 741367" d="M465.521,117.967s-4.3-3.54-6.348-4.439-3.51.115-4.543.5a8.649,8.649,0,0,0-1.886.709c-.427.315-.331,1.111-.331,1.111l.776-.448a6.3,6.3,0,0,0,1.442,1.145,7.939,7.939,0,0,1,.673.47,1.294,1.294,0,0,1,.238,1.771c-.166.23-.682.9-.911,1.163-.781.914-.607,1.622-.18,1.573a3.492,3.492,0,0,0,1.422-.783c.639-.5.929-.639,2.345-.142s1.586-.743,2.275-.142,3.015,3.2,3.015,3.2Z" transform="translate(-434.033 -94.676)" fill="#492624"/>
                <path id="Trazado_741368" data-name="Trazado 741368" d="M468.51,137.226s4.475,2.563,5.63,4.106.839,1.611,1.062,3.51-.59,3.724-2.628,3.634c-1.787-.079-1.719-1.656-2.021-2.675,0,0-5.022-.529-7.592-2.318S464.28,136.749,468.51,137.226Z" transform="translate(-426.247 -75.458)" fill="#351817"/>
                <path id="Trazado_741369" data-name="Trazado 741369" d="M458.652,124.325c4.025-.895,9,.612,13.244,2.583a.834.834,0,0,1,.31.085c5.076,2.439,16.986,2.354,16.923,2.532.581,1.235,1.762,6.283.858,9.719-.8,3.045-3.467,6-7.1,5.54a9.574,9.574,0,0,1-8.517.783c.058.083.481.686,1.048,1.541a5.322,5.322,0,0,0-4.4,2.036,9.226,9.226,0,0,0-1.436,2.693c-1.6-1.192-3.18-2.5-4.3-3.344-2.081-1.575-9.226-9.32-9.226-15.841C453.416,130.189,454,125.359,458.652,124.325Z" transform="translate(-432.365 -85.963)" fill="#ecb308"/>
                <path id="Trazado_741370" data-name="Trazado 741370" d="M456.59,150.575a22.342,22.342,0,0,1,3.177-8.666c3.191-4.768,5.776-11.768,9.194-13.956,4.124-2.639,13.386-.567,13.7-.734-.077,2.252.783,7.628.441,10.115a18.023,18.023,0,0,1-1.452,5.419c-1,1.955-3.724,3.688-7.736,3.8a15.537,15.537,0,0,1-4.885,5.137,43.681,43.681,0,0,1,4.773,3.692,87.789,87.789,0,0,0,10.486,8.564,7.974,7.974,0,0,0-2.2,1.85,5.4,5.4,0,0,0-1.134,2.66c-6.883-1.575-12.337-5.176-17.994-9.165a21.658,21.658,0,0,1-4.586-4.692A2.47,2.47,0,0,1,456.59,150.575Z" transform="translate(-431.127 -83.93)" fill="#feca2e"/>
                <path id="Trazado_741371" data-name="Trazado 741371" d="M466.35,123.451c-.988-4.766-1.65-11.338-1.65-11.338s5.041-5.5,10.016.761c1.537,1.935,1.417,4.545,1.857,5.6a6.485,6.485,0,0,1,1.028,3.17C474.691,124.918,469.882,124.763,466.35,123.451Z" transform="translate(-424.197 -97.307)" fill="#e0d1d1"/>
                <g id="Grupo_931627" data-name="Grupo 931627" transform="translate(20.596)">
                  <path id="Trazado_741372" data-name="Trazado 741372" d="M463.852,118.672l4.044,3.315c2.18-.776,3.841-3.351,4.775-5.819-.8-.639-3.625-2.255-3.825-3.112.841-2.351-.432-4.331-2.613-6.442a7.1,7.1,0,0,0-8.891-.238,3.894,3.894,0,0,0-1.96,3.713c.275,2.5,1.7,8.514,3.83,9.6C460.7,120.442,462.425,119.212,463.852,118.672Z" transform="translate(-452.264 -101.264)" fill="#ffc9b6"/>
                  <path id="Trazado_741373" data-name="Trazado 741373" d="M471.049,108.209a5.517,5.517,0,0,0-3.3-4.559c-2.307-1.057-6.424-1.208-8.281.873a1.149,1.149,0,0,0-.1-.2,1.517,1.517,0,0,0-2.192-.11,3.809,3.809,0,0,0-1.192,1.647,1.807,1.807,0,0,0-1.227.022c-1.341.554-1.289,2.455-.817,3.564.983,2.3,4.615,4.817,7.293,4.19-.133,1.339.52,2.066,1.595,2.943a5.61,5.61,0,0,0,5.986.5c2.151-1.066,4.106-3.528,3.953-6.035A3.566,3.566,0,0,0,471.049,108.209Z" transform="translate(-453.64 -102.894)" fill="#351817"/>
                  <path id="Trazado_741374" data-name="Trazado 741374" d="M457.334,109.6a1.185,1.185,0,0,1,1.964-.587c1.478.983-.29,3.906-.29,3.906Z" transform="translate(-450.685 -98.257)" fill="#ffc9b6"/>
                </g>
                <path id="Trazado_741375" data-name="Trazado 741375" d="M463.684,116.143c5.155-3.965,4.982-4.415,7.461-5.488,2.174-.94,8.459,4.889,10.436,10.976a138.9,138.9,0,0,1,4.282,20.11c-4.961,4.529-12.7,3.6-18.7.839a33.118,33.118,0,0,1-5.6-9.176c-2.007-4.79-2.361-6.048-2.831-8.506S458.529,120.109,463.684,116.143Z" transform="translate(-429.099 -96.766)" fill="#fff"/>
                <path id="Trazado_741376" data-name="Trazado 741376" d="M470.365,145.954a34.023,34.023,0,0,1,5.265,0c1.526.257,1.751,3.015,3.092,4.318s5.223,1.974,6.256,4.656-.853,6.832-3.279,5.81c-3.983-1.676-12.027-8.38-12.027-8.38S467.82,149.495,470.365,145.954Z" transform="translate(-420.74 -68.543)" fill="#351817"/>
                <g id="Grupo_931628" data-name="Grupo 931628" transform="translate(0 19.57)">
                  <path id="Trazado_741377" data-name="Trazado 741377" d="M446.126,122.367c.281-.041.382-2.286.353-3.1a3.283,3.283,0,0,0-1.031-2.082c-.887-.763-1.629-1.445-1.962-1.753l-1.289-.918.949-.745c.7.436,3.375,1.535,4.334,2.453.628.6,1.478,3.423,1.827,7.293s1.561,21.388,1.561,21.388l-.947.745-.407-1.516s-1.21-11.809-2.277-16.356a4.311,4.311,0,0,0-1.465-2.781c-.6-.493-1.237-1.021-1.667-1.377l-1.145-1.343.949-.745A6.012,6.012,0,0,0,446.126,122.367Z" transform="translate(-442.197 -113.767)" fill="#fc811d"/>
                  <path id="Trazado_741378" data-name="Trazado 741378" d="M444.654,122.057a1.982,1.982,0,0,0,.635-1.956,6.335,6.335,0,0,0-.761-2.329,3.4,3.4,0,0,0-1.917-1.733l-.414-1.857c.7.436,3.377,1.537,4.336,2.455.628.6,1.478,3.422,1.827,7.291s1.561,21.388,1.561,21.388l-.641-.364s-1.922-12.214-2.99-16.762a12.591,12.591,0,0,0-1.479-3.461,6.671,6.671,0,0,0-1.74-1.624l-.11-1.161A1.537,1.537,0,0,0,444.654,122.057Z" transform="translate(-442.197 -113.436)" fill="#ff9d3a"/>
                </g>
                <g id="Grupo_931629" data-name="Grupo 931629" transform="translate(3.718 27.671)">
                  <path id="Trazado_741379" data-name="Trazado 741379" d="M452.562,126.355a22.769,22.769,0,0,1,6.328-.526c.25-.941,2.052-5.565,4.865-7.561,0,0,6.536,2.727,6.206,4.622-.742,4.239-5.767,7.326-6.989,8.013s-1.348,1.561-3.238,1.262c-1.035-.164-4.338-.448-7.163-.653A8.528,8.528,0,0,1,452.562,126.355Z" transform="translate(-437.937 -118.268)" fill="#ffc9b6"/>
                  <path id="Trazado_741380" data-name="Trazado 741380" d="M447.627,131.584c-3.337,1.021-3.71-3.749-3.152-5.054.727-1.7,2.52-1.166,3.152-1.611s.567-.8.508-2.6c1.65.54,3.3,1.676,4.485,1.976a50.062,50.062,0,0,0,6.267-1.175,8.529,8.529,0,0,0,.009,5.157c-2.34-.167-4.356-.281-4.476-.218C452.123,129.246,449.686,130.954,447.627,131.584Z" transform="translate(-444.263 -115.03)" fill="#492624"/>
                </g>
                <path id="Trazado_741381" data-name="Trazado 741381" d="M464.686,131.346c-3.638-.76-6.784-2.493-8.523-5.535.347-.524,1.112-2.252,1.552-2.81,1.134-5.362,3.53-7.777,5.657-8.233,2.993-.639,5.493,1.528,5.486,4.763C468.846,125.881,467.367,128.426,464.686,131.346Z" transform="translate(-431.025 -93.485)" fill="#e0d1d1"/>
                <path id="Trazado_741382" data-name="Trazado 741382" d="M465.675,111.22c1.037.668,3.467,1.744,4.959,3.683,3.879,5.038,4.518,9.007,4.518,9.007h1.676s-2.2-6.814-4.867-9.842a11.321,11.321,0,0,0-5.848-3.825A1.207,1.207,0,0,0,465.675,111.22Z" transform="translate(-423.422 -97.016)" fill="#feca2e"/>
                <path id="Trazado_741383" data-name="Trazado 741383" d="M470.973,110.809s-2.5-1.487-3.684-.862-4.928,3.17-5.617,4.512A18.16,18.16,0,0,0,460.5,118.1a27.815,27.815,0,0,0,7.3-4.136C470.973,111.319,470.973,110.809,470.973,110.809Z" transform="translate(-427.554 -97.375)" fill="#e0d1d1"/>
                <path id="Trazado_741384" data-name="Trazado 741384" d="M463.052,135.908s1.967,2.126,4.784-.4,5.054-6.4,3.031-11.926a104.658,104.658,0,0,0,8.017-6.872c1.56,2.536,2.162,7.531,3.542,10.744a18.088,18.088,0,0,1,1.415,9.426,14.086,14.086,0,0,1-8.02,5.283c-7.461,2.154-14.208-2.784-13.866-3.737S463.052,135.908,463.052,135.908Z" transform="translate(-426.403 -91.844)" fill="#feca2e"/>
                <path id="Trazado_741385" data-name="Trazado 741385" d="M465.748,118.243a24.092,24.092,0,0,1,7.063,8.843l1.352-1.417s-4.217-6.953-7.954-9.521a14.132,14.132,0,0,0-4.082-1.994,1.786,1.786,0,0,0-2.073.967S461.723,115.369,465.748,118.243Z" transform="translate(-427.914 -93.948)" fill="#feca2e"/>
                <path id="Trazado_741386" data-name="Trazado 741386" d="M485.811,127.3v2.783s-2.533,3.092-8.616,4.415-11.494.045-13.452-1a23.425,23.425,0,0,1-4.052-3.008l1.461-1.238s.9,1.067,4.885,2.255A24.834,24.834,0,0,0,478,131.7C481.011,130.928,485.811,127.3,485.811,127.3Z" transform="translate(-428.204 -83.373)" fill="#eebe30"/>
                <path id="Trazado_741387" data-name="Trazado 741387" d="M464.543,140.928a3.6,3.6,0,0,1-1.748,1.12,8.687,8.687,0,0,1-2.867-.565s1.011-.275,1.957-.554C462.621,140.712,463.758,141.07,464.543,140.928Z" transform="translate(-428.014 -72.528)" fill="#dcaa13"/>
              </g>
            </g>
          </g>
          <g id="Grupo_931650" data-name="Grupo 931650" transform="translate(112.19 21.635)">
            <path id="Trazado_741412" data-name="Trazado 741412" d="M320.085,148.12h9.276l4.63-2.912,4.643-2.642a4.447,4.447,0,0,1,3.952.162l8.317,4.733h8.611v5.519h-.006a1.118,1.118,0,0,1-.678,1.082L340.967,164.23a4.455,4.455,0,0,1-3.954-.161l-15.959-9.085c-.676-.384-.992-.882-.954-1.346h-.014Z" transform="translate(0)" fill="#493b36"/>
            <g id="Grupo_931648" data-name="Grupo 931648" transform="translate(320.085 155.41)">
              <path id="Trazado_741413" data-name="Trazado 741413" d="M321.054,148.484l15.959,5.766a6.793,6.793,0,0,0,3.954.1l17.863-6.453c.5-.182.724-.431.678-.687h.006v.477h-.006c.046.256-.174.505-.678.687l-17.863,6.453a6.785,6.785,0,0,1-3.954-.1l-15.959-5.766c-.676-.244-.992-.559-.954-.854h-.014v-.477h.014C320.061,147.924,320.377,148.24,321.054,148.484Z" transform="translate(-320.085 -147.212)" fill="#332723"/>
            </g>
            <path id="Trazado_741414" data-name="Trazado 741414" d="M328.786,140.6v3.623s2.731-.309,3.04-1.416-.715-1.643-1.252-1.87A8.4,8.4,0,0,0,328.786,140.6Z" transform="translate(5.952)" fill="#493b36"/>
            <g id="Grupo_931649" data-name="Grupo 931649" transform="translate(320.085 138.672)">
              <path id="Trazado_741415" data-name="Trazado 741415" d="M320.769,149.23l4.641-2.642,3.121,1.776a2.976,2.976,0,0,0,2.645.107l6.126-3.485c.678-.386.593-1.06-.19-1.506l-3.121-1.776,4.643-2.642a4.447,4.447,0,0,1,3.952.162l15.961,9.083c1.17.666,1.3,1.673.283,2.25l-17.863,10.169a4.45,4.45,0,0,1-3.954-.162l-15.959-9.083C319.884,150.813,319.756,149.806,320.769,149.23Z" transform="translate(-320.085 -138.672)" fill="#544640"/>
            </g>
            <path id="Trazado_741416" data-name="Trazado 741416" d="M332.068,149.937l7.978-4.606c.351-.2.307-.557-.1-.791l-4.369-2.522a1.523,1.523,0,0,0-1.369-.057l-7.978,4.606c-.351.2-.307.557.1.791l4.368,2.522A1.523,1.523,0,0,0,332.068,149.937Z" transform="translate(8.4 2.72)" fill="#493b36"/>
            <path id="Trazado_741417" data-name="Trazado 741417" d="M332.239,149.517l6.7-3.871c.294-.17.257-.467-.083-.664l-3.671-2.12a1.279,1.279,0,0,0-1.151-.047l-6.7,3.871c-.294.17-.258.467.083.664l3.671,2.12A1.279,1.279,0,0,0,332.239,149.517Z" transform="translate(8.216 3.053)" fill="#332723"/>
            <path id="Trazado_741418" data-name="Trazado 741418" d="M330.335,146.968l4.762-2.749-.832-.487-4.762,2.749Z" transform="translate(7.285 2.858)" fill="#ff8d40"/>
            <path id="Trazado_741419" data-name="Trazado 741419" d="M332.869,139.293c.687,0,1.243.282,1.243.629s-.556.629-1.243.629-1.242-.282-1.242-.629S332.183,139.293,332.869,139.293Z" transform="translate(7.677)" fill="#493b36"/>
            <ellipse id="Elipse_12164" data-name="Elipse 12164" cx="0.682" cy="0.345" rx="0.682" ry="0.345" transform="translate(339.85 139.698)" fill="#332723"/>
            <path id="Trazado_741420" data-name="Trazado 741420" d="M322.474,145.32c.686,0,1.243.282,1.243.629s-.557.629-1.243.629-1.243-.282-1.243-.629S321.788,145.32,322.474,145.32Z" transform="translate(0 3.305)" fill="#493b36"/>
            <path id="Trazado_741421" data-name="Trazado 741421" d="M322.474,145.725c.377,0,.682.155.682.345s-.3.345-.682.345-.682-.154-.682-.345S322.1,145.725,322.474,145.725Z" transform="translate(0 3.389)" fill="#332723"/>
            <path id="Trazado_741422" data-name="Trazado 741422" d="M332.007,150.8c.687,0,1.243.281,1.243.629s-.556.628-1.243.628-1.243-.281-1.243-.628S331.321,150.8,332.007,150.8Z" transform="translate(7.104 6.03)" fill="#493b36"/>
            <path id="Trazado_741423" data-name="Trazado 741423" d="M332.007,151.208c.377,0,.682.154.682.345s-.3.345-.682.345-.682-.155-.682-.345S331.631,151.208,332.007,151.208Z" transform="translate(7.117 6.024)" fill="#332723"/>
            <path id="Trazado_741424" data-name="Trazado 741424" d="M342.468,144.721c.686,0,1.243.282,1.243.629s-.557.629-1.243.629-1.243-.282-1.243-.629S341.781,144.721,342.468,144.721Z" transform="translate(14.757 3.007)" fill="#493b36"/>
            <path id="Trazado_741425" data-name="Trazado 741425" d="M342.468,145.126c.376,0,.682.155.682.345s-.306.345-.682.345-.682-.154-.682-.345S342.091,145.126,342.468,145.126Z" transform="translate(14.757 3.102)" fill="#332723"/>
          </g>
          <g id="Grupo_931672" data-name="Grupo 931672" transform="translate(461.234 97.604)">
            <g id="Grupo_931654" data-name="Grupo 931654" transform="translate(6.042 91.323)">
              <path id="Trazado_741426" data-name="Trazado 741426" d="M6.817,113.527l7.345,4.241a1.558,1.558,0,0,0,2.123-.569h0a1.558,1.558,0,0,0-.569-2.122l-7.345-4.241a1.558,1.558,0,0,0-2.123.569h0A1.558,1.558,0,0,0,6.817,113.527Z" transform="translate(-6.042 -110.629)" fill="#ec4f46"/>
              <path id="Trazado_741427" data-name="Trazado 741427" d="M37.4,130.89c.474.271.957.156,1.8.525a9.769,9.769,0,0,1,1.112.574l.877-1.876a5.9,5.9,0,0,1-1.1-.775c-.516-.47-.546-.733-.982-1.038C38.477,127.859,36.73,130.507,37.4,130.89Z" transform="translate(-29.28 -123.751)" fill="#ec4f46"/>
              <path id="Trazado_741428" data-name="Trazado 741428" d="M49.051,135.479a1.619,1.619,0,0,0-.676,1.291c0,.5.3.727.676.511a1.619,1.619,0,0,0,.676-1.291C49.727,135.492,49.424,135.264,49.051,135.479Z" transform="translate(-37.564 -129.073)" fill="#ff5b57"/>
              <g id="Grupo_931653" data-name="Grupo 931653" transform="translate(11.297 6.952)">
                <g id="Grupo_931651" data-name="Grupo 931651">
                  <path id="Trazado_741429" data-name="Trazado 741429" d="M88.142,159.609a.588.588,0,0,0-.245.469c0,.181.11.264.245.185a.588.588,0,0,0,.245-.469C88.387,159.614,88.278,159.531,88.142,159.609Z" transform="translate(-78.29 -154.03)" fill="#dbd6d1"/>
                  <path id="Trazado_741430" data-name="Trazado 741430" d="M50.524,137.879a.587.587,0,0,0-.245.469c0,.181.11.264.245.185a.588.588,0,0,0,.245-.469C50.77,137.883,50.66,137.8,50.524,137.879Z" transform="translate(-50.279 -137.849)" fill="#dbd6d1"/>
                  <path id="Trazado_741431" data-name="Trazado 741431" d="M60.22,144.123l.295-.688L50.92,137.89l-.3.685Z" transform="translate(-50.53 -137.88)" fill="#dbd6d1"/>
                </g>
                <g id="Grupo_931652" data-name="Grupo 931652" transform="translate(9.115 5.418)">
                  <path id="Trazado_741432" data-name="Trazado 741432" d="M87.61,160.775l.884.936-.605.349-1.622-.51-.3-.6.605-.349Z" transform="translate(-85.97 -160.21)" fill="#cec6be"/>
                  <path id="Trazado_741433" data-name="Trazado 741433" d="M87.61,159.234l.884.936-.605.349-1.622-.51-.3-.6.605-.349Z" transform="translate(-85.97 -159.063)" fill="#dbd6d1"/>
                  <path id="Trazado_741434" data-name="Trazado 741434" d="M94.086,163.4v.393l-.605.349v-.393Z" transform="translate(-91.563 -162.292)" fill="#dbd6d1"/>
                  <path id="Trazado_741435" data-name="Trazado 741435" d="M86.266,161.029v.393l-.3-.6v-.393Z" transform="translate(-85.97 -160.082)" fill="#c4bab1"/>
                </g>
              </g>
              <path id="Trazado_741436" data-name="Trazado 741436" d="M20.5,116.84h0a.2.2,0,0,1-.278.075l-7.152-4.129a.2.2,0,0,1-.074-.278h0a.2.2,0,0,1,.278-.075l7.152,4.129A.2.2,0,0,1,20.5,116.84Z" transform="translate(-11.199 -111.952)" fill="#ff5b57"/>
              <path id="Trazado_741437" data-name="Trazado 741437" d="M18.028,118.315h0a.2.2,0,0,1-.278.075L10.6,114.261a.2.2,0,0,1-.074-.278h0a.2.2,0,0,1,.278-.075l7.152,4.129A.2.2,0,0,1,18.028,118.315Z" transform="translate(-9.359 -113.051)" fill="#ff5b57"/>
              <path id="Trazado_741438" data-name="Trazado 741438" d="M16.729,120.566h0a.2.2,0,0,1-.278.074L9.3,116.511a.2.2,0,0,1-.075-.278h0a.2.2,0,0,1,.278-.074l7.152,4.129A.2.2,0,0,1,16.729,120.566Z" transform="translate(-8.392 -114.726)" fill="#ff5b57"/>
              <path id="Trazado_741439" data-name="Trazado 741439" d="M16.048,123.181h0a.2.2,0,0,1-.278.074l-7.152-4.129a.2.2,0,0,1-.074-.278h0a.2.2,0,0,1,.278-.074l7.152,4.129A.2.2,0,0,1,16.048,123.181Z" transform="translate(-7.885 -116.674)" fill="#ff5b57"/>
            </g>
            <g id="Grupo_931671" data-name="Grupo 931671" transform="translate(7.875 84.702)">
              <g id="Grupo_931662" data-name="Grupo 931662" transform="translate(0 1.002)">
                <g id="Grupo_931655" data-name="Grupo 931655" transform="translate(14.047 8.083)">
                  <path id="Trazado_741440" data-name="Trazado 741440" d="M84.372,129.6h0Z" transform="translate(-80.248 -127.221)" fill="#dbd6d1"/>
                  <path id="Trazado_741441" data-name="Trazado 741441" d="M84.376,129.6h0Z" transform="translate(-80.25 -127.22)" fill="#c4bab1"/>
                  <path id="Trazado_741442" data-name="Trazado 741442" d="M69.065,120.764h0l-.842-.486h0Z" transform="translate(-68.223 -120.277)" fill="#c4bab1"/>
                  <path id="Trazado_741443" data-name="Trazado 741443" d="M75.43,124.437h0Z" transform="translate(-73.589 -123.375)" fill="#c4bab1"/>
                  <path id="Trazado_741444" data-name="Trazado 741444" d="M71.07,122.189c-.22.127-.174.359.1.519a1.008,1.008,0,0,0,.9.059l.009-.007-1-.576Z" transform="translate(-70.239 -121.697)" fill="#847970"/>
                  <path id="Trazado_741445" data-name="Trazado 741445" d="M71.521,122.181h0l1,.576h0Z" transform="translate(-70.678 -121.695)" fill="#847970"/>
                </g>
                <g id="Grupo_931656" data-name="Grupo 931656" transform="translate(14.047 7.456)">
                  <path id="Trazado_741446" data-name="Trazado 741446" d="M71.531,121.922a1.007,1.007,0,0,1,.9.059c.277.16.322.392.1.519l-.011.005-1-.576Z" transform="translate(-70.68 -120.815)" fill="#6b5f56"/>
                  <path id="Trazado_741447" data-name="Trazado 741447" d="M71.619,118.718a7.023,7.023,0,0,1,1.185,1.83l-.457.282-1.162-.671.006,0c.23-.133.258-.308,0-.467a1.585,1.585,0,0,0-1.13-.176h0l.011-.005c.22-.127.174-.359-.1-.519a1.007,1.007,0,0,0-.9-.059l-.009.007-.842-.486h0l1.069-.628A5.149,5.149,0,0,1,71.619,118.718Z" transform="translate(-68.223 -117.821)" fill="#afa49a"/>
                </g>
                <path id="Trazado_741448" data-name="Trazado 741448" d="M66.251,120.714l.025-.016-.726-.419h0l-.917.52A2.156,2.156,0,0,0,66.251,120.714Z" transform="translate(-51.504 -112.196)" fill="#dbd6d1"/>
                <g id="Grupo_931657" data-name="Grupo 931657" transform="translate(11.717 6.215)">
                  <path id="Trazado_741449" data-name="Trazado 741449" d="M61.871,114.079c-.142-.078-.54-.293-.71-.361a5.563,5.563,0,0,1-1.222-.609l-.838.112,1.1.977.73.422Z" transform="translate(-59.101 -113.072)" fill="#dbd6d1"/>
                  <path id="Trazado_741450" data-name="Trazado 741450" d="M63.605,113.61c.17.068.568.283.71.361l.045-.026-1.7-.981-.277.037A5.563,5.563,0,0,0,63.605,113.61Z" transform="translate(-61.545 -112.964)" fill="#6b5f56"/>
                </g>
                <g id="Grupo_931658" data-name="Grupo 931658" transform="translate(10.735 6.753)">
                  <path id="Trazado_741451" data-name="Trazado 741451" d="M57.188,116.669c-.135-.082-.508-.311-.625-.41a4.342,4.342,0,0,0-1.055-.706l.195-.484,1.692.637.73.422Z" transform="translate(-55.444 -115.07)" fill="#c4bab1"/>
                  <path id="Trazado_741452" data-name="Trazado 741452" d="M56.376,117.671c.117.1.49.328.625.41l-.045.026-1.7-.981.064-.16A4.343,4.343,0,0,1,56.376,117.671Z" transform="translate(-55.256 -116.481)" fill="#847970"/>
                </g>
                <path id="Trazado_741453" data-name="Trazado 741453" d="M62.033,117.827c-.553-.319-.613-.8-.134-1.078a2.076,2.076,0,0,1,1.868.077c.553.319.613.8.134,1.078A2.076,2.076,0,0,1,62.033,117.827Z" transform="translate(-49.227 -109.428)" fill="#aa9f96"/>
                <g id="Grupo_931659" data-name="Grupo 931659" transform="translate(12.959 8.503)">
                  <path id="Trazado_741454" data-name="Trazado 741454" d="M66.237,123.468c1.171.393,2.451.679,2.451.679l.489-.264-1.163-.671-.005,0a.83.83,0,0,1-.809,0c-.566-.3-.311-.646-.3-.652h0l-.009.007a1.008,1.008,0,0,1-.9-.059c-.276-.16-.322-.392-.1-.519l.011-.005-.116-.067-.025.016a2.156,2.156,0,0,1-1.617.085l-.171.1A8.074,8.074,0,0,0,66.237,123.468Z" transform="translate(-63.965 -121.921)" fill="#afa49a"/>
                </g>
                <path id="Trazado_741455" data-name="Trazado 741455" d="M62.864,117.306a1.668,1.668,0,0,1,1.5.062c.443.256.491.644.108.865a1.667,1.667,0,0,1-1.5-.062C62.529,117.915,62.48,117.527,62.864,117.306Z" transform="translate(-49.993 -109.871)" fill="#dbd6d1"/>
                <g id="Grupo_931660" data-name="Grupo 931660" transform="translate(3.312)">
                  <path id="Trazado_741456" data-name="Trazado 741456" d="M33.792,94.745a8.62,8.62,0,0,0,.86.778s1.111-.213,1.538-.337c.194-.056.14-.21.146-.395s.319-.267.223-.457a2.869,2.869,0,0,1-2.949-1.176,8.17,8.17,0,0,0-2.752-2.25,27.8,27.8,0,0,0-4.551-1.934c-.164.09-.156.224.022.293,2.4.922,5.2,2.294,6.06,3.243A10.617,10.617,0,0,1,33.792,94.745Z" transform="translate(-26.19 -88.887)" fill="#f5b400"/>
                  <path id="Trazado_741457" data-name="Trazado 741457" d="M33.952,92.9A2.869,2.869,0,0,0,36.9,94.075a.191.191,0,0,0-.011-.026c-.167-.244-1.017-.216-1.378-.514-.737-.608-.807-1.054-1.685-1.818a16.358,16.358,0,0,0-5.746-2.911,2.014,2.014,0,0,0-1.431-.09A27.8,27.8,0,0,1,31.2,90.65,8.17,8.17,0,0,1,33.952,92.9Z" transform="translate(-26.532 -88.627)" fill="#6b5f56"/>
                </g>
                <g id="Grupo_931661" data-name="Grupo 931661" transform="translate(0 1.912)">
                  <path id="Trazado_741458" data-name="Trazado 741458" d="M23.818,100.5c.368.092,1.348.5,1.348.5a8.3,8.3,0,0,1-.584.888c-.1.112-.363.081-.683.084s-.463.185-.792.129a.732.732,0,0,0-.183-.9,5.077,5.077,0,0,0-1.853-.805,13.642,13.642,0,0,1-3.9-1.589,17.307,17.307,0,0,1-3.349-2.628.469.469,0,0,1,.507.013,18.846,18.846,0,0,0,5.617,3.5A36.127,36.127,0,0,0,23.818,100.5Z" transform="translate(-13.671 -96.115)" fill="#f5b400"/>
                  <path id="Trazado_741459" data-name="Trazado 741459" d="M20.621,100.6a5.077,5.077,0,0,1,1.853.805.732.732,0,0,1,.183.9c-.016,0-.029,0-.046-.007-.422-.1-.374-.587-.89-.8-1.054-.425-1.826-.466-3.149-.973a12.9,12.9,0,0,1-5.042-3.318c-.423-.435-.35-.708-.156-.826a17.307,17.307,0,0,0,3.349,2.628A13.642,13.642,0,0,0,20.621,100.6Z" transform="translate(-13.22 -96.312)" fill="#4f443d"/>
                </g>
              </g>
              <path id="Trazado_741460" data-name="Trazado 741460" d="M13.22,93.537v.977a10.472,10.472,0,0,0,3.945,3.019c2.216.807,4.136,1.357,4.373,1.5a12.569,12.569,0,0,1,1.119,1.146v-1a2.1,2.1,0,0,0-1.429-1.262,17.016,17.016,0,0,1-4.949-2.03C14.876,94.883,13.22,93.537,13.22,93.537Z" transform="translate(-13.22 -91.281)" fill="#4f443d"/>
              <path id="Trazado_741461" data-name="Trazado 741461" d="M51.74,113.743v1.016l-1.568.332v-1l.9-.529Z" transform="translate(-40.735 -106.19)" fill="#f5b400"/>
              <path id="Trazado_741462" data-name="Trazado 741462" d="M26.19,85.543v1.044s1.879.722,2.775,1.095a22.81,22.81,0,0,1,4.274,2.894c.552.611,1.457,1.426,1.412,1.39s-1.067-2.689-2.87-3.832A42.429,42.429,0,0,0,26.19,85.543Z" transform="translate(-22.878 -85.328)" fill="#f5b400"/>
              <path id="Trazado_741463" data-name="Trazado 741463" d="M56.313,114.277v1.016l1.43.811v-1Z" transform="translate(-45.308 -106.724)" fill="#6b5f56"/>
              <path id="Trazado_741464" data-name="Trazado 741464" d="M62.639,117.09v1a4.232,4.232,0,0,0,.923.3c.255.007.659,0,.659,0v-1Z" transform="translate(-50.018 -108.819)" fill="#aa9f96"/>
              <path id="Trazado_741465" data-name="Trazado 741465" d="M69.993,112.882v.356h-.038l-.006-.33Z" transform="translate(-55.461 -105.686)" fill="#564a42"/>
              <path id="Trazado_741466" data-name="Trazado 741466" d="M69.541,112.984v.233l-.139-.153Z" transform="translate(-55.054 -105.761)" fill="#96877d"/>
              <g id="Grupo_931670" data-name="Grupo 931670" transform="translate(0)">
                <g id="Grupo_931663" data-name="Grupo 931663" transform="translate(14.047 8.083)">
                  <path id="Trazado_741467" data-name="Trazado 741467" d="M84.372,125.678h0Z" transform="translate(-80.248 -123.297)" fill="#dbd6d1"/>
                  <path id="Trazado_741468" data-name="Trazado 741468" d="M84.376,125.676h0Z" transform="translate(-80.25 -123.295)" fill="#c4bab1"/>
                  <path id="Trazado_741469" data-name="Trazado 741469" d="M69.065,116.84h0l-.842-.486h0Z" transform="translate(-68.223 -116.353)" fill="#c4bab1"/>
                  <path id="Trazado_741470" data-name="Trazado 741470" d="M75.43,120.513h0Z" transform="translate(-73.589 -119.45)" fill="#c4bab1"/>
                  <path id="Trazado_741471" data-name="Trazado 741471" d="M71.521,118.256h0l1,.576h0Z" transform="translate(-70.678 -117.77)" fill="#847970"/>
                </g>
                <g id="Grupo_931664" data-name="Grupo 931664" transform="translate(14.047 7.456)">
                  <path id="Trazado_741472" data-name="Trazado 741472" d="M71.989,118.057a1.007,1.007,0,0,0-.9-.059l-.009.007,0,0h0l-.011,0c-.22.127-.174.359.1.519a1.008,1.008,0,0,0,.9.059l.009-.007h0l.011-.005C72.311,118.449,72.266,118.217,71.989,118.057Z" transform="translate(-70.239 -116.891)" fill="#6b5f56"/>
                  <path id="Trazado_741473" data-name="Trazado 741473" d="M71.629,115.208a10.509,10.509,0,0,1,1.175,1.415l-.457.282-.972-.561s-1.3-.76-1.311-.756h0l.011-.005c.22-.127.174-.359-.1-.519a1.007,1.007,0,0,0-.9-.059l-.009.007-.842-.486h0l1.069-.628A8.877,8.877,0,0,1,71.629,115.208Z" transform="translate(-68.223 -113.897)" fill="#dbd6d1"/>
                </g>
                <path id="Trazado_741474" data-name="Trazado 741474" d="M66.251,116.79l.025-.016-.726-.419h0l-.917.52A2.157,2.157,0,0,0,66.251,116.79Z" transform="translate(-51.504 -108.272)" fill="#dbd6d1"/>
                <g id="Grupo_931665" data-name="Grupo 931665" transform="translate(11.717 6.215)">
                  <path id="Trazado_741475" data-name="Trazado 741475" d="M61.871,110.155c-.142-.078-.54-.293-.71-.361a5.563,5.563,0,0,1-1.222-.609l-.838.112,1.1.977.73.422Z" transform="translate(-59.101 -109.148)" fill="#dbd6d1"/>
                  <path id="Trazado_741476" data-name="Trazado 741476" d="M63.605,109.686c.17.067.568.283.71.361l.045-.026-1.7-.981-.277.037A5.563,5.563,0,0,0,63.605,109.686Z" transform="translate(-61.545 -109.04)" fill="#6b5f56"/>
                </g>
                <g id="Grupo_931666" data-name="Grupo 931666" transform="translate(10.735 6.753)">
                  <path id="Trazado_741477" data-name="Trazado 741477" d="M57.188,112.745c-.135-.082-.508-.312-.625-.41a4.341,4.341,0,0,0-1.055-.706l.195-.484,1.692.637.73.422Z" transform="translate(-55.444 -111.146)" fill="#c4bab1"/>
                  <path id="Trazado_741478" data-name="Trazado 741478" d="M56.376,113.746c.117.1.49.328.625.41l-.045.026-1.7-.981.064-.16A4.341,4.341,0,0,1,56.376,113.746Z" transform="translate(-55.256 -112.556)" fill="#847970"/>
                </g>
                <path id="Trazado_741479" data-name="Trazado 741479" d="M62.033,113.9c-.553-.319-.613-.8-.134-1.078a2.077,2.077,0,0,1,1.868.078c.553.319.613.8.134,1.078A2.076,2.076,0,0,1,62.033,113.9Z" transform="translate(-49.227 -105.504)" fill="#c4bab1"/>
                <path id="Trazado_741480" data-name="Trazado 741480" d="M70.64,118.26v.663s-.3-.155-.3-.367S70.64,118.26,70.64,118.26Z" transform="translate(-55.752 -109.69)" fill="#96877d"/>
                <path id="Trazado_741481" data-name="Trazado 741481" d="M63.965,118.772v1l4.723,2.028v-1Z" transform="translate(-51.006 -110.071)" fill="#afa49a"/>
                <g id="Grupo_931667" data-name="Grupo 931667" transform="translate(12.959 8.503)">
                  <path id="Trazado_741482" data-name="Trazado 741482" d="M66.237,119.544c1.171.393,2.451.679,2.451.679l.489-.264-1.047-.6s-1.241-.708-1.235-.714h0a1.024,1.024,0,0,1-.907-.053c-.276-.16-.322-.392-.1-.519l.011,0L65.778,118l-.025.016a2.157,2.157,0,0,1-1.617.085l-.171.1A8.076,8.076,0,0,0,66.237,119.544Z" transform="translate(-63.965 -117.997)" fill="#c4bab1"/>
                </g>
                <path id="Trazado_741483" data-name="Trazado 741483" d="M62.864,113.381a1.666,1.666,0,0,1,1.5.062c.443.256.491.644.108.865a1.666,1.666,0,0,1-1.5-.062C62.529,113.99,62.48,113.6,62.864,113.381Z" transform="translate(-49.993 -105.946)" fill="#dbd6d1"/>
                <g id="Grupo_931668" data-name="Grupo 931668" transform="translate(3.312)">
                  <path id="Trazado_741484" data-name="Trazado 741484" d="M33.792,90.821a8.645,8.645,0,0,0,.86.778s1.111-.213,1.538-.337c.194-.056.14-.209.146-.394s.319-.268.223-.457a2.869,2.869,0,0,1-2.949-1.176,8.168,8.168,0,0,0-2.752-2.25,27.844,27.844,0,0,0-4.551-1.934c-.164.09-.156.224.022.293,2.4.922,5.2,2.294,6.06,3.243A10.623,10.623,0,0,1,33.792,90.821Z" transform="translate(-26.19 -84.962)" fill="#fbcb43"/>
                  <path id="Trazado_741485" data-name="Trazado 741485" d="M33.952,88.975A2.869,2.869,0,0,0,36.9,90.151a.191.191,0,0,0-.011-.026c-.167-.244-1.017-.216-1.378-.514-.737-.608-.807-1.054-1.685-1.818a16.357,16.357,0,0,0-5.746-2.911,2.016,2.016,0,0,0-1.431-.09A27.845,27.845,0,0,1,31.2,86.725,8.168,8.168,0,0,1,33.952,88.975Z" transform="translate(-26.532 -84.702)" fill="#6b5f56"/>
                </g>
                <g id="Grupo_931669" data-name="Grupo 931669" transform="translate(0 1.912)">
                  <path id="Trazado_741486" data-name="Trazado 741486" d="M23.818,96.579c.368.092,1.348.5,1.348.5a8.3,8.3,0,0,1-.584.888c-.1.112-.363.081-.683.084s-.463.184-.792.128a.732.732,0,0,0-.183-.9,5.082,5.082,0,0,0-1.853-.806,13.635,13.635,0,0,1-3.9-1.589,17.287,17.287,0,0,1-3.349-2.628.469.469,0,0,1,.507.013,18.851,18.851,0,0,0,5.617,3.5A36.129,36.129,0,0,0,23.818,96.579Z" transform="translate(-13.671 -92.19)" fill="#fbcb43"/>
                  <path id="Trazado_741487" data-name="Trazado 741487" d="M20.621,96.671a5.082,5.082,0,0,1,1.853.806.732.732,0,0,1,.183.9c-.016,0-.029,0-.046-.007-.422-.1-.374-.587-.89-.8-1.054-.425-1.826-.466-3.149-.973a12.9,12.9,0,0,1-5.042-3.317c-.423-.435-.35-.708-.156-.826a17.287,17.287,0,0,0,3.349,2.628A13.634,13.634,0,0,0,20.621,96.671Z" transform="translate(-13.22 -92.387)" fill="#6b5f56"/>
                </g>
              </g>
              <path id="Trazado_741488" data-name="Trazado 741488" d="M61.957,117.408v1l-.045.026v-1Z" transform="translate(-49.477 -109.056)" fill="#564a42"/>
              <path id="Trazado_741489" data-name="Trazado 741489" d="M62.088,117.171v1l.141-.081v-1Z" transform="translate(-49.608 -108.819)" fill="#96877d"/>
              <path id="Trazado_741490" data-name="Trazado 741490" d="M82.458,125.943v1l.489-.264v-1Z" transform="translate(-64.776 -115.215)" fill="#96877d"/>
              <path id="Trazado_741491" data-name="Trazado 741491" d="M84.829,124.573l-.457.283v1l.457-.283Z" transform="translate(-66.201 -114.391)" fill="#afa49a"/>
            </g>
          </g>
        </g>
      </g>
    </g>
  </g>
</svg>
