<svg xmlns="http://www.w3.org/2000/svg" width="264" height="239" viewBox="0 0 264 239">
  <g id="Grupo_933258" data-name="Grupo 933258" transform="translate(-1098 -9947)">
    <g id="Grupo_933016" data-name="Grupo 933016" transform="translate(1097.093 9927.093)">
      <rect id="Rectángulo_313344" data-name="Rectángulo 313344" width="264" height="239" transform="translate(0.907 19.907)" fill="#eff5f9"/>
      <g id="Grupo_933012" data-name="Grupo 933012" transform="translate(16.848 38.629)">
        <g id="Grupo_932968" data-name="Grupo 932968" transform="translate(85.246 186.888)">
          <path id="Trazado_742791" data-name="Trazado 742791" d="M774.763,1681.543h2.419c2.5,0,5.809-2.028,5.809-4.53v-6.758a.582.582,0,0,1,.511-.578,32.641,32.641,0,0,1,7.985-.006.581.581,0,0,1,.5.578v12.476l.492.285a.541.541,0,0,1,.27.468v1.909a.541.541,0,0,1-.27.469l-.492.285v.81a1.945,1.945,0,0,1-1.97,1.97c-2.382,0-3.374-.59-5.9-.59s-3.934.59-5.656.59a40.183,40.183,0,0,1-5.8-.566,2.325,2.325,0,0,1-1.925-2.29v-.5A4.018,4.018,0,0,1,774.763,1681.543Z" transform="translate(-770.745 -1669.429)" fill="#233a49"/>
          <path id="Trazado_742792" data-name="Trazado 742792" d="M863.385,1670.255a.582.582,0,0,1,.511-.578,32.641,32.641,0,0,1,7.985-.006.581.581,0,0,1,.5.578v7.409l-9-5.18Z" transform="translate(-851.139 -1669.429)" fill="#233a49"/>
          <path id="Trazado_742793" data-name="Trazado 742793" d="M871.783,1697.166a.093.093,0,0,1-.046-.012l-9-5.18a.092.092,0,1,1,.092-.159l9,5.18a.092.092,0,0,1-.046.171Z" transform="translate(-850.537 -1688.845)" fill="#d66371"/>
          <path id="Trazado_742794" data-name="Trazado 742794" d="M781.358,1777.929a28.438,28.438,0,0,1-7.211-1.047.092.092,0,1,1,.044-.178,28.285,28.285,0,0,0,7.167,1.042,11.858,11.858,0,0,0,1.959-.227,20.561,20.561,0,0,1,3.7-.364,18.211,18.211,0,0,1,3.362.329,7.053,7.053,0,0,1,.771.175.092.092,0,1,1-.053.175,7.164,7.164,0,0,0-.75-.169,18.069,18.069,0,0,0-3.331-.326,20.374,20.374,0,0,0-3.665.361A12.009,12.009,0,0,1,781.358,1777.929Z" transform="translate(-773.637 -1762.521)" fill="#d66371"/>
          <path id="Trazado_742795" data-name="Trazado 742795" d="M899.844,1757.1c-1.621,0-3.854-2.285-3.854-3.944,0-1.554,1.045-2.482,2.8-2.482a3.685,3.685,0,0,1,1.942.48.092.092,0,0,1-.1.156,3.5,3.5,0,0,0-1.845-.452c-1.636,0-2.613.859-2.613,2.3,0,1.546,2.161,3.761,3.671,3.761a.092.092,0,0,1,0,.183Z" transform="translate(-879.434 -1739.934)" fill="#d66371"/>
          <path id="Trazado_742796" data-name="Trazado 742796" d="M871.783,1682.809h-9a.092.092,0,1,1,0-.183h9a.092.092,0,1,1,0,.183Z" transform="translate(-850.537 -1680.881)" fill="#d66371"/>
          <path id="Trazado_742797" data-name="Trazado 742797" d="M784.122,1792.865c-2.524,0-3.934.59-5.656.59a34.437,34.437,0,0,1-5.8-.566h0a2.325,2.325,0,0,1-1.925-2.291v-.5q0-.106.005-.21a30.547,30.547,0,0,0,7.716,1.177,11.93,11.93,0,0,0,1.975-.228,20.474,20.474,0,0,1,3.681-.363,18.152,18.152,0,0,1,3.346.328,13.683,13.683,0,0,0,2.553.263,14.894,14.894,0,0,0,1.97-.236v.657a1.945,1.945,0,0,1-1.97,1.97C787.638,1793.456,786.646,1792.865,784.122,1792.865Z" transform="translate(-770.745 -1773.964)" fill="#3a5870"/>
        </g>
        <g id="Grupo_932969" data-name="Grupo 932969" transform="translate(124.897 186.888)">
          <path id="Trazado_742798" data-name="Trazado 742798" d="M1088.7,1681.543h-2.419c-2.5,0-5.809-2.028-5.809-4.53v-6.758a.582.582,0,0,0-.511-.578,32.641,32.641,0,0,0-7.985-.006.581.581,0,0,0-.5.578v12.476l-.492.285a.541.541,0,0,0-.27.468v1.909a.541.541,0,0,0,.27.469l.492.285v.81a1.945,1.945,0,0,0,1.97,1.97c2.382,0,3.374-.59,5.9-.59s3.935.59,5.656.59a40.177,40.177,0,0,0,5.8-.566,2.325,2.325,0,0,0,1.925-2.29v-.5A4.018,4.018,0,0,0,1088.7,1681.543Z" transform="translate(-1070.708 -1669.429)" fill="#233a49"/>
          <path id="Trazado_742799" data-name="Trazado 742799" d="M1085.474,1670.255a.582.582,0,0,0-.511-.578,32.64,32.64,0,0,0-7.985-.006.581.581,0,0,0-.5.578v7.409l9-5.18Z" transform="translate(-1075.712 -1669.429)" fill="#233a49"/>
          <path id="Trazado_742800" data-name="Trazado 742800" d="M1075.872,1697.166a.092.092,0,0,1-.046-.171l9-5.18a.092.092,0,1,1,.092.159l-9,5.18A.09.09,0,0,1,1075.872,1697.166Z" transform="translate(-1075.11 -1688.845)" fill="#d66371"/>
          <path id="Trazado_742801" data-name="Trazado 742801" d="M1114.094,1777.929a12,12,0,0,1-1.99-.229,20.38,20.38,0,0,0-3.666-.361,18.068,18.068,0,0,0-3.33.326,7.171,7.171,0,0,0-.75.169.092.092,0,1,1-.053-.175,7.062,7.062,0,0,1,.772-.175,18.2,18.2,0,0,1,3.361-.329,20.552,20.552,0,0,1,3.7.364,11.868,11.868,0,0,0,1.96.227,28.283,28.283,0,0,0,7.167-1.042.092.092,0,0,1,.044.178A28.439,28.439,0,0,1,1114.094,1777.929Z" transform="translate(-1099.808 -1762.521)" fill="#d66371"/>
          <path id="Trazado_742802" data-name="Trazado 742802" d="M1076.706,1757.1a.092.092,0,1,1,0-.183c1.509,0,3.67-2.214,3.67-3.761,0-1.439-.977-2.3-2.613-2.3a3.5,3.5,0,0,0-1.845.452.092.092,0,1,1-.1-.156,3.685,3.685,0,0,1,1.942-.48c1.751,0,2.8.928,2.8,2.482C1080.56,1754.813,1078.326,1757.1,1076.706,1757.1Z" transform="translate(-1075.108 -1739.934)" fill="#d66371"/>
          <path id="Trazado_742803" data-name="Trazado 742803" d="M1084.872,1682.809h-9a.092.092,0,1,1,0-.183h9a.092.092,0,1,1,0,.183Z" transform="translate(-1075.111 -1680.881)" fill="#d66371"/>
          <path id="Trazado_742804" data-name="Trazado 742804" d="M1084.343,1792.865c2.524,0,3.934.59,5.656.59a34.434,34.434,0,0,0,5.8-.566h0a2.325,2.325,0,0,0,1.925-2.291v-.5c0-.07,0-.14-.005-.21a30.549,30.549,0,0,1-7.716,1.177,11.926,11.926,0,0,1-1.975-.228,20.477,20.477,0,0,0-3.681-.363,18.151,18.151,0,0,0-3.346.328,13.683,13.683,0,0,1-2.553.263,14.893,14.893,0,0,1-1.97-.236v.657a1.945,1.945,0,0,0,1.97,1.97C1080.826,1793.456,1081.818,1792.865,1084.343,1792.865Z" transform="translate(-1075.712 -1773.964)" fill="#3a5870"/>
        </g>
        <path id="Trazado_742805" data-name="Trazado 742805" d="M890.869,458.119a6.277,6.277,0,0,1-1.055-5.488c1.507-4.522,9.388-3.144,12.36-3.1s9.044-.086,10.077,2.8c.735,2.051-.861,5.857-.861,5.857Z" transform="translate(-788.595 -423.695)" fill="#3a5870"/>
        <g id="Grupo_932973" data-name="Grupo 932973" transform="translate(73.055 28.653)">
          <g id="Grupo_932972" data-name="Grupo 932972">
            <path id="Trazado_742806" data-name="Trazado 742806" d="M1183.871,1009.682c.067.712,2.148,1.278,5.69,1.232,1.823-.024,6.112-.61,6.44-1.29l-.3-4.092-11.488.272Z" transform="translate(-1117.07 -935.054)" fill="#09151c"/>
            <path id="Trazado_742807" data-name="Trazado 742807" d="M691.3,1023.592c.131,1.151,1.1,1.479,5.417,1.434,1.952-.02,5.371.373,5.77-.645l-3.5-5.967-6.751.1Z" transform="translate(-689.608 -946.233)" fill="#09151c"/>
            <g id="Grupo_932970" data-name="Grupo 932970" transform="translate(3.378 74.87)">
              <path id="Trazado_742808" data-name="Trazado 742808" d="M710.578,1039.359a8.487,8.487,0,0,0-.077,3.218c.366.982,2.117,6.608,1.262,6.949s-1.627.886-2.6-2.565c0,0-1.05.467-.894,1.271s1.926,1.556,2.117,2.089a.769.769,0,0,1-.723,1.018s1.533.667.709,1.617c0,0-.239.353-1.039.07,0,0,.666,1.845-.432,1.839s-4.125-2.489-4.382-3.36a21.647,21.647,0,0,1-.431-4.479c.064-.8,1.055-6.084,1.025-8.271Z" transform="translate(-704.072 -1038.755)" fill="#e4edf4"/>
              <path id="Trazado_742809" data-name="Trazado 742809" d="M710.411,1041.367l.126.03a10.688,10.688,0,0,0,5.223-.159l.1.008a13.317,13.317,0,0,1,.218-1.887l-5.47-.6A21.586,21.586,0,0,1,710.411,1041.367Z" transform="translate(-709.573 -1038.755)" fill="#eac759"/>
              <path id="Trazado_742810" data-name="Trazado 742810" d="M728.309,1106.833c.824-.95-.709-1.617-.709-1.617a.769.769,0,0,0,.724-1.018c-.191-.533-1.961-1.286-2.117-2.089s.894-1.271.894-1.271c-2.547.816-2.516,4.4-2.214,5.241s2.393,2.5,2.393,2.5h0c.431-.45-.011-1.676-.011-1.676C728.071,1107.186,728.309,1106.833,728.309,1106.833Z" transform="translate(-722.014 -1092.632)" fill="#eac759"/>
            </g>
            <path id="Trazado_742811" data-name="Trazado 742811" d="M707.733,491.258a4.755,4.755,0,0,1-3.764,3.764c-3.4.838-10.8,3.7-13.858,5.77s-6.343,14.348-7.764,20.545a119.863,119.863,0,0,0-2.5,16.239c-.2,3.353.125,7.928-.861,12.465s-.362,9.764,1.216,16.077c.1-.657,3.309-.886,5.579-.756,2.3.132,5.188.6,5.607,1.545a53.085,53.085,0,0,0,1.034-14.827s1.55-8.293,1.68-11.441a113.159,113.159,0,0,1,1.163-13.545c.921-6.181,1.831-12.954,2.489-15.321l8.268-4.8Z" transform="translate(-678.514 -488.759)" fill="#3a5870"/>
            <g id="Grupo_932971" data-name="Grupo 932971" transform="translate(69.291 72.534)">
              <path id="Trazado_742812" data-name="Trazado 742812" d="M1203.2,1022.228a8.488,8.488,0,0,1,.4,3.194c-.267,1.013-1.452,6.785-.567,7.04s1.706.721,2.337-2.811c0,0,1.091.361,1.016,1.175s-1.762,1.74-1.9,2.289a.769.769,0,0,0,.821.941s-1.46.816-.545,1.679c0,0,.272.328,1.041-.033,0,0-.479,1.9.612,1.787s3.858-2.886,4.027-3.778a21.651,21.651,0,0,0-.015-4.5c-.143-.792-1.654-5.949-1.841-8.129Z" transform="translate(-1202.707 -1021.084)" fill="#e4edf4"/>
              <path id="Trazado_742813" data-name="Trazado 742813" d="M1212.285,1023.664l-.123.042a10.688,10.688,0,0,1-5.212.359l-.1.018a13.316,13.316,0,0,0-.4-1.856l5.383-1.144A21.578,21.578,0,0,0,1212.285,1023.664Z" transform="translate(-1205.952 -1021.084)" fill="#eac759"/>
              <path id="Trazado_742814" data-name="Trazado 742814" d="M1216.251,1091.984c-.915-.863.545-1.679.545-1.679a.769.769,0,0,1-.821-.941c.138-.549,1.824-1.474,1.9-2.289s-1.015-1.175-1.015-1.175c2.615.56,2.94,4.129,2.722,5s-2.134,2.724-2.134,2.724h0c-.474-.4-.156-1.668-.156-1.668C1216.524,1092.312,1216.251,1091.984,1216.251,1091.984Z" transform="translate(-1214.2 -1077.332)" fill="#eac759"/>
            </g>
            <path id="Trazado_742815" data-name="Trazado 742815" d="M1052.13,472.355a3.94,3.94,0,0,0,2.17,4.011c2.564,1.183,14.092,5.791,16.022,7.319,4.076,3.229,9.215,23.046,9.675,27.956.517,5.512.612,13.284,1.579,19.223a65,65,0,0,1,.079,16.061c-.186-.735-4.043-1.023-6.194-1.033-2-.01-5.438.555-5.935,1.126,0,0-2.377-6.94-1.926-12.625,0,0-1-11.445-1.1-16.278a95.492,95.492,0,0,0-1.782-13.015l-1.381-8.877-8.482-7.2Z" transform="translate(-1002.725 -472.355)" fill="#3a5870"/>
            <path id="Trazado_742816" data-name="Trazado 742816" d="M806.858,474.854l20.186-2.5.855,5.079,1.874,11.589,11.145,7.2-1.282,8.877S842,522.459,838.65,527c0,0,1.874,4.636,1.479,7.4,0,0,2.753,14.769,2.753,22.265s0,23.8.792,28.924,2.236,14.531.395,17.951a52.448,52.448,0,0,1,.986,12.23c-.394,5.655-.46,9.468-.723,12.23s-.416,12.1-.416,12.1-9.074,3.551-16.833,0c0,0-1.294-11.178-1.557-15.912a52.263,52.263,0,0,0-1.447-9.206l.789-6.97s-2.3-9.392-2.762-13.545c-.678-6.038-2.038-13.069-2.422-17.934a19.825,19.825,0,0,1,.344-5.512l-.4-2.584a27.315,27.315,0,0,1-.407-5.794l-1.573,7.374a62.883,62.883,0,0,1,.043,6.5,22.5,22.5,0,0,1-.833,5.324c-1.973,4.6.658,13.545.132,16.307s-3.554,15.912-3.554,18.937.566,7.851.566,7.851-.171,8.851-.04,15.821c0,0-10.915,3.682-19.332,1.052a77.992,77.992,0,0,1-1.315-16.438,49.588,49.588,0,0,1,1.055-20.121,41.7,41.7,0,0,1-.921-11.047,56.89,56.89,0,0,1,2.367-11.573s-1.914-18.586-.993-29.238A163.265,163.265,0,0,1,797,536.6l.132-5a25.022,25.022,0,0,1-2.1-11.047,18.041,18.041,0,0,0-2.1-9.863l1.052-16.044L806.1,478.026Z" transform="translate(-777.639 -472.355)" fill="#3a5870"/>
            <path id="Trazado_742817" data-name="Trazado 742817" d="M713.1,740.887c.187-1.192.244-2.325.333-3.418l-12.807-7a22.6,22.6,0,0,0-.718,3.359Z" transform="translate(-697.081 -696.347)" fill="#e4edf4"/>
            <path id="Trazado_742818" data-name="Trazado 742818" d="M1170.373,754.79l-13.759,2.376a27.763,27.763,0,0,1,.366,2.885l13.824-2.5A20.577,20.577,0,0,0,1170.373,754.79Z" transform="translate(-1093.416 -717.456)" fill="#e4edf4"/>
            <path id="Trazado_742819" data-name="Trazado 742819" d="M956.7,535.42h-6.919a.115.115,0,0,1,0-.231H956.7a.115.115,0,0,1,0,.231Z" transform="translate(-913.827 -526.883)" fill="#233a49"/>
            <path id="Trazado_742820" data-name="Trazado 742820" d="M971.069,1048.865h-5.394a.115.115,0,1,1,0-.231h5.394a.115.115,0,1,1,0,.231Z" transform="translate(-927.616 -972.458)" fill="#233a49"/>
            <path id="Trazado_742821" data-name="Trazado 742821" d="M1024.691,915.713h-.006c-7.956-.424-13.808-.6-18.418-.555a.113.113,0,0,1-.117-.114.115.115,0,0,1,.114-.116c4.614-.046,10.472.13,18.433.555a.115.115,0,0,1-.006.231Z" transform="translate(-962.841 -856.42)" fill="#233a49"/>
            <path id="Trazado_742822" data-name="Trazado 742822" d="M826.489,918.456a.115.115,0,0,1-.02-.229c.045-.008,4.65-.809,11.871-1.395l.992-.081c1.794-.147,3.488-.286,5.316-.39a.115.115,0,1,1,.013.23c-1.826.1-3.519.242-5.311.389l-.992.081c-7.209.585-11.8,1.384-11.85,1.392Z" transform="translate(-806.829 -857.671)" fill="#233a49"/>
            <path id="Trazado_742823" data-name="Trazado 742823" d="M1025.781,587.263h-22.22c0,2.217.022,4.348.128,6.537l18.64.17Z" transform="translate(-960.594 -572.074)" fill="#e4edf4"/>
            <path id="Trazado_742824" data-name="Trazado 742824" d="M783.411,587.263l4.488,6.312,17.952.163v-6.476Z" transform="translate(-769.545 -572.074)" fill="#e4edf4"/>
            <path id="Trazado_742825" data-name="Trazado 742825" d="M815.619,635.141l1.118,1.5,17.406.108c0-.52-.342-1.029-.342-1.559Z" transform="translate(-797.496 -613.623)" fill="#d66371"/>
            <path id="Trazado_742826" data-name="Trazado 742826" d="M1022.893,635.648l-18.758-.046c.072.529.123,1.057.156,1.586l17.78.112Z" transform="translate(-961.093 -614.023)" fill="#d66371"/>
            <rect id="Rectángulo_313345" data-name="Rectángulo 313345" width="12.526" height="14.139" rx="5.211" transform="translate(46.019 27.617)" fill="#2f495b"/>
            <path id="Rectángulo_313346" data-name="Rectángulo 313346" d="M5.211,0H8.2a5.21,5.21,0,0,1,5.21,5.21V7.647A5.211,5.211,0,0,1,8.2,12.857H5.211A5.211,5.211,0,0,1,0,7.647V5.211A5.211,5.211,0,0,1,5.211,0Z" transform="translate(20.176 27.912)" fill="#2f495b"/>
            <path id="Trazado_742827" data-name="Trazado 742827" d="M1040.493,723.944H1028.51a.115.115,0,1,1,0-.231h11.984a.115.115,0,0,1,0,.231Z" transform="translate(-982.145 -690.487)" fill="#233a49"/>
            <path id="Trazado_742828" data-name="Trazado 742828" d="M844.595,720.182H831.526a.115.115,0,0,1,0-.231h13.068a.115.115,0,0,1,0,.231Z" transform="translate(-811.2 -687.223)" fill="#233a49"/>
            <path id="Trazado_742829" data-name="Trazado 742829" d="M796.73,1344.44a41.7,41.7,0,0,0,.921,11.047,35.79,35.79,0,0,0-1.131,5.806l21.336,1.455c.72-5.1,2.038-12.386,2.414-14.362.334-1.754-.6-6-.828-10.047l-21.451-1.462A48.087,48.087,0,0,0,796.73,1344.44Z" transform="translate(-780.921 -1222.599)" fill="#233a49"/>
            <path id="Trazado_742830" data-name="Trazado 742830" d="M1032.266,1361.336c.09-4.25-.842-9.31-1.06-9.271,1.75-3.251.529-11.91-.274-17.162l-22.553,1.746c.581,3.747.865,6.343.865,6.343a83.246,83.246,0,0,0,2.762,13.545l-.523,4.623Z" transform="translate(-964.776 -1220.887)" fill="#233a49"/>
            <path id="Trazado_742831" data-name="Trazado 742831" d="M844.565,871.142a.115.115,0,0,1-.1-.063c-1.573-3.069-1.493-8.446-1.492-8.5a.115.115,0,0,1,.115-.113h0a.116.116,0,0,1,.113.118c0,.053-.08,5.373,1.467,8.39a.115.115,0,0,1-.05.155A.117.117,0,0,1,844.565,871.142Z" transform="translate(-821.23 -810.899)" fill="#233a49"/>
            <path id="Trazado_742832" data-name="Trazado 742832" d="M864.318,880.762a.115.115,0,0,1-.1-.054,10.235,10.235,0,0,1-1.229-4.224,20.362,20.362,0,0,1-.128-2.465.115.115,0,0,1,.231.006c0,.043-.089,4.315,1.322,6.56a.116.116,0,0,1-.036.159A.114.114,0,0,1,864.318,880.762Z" transform="translate(-838.493 -820.827)" fill="#233a49"/>
            <path id="Trazado_742833" data-name="Trazado 742833" d="M824.091,871.661a.116.116,0,0,1-.115-.1,10.267,10.267,0,0,1,1.039-6.362c.041-.077.074-.138.087-.17a.115.115,0,0,1,.214.086c-.017.044-.049.1-.1.193a10.045,10.045,0,0,0-1.013,6.228.115.115,0,0,1-.1.128Z" transform="translate(-804.669 -813.057)" fill="#233a49"/>
            <path id="Trazado_742834" data-name="Trazado 742834" d="M844.547,934.837a.115.115,0,0,1-.115-.1,13.053,13.053,0,0,1,2.377-9.177.115.115,0,0,1,.177.148,12.817,12.817,0,0,0-2.325,9,.115.115,0,0,1-.1.127Z" transform="translate(-822.429 -865.614)" fill="#233a49"/>
            <path id="Trazado_742835" data-name="Trazado 742835" d="M881.379,930.794a.116.116,0,0,1-.113-.092,14.23,14.23,0,0,1,.813-7.731.115.115,0,1,1,.211.094,13.985,13.985,0,0,0-.8,7.59.115.115,0,0,1-.09.136Z" transform="translate(-854.264 -863.347)" fill="#233a49"/>
            <path id="Trazado_742836" data-name="Trazado 742836" d="M1079.373,850.8a.117.117,0,0,1-.055-.014.115.115,0,0,1-.047-.157,21.241,21.241,0,0,0,1.893-9.936.115.115,0,0,1,.112-.119.113.113,0,0,1,.119.112,21.477,21.477,0,0,1-1.921,10.054A.116.116,0,0,1,1079.373,850.8Z" transform="translate(-1026.285 -791.905)" fill="#233a49"/>
            <path id="Trazado_742837" data-name="Trazado 742837" d="M1104.866,864.3a.115.115,0,0,1-.1-.163,33.487,33.487,0,0,0,2.407-8.038.115.115,0,1,1,.229.028,33.739,33.739,0,0,1-2.426,8.1A.115.115,0,0,1,1104.866,864.3Z" transform="translate(-1048.409 -805.286)" fill="#233a49"/>
            <path id="Trazado_742838" data-name="Trazado 742838" d="M1126.2,927.286a.115.115,0,0,1-.115-.115,18.854,18.854,0,0,0-2.17-8.818.115.115,0,1,1,.2-.118,18.816,18.816,0,0,1,2.2,8.935.115.115,0,0,1-.115.116Z" transform="translate(-1065.028 -859.247)" fill="#233a49"/>
            <path id="Trazado_742839" data-name="Trazado 742839" d="M1105.442,923.947h-.017a.115.115,0,0,1-.1-.131,18.339,18.339,0,0,0-.572-6.608.115.115,0,0,1,.222-.064,18.591,18.591,0,0,1,.579,6.707A.115.115,0,0,1,1105.442,923.947Z" transform="translate(-1048.409 -858.275)" fill="#233a49"/>
            <path id="Trazado_742840" data-name="Trazado 742840" d="M1081.86,926.338a.116.116,0,0,1-.113-.141c.069-.3.14-.6.211-.9.621-2.647,1.264-5.383.579-8.215a.115.115,0,1,1,.224-.054c.7,2.885.049,5.649-.578,8.322q-.107.452-.21.9A.115.115,0,0,1,1081.86,926.338Z" transform="translate(-1028.443 -858.168)" fill="#233a49"/>
            <path id="Trazado_742841" data-name="Trazado 742841" d="M866.968,1634.872a.115.115,0,0,1-.078-.2c1.64-1.514,5.786-1.947,6.328-2l4.864-6.675a.115.115,0,0,1,.187.136l-4.894,6.717a.115.115,0,0,1-.083.047c-.046,0-4.583.409-6.244,1.943A.116.116,0,0,1,866.968,1634.872Z" transform="translate(-841.957 -1473.463)" fill="#233a49"/>
            <path id="Trazado_742842" data-name="Trazado 742842" d="M996.924,1165.605a.116.116,0,0,1-.1-.051,40.219,40.219,0,0,1-4.619-10.952.115.115,0,0,1,.224-.055,39.962,39.962,0,0,0,4.586,10.878.115.115,0,0,1-.1.18Z" transform="translate(-950.74 -1064.295)" fill="#233a49"/>
            <path id="Trazado_742843" data-name="Trazado 742843" d="M774.106,574.534a.115.115,0,0,1-.1-.05l-7.5-10.857a.115.115,0,0,1,.19-.131l7.5,10.858a.115.115,0,0,1-.095.181Z" transform="translate(-754.865 -551.405)" fill="#233a49"/>
            <path id="Trazado_742844" data-name="Trazado 742844" d="M1136.328,571.8a.115.115,0,0,1-.1-.172l6.866-12.259a.115.115,0,1,1,.2.113l-6.866,12.259A.115.115,0,0,1,1136.328,571.8Z" transform="translate(-1075.712 -547.816)" fill="#233a49"/>
            <path id="Trazado_742845" data-name="Trazado 742845" d="M801.47,663.923a.122.122,0,0,1-.032,0,.116.116,0,0,1-.079-.143,76.55,76.55,0,0,0,2.305-13.75,33.278,33.278,0,0,1,.583-4.358.115.115,0,1,1,.222.062,33.332,33.332,0,0,0-.575,4.319,76.73,76.73,0,0,1-2.313,13.791A.115.115,0,0,1,801.47,663.923Z" transform="translate(-785.117 -622.685)" fill="#233a49"/>
            <path id="Trazado_742846" data-name="Trazado 742846" d="M1137.625,661.671a.115.115,0,0,1-.114-.1l-1.3-9.388a.115.115,0,0,1,.229-.032l1.3,9.388a.115.115,0,0,1-.1.13Z" transform="translate(-1075.713 -628.298)" fill="#233a49"/>
            <path id="Trazado_742847" data-name="Trazado 742847" d="M954.668,587.265h0l-5.326-.049a.115.115,0,0,1-.114-.116c.195-34.706-2.454-76.765-2.481-77.186a.115.115,0,0,1,.23-.015c.027.421,2.671,42.394,2.482,77.087l5.1.047c.028-1.689.34-21.4-.222-32.08-.348-6.615-.254-10.769-.155-15.166.068-3,.138-6.106.056-10.087-.2-9.558.005-19.694.007-19.8a.115.115,0,0,1,.115-.113h0a.115.115,0,0,1,.113.118c0,.1-.2,10.234-.007,19.786.081,3.986.011,7.092-.056,10.1-.1,4.393-.193,8.543.155,15.149.585,11.119.224,32,.22,32.211A.116.116,0,0,1,954.668,587.265Z" transform="translate(-911.289 -504.843)" fill="#233a49"/>
          </g>
          <path id="Trazado_742848" data-name="Trazado 742848" d="M804.469,1408.951l-.017,0a.092.092,0,0,1-.074-.108A41.664,41.664,0,0,1,808,1398.427a.092.092,0,0,1,.164.086,41.466,41.466,0,0,0-3.607,10.363A.092.092,0,0,1,804.469,1408.951Z" transform="translate(-787.739 -1275.971)" fill="#101e26"/>
          <path id="Trazado_742849" data-name="Trazado 742849" d="M815.412,1224.021H815.4a.092.092,0,0,1-.081-.1l1.509-12.493a.092.092,0,0,1,.183.022L815.5,1223.94A.092.092,0,0,1,815.412,1224.021Z" transform="translate(-797.236 -1113.66)" fill="#233a49"/>
          <path id="Trazado_742850" data-name="Trazado 742850" d="M1161.058,1467.873a.091.091,0,0,1-.067-.029.093.093,0,0,1,0-.131,12.349,12.349,0,0,0,2.543-3.618.092.092,0,0,1,.17.073,12.542,12.542,0,0,1-2.586,3.68A.092.092,0,0,1,1161.058,1467.873Z" transform="translate(-1097.192 -1332.953)" fill="#101e26"/>
          <path id="Trazado_742851" data-name="Trazado 742851" d="M1035.206,1449.269h-.015a.092.092,0,0,1-.076-.106l1.249-7.43a.092.092,0,0,1,.182.031l-1.25,7.43A.092.092,0,0,1,1035.206,1449.269Z" transform="translate(-987.976 -1313.527)" fill="#101e26"/>
          <path id="Trazado_742852" data-name="Trazado 742852" d="M1014.314,1375.5a.092.092,0,0,1-.071-.152c.072-.086,1.817-2.107,6.529-3.089a.092.092,0,1,1,.038.181,15.292,15.292,0,0,0-4.974,1.881,6.63,6.63,0,0,0-1.451,1.146A.092.092,0,0,1,1014.314,1375.5Z" transform="translate(-969.847 -1253.308)" fill="#101e26"/>
          <path id="Trazado_742853" data-name="Trazado 742853" d="M1051.958,1715.76a.092.092,0,0,1-.017-.183,25.776,25.776,0,0,0,8.841-3.8.092.092,0,1,1,.107.15,25.974,25.974,0,0,1-8.913,3.829Z" transform="translate(-1002.514 -1547.931)" fill="#233a49"/>
          <path id="Trazado_742854" data-name="Trazado 742854" d="M1126.283,886.459a.092.092,0,0,1-.054-.167l1.742-1.249a.092.092,0,1,1,.108.15l-1.742,1.249A.093.093,0,0,1,1126.283,886.459Z" transform="translate(-1067.015 -830.477)" fill="#233a49"/>
        </g>
        <g id="Grupo_932976" data-name="Grupo 932976" transform="translate(102.94 4.189)">
          <path id="Trazado_742855" data-name="Trazado 742855" d="M907.676,302.692s-1.727-10.781,1.151-11.741a3.912,3.912,0,0,1,3.069-2.993c5.525-1.611,7.878.1,9.4.5,1.611.422,3.214-.174,4.182.691,1.074.959,1.381,6.484,1.228,8.249s-.767,5.794-.767,5.794Z" transform="translate(-906.824 -287.28)" fill="#914837"/>
          <g id="Grupo_932975" data-name="Grupo 932975" transform="translate(0 3.018)">
            <path id="Trazado_742856" data-name="Trazado 742856" d="M931.7,461.288s-2.181-1.523-.857-2.727c1.833-1.666,9.154-1.551,10.733-.776s.115,3.072-.46,3.617Z" transform="translate(-927.005 -437.793)" fill="#233a49"/>
            <g id="Grupo_932974" data-name="Grupo 932974" transform="translate(4.591 17.319)">
              <path id="Trazado_742857" data-name="Trazado 742857" d="M939.336,441.132l.1,6.177c.954,1.3,4.436,3.058,4.436,3.058s4.216-1.581,4.98-2.944l.142-2.168Z" transform="translate(-939.336 -441.132)" fill="#f3aa8b"/>
            </g>
            <path id="Trazado_742858" data-name="Trazado 742858" d="M933.415,324.782c-.393,6.356-5.324,8.9-8.37,8.878s-7.665-2.666-8.2-9.011c-.808-9.617,1.837-14.536,8.377-14.536S934,315.33,933.415,324.782Z" transform="translate(-915.106 -310.113)" fill="#f3aa8b"/>
            <path id="Trazado_742859" data-name="Trazado 742859" d="M1003.453,396.422c0-.54.28-.976.615-.973s.6.443.6.983-.28.976-.615.973S1003.448,396.962,1003.453,396.422Z" transform="translate(-990.386 -384.169)" fill="#3b2413"/>
            <path id="Trazado_742860" data-name="Trazado 742860" d="M948.776,396.024c0-.54.28-.976.615-.973s.6.443.6.983-.28.975-.615.973S948.771,396.564,948.776,396.024Z" transform="translate(-942.937 -383.823)" fill="#3b2413"/>
            <path id="Trazado_742861" data-name="Trazado 742861" d="M977.277,399.728a.155.155,0,0,1-.069-.016l-.778-.387a.155.155,0,0,1-.086-.155l.461-4.753a.156.156,0,1,1,.31.03l-.45,4.646.682.339a.156.156,0,0,1-.07.3Z" transform="translate(-966.86 -383.151)" fill="#c48974"/>
            <path id="Trazado_742862" data-name="Trazado 742862" d="M998.561,378.7c-.055.348.516.594,1.625.77s2.334.216,2.39-.133-1.105-.8-2.214-.975S998.616,378.353,998.561,378.7Z" transform="translate(-986.138 -369.28)" fill="#914837"/>
            <path id="Trazado_742863" data-name="Trazado 742863" d="M933.373,377.639c.07.345,1.422.225,2.522,0s1.532-.463,1.462-.809-.584-.513-1.684-.291S933.3,377.293,933.373,377.639Z" transform="translate(-929.567 -367.674)" fill="#914837"/>
            <path id="Trazado_742864" data-name="Trazado 742864" d="M904.746,402.645c.457,1.39,1.5,2.3,2.325,2.024s1.128-1.619.671-3.008-1.082-2.4-1.909-2.131A2.555,2.555,0,0,0,904.746,402.645Z" transform="translate(-904.603 -387.672)" fill="#f3aa8b"/>
            <path id="Trazado_742865" data-name="Trazado 742865" d="M1033.538,402.645c-.457,1.39-1.5,2.3-2.325,2.024s-1.128-1.619-.671-3.008,1.082-2.4,1.909-2.131A2.555,2.555,0,0,1,1033.538,402.645Z" transform="translate(-1013.709 -387.672)" fill="#f3aa8b"/>
          </g>
          <path id="Trazado_742866" data-name="Trazado 742866" d="M970.295,447.777a3.483,3.483,0,0,1-1.476-.348.156.156,0,1,1,.132-.283,2.854,2.854,0,0,0,2.631,0,.156.156,0,1,1,.14.279A3.142,3.142,0,0,1,970.295,447.777Z" transform="translate(-960.252 -426.002)" fill="#c48974"/>
          <path id="Trazado_742867" data-name="Trazado 742867" d="M924,309.831c-6.142,0-9,3.326-8.683,11.71l.476,1.816s.891-8.636,3.906-9.341c1.916-.448,3.042.336,4.507.3s3.2-.754,4.582-.411c1.953.486,2.892,3.849,2.892,9.453l.627-1.691C932.453,313.48,930.1,309.831,924,309.831Z" transform="translate(-913.878 -306.85)" fill="#914837"/>
        </g>
        <g id="Grupo_932977" data-name="Grupo 932977" transform="translate(100.446 0)">
          <path id="Trazado_742868" data-name="Trazado 742868" d="M889.07,272.873a9.644,9.644,0,1,1,19.24,1.37l2.835,3.749a139.1,139.1,0,0,1-25.412-1.809h0Z" transform="translate(-885.733 -262.813)" fill="#eac759"/>
          <path id="Rectángulo_313347" data-name="Rectángulo 313347" d="M0,0H2.918a0,0,0,0,1,0,0V6.257a0,0,0,0,1,0,0h0A2.918,2.918,0,0,1,0,3.34V0A0,0,0,0,1,0,0Z" transform="matrix(-0.997, -0.071, 0.071, -0.997, 23.627, 14.354)" fill="#eac759"/>
          <path id="Rectángulo_313348" data-name="Rectángulo 313348" d="M0,0H2.918a0,0,0,0,1,0,0V3.34A2.918,2.918,0,0,1,0,6.257H0a0,0,0,0,1,0,0V0A0,0,0,0,1,0,0Z" transform="matrix(-0.997, -0.071, 0.071, -0.997, 4.779, 13.012)" fill="#eac759"/>
          <path id="Rectángulo_313349" data-name="Rectángulo 313349" d="M0,0H4.464a0,0,0,0,1,0,0V0A1.811,1.811,0,0,1,2.653,1.811H1.811A1.811,1.811,0,0,1,0,0V0A0,0,0,0,1,0,0Z" transform="translate(15.809 2.123) rotate(-175.928)" fill="#eac759"/>
          <path id="Trazado_742869" data-name="Trazado 742869" d="M945.613,277.022h0a.129.129,0,0,1-.126-.133,4.935,4.935,0,0,0-.421-2.137l0-.005a4.961,4.961,0,0,0-.735-1.18,9.241,9.241,0,0,1-1.51-2.394,13.549,13.549,0,0,1-.838-5.667.129.129,0,1,1,.258.018,13.272,13.272,0,0,0,.819,5.55,8.988,8.988,0,0,0,1.469,2.327,5.214,5.214,0,0,1,.772,1.238.148.148,0,0,1,.007.016,5.2,5.2,0,0,1,.439,2.241A.129.129,0,0,1,945.613,277.022Zm-13.041-.929h-.015a.129.129,0,0,1-.113-.143,5.194,5.194,0,0,1,.743-2.14.13.13,0,0,1,.025-.041,5.214,5.214,0,0,1,.933-1.106,8.989,8.989,0,0,0,1.784-2.1,13.273,13.273,0,0,0,1.6-5.378.129.129,0,1,1,.258.018,13.551,13.551,0,0,1-1.632,5.491,9.243,9.243,0,0,1-1.834,2.156,4.952,4.952,0,0,0-.9,1.065l0,0a4.938,4.938,0,0,0-.719,2.055A.129.129,0,0,1,932.572,276.093Z" transform="translate(-926.268 -263.816)" fill="#c4a345"/>
          <path id="Trazado_742870" data-name="Trazado 742870" d="M1010.887,272.083h-.009a.129.129,0,0,1-.12-.138l.122-1.711a.129.129,0,0,1,.258.018l-.122,1.711A.129.129,0,0,1,1010.887,272.083Z" transform="translate(-994.231 -268.193)" fill="#c4a345"/>
          <path id="Trazado_742871" data-name="Trazado 742871" d="M962.558,268.678h-.009a.129.129,0,0,1-.12-.138l.121-1.706a.129.129,0,1,1,.258.018l-.121,1.706A.129.129,0,0,1,962.558,268.678Z" transform="translate(-952.291 -265.244)" fill="#c4a345"/>
        </g>
        <g id="Grupo_932979" data-name="Grupo 932979" transform="translate(89.12 34.176)">
          <g id="Grupo_932978" data-name="Grupo 932978" transform="translate(0.213)">
            <path id="Trazado_742872" data-name="Trazado 742872" d="M864.489,923.194a239.793,239.793,0,0,1-43.772,0c-.628-.062-.922-.969-.73-1.67l.916-3.352c.187-.684.772-.75,1.38-.852a122.3,122.3,0,0,1,40.64,0c.607.106,1.193.168,1.38.852l.916,3.352C865.411,922.226,865.118,923.139,864.489,923.194Z" transform="translate(-817.515 -862.55)" fill="#ad8e42"/>
            <path id="Trazado_742873" data-name="Trazado 742873" d="M803.544,525.847c-.861.919,1.4,5.309,3.33,9.474a18.393,18.393,0,0,1,1.981,7.958s1.352,11.32.309,18.513c-.861,5.943-3.768,14.856-4.788,18.346-.946,3.238-2.713,12.144-2.713,12.144l2.455,4.306s3.5-11.55,4.479-14.987c1.062-3.719,4.616-13.867,5.477-19.724,1.037-7.05-.159-18.155-.159-18.155,0-1.892-.94-5.439-2.791-9.722-2.019-4.672-2.842-9.445-4.019-9.647A4.516,4.516,0,0,0,803.544,525.847Z" transform="translate(-801.664 -522.976)" fill="#ceac4e"/>
            <path id="Trazado_742874" data-name="Trazado 742874" d="M1088.011,515.859c-.344-.589-3.488-1.622-4.192-1.723-.351-.05.118,5.082-.574,9.761s-1.557,9.008-1.557,10.985a133.845,133.845,0,0,0,1.7,21.367c1.3,7.077,4.244,13.517,5.555,19.87,1.175,5.693,1.621,12.26,3.058,16.709l2.613-5.2c-.719-2.789-.965-8.747-1.665-12.8-1.022-5.922-3.7-12.133-4.821-19.178a137.805,137.805,0,0,1-1.381-21.212c0-2.27.8-6.465,1.321-10.14A28.67,28.67,0,0,0,1088.011,515.859Z" transform="translate(-1044.674 -514.136)" fill="#ceac4e"/>
            <path id="Trazado_742875" data-name="Trazado 742875" d="M888.629,657.978h-4.785a139.557,139.557,0,0,0-22.587,0h-4.8a1.257,1.257,0,0,1-1.258-1.258v-3.645a1.256,1.256,0,0,1,1.258-1.258h4.885a153.1,153.1,0,0,1,22.42,0s5.973.007,6.045.02a1.259,1.259,0,0,1,1.035,1.239l.086,3.645a1.259,1.259,0,0,1-.99,1.23C889.85,657.969,888.721,657.978,888.629,657.978Z" transform="translate(-848.121 -633.26)" fill="#eac759"/>
            <path id="Trazado_742876" data-name="Trazado 742876" d="M1005.265,656.256h-.291a1.414,1.414,0,0,1-1.414-1.414h.68a.734.734,0,0,0,.734.734h.291a1.309,1.309,0,0,0,1.307-1.307v-3.775a1.309,1.309,0,0,0-1.307-1.307h-.291a.734.734,0,0,0-.734.734h-.68a1.414,1.414,0,0,1,1.414-1.414h.291a1.99,1.99,0,0,1,1.988,1.988v3.775A1.99,1.99,0,0,1,1005.265,656.256Z" transform="translate(-976.872 -630.744)" fill="#e4edf4"/>
            <path id="Trazado_742877" data-name="Trazado 742877" d="M1003.9,665.223a.279.279,0,0,1-.279-.279v-3.969a.279.279,0,1,1,.559,0v3.969A.279.279,0,0,1,1003.9,665.223Z" transform="translate(-976.928 -641.322)" fill="#a08338"/>
            <path id="Trazado_742878" data-name="Trazado 742878" d="M959.693,918.347a2.63,2.63,0,0,1-2.628-2.576l-.1-4.93a2.631,2.631,0,0,1,2.576-2.684l.381-.008a1.881,1.881,0,0,1,1.919,1.842.478.478,0,1,1-.957.019.924.924,0,0,0-.943-.905l-.381.008a1.673,1.673,0,0,0-1.639,1.707l.1,4.93a1.674,1.674,0,0,0,1.707,1.639l.381-.008a.925.925,0,0,0,.905-.943.478.478,0,1,1,.957-.02,1.881,1.881,0,0,1-1.842,1.919l-.381.008Z" transform="translate(-936.435 -856.066)" fill="#e4edf4"/>
            <path id="Trazado_742879" data-name="Trazado 742879" d="M988.124,928.617a.348.348,0,0,1-.348-.341l-.117-5.722a.348.348,0,1,1,.7-.014l.117,5.722a.348.348,0,0,1-.341.355Z" transform="translate(-963.073 -868.259)" fill="#a08338"/>
            <path id="Trazado_742880" data-name="Trazado 742880" d="M851.359,782.8l-.088,0a.478.478,0,0,1,.052-.956.655.655,0,0,0,.69-.619l.017-.307a1.262,1.262,0,0,0-1.191-1.327l-3.98-.214a1.26,1.26,0,0,0-1.327,1.191l-.017.307a.656.656,0,0,0,.619.69.478.478,0,0,1-.052.956,1.614,1.614,0,0,1-1.523-1.7l.017-.307a2.224,2.224,0,0,1,2.334-2.1l3.98.214a2.221,2.221,0,0,1,2.1,2.334l-.017.307A1.615,1.615,0,0,1,851.359,782.8Z" transform="translate(-838.886 -743.483)" fill="#e4edf4"/>
            <path id="Trazado_742881" data-name="Trazado 742881" d="M860.783,804.268h-.019l-4.619-.249a.348.348,0,1,1,.037-.7l4.619.249a.348.348,0,0,1-.018.7Z" transform="translate(-848.657 -765.097)" fill="#a08338"/>
            <path id="Trazado_742882" data-name="Trazado 742882" d="M1076.878,770.316a1.612,1.612,0,0,1-1.607-1.505l-.021-.307a2.221,2.221,0,0,1,2.066-2.36l3.977-.265a2.22,2.22,0,0,1,2.36,2.066l.021.307a1.613,1.613,0,0,1-1.5,1.716.478.478,0,0,1-.063-.955.656.656,0,0,0,.61-.7l-.021-.307a1.261,1.261,0,0,0-1.342-1.175l-3.977.265a1.263,1.263,0,0,0-1.175,1.342l.021.307a.655.655,0,0,0,.7.611.478.478,0,1,1,.063.955C1076.951,770.315,1076.914,770.316,1076.878,770.316Z" transform="translate(-1039.083 -732.598)" fill="#e4edf4"/>
            <path id="Trazado_742883" data-name="Trazado 742883" d="M1088.048,791.744a.348.348,0,0,1-.023-.7l4.616-.307a.348.348,0,0,1,.046.695l-4.616.307Z" transform="translate(-1049.89 -754.178)" fill="#a08338"/>
          </g>
          <path id="Trazado_742884" data-name="Trazado 742884" d="M800.45,1030.407c.517.043,5.326,14.025,10.106,15.188s13.96,6.23,14.19,6.718a10.948,10.948,0,0,1-.6,4.414c-.359.287-9.84-5.835-14.75-7.127s-9.151-12.36-9.259-12.962S799.933,1030.365,800.45,1030.407Z" transform="translate(-800.05 -962.164)" fill="#eac759"/>
          <path id="Trazado_742885" data-name="Trazado 742885" d="M1016.911,1053.413c-.517-.215-5.3,11.5-10.081,12.661s-13.547,5.354-14.035,5.642-.033,4.809.258,5.039,9.9-5.9,14.81-7.192,9.091-9.69,9.392-10.723S1017.428,1053.628,1016.911,1053.413Z" transform="translate(-967.13 -982.126)" fill="#eac759"/>
        </g>
        <g id="Grupo_933009" data-name="Grupo 933009" transform="translate(0 9.315)">
          <g id="Grupo_932982" data-name="Grupo 932982">
            <rect id="Rectángulo_313350" data-name="Rectángulo 313350" width="44.779" height="0.397" transform="translate(51.822 19.645) rotate(-21.74)" fill="#3a5870"/>
            <circle id="Elipse_12167" data-name="Elipse 12167" cx="1.443" cy="1.443" r="1.443" transform="translate(92.047 1.802)" fill="#68a4e0"/>
            <g id="Grupo_932981" data-name="Grupo 932981">
              <path id="Trazado_742886" data-name="Trazado 742886" d="M152.346,379.065a26.5,26.5,0,1,1,26.5-26.5A26.531,26.531,0,0,1,152.346,379.065Zm0-52.5a26,26,0,1,0,26,26A26.027,26.027,0,0,0,152.346,326.566Z" transform="translate(-125.845 -326.062)" fill="#3a5870"/>
              <g id="Grupo_932980" data-name="Grupo 932980" transform="translate(7.032 12.379)">
                <path id="Trazado_742887" data-name="Trazado 742887" d="M213.255,445.648a14.74,14.74,0,0,0-29.48,0l-4.729,5.407h38.938Z" transform="translate(-179.046 -429.428)" fill="#eac759"/>
                <path id="Rectángulo_313351" data-name="Rectángulo 313351" d="M4.459,0h0a0,0,0,0,1,0,0V9.564a0,0,0,0,1,0,0H0a0,0,0,0,1,0,0v-5.1A4.459,4.459,0,0,1,4.459,0Z" transform="translate(2.81 11.001)" fill="#eac759"/>
                <path id="Rectángulo_313352" data-name="Rectángulo 313352" d="M0,0H0A4.459,4.459,0,0,1,4.459,4.459v5.1a0,0,0,0,1,0,0H0a0,0,0,0,1,0,0V0A0,0,0,0,1,0,0Z" transform="translate(31.69 11.001)" fill="#eac759"/>
                <path id="Rectángulo_313353" data-name="Rectángulo 313353" d="M2.768,0H4.055A2.768,2.768,0,0,1,6.823,2.768v0a0,0,0,0,1,0,0H0a0,0,0,0,1,0,0v0A2.768,2.768,0,0,1,2.768,0Z" transform="translate(16.057)" fill="#eac759"/>
                <path id="Trazado_742888" data-name="Trazado 742888" d="M249.447,451.592h-.009a.2.2,0,0,1-.189-.206,7.933,7.933,0,0,1,.9-3.344.19.19,0,0,1,.034-.065,7.978,7.978,0,0,1,1.3-1.788,13.739,13.739,0,0,0,2.492-3.388,20.284,20.284,0,0,0,1.851-8.372.2.2,0,0,1,.4,0,20.712,20.712,0,0,1-1.892,8.548,14.126,14.126,0,0,1-2.561,3.486,7.581,7.581,0,0,0-1.249,1.719l0,.008a7.546,7.546,0,0,0-.873,3.212A.2.2,0,0,1,249.447,451.592Zm19.983,0a.2.2,0,0,1-.2-.189,7.544,7.544,0,0,0-.873-3.211l0-.007a7.582,7.582,0,0,0-1.249-1.72,14.123,14.123,0,0,1-2.561-3.486,20.71,20.71,0,0,1-1.893-8.548.2.2,0,1,1,.4,0A20.286,20.286,0,0,0,264.9,442.8a13.741,13.741,0,0,0,2.492,3.388,7.975,7.975,0,0,1,1.312,1.8.2.2,0,0,1,.012.023,7.938,7.938,0,0,1,.913,3.367.2.2,0,0,1-.189.206Z" transform="translate(-239.97 -432.312)" fill="#c4a345"/>
                <path id="Trazado_742889" data-name="Trazado 742889" d="M288.112,440.513a.2.2,0,0,1-.2-.2v-2.622a.2.2,0,0,1,.4,0v2.622A.2.2,0,0,1,288.112,440.513Z" transform="translate(-273.523 -435.145)" fill="#c4a345"/>
                <path id="Trazado_742890" data-name="Trazado 742890" d="M362.164,440.568a.2.2,0,0,1-.2-.2v-2.614a.2.2,0,0,1,.4,0v2.614A.2.2,0,0,1,362.164,440.568Z" transform="translate(-337.787 -435.199)" fill="#c4a345"/>
                <path id="Trazado_742891" data-name="Trazado 742891" d="M217.984,583.326s-5.52,2.167-19.477,2.167-19.461-2.167-19.461-2.167Z" transform="translate(-179.046 -561.698)" fill="#c4a345"/>
              </g>
            </g>
          </g>
          <g id="Grupo_932986" data-name="Grupo 932986" transform="translate(131.311)">
            <rect id="Rectángulo_313354" data-name="Rectángulo 313354" width="0.397" height="47.413" transform="translate(1.395 10.578) rotate(-76.024)" fill="#3a5870"/>
            <circle id="Elipse_12168" data-name="Elipse 12168" cx="1.443" cy="1.443" r="1.443" transform="translate(0 8.943)" fill="#68a4e0"/>
            <g id="Grupo_932985" data-name="Grupo 932985" transform="translate(46.788)">
              <g id="Grupo_932984" data-name="Grupo 932984" transform="translate(7.08 15.841)">
                <path id="Trazado_742892" data-name="Trazado 742892" d="M1562.763,459.178c.307-.284,1.517.029,1.543-.389a4.96,4.96,0,0,0-.134-1.245,12.51,12.51,0,0,0-1.81-2.914,3.726,3.726,0,0,0-1.6-1.231,11.445,11.445,0,0,0-2.065-.569c-3.24-.7-6.639-.462-9.856-1.263-.674-.168-1.336-.381-2.014-.535a11.968,11.968,0,0,0-5.158-.029,7.665,7.665,0,0,1-1.339.233,5.391,5.391,0,0,1-1.508-.225,2.171,2.171,0,0,1-.728-.286.839.839,0,0,1-.384-.688,6.83,6.83,0,0,1-2.766,2.492,12.349,12.349,0,0,1-1.961.5,11.175,11.175,0,0,0-1.391.415,3.249,3.249,0,0,0-.922.477,2.753,2.753,0,0,0-.624.762c-.48.814-1.436,2.592-1.307,3.528.041.3.167.649.463.726l.505,3.674a1.713,1.713,0,0,1-1.827-.669,4.614,4.614,0,0,1-.747-1.92,12,12,0,0,1-.315-4.141,5.135,5.135,0,0,1,1.981-3.541c1.273-.887,3-.98,4.188-1.975a7.528,7.528,0,0,0,1.529-2.093,5.455,5.455,0,0,1,1.657-1.977,2.052,2.052,0,0,1,2.422.048c.305.282.484.678.78.97a2.87,2.87,0,0,0,2.714.395,6.855,6.855,0,0,1,2.811-.437c1.425.255,2.725,1.216,4.152,1.462,2.126.367,4.365.071,6.41.758a46.024,46.024,0,0,1,4.2,2.144,18.973,18.973,0,0,1,2.99,1.372c1.62,1.112,2.9,4.69,2.933,6.655.016.8-.619,2.509-1.329,2.539-.8.034-.741-.526-1.54-.521q.021-1.15.041-2.3Z" transform="translate(-1526.747 -445.921)" fill="#233a49"/>
                <path id="Trazado_742893" data-name="Trazado 742893" d="M1639.7,573.49c-3.714,0-5.6,3.688-5.6,3.688a7.484,7.484,0,0,1,11.2,0S1643.41,573.49,1639.7,573.49Z" transform="translate(-1619.908 -556.624)" fill="#d66371"/>
                <path id="Trazado_742894" data-name="Trazado 742894" d="M1579.552,504.09v0h0a90.591,90.591,0,0,0-22.677,0h0v0c-3.284.455-5.147,3.374-5.147,6.909,0,3.851,3.773,6.255,7.624,6.255a4.08,4.08,0,0,0,3.644-1.515v.02c1.487-2.263,2.582-3.189,5.218-3.261,2.636.072,3.73,1,5.218,3.261v-.02a4.08,4.08,0,0,0,3.644,1.515c3.851,0,7.624-2.4,7.624-6.255C1584.7,507.464,1582.837,504.545,1579.552,504.09Z" transform="translate(-1548.426 -495.778)" fill="#e4edf4"/>
                <g id="Grupo_932983" data-name="Grupo 932983" transform="translate(5.121 7.631)">
                  <path id="Trazado_742895" data-name="Trazado 742895" d="M1565.487,518.727a7.272,7.272,0,0,0,1.519,1.088l3.167-12.265q-.679.075-1.358.161v0c-.174.024-.343.057-.508.094Z" transform="translate(-1565.487 -507.031)" fill="#f2f6f9"/>
                  <path id="Trazado_742896" data-name="Trazado 742896" d="M1584.354,519.259l3.4-13.147q-.461.041-.923.087l-3.3,12.775C1583.8,519.082,1584.073,519.177,1584.354,519.259Z" transform="translate(-1581.143 -505.783)" fill="#f2f6f9"/>
                  <path id="Trazado_742897" data-name="Trazado 742897" d="M1678.749,503.624l-2.347,9.089h.006a7.082,7.082,0,0,1,1.909.277l2.4-9.3C1680.062,503.663,1679.405,503.641,1678.749,503.624Z" transform="translate(-1661.74 -503.624)" fill="#f2f6f9"/>
                  <path id="Trazado_742898" data-name="Trazado 742898" d="M1734.336,508.085v0h0c-.292-.037-.585-.07-.878-.1l-3.37,13.048a6.347,6.347,0,0,0,1.771.222c.307,0,.614-.017.918-.047l3.257-12.612A5.7,5.7,0,0,0,1734.336,508.085Z" transform="translate(-1708.33 -507.403)" fill="#f2f6f9"/>
                </g>
                <path id="Rectángulo_313355" data-name="Rectángulo 313355" d="M1.238,0h0a0,0,0,0,1,0,0V4.244a0,0,0,0,1,0,0h0A1.238,1.238,0,0,1,0,3.006V1.238A1.238,1.238,0,0,1,1.238,0Z" transform="translate(2.194 12.756)" fill="#d66371"/>
                <path id="Rectángulo_313356" data-name="Rectángulo 313356" d="M1.238,0h0a0,0,0,0,1,0,0V4.244a0,0,0,0,1,0,0h0A1.238,1.238,0,0,1,0,3.006V1.238A1.238,1.238,0,0,1,1.238,0Z" transform="translate(37.512 17) rotate(180)" fill="#d66371"/>
                <path id="Trazado_742899" data-name="Trazado 742899" d="M1613.345,495.739a90.61,90.61,0,0,0-22.677,0,29.985,29.985,0,0,1,5.613-1.254,42.823,42.823,0,0,1,11.452,0A29.981,29.981,0,0,1,1613.345,495.739Z" transform="translate(-1582.219 -487.729)" fill="#d66371"/>
                <path id="Trazado_742900" data-name="Trazado 742900" d="M1574.122,514.754a4.581,4.581,0,0,1-3.938-1.6.449.449,0,0,1-.082-.094c-1.683-2.56-2.808-3-4.842-3.058-2.484.071-3.463.961-4.842,3.058a.447.447,0,0,1-.082.094,4.581,4.581,0,0,1-3.938,1.6c-3.969,0-8.074-2.508-8.074-6.706,0-3.986,2.155-6.865,5.495-7.349l.046-.008a91.125,91.125,0,0,1,22.79,0l.046.008c3.34.483,5.495,3.363,5.495,7.349C1582.2,512.245,1578.091,514.754,1574.122,514.754Zm-3.332-2.289a.44.44,0,0,1,.056.065,3.659,3.659,0,0,0,3.276,1.325c3.526,0,7.174-2.172,7.174-5.806,0-3.526-1.868-6.062-4.759-6.463l-.034-.006a90.22,90.22,0,0,0-22.486,0l-.034.006c-2.891.4-4.759,2.938-4.759,6.463,0,3.634,3.648,5.806,7.174,5.806a3.66,3.66,0,0,0,3.277-1.325.445.445,0,0,1,.055-.065c1.473-2.219,2.7-3.29,5.518-3.367h.025C1568.093,509.174,1569.317,510.245,1570.79,512.464Z" transform="translate(-1545.472 -492.827)" fill="#c4a345"/>
                <path id="Trazado_742901" data-name="Trazado 742901" d="M1608.718,450.164a.15.15,0,0,1-.15-.15v-3.966a.15.15,0,1,1,.3,0v3.966A.15.15,0,0,1,1608.718,450.164Z" transform="translate(-1597.752 -445.898)" fill="#09151c"/>
              </g>
              <path id="Trazado_742902" data-name="Trazado 742902" d="M1499.684,379.065a26.5,26.5,0,1,1,26.5-26.5A26.532,26.532,0,0,1,1499.684,379.065Zm0-52.5a26,26,0,1,0,26,26A26.027,26.027,0,0,0,1499.684,326.566Z" transform="translate(-1473.183 -326.062)" fill="#3a5870"/>
            </g>
          </g>
          <g id="Grupo_932989" data-name="Grupo 932989" transform="translate(0 59.774)">
            <rect id="Rectángulo_313357" data-name="Rectángulo 313357" width="30.253" height="0.397" transform="translate(47.449 21.645) rotate(-42.151)" fill="#3a5870"/>
            <circle id="Elipse_12169" data-name="Elipse 12169" cx="1.443" cy="1.443" r="1.443" transform="matrix(0.032, -0.999, 0.999, 0.032, 68.522, 2.885)" fill="#68a4e0"/>
            <g id="Grupo_932988" data-name="Grupo 932988" transform="translate(0 10.933)">
              <path id="Trazado_742903" data-name="Trazado 742903" d="M152.346,913.972a26.5,26.5,0,1,1,26.5-26.5A26.531,26.531,0,0,1,152.346,913.972Zm0-52.5a26,26,0,1,0,26,26A26.027,26.027,0,0,0,152.346,861.473Z" transform="translate(-125.845 -860.969)" fill="#3a5870"/>
              <g id="Grupo_932987" data-name="Grupo 932987" transform="translate(12.911 2.789)">
                <path id="Trazado_742904" data-name="Trazado 742904" d="M225.85,1065.539a2.331,2.331,0,1,1,2.331-2.33A2.333,2.333,0,0,1,225.85,1065.539Zm0-4.28a1.95,1.95,0,1,0,1.95,1.95A1.952,1.952,0,0,0,225.85,1061.259Z" transform="translate(-223.52 -1037.242)" fill="#3a5870"/>
                <path id="Trazado_742905" data-name="Trazado 742905" d="M394.225,1064.886a2.331,2.331,0,1,1,2.331-2.331A2.333,2.333,0,0,1,394.225,1064.886Zm0-4.28a1.95,1.95,0,1,0,1.95,1.95A1.952,1.952,0,0,0,394.225,1060.606Z" transform="translate(-369.638 -1036.675)" fill="#3a5870"/>
                <path id="Trazado_742906" data-name="Trazado 742906" d="M291.127,908.53l-11.346-23.754a.842.842,0,0,0-.087-.141,6.307,6.307,0,0,0-1.4,2.319L288.837,909Z" transform="translate(-271.056 -884.296)" fill="#c4a345"/>
                <path id="Trazado_742907" data-name="Trazado 742907" d="M281.165,884.48a.848.848,0,0,0-.1.161l-11.654,24.384,2.6-.161,10.6-22.179C282.2,885.9,282.135,885.066,281.165,884.48Z" transform="translate(-263.341 -884.161)" fill="#c4a345"/>
                <path id="Trazado_742908" data-name="Trazado 742908" d="M272.457,1222.424a2.943,2.943,0,0,1,1.277,1.847l-1.519.656s.086-1.018-1.329-1.881Z" transform="translate(-264.625 -1177.434)" fill="#eac759"/>
                <path id="Trazado_742909" data-name="Trazado 742909" d="M272.291,1058.366s-2.6-2.5-9.3-2.5-9.489,2.669-9.489,2.669c.487.578.3.978.06,1.726H255a74.417,74.417,0,0,1,8-.424,69.631,69.631,0,0,1,8.024.458h1.411A6.17,6.17,0,0,1,272.291,1058.366Z" transform="translate(-249.541 -1032.895)" fill="#54809e"/>
                <path id="Trazado_742910" data-name="Trazado 742910" d="M269.488,1076.5a32.659,32.659,0,0,1-19.24,0,.488.488,0,0,1-.321-.617l.4-1.239a.487.487,0,0,1,.606-.315,30.383,30.383,0,0,0,17.863,0,.487.487,0,0,1,.606.315l.4,1.239A.488.488,0,0,1,269.488,1076.5Z" transform="translate(-246.416 -1048.898)" fill="#eac759"/>
                <path id="Trazado_742911" data-name="Trazado 742911" d="M310.2,962.156h-1.668a.557.557,0,0,0-.483.279l-.834,1.445a.557.557,0,0,0,0,.557l.834,1.445a.557.557,0,0,0,.483.279H310.2a.557.557,0,0,0,.483-.279l.834-1.445a.557.557,0,0,0,0-.557l-.834-1.445A.557.557,0,0,0,310.2,962.156Z" transform="translate(-296.09 -951.569)" fill="#3a5870"/>
                <path id="Trazado_742912" data-name="Trazado 742912" d="M261.265,882.406a.843.843,0,0,0-.705-.339l-.868.031a1.067,1.067,0,0,0-.916.59l-.572,1.146a10.821,10.821,0,0,0-1.141,4.836v19.408h1.87V888.833a10.815,10.815,0,0,1,.872-4.243l.064.135A6.307,6.307,0,0,1,261.265,882.406Z" transform="translate(-252.628 -882.066)" fill="#eac759"/>
                <path id="Trazado_742913" data-name="Trazado 742913" d="M276.965,886.424a.127.127,0,0,1-.054-.012.128.128,0,0,1-.063-.171,8.068,8.068,0,0,1,1.371-2.17.129.129,0,1,1,.187.177,7.827,7.827,0,0,0-1.325,2.1A.129.129,0,0,1,276.965,886.424Z" transform="translate(-269.789 -883.771)" fill="#a08338"/>
                <path id="Trazado_742914" data-name="Trazado 742914" d="M361.4,883.833l-.572-1.146a1.068,1.068,0,0,0-.916-.59l-.868-.031a.844.844,0,0,0-.689.319c.97.586.952,1.594,1.361,2.379l.083-.174a10.816,10.816,0,0,1,.872,4.243v19.244h1.87V888.669A10.82,10.82,0,0,0,361.4,883.833Z" transform="translate(-340.533 -882.066)" fill="#eac759"/>
                <path id="Trazado_742915" data-name="Trazado 742915" d="M359.587,886.424a.129.129,0,0,1-.117-.075,7.83,7.83,0,0,0-1.325-2.1.129.129,0,1,1,.187-.177,8.066,8.066,0,0,1,1.371,2.17.128.128,0,0,1-.063.171A.127.127,0,0,1,359.587,886.424Z" transform="translate(-340.319 -883.771)" fill="#a08338"/>
                <path id="Trazado_742916" data-name="Trazado 742916" d="M272.107,929.411h-17.38a.465.465,0,0,1-.465-.465V927.6a.465.465,0,0,1,.465-.465h17.38a.472.472,0,0,1,.083.007.466.466,0,0,1,.383.458v1.348a.465.465,0,0,1-.366.455A.473.473,0,0,1,272.107,929.411Z" transform="translate(-250.197 -921.176)" fill="#eac759"/>
                <path id="Trazado_742917" data-name="Trazado 742917" d="M377.6,943.651h-1.583a.129.129,0,0,1,0-.257H377.6a.129.129,0,1,1,0,.257Z" transform="translate(-355.746 -935.287)" fill="#a08338"/>
                <path id="Trazado_742918" data-name="Trazado 742918" d="M377.4,926.417h-1.614a.129.129,0,1,1,0-.257H377.4a.129.129,0,1,1,0,.257Z" transform="translate(-355.543 -920.331)" fill="#a08338"/>
                <path id="Trazado_742919" data-name="Trazado 742919" d="M259.243,943.651H257.66a.129.129,0,1,1,0-.257h1.583a.129.129,0,1,1,0,.257Z" transform="translate(-253.035 -935.287)" fill="#a08338"/>
                <path id="Trazado_742920" data-name="Trazado 742920" d="M259.041,926.417h-1.614a.129.129,0,1,1,0-.257h1.614a.129.129,0,1,1,0,.257Z" transform="translate(-252.833 -920.331)" fill="#a08338"/>
                <path id="Trazado_742921" data-name="Trazado 742921" d="M345.7,924.461h-.151a.75.75,0,0,1-.749-.749.19.19,0,0,1,.381,0,.368.368,0,0,0,.368.368h.151a.667.667,0,0,0,.666-.666v-1.963a.667.667,0,0,0-.666-.666h-.151a.368.368,0,0,0-.368.368.19.19,0,0,1-.381,0,.75.75,0,0,1,.749-.749h.151a1.048,1.048,0,0,1,1.047,1.047v1.963A1.048,1.048,0,0,1,345.7,924.461Z" transform="translate(-328.764 -915.336)" fill="#3a5870"/>
                <path id="Trazado_742922" data-name="Trazado 742922" d="M345.392,928.7a.129.129,0,0,1-.129-.129v-2.278a.129.129,0,0,1,.257,0v2.278A.129.129,0,0,1,345.392,928.7Z" transform="translate(-329.17 -920.331)" fill="#c4a345"/>
                <path id="Trazado_742923" data-name="Trazado 742923" d="M297.1,1080.729h-.026l-.151-.005a1.047,1.047,0,0,1-1.011-1.082l.066-1.962a1.051,1.051,0,0,1,1.082-1.011l.151.005a.75.75,0,0,1,.723.774.194.194,0,0,1-.2.184.191.191,0,0,1-.184-.2.368.368,0,0,0-.355-.38l-.151-.005a.668.668,0,0,0-.688.643l-.066,1.962a.667.667,0,0,0,.643.688l.152,0a.37.37,0,0,0,.264-.1.365.365,0,0,0,.116-.256.194.194,0,0,1,.2-.184.19.19,0,0,1,.184.2.749.749,0,0,1-.748.724Z" transform="translate(-286.341 -1050.945)" fill="#3a5870"/>
                <path id="Trazado_742924" data-name="Trazado 742924" d="M308.314,1085.139h0a.129.129,0,0,1-.124-.133l.077-2.277a.131.131,0,0,1,.133-.124.129.129,0,0,1,.124.133l-.077,2.277A.129.129,0,0,1,308.314,1085.139Z" transform="translate(-296.994 -1056.097)" fill="#c4a345"/>
                <path id="Trazado_742925" data-name="Trazado 742925" d="M255.5,970.463a.143.143,0,0,1,0-.286.277.277,0,0,0,.276-.276v-.114a.5.5,0,0,0-.5-.5H253.8a.5.5,0,0,0-.5.5v.114a.277.277,0,0,0,.276.276.143.143,0,0,1,0,.286.563.563,0,0,1-.562-.562v-.114A.787.787,0,0,1,253.8,969h1.474a.787.787,0,0,1,.786.786v.114A.563.563,0,0,1,255.5,970.463Z" transform="translate(-249.119 -957.509)" fill="#3a5870"/>
                <path id="Trazado_742926" data-name="Trazado 742926" d="M259.145,978.441h-1.71a.1.1,0,1,1,0-.193h1.71a.1.1,0,1,1,0,.193Z" transform="translate(-252.868 -965.534)" fill="#c4a345"/>
                <path id="Trazado_742927" data-name="Trazado 742927" d="M374.522,970.463a.143.143,0,1,1,0-.286.277.277,0,0,0,.276-.276v-.114a.5.5,0,0,0-.5-.5h-1.474a.5.5,0,0,0-.5.5v.114a.277.277,0,0,0,.276.276.143.143,0,1,1,0,.286.563.563,0,0,1-.562-.562v-.114a.787.787,0,0,1,.786-.786H374.3a.787.787,0,0,1,.786.786v.114A.563.563,0,0,1,374.522,970.463Z" transform="translate(-352.406 -957.509)" fill="#3a5870"/>
                <path id="Trazado_742928" data-name="Trazado 742928" d="M378.165,978.441h-1.71a.1.1,0,1,1,0-.193h1.71a.1.1,0,1,1,0,.193Z" transform="translate(-356.155 -965.534)" fill="#c4a345"/>
                <path id="Trazado_742929" data-name="Trazado 742929" d="M265.53,1100.21a6.259,6.259,0,0,1,.907.45,4.2,4.2,0,0,1,1.305,2.679,3.191,3.191,0,0,0,1.586,2.462,7.54,7.54,0,0,0,1.737.19c.518.067,1.014.269,1.535.308a3.065,3.065,0,0,0,2.17-.784,5.522,5.522,0,0,0,1.361-1.914,3.259,3.259,0,0,1,.864-1.349c.214-.158.472-.253.672-.428.483-.419.5-1.143.625-1.771a4.276,4.276,0,0,1,1.333-2.333l.627,1.287a1.922,1.922,0,0,0-.673,1.218c-.092.466-.1.947-.2,1.411a7.139,7.139,0,0,1-2.2,3.278,12.815,12.815,0,0,1-2.315,2,4.31,4.31,0,0,1-2.92.695c-.57-.1-1.1-.343-1.665-.48a10.892,10.892,0,0,1-2.2-.5,4.3,4.3,0,0,1-1.869-2.379,8.311,8.311,0,0,0-1.444-2.715c-.266-.275-.577-.5-.863-.757a4.278,4.278,0,0,1-1.158-1.64c-.113-.3-.514-1.552.124-1.563.348-.006.81,1.122,1.054,1.4A4.9,4.9,0,0,0,265.53,1100.21Z" transform="translate(-257.366 -1069.093)" fill="#eac759"/>
                <path id="Trazado_742930" data-name="Trazado 742930" d="M255.655,1098.741l.939,3.571a8.885,8.885,0,0,1,.418,2.687,3,3,0,0,1-1.173,2.358,4.025,4.025,0,0,1-2,.536,7.188,7.188,0,0,1-2.275-.123,3.156,3.156,0,0,1-1.871-1.226,3.827,3.827,0,0,1-.5-2.288c.031-.794.156-1.683.216-2.475q.227-3.034.455-6.068c.14-1.865.253-4.226.48-6.083.466-.01.953.474,1.4.594a20.477,20.477,0,0,0-.518,5.947,15.055,15.055,0,0,1-.037,1.889c-.05.466-.145.926-.241,1.385l-.859,4.121a2.535,2.535,0,0,0,1.224,2.532,3.021,3.021,0,0,0,1.331.3,4.5,4.5,0,0,0,2.847-.614,2.078,2.078,0,0,0,.766-2.593,4.723,4.723,0,0,0-.51-.645,4.829,4.829,0,0,1-.522-5.29A4.965,4.965,0,0,1,255.655,1098.741Z" transform="translate(-245.794 -1062.194)" fill="#eac759"/>
                <path id="Trazado_742931" data-name="Trazado 742931" d="M362.254,1099.384a9.182,9.182,0,0,1,.726,3.273,3.47,3.47,0,0,1-1.067,2.966,3.68,3.68,0,0,1-2.6.462,11.631,11.631,0,0,1-2.265-.455,2.75,2.75,0,0,1-1.841-1.347c-.16-.383-.163-.815-.3-1.206-.231-.659-.819-1.141-1.069-1.792a3.486,3.486,0,0,1-.117-1.575,17.368,17.368,0,0,1,.377-1.876,15.115,15.115,0,0,1,1.367-1.251c.4.955-.7,1.948-.587,2.977a2.6,2.6,0,0,0,.194.658l1.389,3.523a.857.857,0,0,0,.928.682l1.923.175a3.228,3.228,0,0,0,1.25-.049,2.252,2.252,0,0,0,1.346-2.326,7.761,7.761,0,0,0-.917-2.728,7.97,7.97,0,0,1-.687-2.922c-.1-2.791-1.736-5.369-1.756-8.161.348-.073.634-.4.955-.547a4.836,4.836,0,0,0,.532,2.051,15.181,15.181,0,0,1,1.036,4.394,8.22,8.22,0,0,0,.282,2.375c.115.291.277.562.378.858C361.927,1098.119,362.017,1098.825,362.254,1099.384Z" transform="translate(-336.48 -1060.662)" fill="#eac759"/>
                <path id="Trazado_742932" data-name="Trazado 742932" d="M270.654,1214.22a.777.777,0,0,1-.35-.083l-.1-.051a.562.562,0,0,1-.252-.754.143.143,0,1,1,.256.128.276.276,0,0,0,.124.37l.1.051a.5.5,0,0,0,.671-.224l.658-1.319a.5.5,0,0,0-.224-.671l-.1-.051a.276.276,0,0,0-.371.124.143.143,0,0,1-.256-.128.562.562,0,0,1,.754-.252l.1.051a.787.787,0,0,1,.352,1.054l-.658,1.318A.787.787,0,0,1,270.654,1214.22Z" transform="translate(-263.762 -1167.782)" fill="#3a5870"/>
                <path id="Trazado_742933" data-name="Trazado 742933" d="M271.031,1215.848a.1.1,0,0,1-.086-.14l.764-1.53a.1.1,0,0,1,.173.086l-.764,1.53A.1.1,0,0,1,271.031,1215.848Z" transform="translate(-264.667 -1170.232)" fill="#c4a345"/>
                <path id="Trazado_742934" data-name="Trazado 742934" d="M394.543,1217.339a2.943,2.943,0,0,0-1.553,1.622l1.4.887s.076-1.02,1.609-1.648Z" transform="translate(-370.589 -1173.021)" fill="#eac759"/>
                <path id="Trazado_742935" data-name="Trazado 742935" d="M402.886,1209.643a.786.786,0,0,1-.749-.551l-.442-1.406a.786.786,0,0,1,.514-.986l.109-.034a.562.562,0,0,1,.7.368.143.143,0,1,1-.273.086.276.276,0,0,0-.346-.181l-.109.034a.5.5,0,0,0-.327.627l.442,1.406a.5.5,0,0,0,.627.327l.109-.034a.277.277,0,0,0,.181-.346.143.143,0,1,1,.273-.086.563.563,0,0,1-.368.705l-.108.034A.786.786,0,0,1,402.886,1209.643Z" transform="translate(-378.112 -1163.737)" fill="#3a5870"/>
                <path id="Trazado_742936" data-name="Trazado 742936" d="M411.066,1211.8a.1.1,0,0,1-.092-.068l-.513-1.632a.1.1,0,1,1,.184-.058l.513,1.632a.1.1,0,0,1-.092.126Z" transform="translate(-385.746 -1166.63)" fill="#c4a345"/>
              </g>
            </g>
          </g>
          <g id="Grupo_932998" data-name="Grupo 932998" transform="translate(155.416 70.707)">
            <rect id="Rectángulo_313358" data-name="Rectángulo 313358" width="21.727" height="0.397" transform="translate(1.416 33.083) rotate(-7.972)" fill="#3a5870"/>
            <circle id="Elipse_12170" data-name="Elipse 12170" cx="1.443" cy="1.443" r="1.443" transform="translate(0 31.835)" fill="#68a4e0"/>
            <g id="Grupo_932990" data-name="Grupo 932990" transform="translate(22.682)">
              <path id="Trazado_742937" data-name="Trazado 742937" d="M1499.684,913.972a26.5,26.5,0,1,1,26.5-26.5A26.532,26.532,0,0,1,1499.684,913.972Zm0-52.5a26,26,0,1,0,26,26A26.027,26.027,0,0,0,1499.684,861.473Z" transform="translate(-1473.183 -860.969)" fill="#3a5870"/>
            </g>
            <g id="Grupo_932997" data-name="Grupo 932997" transform="translate(32.528 7.458)">
              <g id="Grupo_932993" data-name="Grupo 932993" transform="translate(0.007)">
                <g id="Grupo_932992" data-name="Grupo 932992" transform="translate(0 16.345)">
                  <path id="Trazado_742938" data-name="Trazado 742938" d="M1551.847,1052.07c-.388.785,1.523,1.947,4.847,4.146s5.43,3.479,6.2,2.437,3.771-5.252,5.017-6.936c.371-.5,1.025-1.37,1.8-2.4-3.685.9-6.191-.907-8.973-3.032a9.126,9.126,0,0,1-3.285-5.243,12.493,12.493,0,0,1-1.656,5.923C1554.629,1049.1,1552.236,1051.286,1551.847,1052.07Z" transform="translate(-1551.258 -1041.046)" fill="#cbd3d9"/>
                  <g id="Grupo_932991" data-name="Grupo 932991" transform="translate(1.105 1.179)">
                    <path id="Trazado_742939" data-name="Trazado 742939" d="M1626.55,1112.759a.087.087,0,0,1-.055-.155,3.29,3.29,0,0,0,.783-1.144c.038-.076.075-.151.114-.226a18.163,18.163,0,0,1,1.771-2.639l3.283-4.32a.087.087,0,0,1,.139.106l-3.283,4.32a18.059,18.059,0,0,0-1.755,2.613c-.038.074-.075.149-.113.224a3.418,3.418,0,0,1-.83,1.2A.086.086,0,0,1,1626.55,1112.759Z" transform="translate(-1617.159 -1097.067)" fill="#b4bfc7"/>
                    <path id="Trazado_742940" data-name="Trazado 742940" d="M1619.064,1109.48a.087.087,0,0,1-.071-.137l2.736-3.925c.184-.264.361-.518.535-.774a36.758,36.758,0,0,0,2.012-3.337.087.087,0,0,1,.154.082,36.916,36.916,0,0,1-2.022,3.352c-.174.257-.352.512-.529.767l-2.743,3.935A.088.088,0,0,1,1619.064,1109.48Z" transform="translate(-1610.663 -1094.48)" fill="#b4bfc7"/>
                    <path id="Trazado_742941" data-name="Trazado 742941" d="M1605.657,1106.241a.087.087,0,0,1-.072-.136c.823-1.233,1.632-2.508,2.415-3.741,1.027-1.619,2.09-3.294,3.2-4.89a.087.087,0,0,1,.144.1c-1.1,1.594-2.166,3.266-3.193,4.884-.783,1.234-1.593,2.511-2.417,3.745A.087.087,0,0,1,1605.657,1106.241Z" transform="translate(-1599.027 -1091.161)" fill="#b4bfc7"/>
                    <path id="Trazado_742942" data-name="Trazado 742942" d="M1599.324,1098.683a.086.086,0,0,1-.054-.019.087.087,0,0,1-.014-.123c.652-.82,1.231-1.716,1.791-2.582a8.622,8.622,0,0,0,.483-.811c.077-.154.146-.317.213-.474s.132-.309.207-.46a9.28,9.28,0,0,1,1.091-1.6,7.473,7.473,0,0,0,1.219-1.918.087.087,0,0,1,.164.061,7.6,7.6,0,0,1-1.246,1.965,9.189,9.189,0,0,0-1.072,1.571c-.073.147-.138.3-.2.452s-.138.325-.218.484a8.8,8.8,0,0,1-.493.828c-.562.87-1.143,1.77-1.8,2.6A.087.087,0,0,1,1599.324,1098.683Z" transform="translate(-1593.532 -1085.26)" fill="#b4bfc7"/>
                    <path id="Trazado_742943" data-name="Trazado 742943" d="M1586.4,1092.972a.089.089,0,0,1-.04-.01.088.088,0,0,1-.046-.092l.094-.558a.088.088,0,0,1,.1-.071.087.087,0,0,1,.071.1l-.046.273a10.825,10.825,0,0,0,1.148-1.681l1.293-2.174a22.534,22.534,0,0,1,1.956-2.928c.059-.071.12-.142.18-.213a4.6,4.6,0,0,0,.763-1.094.087.087,0,0,1,.16.07,4.717,4.717,0,0,1-.791,1.138c-.06.07-.12.141-.179.212a22.379,22.379,0,0,0-1.941,2.906l-1.293,2.174a9.59,9.59,0,0,1-1.371,1.924A.088.088,0,0,1,1586.4,1092.972Z" transform="translate(-1582.313 -1079.911)" fill="#b4bfc7"/>
                    <path id="Trazado_742944" data-name="Trazado 742944" d="M1578.938,1085.991a.087.087,0,0,1-.065-.146,8.3,8.3,0,0,0,1.927-2.922,10.539,10.539,0,0,1,.769-1.507c.117-.179.246-.353.371-.52.105-.141.214-.288.314-.436.136-.2.262-.414.385-.62.094-.158.191-.322.292-.48a8.141,8.141,0,0,1,1.386-1.639.087.087,0,1,1,.117.129,7.968,7.968,0,0,0-1.356,1.6c-.1.156-.2.318-.289.475-.124.208-.251.424-.39.629-.1.151-.212.3-.319.442-.123.166-.25.337-.365.511a10.386,10.386,0,0,0-.755,1.483,8.463,8.463,0,0,1-1.957,2.968A.087.087,0,0,1,1578.938,1085.991Z" transform="translate(-1575.841 -1074.031)" fill="#b4bfc7"/>
                    <path id="Trazado_742945" data-name="Trazado 742945" d="M1566.833,1077.644a.087.087,0,0,1-.075-.132,18.605,18.605,0,0,1,1.487-2.14l.145-.179a6.582,6.582,0,0,0,1.056-1.643l.074-.148a27.319,27.319,0,0,1,3.034-4.763.087.087,0,0,1,.137.109,27.161,27.161,0,0,0-3.015,4.732l-.073.148a6.725,6.725,0,0,1-1.077,1.676l-.145.178a18.439,18.439,0,0,0-1.473,2.119A.088.088,0,0,1,1566.833,1077.644Z" transform="translate(-1565.335 -1066.143)" fill="#b4bfc7"/>
                    <path id="Trazado_742946" data-name="Trazado 742946" d="M1556.163,1060.533a.086.086,0,0,1-.065-.143l0,0c.359-.391.73-.795,1.084-1.2a63.164,63.164,0,0,0,6.263-9.176.087.087,0,1,1,.15.09,63.3,63.3,0,0,1-6.281,9.2c-.356.408-.727.813-1.087,1.2A.092.092,0,0,1,1556.163,1060.533Z" transform="translate(-1556.076 -1049.966)" fill="#b4bfc7"/>
                  </g>
                  <path id="Trazado_742947" data-name="Trazado 742947" d="M1558.336,1131.058s-1.738-1.046-3.089-1.89c-1.32-.824-7.19-4.361-7.19-4.361a.711.711,0,0,1-.238-.977h0a.711.711,0,0,1,.977-.238s3.957,2.306,5.626,3.321,4.654,2.93,4.654,2.93a.711.711,0,0,1,.238.977h0A.711.711,0,0,1,1558.336,1131.058Z" transform="translate(-1547.714 -1112.591)" fill="#2c4355"/>
                </g>
                <path id="Trazado_742948" data-name="Trazado 742948" d="M1594.392,932.008c-.014.822-.048,1.542-.1,2.186a5.3,5.3,0,0,0,.259.784,10.2,10.2,0,0,0,1.136,1.954,14.825,14.825,0,0,0,4.422,3.836,11.312,11.312,0,0,0,3.445,1.444,6.147,6.147,0,0,0,2.936-.074c1.832-2.428,4.4-5.815,5.488-7.293,1.524-2.069,4.3-6.043,5.281-7.663.608-1-.344-2.007-1.374-1.135-.89.754-5.379,6.072-5.607,5.9s.06-1.029.577-1.879,1.95-3.042,3.111-4.733,2.157-3.382,1.136-4c-.73-.444-1.881,1.124-2.937,2.641-1.579,2.269-4.074,5.878-4.511,5.612s4.167-7.619,4.847-8.737,1.175-2.115.043-2.77c-.919-.532-3.682,3.864-5.021,6.068s-2.6,3.843-2.9,3.666-.109-.788.254-1.677,1.721-3.076,2.469-4.307,2.354-3.679,1.317-4.309c-.91-.553-1.715.777-2.949,2.734s-4.614,7-5.616,8.214-1.955.587-2.21-.234a11.138,11.138,0,0,1,.21-3.556c.143-1.111.295-2.528-.967-2.5s-1.591,2.242-1.875,3.52A22.15,22.15,0,0,0,1594.392,932.008Z" transform="translate(-1588.133 -917.391)" fill="#ceac4e"/>
              </g>
              <g id="Grupo_932996" data-name="Grupo 932996" transform="translate(0 8.118)">
                <g id="Grupo_932995" data-name="Grupo 932995" transform="translate(0 10.738)">
                  <path id="Trazado_742949" data-name="Trazado 742949" d="M1552.679,1068.531c-.63.608.778,2.347,3.165,5.537s3.939,5.106,5.012,4.383,5.321-3.673,7.061-4.838c.518-.347,1.427-.945,2.5-1.649-3.774-.393-5.522-2.942-7.425-5.88a9.124,9.124,0,0,1-1.325-6.044,12.494,12.494,0,0,1-3.555,5.018C1556.3,1066.673,1553.309,1067.923,1552.679,1068.531Z" transform="translate(-1551.885 -1060.04)" fill="#e4edf4"/>
                  <g id="Grupo_932994" data-name="Grupo 932994" transform="translate(1.058 1.901)">
                    <path id="Trazado_742950" data-name="Trazado 742950" d="M1608.963,1151.714a.087.087,0,0,1-.029-.17,3.292,3.292,0,0,0,1.123-.813l.183-.174a18.16,18.16,0,0,1,2.557-1.887l4.547-2.96a.087.087,0,1,1,.1.146l-4.547,2.96a18.018,18.018,0,0,0-2.533,1.868l-.181.173a3.423,3.423,0,0,1-1.187.852A.09.09,0,0,1,1608.963,1151.714Z" transform="translate(-1601.843 -1136.274)" fill="#ccd9e2"/>
                    <path id="Trazado_742951" data-name="Trazado 742951" d="M1603.682,1144.6a.087.087,0,0,1-.05-.158l3.9-2.773c.26-.185.514-.365.765-.549a36.767,36.767,0,0,0,3.019-2.463.087.087,0,0,1,.117.129,37,37,0,0,1-3.033,2.474c-.252.184-.506.365-.76.545l-3.906,2.778A.087.087,0,0,1,1603.682,1144.6Z" transform="translate(-1597.26 -1130.149)" fill="#ccd9e2"/>
                    <path id="Trazado_742952" data-name="Trazado 742952" d="M1590.857,1137.746a.087.087,0,0,1-.052-.157c1.191-.883,2.382-1.81,3.534-2.707,1.513-1.178,3.078-2.4,4.659-3.527a.087.087,0,1,1,.1.142c-1.578,1.128-3.141,2.346-4.653,3.523-1.153.9-2.345,1.826-3.538,2.71A.086.086,0,0,1,1590.857,1137.746Z" transform="translate(-1586.13 -1123.815)" fill="#ccd9e2"/>
                    <path id="Trazado_742953" data-name="Trazado 742953" d="M1589.122,1127.184a.087.087,0,0,1-.046-.161c.89-.552,1.737-1.2,2.556-1.827a8.72,8.72,0,0,0,.728-.6c.124-.119.244-.249.36-.374s.228-.247.35-.364a9.313,9.313,0,0,1,1.568-1.141,7.469,7.469,0,0,0,1.8-1.395.087.087,0,0,1,.133.113,7.6,7.6,0,0,1-1.835,1.43,9.185,9.185,0,0,0-1.539,1.118c-.118.115-.232.238-.343.358s-.239.259-.368.382a8.779,8.779,0,0,1-.743.613c-.822.63-1.673,1.281-2.571,1.837A.086.086,0,0,1,1589.122,1127.184Z" transform="translate(-1584.624 -1115.095)" fill="#ccd9e2"/>
                    <path id="Trazado_742954" data-name="Trazado 742954" d="M1577.873,1118.639a.087.087,0,0,1-.076-.13l.277-.493a.087.087,0,0,1,.152.085l-.135.241a10.806,10.806,0,0,0,1.648-1.2l1.95-1.61a22.438,22.438,0,0,1,2.829-2.1c.079-.047.16-.093.24-.14a4.588,4.588,0,0,0,1.088-.773.087.087,0,1,1,.127.12,4.707,4.707,0,0,1-1.128.8l-.239.138a22.394,22.394,0,0,0-2.807,2.081l-1.95,1.611a9.6,9.6,0,0,1-1.939,1.349A.088.088,0,0,1,1577.873,1118.639Z" transform="translate(-1574.862 -1107.467)" fill="#ccd9e2"/>
                    <path id="Trazado_742955" data-name="Trazado 742955" d="M1573.661,1109.292a.087.087,0,0,1-.041-.165,8.293,8.293,0,0,0,2.8-2.1,10.567,10.567,0,0,1,1.232-1.16c.171-.129.351-.249.525-.365.147-.1.3-.2.442-.3.2-.143.387-.3.571-.454.142-.118.288-.239.437-.354a8.134,8.134,0,0,1,1.858-1.076.087.087,0,1,1,.067.161,7.966,7.966,0,0,0-1.818,1.052c-.146.113-.292.234-.432.35-.187.155-.38.315-.58.461-.147.108-.3.21-.449.308-.172.114-.35.233-.516.359a10.431,10.431,0,0,0-1.211,1.141,8.458,8.458,0,0,1-2.843,2.135A.088.088,0,0,1,1573.661,1109.292Z" transform="translate(-1571.207 -1099.49)" fill="#ccd9e2"/>
                    <path id="Trazado_742956" data-name="Trazado 742956" d="M1563.432,1098.131a.086.086,0,0,1-.067-.032.087.087,0,0,1,.012-.123,18.642,18.642,0,0,1,2.121-1.513l.2-.119a8.927,8.927,0,0,0,.8-.521,8.838,8.838,0,0,0,.751-.67l.119-.114a27.322,27.322,0,0,1,4.463-3.461.087.087,0,1,1,.092.148,27.133,27.133,0,0,0-4.434,3.439l-.119.114a6.725,6.725,0,0,1-1.579,1.215l-.2.119a18.485,18.485,0,0,0-2.1,1.5A.087.087,0,0,1,1563.432,1098.131Z" transform="translate(-1562.33 -1089.299)" fill="#ccd9e2"/>
                    <path id="Trazado_742957" data-name="Trazado 742957" d="M1555.756,1081.9a.087.087,0,0,1-.041-.165c.471-.248.958-.5,1.43-.768a63.139,63.139,0,0,0,8.99-6.528.087.087,0,0,1,.111.135,63.283,63.283,0,0,1-9.015,6.545c-.475.266-.963.522-1.434.77A.086.086,0,0,1,1555.756,1081.9Z" transform="translate(-1555.669 -1074.424)" fill="#ccd9e2"/>
                  </g>
                  <path id="Trazado_742958" data-name="Trazado 742958" d="M1555.391,1133.876s-1.284-1.571-2.272-2.821c-.964-1.221-5.3-6.53-5.3-6.53a.711.711,0,0,1,.105-1h0a.711.711,0,0,1,1,.105s2.948,3.505,4.177,5.023,3.394,4.328,3.394,4.328a.711.711,0,0,1-.105,1h0A.711.711,0,0,1,1555.391,1133.876Z" transform="translate(-1547.662 -1114.995)" fill="#eac759"/>
                </g>
                <path id="Trazado_742959" data-name="Trazado 742959" d="M1620.911,987.937c-.291.769-.565,1.435-.833,2.024a5.29,5.29,0,0,0-.02.825,10.23,10.23,0,0,0,.41,2.223,14.829,14.829,0,0,0,2.869,5.1,11.321,11.321,0,0,0,2.756,2.521,6.151,6.151,0,0,0,2.789.92c2.544-1.669,6.1-3.992,7.626-5.017,2.133-1.434,6.082-4.24,7.555-5.434.909-.736.353-2.005-.911-1.532-1.092.41-7.111,3.9-7.268,3.664s.4-.948,1.177-1.575,2.861-2.207,4.524-3.407,3.171-2.457,2.419-3.386c-.538-.665-2.15.424-3.656,1.5-2.252,1.6-5.817,4.161-6.139,3.763s6.492-5.768,7.509-6.591,1.819-1.595.974-2.594c-.686-.811-4.769,2.4-6.773,4.02s-3.746,2.74-3.961,2.475.163-.778.8-1.493,2.657-2.316,3.777-3.223,3.456-2.67,2.692-3.613c-.67-.827-1.877.153-3.7,1.579s-6.7,5.038-8.057,5.839-2.038-.107-2-.966a11.134,11.134,0,0,1,1.4-3.277c.51-1,1.13-2.281-.069-2.677s-2.253,1.574-2.952,2.682A22.148,22.148,0,0,0,1620.911,987.937Z" transform="translate(-1610.48 -978.804)" fill="#eac759"/>
              </g>
            </g>
          </g>
          <g id="Grupo_933003" data-name="Grupo 933003" transform="translate(0.61 132.17)">
            <rect id="Rectángulo_313359" data-name="Rectángulo 313359" width="36.288" height="0.397" transform="matrix(0.742, -0.671, 0.671, 0.742, 49.399, 25.64)" fill="#3a5870"/>
            <circle id="Elipse_12171" data-name="Elipse 12171" cx="1.443" cy="1.443" r="1.443" transform="translate(74.977)" fill="#68a4e0"/>
            <g id="Grupo_933002" data-name="Grupo 933002" transform="translate(0 9.854)">
              <path id="Trazado_742960" data-name="Trazado 742960" d="M156.352,1452.275a25.891,25.891,0,1,1,25.891-25.891A25.92,25.92,0,0,1,156.352,1452.275Zm0-51.29a25.4,25.4,0,1,0,25.4,25.4A25.428,25.428,0,0,0,156.352,1400.985Z" transform="translate(-130.461 -1400.493)" fill="#3a5870"/>
              <g id="Grupo_933001" data-name="Grupo 933001" transform="translate(15.263 1.704)">
                <g id="Grupo_932999" data-name="Grupo 932999">
                  <path id="Trazado_742961" data-name="Trazado 742961" d="M374.462,1594.765c-.016.171.451.4,1.29.542a3.644,3.644,0,0,0,1.578-.021l.111-.98-2.726-.443Z" transform="translate(-357.472 -1570.007)" fill="#09151c"/>
                  <path id="Trazado_742962" data-name="Trazado 742962" d="M247.86,1597.41c.032.277.574.355,1.612.345.469,0,1.563.09,1.659-.155l-.533-1.434-2.513.024Z" transform="translate(-247.605 -1572.004)" fill="#09151c"/>
                  <path id="Trazado_742963" data-name="Trazado 742963" d="M253.691,1469.47a1.143,1.143,0,0,1-.9.9,14.25,14.25,0,0,0-3.33,1.386c-.735.5-2.086,3.651-2.679,4.931a11.64,11.64,0,0,0-.593,4.014,15.037,15.037,0,0,1-.047,2.892,8.2,8.2,0,0,0,.047,3.864c.024-.158,1.106-.213,1.651-.182s1.519.144,1.62.371a11.365,11.365,0,0,0-.237-3.564,10.386,10.386,0,0,0,.758-2.75s.142-1.77.364-3.255a15.13,15.13,0,0,1,1.233-3.287l1.707-1.549Z" transform="translate(-245.929 -1462.056)" fill="#3a5870"/>
                  <path id="Trazado_742964" data-name="Trazado 742964" d="M341.315,1464.927a.947.947,0,0,0,.521.964c.616.284,3.572.853,4.061,1.185s2.532,5.685,2.864,6.823a27.145,27.145,0,0,1,.174,5.09,41.946,41.946,0,0,1-.375,4.4c-.045-.177-.605-.471-1.39-.64a2.736,2.736,0,0,0-1.479.118,27.093,27.093,0,0,1,.332-3.034,11.2,11.2,0,0,1-.284-2.2,27.433,27.433,0,0,0-1.4-4.836l-.332-2.134-2.039-1.73Z" transform="translate(-328.701 -1458.114)" fill="#3a5870"/>
                  <path id="Trazado_742965" data-name="Trazado 742965" d="M281.693,1465.528l4.851-.6.205,1.221.45,2.785,2.679,1.73-.308,2.134s.569,4.172-.237,5.263a4.622,4.622,0,0,1,.356,1.778,32.175,32.175,0,0,1,1.043,5.665c0,1.8-.095,5.4.095,6.637s.537,3.492.095,4.314a12.607,12.607,0,0,1,.237,2.939c-.095,1.359-.111,2.276-.174,2.939s0,2.908,0,2.908a5.832,5.832,0,0,1-4.046,0s-.411-2.687-.474-3.824a12.554,12.554,0,0,0-.348-2.212l.19-1.675a20,20,0,0,1-.664-3.255,24.82,24.82,0,0,1-.98-7.649,23.766,23.766,0,0,1-.727,4.615c-.474,1.106.158,3.255.032,3.919s-.7,3.824-.7,4.551a3.732,3.732,0,0,0,.474,1.549,30.525,30.525,0,0,0-.348,4.14,8.911,8.911,0,0,1-4.646.253,18.749,18.749,0,0,1-.316-3.951,10.472,10.472,0,0,1,.095-4.836,10.02,10.02,0,0,1-.221-2.655,13.673,13.673,0,0,1,.569-2.781,25.9,25.9,0,0,1-.474-6.005,31.782,31.782,0,0,1,.917-5.057l.032-1.2a6.013,6.013,0,0,1-.506-2.655,4.335,4.335,0,0,0-.506-2.37l.253-3.856,2.916-3.994Z" transform="translate(-273.931 -1458.114)" fill="#3a5870"/>
                  <path id="Trazado_742966" data-name="Trazado 742966" d="M253,1531.1c.076-.181.028-.618.095-.818l-3.679-1.64a6.218,6.218,0,0,0-.181.86Z" transform="translate(-248.8 -1513.408)" fill="#eac759"/>
                  <path id="Trazado_742967" data-name="Trazado 742967" d="M372.709,1532.8l-3.8.655c.072.218.146.445.217.673l3.712-.653C372.813,1533.23,372.733,1533.026,372.709,1532.8Z" transform="translate(-352.649 -1517.015)" fill="#eac759"/>
                  <path id="Trazado_742968" data-name="Trazado 742968" d="M301.169,1420.8s-1.272-3.706.126-6.052,4.243-1.257,5.025.261a6.168,6.168,0,0,1-.3,5.191Z" transform="translate(-293.408 -1413.385)" fill="#3a5870"/>
                  <path id="Trazado_742969" data-name="Trazado 742969" d="M308.119,1417.585a2.363,2.363,0,0,1,2.394,2.607,4.176,4.176,0,0,1-1.446,2.892h-1.8a3.381,3.381,0,0,1-1.3-2.513C305.962,1419.007,306.768,1417.585,308.119,1417.585Z" transform="translate(-298.027 -1417.03)" fill="#09151c"/>
                  <path id="Trazado_742970" data-name="Trazado 742970" d="M334.981,1492.544h-5.34c0,.533.005,1.045.031,1.571l4.48.041Z" transform="translate(-318.576 -1482.08)" fill="#eac759"/>
                  <path id="Trazado_742971" data-name="Trazado 742971" d="M334.4,1504.5l-4.508-.011c.017.127.029.254.037.381l4.273.027Z" transform="translate(-318.791 -1492.447)" fill="#d66371"/>
                  <path id="Trazado_742972" data-name="Trazado 742972" d="M276.731,1492.544l1.079,1.517,4.314.039v-1.556Z" transform="translate(-272.659 -1482.08)" fill="#eac759"/>
                  <path id="Trazado_742973" data-name="Trazado 742973" d="M284.472,1504.05l.269.36,4.183.026c0-.125-.082-.248-.082-.375Z" transform="translate(-279.377 -1492.066)" fill="#d66371"/>
                  <rect id="Rectángulo_313360" data-name="Rectángulo 313360" width="3.01" height="3.398" rx="1.252" transform="translate(11.799 13.45)" fill="#2f495b"/>
                  <rect id="Rectángulo_313361" data-name="Rectángulo 313361" width="3.224" height="3.09" rx="1.252" transform="translate(5.588 13.521)" fill="#2f495b"/>
                  <path id="Trazado_742974" data-name="Trazado 742974" d="M278.731,1674.521a10.018,10.018,0,0,0,.221,2.655,8.619,8.619,0,0,0-.272,1.4l5.128.35c.173-1.225.49-2.977.58-3.452a21.45,21.45,0,0,0-.2-2.415l-5.155-.351A11.555,11.555,0,0,0,278.731,1674.521Z" transform="translate(-274.351 -1638.425)" fill="#eac759"/>
                  <path id="Trazado_742975" data-name="Trazado 742975" d="M337.617,1678.582a7.82,7.82,0,0,0-.255-2.228c.421-.781.127-2.862-.066-4.125l-5.586.489c.2.892.373,1.455.373,1.455a20,20,0,0,0,.664,3.255l-.126,1.111Z" transform="translate(-320.372 -1638.014)" fill="#eac759"/>
                </g>
                <g id="Grupo_933000" data-name="Grupo 933000" transform="translate(2.709 6.027)">
                  <path id="Trazado_742976" data-name="Trazado 742976" d="M266.448,1580.8a.027.027,0,0,1-.015,0,.028.028,0,0,1-.009-.038l.553-.9a.028.028,0,0,1,.047.029l-.553.9A.028.028,0,0,1,266.448,1580.8Z" transform="translate(-266.42 -1563.868)" fill="#233a49"/>
                  <path id="Trazado_742977" data-name="Trazado 742977" d="M318.074,1472.8h-1.71a.028.028,0,1,1,0-.055h1.71a.028.028,0,1,1,0,.055Z" transform="translate(-309.739 -1470.928)" fill="#233a49"/>
                  <path id="Trazado_742978" data-name="Trazado 742978" d="M318.381,1480.083h-1.663a.028.028,0,0,1,0-.056h1.663a.028.028,0,0,1,0,.056Z" transform="translate(-310.045 -1477.245)" fill="#233a49"/>
                  <path id="Trazado_742979" data-name="Trazado 742979" d="M321.832,1603.484h-1.3a.028.028,0,1,1,0-.056h1.3a.028.028,0,0,1,0,.056Z" transform="translate(-313.358 -1584.334)" fill="#233a49"/>
                  <path id="Trazado_742980" data-name="Trazado 742980" d="M334.72,1571.483h0c-1.912-.1-3.319-.145-4.426-.133h0a.028.028,0,0,1,0-.056c1.109-.011,2.517.031,4.43.134a.028.028,0,0,1,0,.055Z" transform="translate(-321.825 -1556.446)" fill="#233a49"/>
                  <path id="Trazado_742981" data-name="Trazado 742981" d="M287.084,1572.139a.028.028,0,0,1,0-.055c.011,0,1.118-.194,2.853-.335l.24-.02c.43-.035.837-.068,1.276-.094a.027.027,0,0,1,.029.026.028.028,0,0,1-.026.029c-.438.025-.844.058-1.275.093l-.24.02c-1.733.14-2.837.333-2.848.334Z" transform="translate(-284.329 -1556.744)" fill="#233a49"/>
                  <path id="Trazado_742982" data-name="Trazado 742982" d="M338.518,1525.393h-2.88a.028.028,0,0,1,0-.056h2.88a.028.028,0,0,1,0,.056Z" transform="translate(-326.464 -1516.565)" fill="#233a49"/>
                  <path id="Trazado_742983" data-name="Trazado 742983" d="M291.436,1524.489h-3.141a.028.028,0,1,1,0-.055h3.141a.028.028,0,1,1,0,.055Z" transform="translate(-285.379 -1515.781)" fill="#233a49"/>
                  <path id="Trazado_742984" data-name="Trazado 742984" d="M291.429,1560.77a.028.028,0,0,1-.025-.015,5.393,5.393,0,0,1-.359-2.043.028.028,0,0,1,.028-.027h0a.028.028,0,0,1,.027.028,5.337,5.337,0,0,0,.352,2.017.028.028,0,0,1-.012.037A.027.027,0,0,1,291.429,1560.77Z" transform="translate(-287.79 -1545.505)" fill="#233a49"/>
                  <path id="Trazado_742985" data-name="Trazado 742985" d="M296.175,1563.083a.028.028,0,0,1-.023-.013,3.527,3.527,0,0,1-.326-1.607c0-.015.011-.024.028-.027a.028.028,0,0,1,.027.028,3.547,3.547,0,0,0,.318,1.577.027.027,0,0,1-.009.038A.027.027,0,0,1,296.175,1563.083Z" transform="translate(-291.938 -1547.892)" fill="#233a49"/>
                  <path id="Trazado_742986" data-name="Trazado 742986" d="M286.508,1560.9a.028.028,0,0,1-.027-.025,2.466,2.466,0,0,1,.25-1.529c.01-.019.017-.033.021-.041a.028.028,0,1,1,.051.021c0,.01-.012.025-.023.046a2.414,2.414,0,0,0-.243,1.5.028.028,0,0,1-.024.031Z" transform="translate(-283.81 -1546.024)" fill="#233a49"/>
                  <path id="Trazado_742987" data-name="Trazado 742987" d="M291.424,1576.078a.028.028,0,0,1-.027-.025,3.137,3.137,0,0,1,.571-2.205.028.028,0,0,1,.043.035,3.081,3.081,0,0,0-.559,2.164.028.028,0,0,1-.024.031Z" transform="translate(-288.078 -1558.655)" fill="#233a49"/>
                  <path id="Trazado_742988" data-name="Trazado 742988" d="M300.277,1575.107a.028.028,0,0,1-.027-.022,3.42,3.42,0,0,1,.2-1.858.028.028,0,1,1,.051.022,3.363,3.363,0,0,0-.192,1.824.028.028,0,0,1-.022.033Z" transform="translate(-295.729 -1558.111)" fill="#233a49"/>
                  <path id="Trazado_742989" data-name="Trazado 742989" d="M347.862,1555.882a.03.03,0,0,1-.013,0,.028.028,0,0,1-.011-.038,5.1,5.1,0,0,0,.455-2.388.028.028,0,0,1,.027-.029h0a.028.028,0,0,1,.028.027,5.164,5.164,0,0,1-.462,2.416A.028.028,0,0,1,347.862,1555.882Z" transform="translate(-337.072 -1540.939)" fill="#233a49"/>
                  <path id="Trazado_742990" data-name="Trazado 742990" d="M353.989,1559.126l-.011,0a.028.028,0,0,1-.014-.037,8.054,8.054,0,0,0,.578-1.932.029.029,0,0,1,.031-.024.028.028,0,0,1,.024.031,8.115,8.115,0,0,1-.583,1.948A.028.028,0,0,1,353.989,1559.126Z" transform="translate(-342.39 -1544.156)" fill="#233a49"/>
                  <path id="Trazado_742991" data-name="Trazado 742991" d="M359.117,1574.263a.028.028,0,0,1-.028-.028,4.532,4.532,0,0,0-.522-2.119.028.028,0,0,1,.048-.028,4.522,4.522,0,0,1,.529,2.147.028.028,0,0,1-.028.028Z" transform="translate(-346.384 -1557.124)" fill="#233a49"/>
                  <path id="Trazado_742992" data-name="Trazado 742992" d="M354.127,1573.461h0a.028.028,0,0,1-.023-.031,4.406,4.406,0,0,0-.137-1.588.028.028,0,1,1,.053-.015,4.466,4.466,0,0,1,.139,1.612A.028.028,0,0,1,354.127,1573.461Z" transform="translate(-342.389 -1556.891)" fill="#233a49"/>
                  <path id="Trazado_742993" data-name="Trazado 742993" d="M348.459,1574.036h-.006a.028.028,0,0,1-.021-.033c.017-.072.034-.145.051-.217a4.185,4.185,0,0,0,.139-1.974.028.028,0,1,1,.054-.013,4.227,4.227,0,0,1-.139,2c-.017.072-.034.145-.051.217A.028.028,0,0,1,348.459,1574.036Z" transform="translate(-337.591 -1556.866)" fill="#233a49"/>
                  <path id="Trazado_742994" data-name="Trazado 742994" d="M296.813,1742.055a.027.027,0,0,1-.02-.009.028.028,0,0,1,0-.039,3.273,3.273,0,0,1,1.522-.48l1.541-1.95a.028.028,0,0,1,.043.034l-1.549,1.96a.027.027,0,0,1-.019.01,3.362,3.362,0,0,0-1.5.467A.028.028,0,0,1,296.813,1742.055Z" transform="translate(-292.771 -1702.476)" fill="#233a49"/>
                  <path id="Trazado_742995" data-name="Trazado 742995" d="M328.046,1631.541a.028.028,0,0,1-.023-.012,9.672,9.672,0,0,1-1.11-2.632.028.028,0,0,1,.054-.013,9.606,9.606,0,0,0,1.1,2.614.028.028,0,0,1-.008.039A.027.027,0,0,1,328.046,1631.541Z" transform="translate(-318.916 -1606.406)" fill="#233a49"/>
                  <path id="Trazado_742996" data-name="Trazado 742996" d="M274.776,1489.879a.028.028,0,0,1-.023-.012l-2.082-3a.028.028,0,0,1,.045-.031l2.082,3a.028.028,0,0,1-.007.039A.029.029,0,0,1,274.776,1489.879Z" transform="translate(-271.841 -1483.139)" fill="#233a49"/>
                  <path id="Trazado_742997" data-name="Trazado 742997" d="M361.55,1485.06a.03.03,0,0,1-.013,0,.028.028,0,0,1-.011-.038l1.861-3.52a.028.028,0,0,1,.049.026l-1.861,3.52A.028.028,0,0,1,361.55,1485.06Z" transform="translate(-348.952 -1478.51)" fill="#233a49"/>
                  <path id="Trazado_742998" data-name="Trazado 742998" d="M279.119,1512.891h0a.028.028,0,0,1-.023-.031,8.7,8.7,0,0,1,.9-2.535,5.243,5.243,0,0,0,.332-.755.028.028,0,0,1,.054.015,5.272,5.272,0,0,1-.335.765,8.645,8.645,0,0,0-.9,2.519A.028.028,0,0,1,279.119,1512.891Z" transform="translate(-277.417 -1502.864)" fill="#233a49"/>
                  <path id="Trazado_742999" data-name="Trazado 742999" d="M361.882,1510.3a.028.028,0,0,1-.027-.023l-.332-2.133a.028.028,0,0,1,.023-.032.028.028,0,0,1,.032.023l.332,2.133a.028.028,0,0,1-.023.032Z" transform="translate(-348.951 -1501.619)" fill="#233a49"/>
                  <path id="Trazado_743000" data-name="Trazado 743000" d="M317.568,1479.573h0l-1.28-.012a.028.028,0,0,1-.027-.028c.047-8.341-.639-20.406-.645-20.526a.028.028,0,0,1,.026-.029.026.026,0,0,1,.029.026c.007.121.691,12.16.646,20.5l1.225.011c.007-.406.082-5.143-.053-7.71-.084-1.59-.061-2.588-.037-3.645.016-.722.033-1.468.014-2.424-.047-2.3-.047-6.688-.047-6.733a.028.028,0,1,1,.056,0c0,.044,0,4.435.047,6.732.02.958,0,1.7-.014,2.427-.024,1.056-.046,2.053.037,3.641.141,2.672.054,7.691.053,7.741A.028.028,0,0,1,317.568,1479.573Z" transform="translate(-309.112 -1458.978)" fill="#233a49"/>
                  <path id="Trazado_743001" data-name="Trazado 743001" d="M280.591,1690.026h0a.022.022,0,0,1-.018-.026,10.027,10.027,0,0,1,.871-2.5.022.022,0,1,1,.039.021,9.975,9.975,0,0,0-.867,2.49A.022.022,0,0,1,280.591,1690.026Z" transform="translate(-278.698 -1657.279)" fill="#c4a345"/>
                  <path id="Trazado_743002" data-name="Trazado 743002" d="M283.221,1645.58h0a.022.022,0,0,1-.018-.026l.521-3a.022.022,0,0,1,.026-.018.022.022,0,0,1,.018.025l-.521,3A.022.022,0,0,1,283.221,1645.58Z" transform="translate(-280.981 -1618.27)" fill="#233a49"/>
                  <path id="Trazado_743003" data-name="Trazado 743003" d="M369.656,1704.186a.022.022,0,0,1-.015-.038,2.964,2.964,0,0,0,.611-.87.022.022,0,1,1,.041.017,3.014,3.014,0,0,1-.622.885A.022.022,0,0,1,369.656,1704.186Z" transform="translate(-355.991 -1670.973)" fill="#c4a345"/>
                  <path id="Trazado_743004" data-name="Trazado 743004" d="M339.41,1699.715h0a.022.022,0,0,1-.018-.026l.3-1.786a.022.022,0,0,1,.044.007l-.3,1.786A.022.022,0,0,1,339.41,1699.715Z" transform="translate(-329.742 -1666.305)" fill="#c4a345"/>
                  <path id="Trazado_743005" data-name="Trazado 743005" d="M334.389,1681.987a.023.023,0,0,1-.014-.005.022.022,0,0,1,0-.031,2.839,2.839,0,0,1,1.569-.742.022.022,0,1,1,.009.043,2.856,2.856,0,0,0-1.544.727A.022.022,0,0,1,334.389,1681.987Z" transform="translate(-325.385 -1651.832)" fill="#c4a345"/>
                  <path id="Trazado_743006" data-name="Trazado 743006" d="M344.192,1763.762a.022.022,0,0,1,0-.044,6.191,6.191,0,0,0,2.125-.913.022.022,0,0,1,.031.005.022.022,0,0,1-.005.031,6.244,6.244,0,0,1-2.142.92Z" transform="translate(-333.893 -1722.64)" fill="#233a49"/>
                  <path id="Trazado_743007" data-name="Trazado 743007" d="M359.136,1564.451a.022.022,0,0,1-.018-.009.022.022,0,0,1,.005-.031l.419-.3a.022.022,0,1,1,.026.036l-.419.3A.021.021,0,0,1,359.136,1564.451Z" transform="translate(-346.861 -1550.21)" fill="#233a49"/>
                </g>
              </g>
            </g>
          </g>
          <g id="Grupo_933008" data-name="Grupo 933008" transform="translate(151.001 141.414)">
            <g id="Grupo_933007" data-name="Grupo 933007" transform="translate(27.097)">
              <g id="Grupo_933006" data-name="Grupo 933006" transform="translate(11.147 12.65)">
                <g id="Grupo_933004" data-name="Grupo 933004" transform="translate(5.624)">
                  <path id="Trazado_743008" data-name="Trazado 743008" d="M1624.65,1503.734l-2.992.7c-3.095.723-7.772-.831-8.495-3.926l-1.953-8.359a.739.739,0,0,0-.8-.568,41.475,41.475,0,0,0-9.879,2.3.738.738,0,0,0-.456.86l3.505,15.006.1.427-.527.5a.687.687,0,0,0-.2.657l.552,2.361a.688.688,0,0,0,.469.5l.691.21.234,1a2.471,2.471,0,0,0,3.006,1.868c2.947-.688,4-1.705,7.126-2.435s5.037-.407,7.167-.9a51.065,51.065,0,0,0,7.006-2.374,2.954,2.954,0,0,0,1.72-3.39l-.146-.623A5.1,5.1,0,0,0,1624.65,1503.734Z" transform="translate(-1600.056 -1491.575)" fill="#2b4253"/>
                  <path id="Trazado_743009" data-name="Trazado 743009" d="M1611.21,1492.147a.739.739,0,0,0-.8-.568,41.475,41.475,0,0,0-9.879,2.3.738.738,0,0,0-.456.86l2.141,9.166,9.636-9.009Z" transform="translate(-1600.056 -1491.575)" fill="#16232c"/>
                  <path id="Trazado_743010" data-name="Trazado 743010" d="M1615.635,1525.068a.116.116,0,0,1-.079-.2l9.636-9.008a.116.116,0,1,1,.159.17l-9.636,9.009A.117.117,0,0,1,1615.635,1525.068Z" transform="translate(-1613.475 -1512.62)" fill="#ba5868"/>
                  <path id="Trazado_743011" data-name="Trazado 743011" d="M1666.135,1601.706a.117.117,0,0,1-.058-.218,9.068,9.068,0,0,1,.9-.439,23.143,23.143,0,0,1,4.063-1.378,26.106,26.106,0,0,1,4.677-.618,15.091,15.091,0,0,0,2.489-.286,36.113,36.113,0,0,0,8.545-3.336.116.116,0,1,1,.106.207,36.277,36.277,0,0,1-8.6,3.356,15.239,15.239,0,0,1-2.528.292,25.929,25.929,0,0,0-4.639.613,22.969,22.969,0,0,0-4.024,1.365,8.886,8.886,0,0,0-.879.427A.119.119,0,0,1,1666.135,1601.706Z" transform="translate(-1657.299 -1581.692)" fill="#16232c"/>
                  <path id="Trazado_743012" data-name="Trazado 743012" d="M1625.041,1611.521a.116.116,0,0,1-.026-.23c1.867-.437,3.9-3.8,3.454-5.713-.416-1.78-1.873-2.561-3.9-2.088a4.451,4.451,0,0,0-2.152,1.092.116.116,0,1,1-.165-.165,4.68,4.68,0,0,1,2.264-1.155c2.166-.506,3.727.34,4.176,2.262.479,2.052-1.623,5.524-3.628,5.992A.116.116,0,0,1,1625.041,1611.521Z" transform="translate(-1619.291 -1588.375)" fill="#16232c"/>
                  <path id="Trazado_743013" data-name="Trazado 743013" d="M1601.66,1507.307a.116.116,0,0,1-.026-.23l11.133-2.6a.116.116,0,1,1,.053.227l-11.133,2.6A.116.116,0,0,1,1601.66,1507.307Z" transform="translate(-1601.347 -1502.769)" fill="#ba5868"/>
                  <path id="Trazado_743014" data-name="Trazado 743014" d="M1645.6,1617.975c3.123-.729,5.037-.407,7.167-.9a43.721,43.721,0,0,0,7.006-2.374h0a2.954,2.954,0,0,0,1.72-3.389l-.145-.623q-.031-.13-.067-.257a38.8,38.8,0,0,1-9.2,3.686,15.184,15.184,0,0,1-2.509.289,26.01,26.01,0,0,0-4.658.615,23.075,23.075,0,0,0-4.044,1.372,17.366,17.366,0,0,1-3.082,1.063,18.922,18.922,0,0,1-2.505.277l.19.813a2.47,2.47,0,0,0,3.006,1.868C1641.419,1619.721,1642.475,1618.7,1645.6,1617.975Z" transform="translate(-1630.62 -1594.716)" fill="#16232c"/>
                </g>
                <g id="Grupo_933005" data-name="Grupo 933005" transform="translate(0 2.536)">
                  <path id="Trazado_743015" data-name="Trazado 743015" d="M1580.363,1526.148h-3.073c-3.179,0-7.379-2.577-7.379-5.755v-8.584a.739.739,0,0,0-.649-.735,41.473,41.473,0,0,0-10.144-.007.738.738,0,0,0-.64.734v15.849l-.625.362a.688.688,0,0,0-.343.595v2.425a.688.688,0,0,0,.343.595l.625.362v1.029a2.471,2.471,0,0,0,2.5,2.5c3.026,0,4.286-.75,7.493-.75s5,.75,7.185.75a51.039,51.039,0,0,0,7.363-.718,2.954,2.954,0,0,0,2.446-2.91v-.639A5.1,5.1,0,0,0,1580.363,1526.148Z" transform="translate(-1557.51 -1510.758)" fill="#3a5870"/>
                  <path id="Trazado_743016" data-name="Trazado 743016" d="M1576.269,1511.808a.739.739,0,0,0-.649-.735,41.471,41.471,0,0,0-10.143-.007.738.738,0,0,0-.64.734v9.412l11.433-6.581Z" transform="translate(-1563.868 -1510.758)" fill="#233a49"/>
                  <path id="Trazado_743017" data-name="Trazado 743017" d="M1564.071,1545.994a.117.117,0,0,1-.058-.218l11.433-6.58a.116.116,0,1,1,.116.2l-11.433,6.581A.118.118,0,0,1,1564.071,1545.994Z" transform="translate(-1563.103 -1535.424)" fill="#d66371"/>
                  <path id="Trazado_743018" data-name="Trazado 743018" d="M1612.626,1648.59a15.221,15.221,0,0,1-2.528-.291,25.919,25.919,0,0,0-4.657-.459,22.954,22.954,0,0,0-4.231.414,8.988,8.988,0,0,0-.952.215.116.116,0,1,1-.067-.223,9.042,9.042,0,0,1,.98-.222,23.152,23.152,0,0,1,4.27-.418,26.106,26.106,0,0,1,4.694.462,15.073,15.073,0,0,0,2.49.288,35.922,35.922,0,0,0,9.1-1.323.117.117,0,1,1,.056.226A36.125,36.125,0,0,1,1612.626,1648.59Z" transform="translate(-1594.477 -1629.017)" fill="#233a49"/>
                  <path id="Trazado_743019" data-name="Trazado 743019" d="M1565.13,1622.129a.116.116,0,1,1,0-.233c1.917,0,4.663-2.813,4.663-4.778,0-1.828-1.241-2.92-3.32-2.92a4.451,4.451,0,0,0-2.344.574.116.116,0,1,1-.123-.2,4.68,4.68,0,0,1,2.467-.609c2.225,0,3.553,1.179,3.553,3.152C1570.026,1619.226,1567.189,1622.129,1565.13,1622.129Z" transform="translate(-1563.099 -1600.323)" fill="#233a49"/>
                  <path id="Trazado_743020" data-name="Trazado 743020" d="M1575.5,1527.755h-11.433a.117.117,0,0,1,0-.233H1575.5a.117.117,0,0,1,0,.233Z" transform="translate(-1563.103 -1525.306)" fill="#d66371"/>
                  <path id="Trazado_743021" data-name="Trazado 743021" d="M1574.832,1667.565c3.207,0,5,.75,7.184.75a43.7,43.7,0,0,0,7.363-.718h0a2.953,2.953,0,0,0,2.446-2.909v-.639c0-.089,0-.178-.007-.266a38.809,38.809,0,0,1-9.8,1.5,15.141,15.141,0,0,1-2.508-.289,26.013,26.013,0,0,0-4.676-.46,23.046,23.046,0,0,0-4.25.416,17.382,17.382,0,0,1-3.243.334,18.917,18.917,0,0,1-2.5-.3v.835a2.471,2.471,0,0,0,2.5,2.5C1570.365,1668.314,1571.625,1667.565,1574.832,1667.565Z" transform="translate(-1563.868 -1643.554)" fill="#233a49"/>
                </g>
              </g>
              <path id="Trazado_743022" data-name="Trazado 743022" d="M1499.684,1448.88a26.5,26.5,0,1,1,26.5-26.5A26.531,26.531,0,0,1,1499.684,1448.88Zm0-52.5a26,26,0,1,0,26,26A26.027,26.027,0,0,0,1499.684,1396.381Z" transform="translate(-1473.183 -1395.877)" fill="#3a5870"/>
            </g>
            <circle id="Elipse_12172" data-name="Elipse 12172" cx="1.443" cy="1.443" r="1.443" transform="translate(0 49.109)" fill="#68a4e0"/>
          </g>
        </g>
        <g id="Grupo_933011" data-name="Grupo 933011" transform="translate(104.022 15.6)">
          <path id="Trazado_743023" data-name="Trazado 743023" d="M961.1,413.417a3.474,3.474,0,0,0-2.807,1.849,3.753,3.753,0,0,1,5.614,0A3.475,3.475,0,0,0,961.1,413.417Z" transform="translate(-952.276 -408.155)" fill="#d66371"/>
          <path id="Trazado_743024" data-name="Trazado 743024" d="M930.94,378.618h0a45.428,45.428,0,0,0-11.371,0h0c-1.647.228-2.581,1.692-2.581,3.464,0,1.931,1.892,3.137,3.823,3.137a2.046,2.046,0,0,0,1.827-.76v.01a2.911,2.911,0,0,1,5.233,0v-.01a2.046,2.046,0,0,0,1.827.76c1.931,0,3.823-1.206,3.823-3.137C933.521,380.309,932.587,378.846,930.94,378.618Z" transform="translate(-916.432 -377.645)" fill="#e4edf4" opacity="0.44"/>
          <g id="Grupo_933010" data-name="Grupo 933010" transform="translate(1.467 0.631)">
            <path id="Trazado_743025" data-name="Trazado 743025" d="M923.887,385.958a3.646,3.646,0,0,0,.762.546l1.588-6.15q-.341.038-.681.08h0c-.087.012-.172.028-.255.047Z" transform="translate(-923.887 -380.093)" fill="#f2f6f9"/>
            <path id="Trazado_743026" data-name="Trazado 743026" d="M933.347,386.224l1.7-6.592-.463.044-1.654,6.406Q933.135,386.163,933.347,386.224Z" transform="translate(-931.737 -379.467)" fill="#f2f6f9"/>
            <path id="Trazado_743027" data-name="Trazado 743027" d="M980.68,378.384l-1.177,4.557h0a3.564,3.564,0,0,1,.958.139l1.2-4.661Q981.174,378.4,980.68,378.384Z" transform="translate(-972.151 -378.384)" fill="#f2f6f9"/>
            <path id="Trazado_743028" data-name="Trazado 743028" d="M1008.553,380.621h0c-.147-.019-.294-.035-.44-.052l-1.69,6.543a3.185,3.185,0,0,0,.888.111c.154,0,.307-.009.46-.024l1.633-6.324A2.86,2.86,0,0,0,1008.553,380.621Z" transform="translate(-995.513 -380.279)" fill="#f2f6f9"/>
          </g>
          <path id="Rectángulo_313362" data-name="Rectángulo 313362" d="M.621,0h0a0,0,0,0,1,0,0V2.128a0,0,0,0,1,0,0h0A.621.621,0,0,1,0,1.507V.621A.621.621,0,0,1,.621,0Z" transform="translate(0 3.201)" fill="#d66371"/>
          <path id="Rectángulo_313363" data-name="Rectángulo 313363" d="M.621,0h0a0,0,0,0,1,0,0V2.128a0,0,0,0,1,0,0h0A.621.621,0,0,1,0,1.507V.621A.621.621,0,0,1,.621,0Z" transform="translate(17.709 5.33) rotate(180)" fill="#d66371"/>
          <path id="Trazado_743029" data-name="Trazado 743029" d="M947.885,374.431a45.437,45.437,0,0,0-11.371,0,15.019,15.019,0,0,1,2.814-.629c.475-.073.954-.1,1.432-.145s.959-.039,1.439-.048c.48.009.96.019,1.439.048s.957.072,1.432.145A15.021,15.021,0,0,1,947.885,374.431Z" transform="translate(-933.378 -373.609)" fill="#d66371"/>
          <path id="Trazado_743030" data-name="Trazado 743030" d="M928.217,383.965a2.3,2.3,0,0,1-1.976-.806.21.21,0,0,1-.04-.045,2.688,2.688,0,0,0-4.856,0,.229.229,0,0,1-.041.047,2.3,2.3,0,0,1-1.975.8c-1.99,0-4.049-1.258-4.049-3.362,0-2,1.081-3.442,2.755-3.685l.023,0a45.69,45.69,0,0,1,11.428,0l.024,0c1.674.243,2.755,1.687,2.755,3.685C932.265,382.707,930.207,383.965,928.217,383.965Zm-1.67-1.147a.214.214,0,0,1,.027.032,1.835,1.835,0,0,0,1.643.664c1.768,0,3.6-1.089,3.6-2.911,0-1.768-.937-3.04-2.386-3.241l-.017,0a45.226,45.226,0,0,0-11.275,0l-.017,0c-1.45.2-2.386,1.473-2.386,3.241,0,1.822,1.829,2.911,3.6,2.911a1.834,1.834,0,0,0,1.643-.664.238.238,0,0,1,.028-.032,3.121,3.121,0,0,1,5.546,0Z" transform="translate(-914.951 -376.165)" fill="#c4a345"/>
        </g>
        <rect id="Rectángulo_313364" data-name="Rectángulo 313364" width="31.246" height="0.397" transform="translate(152.321 201.147) rotate(-26.048)" fill="#3a5870"/>
      </g>
    </g>
  </g>
</svg>
