<svg xmlns="http://www.w3.org/2000/svg" width="136.458" height="119.395" viewBox="0 0 136.458 119.395">
  <g id="Grupo_933259" data-name="Grupo 933259" transform="translate(-817.001 -5858.074)">
    <g id="Grupo_932967" data-name="Grupo 932967" transform="translate(810.451 5806.453)">
      <g id="Floor" transform="translate(6.549 100.417)">
        <ellipse id="Floor-2" data-name="Floor" cx="68.229" cy="35.299" rx="68.229" ry="35.299" transform="translate(0)" fill="#f5f5f5"/>
      </g>
      <g id="Shadows" transform="translate(10.159 118.598)">
        <ellipse id="Shadow" cx="17.38" cy="10.034" rx="17.38" ry="10.034" transform="translate(0 4.13)" fill="#e0e0e0"/>
        <ellipse id="Shadow-2" data-name="Shadow" cx="17.38" cy="10.034" rx="17.38" ry="10.034" transform="translate(95.312 4.13)" fill="#e0e0e0"/>
        <path id="Shadow-3" data-name="Shadow" d="M160.936,331.9c-4.563,0-18.566-1.875-32.724-7.672l-.128-.052a39.125,39.125,0,0,1-6.161-2.839c-6.874-3.969-10.66-9.323-10.66-15.078s3.787-11.11,10.662-15.079c6.651-3.84,15.466-5.954,24.821-5.954s18.17,2.115,24.82,5.954a28.379,28.379,0,0,1,5.075,3.683c10.475,8.541,13.662,16.975,13.564,19.724-.146,4.07-3.694,8.405-9.733,11.892A41.561,41.561,0,0,1,161.1,331.9Z" transform="translate(-74.322 -285.224)" fill="#e0e0e0"/>
      </g>
      <g id="Character_2" data-name="Character 2" transform="translate(100.379 53.479)">
        <g id="Character">
          <g id="Bottom" transform="translate(10.057 28.816)">
            <g id="Grupo_932878" data-name="Grupo 932878" transform="translate(0 35.342)">
              <path id="Trazado_742615" data-name="Trazado 742615" d="M362.968,329.125a.829.829,0,0,0,.238.87,4.52,4.52,0,0,0,3.214.738,5.422,5.422,0,0,0,2.963-1.223,6.451,6.451,0,0,1,2.147-1.41,5,5,0,0,0,1.712-.882c.2-.2.158-1.074.158-1.074Z" transform="translate(-362.877 -322.791)" fill="#263238"/>
              <path id="Trazado_742616" data-name="Trazado 742616" d="M372.654,312.83a.246.246,0,0,1,.237.2c.052.24.116.939.225,1.333a6.969,6.969,0,0,1,.19,2.121c-.076.449-1.293,1.009-1.961,1.273a8.572,8.572,0,0,0-2.155,1.394,6.2,6.2,0,0,1-3.221,1.245c-1.186.012-2.527-.343-2.843-.879-.391-.663-.681-1.436,1.062-2.269.33-.158,1.486-.859,1.88-1.113a5.078,5.078,0,0,0,2.286-2.5.658.658,0,0,1,.246-.366.567.567,0,0,1,.341-.036,11.7,11.7,0,0,1,1.734.294c.238.107.575.23.575.527a.985.985,0,0,1-.061.3c-.02.061-.035.142.02.177s.118-.007.164-.048a4.491,4.491,0,0,0,.463-.568,5.024,5.024,0,0,1,.443-.514,3.039,3.039,0,0,0,.3-.2C372.68,313.1,372.652,312.969,372.654,312.83Z" transform="translate(-362.806 -312.83)" fill="#455a64"/>
              <path id="Trazado_742617" data-name="Trazado 742617" d="M369.123,331.729c.3-.254.623-.5.946-.721h0s-2.044,1.273-2.89.726a.731.731,0,0,1-.287-.937,7.751,7.751,0,0,0-2.431-1.152h0c-.144.082-.263.152-.341.184-1.363.564-1.532,1.264-1.288,2.136a3.738,3.738,0,0,0,3.049,1.048A6.373,6.373,0,0,0,369.123,331.729Z" transform="translate(-362.739 -325.409)" fill="#37474f"/>
              <path id="Trazado_742618" data-name="Trazado 742618" d="M377.761,317.8c-1.085.449-.615.642-.308.68a11.71,11.71,0,0,0,3.232-1.945c1.153-.932,2.043-2.172,2.471-2.514.16-.128.331-.284.484-.43-.033-.236-.06-.452-.085-.565a.246.246,0,0,0-.236-.2c0,.14.026.269-.079.376a3.037,3.037,0,0,1-.3.2,5.02,5.02,0,0,0-.443.514,4.471,4.471,0,0,1-.463.568A14.17,14.17,0,0,1,377.761,317.8Z" transform="translate(-373.47 -312.83)" fill="#37474f"/>
              <g id="Grupo_932877" data-name="Grupo 932877" transform="translate(1.447 1.743)">
                <g id="Grupo_932872" data-name="Grupo 932872" transform="translate(0 2.445)">
                  <path id="Trazado_742619" data-name="Trazado 742619" d="M371.093,330.765a.108.108,0,0,0,.068-.025.105.105,0,0,0,.012-.15,4.384,4.384,0,0,0-2.6-1.123.107.107,0,1,0,.027.211,4.238,4.238,0,0,1,2.4,1.049A.108.108,0,0,0,371.093,330.765Z" transform="translate(-368.482 -329.459)" fill="#263238"/>
                </g>
                <g id="Grupo_932873" data-name="Grupo 932873" transform="translate(0.943 1.852)">
                  <path id="Trazado_742620" data-name="Trazado 742620" d="M374.836,328.407a.109.109,0,0,0,.068-.025.105.105,0,0,0,.012-.15,4.385,4.385,0,0,0-2.6-1.123.107.107,0,1,0,.027.211,4.243,4.243,0,0,1,2.4,1.049A.108.108,0,0,0,374.836,328.407Z" transform="translate(-372.225 -327.101)" fill="#263238"/>
                </g>
                <g id="Grupo_932874" data-name="Grupo 932874" transform="translate(1.886 1.288)">
                  <path id="Trazado_742621" data-name="Trazado 742621" d="M378.582,326.169a.109.109,0,0,0,.068-.025.105.105,0,0,0,.012-.15,4.378,4.378,0,0,0-2.6-1.123.107.107,0,1,0,.027.211,4.237,4.237,0,0,1,2.4,1.049A.108.108,0,0,0,378.582,326.169Z" transform="translate(-375.971 -324.862)" fill="#263238"/>
                </g>
                <g id="Grupo_932875" data-name="Grupo 932875" transform="translate(2.758 0.648)">
                  <path id="Trazado_742622" data-name="Trazado 742622" d="M382.044,323.627a.108.108,0,0,0,.068-.025.105.105,0,0,0,.012-.15,4.391,4.391,0,0,0-2.6-1.123.106.106,0,1,0,.027.211,4.244,4.244,0,0,1,2.4,1.049A.107.107,0,0,0,382.044,323.627Z" transform="translate(-379.433 -322.321)" fill="#263238"/>
                </g>
                <g id="Grupo_932876" data-name="Grupo 932876" transform="translate(3.429)">
                  <path id="Trazado_742623" data-name="Trazado 742623" d="M384.889,321.063a.107.107,0,0,0,.067-.024.105.105,0,0,0,.015-.15,4.34,4.34,0,0,0-2.781-1.13.107.107,0,0,0-.094.119.108.108,0,0,0,.121.092,4.2,4.2,0,0,1,2.587,1.054A.108.108,0,0,0,384.889,321.063Z" transform="translate(-382.095 -319.749)" fill="#263238"/>
                </g>
              </g>
            </g>
            <g id="Grupo_932885" data-name="Grupo 932885" transform="translate(17.335 36.432)">
              <path id="Trazado_742624" data-name="Trazado 742624" d="M433.861,345.44a4.351,4.351,0,0,0,.821,2.37,1.856,1.856,0,0,0,2.13.4,2.988,2.988,0,0,0,2.065-1.893,5.319,5.319,0,0,0-.126-2.6Z" transform="translate(-433.283 -337.025)" fill="#263238"/>
              <path id="Trazado_742625" data-name="Trazado 742625" d="M435.438,317.156c.346-.018.252.834.415,2.295A37.721,37.721,0,0,0,437,323.536a3.788,3.788,0,0,1-.3,3.079c-.539.963-2.56,2.089-3.64.938-.88-.939-.971-2.088-.968-3.57a33.1,33.1,0,0,0-.107-3.755c-.121-1.1-.581-2.107-.288-2.266.031.159.324,1.269.518,1.251a2.007,2.007,0,0,0-.017-.416.473.473,0,0,1,.077-.367,1.606,1.606,0,0,1,.556-.282c.336-.1.936-.226,1.279-.3.171-.035.342-.063.515-.082a1.516,1.516,0,0,1,.439,0,.268.268,0,0,1,.194.127.415.415,0,0,1,.026.166,1.052,1.052,0,0,0,.058.3c.015.042.051.091.1.075a.093.093,0,0,0,.052-.1C435.476,318.159,435.45,317.249,435.438,317.156Z" transform="translate(-431.585 -317.156)" fill="#455a64"/>
              <path id="Trazado_742626" data-name="Trazado 742626" d="M438.356,340.861c.044.209.316,1.592-.1,1.9-.455.332-.766-.743-.766-.743a4.829,4.829,0,0,0-2.682.652c.093.218-.117,1-.563.9s-.695-1.7-.7-1.719a4.618,4.618,0,0,0,.967,3.442c1.08,1.152,3.1.025,3.64-.938a3.788,3.788,0,0,0,.3-3.079C438.425,341.126,438.392,340.991,438.356,340.861Z" transform="translate(-433.044 -334.891)" fill="#37474f"/>
              <path id="Trazado_742627" data-name="Trazado 742627" d="M447.332,324.391c.033.532.618.279.607-.476s-.407-2.59-.557-3.825c-.1-1.777-.171-2.952-.517-2.933,0,.018,0,.036,0,.054,0,0,.036,1.012.041,1.128.062,1.086.076,3.2.23,4.176A15.275,15.275,0,0,1,447.332,324.391Z" transform="translate(-443.012 -317.156)" fill="#37474f"/>
              <path id="Trazado_742628" data-name="Trazado 742628" d="M433.51,327.288a15.042,15.042,0,0,1-.42-1.829c-.167-.97-.748-2.913-1.036-3.958-.093-.172-.386-1.147-.386-1.147-.239.068,0,1,.112,1.434s.249.9.388,1.527c.357,1.232.392,3.08.622,3.789S433.648,327.8,433.51,327.288Z" transform="translate(-431.566 -319.548)" fill="#37474f"/>
              <g id="Grupo_932884" data-name="Grupo 932884" transform="translate(0.7 2.497)">
                <g id="Grupo_932879" data-name="Grupo 932879" transform="translate(0.881 4.49)">
                  <path id="Trazado_742629" data-name="Trazado 742629" d="M437.99,345.736a.157.157,0,0,0,.046-.018,4.726,4.726,0,0,1,2.64-.568.141.141,0,0,0,.152-.1.1.1,0,0,0-.1-.127,4.947,4.947,0,0,0-2.824.609.112.112,0,0,0-.046.159A.124.124,0,0,0,437.99,345.736Z" transform="translate(-437.844 -344.898)" fill="#263238"/>
                </g>
                <g id="Grupo_932880" data-name="Grupo 932880" transform="translate(0.537 3.312)">
                  <path id="Trazado_742630" data-name="Trazado 742630" d="M436.623,341.116a.157.157,0,0,0,.042-.016,5.851,5.851,0,0,1,2.956-.635.142.142,0,0,0,.149-.1.105.105,0,0,0-.1-.124,6.058,6.058,0,0,0-3.123.672.114.114,0,0,0-.053.158A.123.123,0,0,0,436.623,341.116Z" transform="translate(-436.477 -340.222)" fill="#263238"/>
                </g>
                <g id="Grupo_932881" data-name="Grupo 932881" transform="translate(0.377 2.192)">
                  <path id="Trazado_742631" data-name="Trazado 742631" d="M439.01,336.048a.139.139,0,0,0,.1-.089.1.1,0,0,0-.087-.134,5.079,5.079,0,0,0-3.12.646.112.112,0,0,0-.046.159.134.134,0,0,0,.175.027,4.862,4.862,0,0,1,2.92-.607A.145.145,0,0,0,439.01,336.048Z" transform="translate(-435.844 -335.772)" fill="#263238"/>
                </g>
                <g id="Grupo_932882" data-name="Grupo 932882" transform="translate(0.184 1.149)">
                  <path id="Trazado_742632" data-name="Trazado 742632" d="M438.295,331.926a.138.138,0,0,0,.1-.087.1.1,0,0,0-.084-.135,4.579,4.579,0,0,0-3.184.645.11.11,0,0,0-.035.16.134.134,0,0,0,.177.016,4.362,4.362,0,0,1,2.966-.6A.14.14,0,0,0,438.295,331.926Z" transform="translate(-435.074 -331.633)" fill="#263238"/>
                </g>
                <g id="Grupo_932883" data-name="Grupo 932883">
                  <path id="Trazado_742633" data-name="Trazado 742633" d="M437.587,327.361a.14.14,0,0,0,.1-.086.1.1,0,0,0-.082-.137,4.787,4.787,0,0,0-3.2.679.111.111,0,0,0-.04.16.131.131,0,0,0,.176.02,4.574,4.574,0,0,1,2.989-.637A.141.141,0,0,0,437.587,327.361Z" transform="translate(-434.345 -327.07)" fill="#263238"/>
                </g>
              </g>
            </g>
            <g id="Grupo_932886" data-name="Grupo 932886" transform="translate(4.652)">
              <path id="Trazado_742634" data-name="Trazado 742634" d="M395.915,172.5c.655,8.569.944,21.354.944,21.354a44.611,44.611,0,0,1,.731,4.771c.319,3.386.691,11.378.691,11.378a4.338,4.338,0,0,1-4.384.9s-2.808-10.378-3.733-14.366a78.991,78.991,0,0,1-1.266-10.013l-1.039,5.686s.131,2.443.07,4.152c-.071,1.989-1.062,12.793-1.062,12.793a5.7,5.7,0,0,1-5.023-.357s-.471-13.934-.531-16.326c-.118-4.691-.252-13.918.3-19.969Z" transform="translate(-381.208 -172.502)" fill="#37474f"/>
              <path id="Trazado_742635" data-name="Trazado 742635" d="M399.273,205.924l-.935-6.1a7.113,7.113,0,0,1-3.262-1.394,4.377,4.377,0,0,0,2.75,1.957l.929,5.548-.52,5.67Z" transform="translate(-391.583 -191.904)" fill="#263238"/>
            </g>
            <g id="Grupo_932887" data-name="Grupo 932887" transform="translate(16.578 13.385)">
              <path id="Trazado_742636" data-name="Trazado 742636" d="M432.1,225.648s.248,6.03.231,6.469-3.3,1.307-3.38,1.028c-.141-.465-.106-1.5-.389-6.5C431.282,226.3,432.1,225.648,432.1,225.648Z" transform="translate(-428.564 -225.648)" fill="#455a64"/>
              <path id="Trazado_742637" data-name="Trazado 742637" d="M430.55,234.391a1.052,1.052,0,0,1,.309-.026c.12,0,.24-.008.36-.018a5.632,5.632,0,0,0,.755-.116,5.993,5.993,0,0,0,.828-.251c.22-.084.428-.2.647-.28.021-.008.024.032.011.042a3.172,3.172,0,0,1-.692.352,5.178,5.178,0,0,1-.684.22,5.577,5.577,0,0,1-.753.134q-.19.02-.381.028a.831.831,0,0,1-.4-.029C430.532,234.437,430.53,234.4,430.55,234.391Z" transform="translate(-430.039 -231.671)" fill="#37474f"/>
              <path id="Trazado_742638" data-name="Trazado 742638" d="M436.113,232.932a.163.163,0,0,0,.057.138.225.225,0,0,0,.235,0,.228.228,0,0,0,.117-.227.2.2,0,0,0-.081-.137.237.237,0,0,0-.165-.042c-.071.008-.095.047-.126.109A.345.345,0,0,0,436.113,232.932Zm.136-.137a.128.128,0,0,1,.092-.024c.1.011.12.173.036.221a.117.117,0,1,1-.127-.2Z" transform="translate(-434.212 -230.899)" fill="#37474f"/>
            </g>
          </g>
          <g id="Top">
            <g id="Grupo_932890" data-name="Grupo 932890" transform="translate(0 12.977)">
              <g id="Grupo_932889" data-name="Grupo 932889">
                <g id="Grupo_932888" data-name="Grupo 932888">
                  <path id="Trazado_742639" data-name="Trazado 742639" d="M326.368,117.315c.521.427,1.057,1.087,1.944,1.844a30.721,30.721,0,0,0,3.525,2.884c1.3.806,1.937,1.131,3.6-.528a45.326,45.326,0,0,0,4.212-5.078L341,110.152c-1.628.184-2.62.9-3.918,2.533-1.823,2.294-4.128,5.267-4.128,5.267s-3.811-2.347-4.305-2.717a2.058,2.058,0,0,1-.765-1.117,9.592,9.592,0,0,0-.368-1.1c-.147-.383-.2-.528-.374-1.009s-.287-1.285-.34-1.463c-.107-.2-.405-.193-.671.29a1.935,1.935,0,0,0-.136.962c.008.292.088.65,0,.695a5.619,5.619,0,0,1-.915-.288,2.235,2.235,0,0,0-1.246-.173.548.548,0,0,0-.4.715.709.709,0,0,0,.24.286.588.588,0,0,0-.449.126.639.639,0,0,0-.031.81.363.363,0,0,0-.363.31c-.056.272-.034.545.237.659,0,0-.228.047-.245.179a.65.65,0,0,0,.2.608,2.117,2.117,0,0,0,.779.206s.039.1.3.241a6.561,6.561,0,0,0,.86.493A5.541,5.541,0,0,1,326.368,117.315Z" transform="translate(-322.807 -110.015)" fill="#ffbda7"/>
                  <path id="Trazado_742640" data-name="Trazado 742640" d="M363.1,140.253a3.051,3.051,0,0,1,1.272,2.042,2.354,2.354,0,0,0-1.044-2.334Z" transform="translate(-352.954 -132.317)" fill="#f0997a"/>
                  <path id="Trazado_742641" data-name="Trazado 742641" d="M374.614,109.61a3.905,3.905,0,0,0-2.888,1.181c-.579.579-1.536,1.677-2.567,2.973-.689.865-1.645,2.1-1.645,2.1s-.079,2.371,2.891,3.7l2.8-3.456Z" transform="translate(-356.254 -109.61)" fill="#37474f"/>
                  <path id="Trazado_742642" data-name="Trazado 742642" d="M325.339,122a.234.234,0,0,1-.061.2,1.882,1.882,0,0,1-.2.189,1.091,1.091,0,0,1-.107.086.459.459,0,0,1-.117.057l-.273.091a1.135,1.135,0,0,0,.293-.015.372.372,0,0,0,.147-.054,1.146,1.146,0,0,0,.123-.086,1.23,1.23,0,0,0,.2-.223.318.318,0,0,0,.046-.152.2.2,0,0,0-.03-.095,1.317,1.317,0,0,0,.222-.077.728.728,0,0,0,.311-.2.55.55,0,0,0,.067-.178.217.217,0,0,0,0-.061l.088-.121a1.609,1.609,0,0,0,.372.667,1.924,1.924,0,0,0,.766.532,1.665,1.665,0,0,1-.737-2.085.117.117,0,0,0,.02-.006.261.261,0,0,0,.091-.106.352.352,0,0,0,.017-.257.725.725,0,0,0-.11-.216,1.353,1.353,0,0,0-.774-.473.648.648,0,0,0-.11-.17,1.013,1.013,0,0,0-.154-.144,1.288,1.288,0,0,1,.136.158.6.6,0,0,1,.093.179l0,.011.012,0a1.4,1.4,0,0,1,.72.486.385.385,0,0,1,.079.375c-.037.065-.062.083-.134.071s-.145-.029-.221-.042c-.154-.026-.305-.033-.452-.055a1.777,1.777,0,0,1-.424-.123c-.137-.058-.269-.132-.4-.2a3.12,3.12,0,0,1-.387-.235,3.682,3.682,0,0,0,.759.506,1.517,1.517,0,0,0,.44.145c.153.026.3.035.449.063l.088.019a.282.282,0,0,1,.093.179.31.31,0,0,1-.163.3,1.864,1.864,0,0,1-.335.179,1.047,1.047,0,0,1-.361.074,2.6,2.6,0,0,1-.719-.243c-.242-.1-.483-.2-.73-.281.229.126.463.241.7.355.117.058.236.111.356.164a1.151,1.151,0,0,0,.392.107,1.168,1.168,0,0,0,.248-.042.37.37,0,0,1,.2.135.172.172,0,0,1,.028.145.5.5,0,0,1-.068.147.777.777,0,0,1-.284.164.73.73,0,0,1-.319.074,1.3,1.3,0,0,1-.322-.107,2.151,2.151,0,0,0-.35-.083c-.234-.04-.468-.071-.7-.09.229.06.46.112.688.167a3.378,3.378,0,0,1,.334.094,1.29,1.29,0,0,0,.346.121A.5.5,0,0,0,325.339,122Zm.9-1.529-.005-.007h0Z" transform="translate(-323.587 -116.711)" fill="#f0997a"/>
                </g>
              </g>
            </g>
            <g id="Chest" transform="translate(15.095 12.909)">
              <path id="Trazado_742643" data-name="Trazado 742643" d="M389.007,109.342s4.963.275,6.2.839c.566.258,1.8,1.73,1.548,5.27-.1,1.424-.678,4.332-.69,5.4a43.326,43.326,0,0,0,1.317,6.412c-4.657,2.863-12.89,1.984-14.559.451,0,0,.566-6.335.743-9.591a5.741,5.741,0,0,1-.819-2.515c.107-1.485.416-2.012,1.775-3.672a27.88,27.88,0,0,1,2.323-2.536Z" transform="translate(-382.744 -109.342)" fill="#455a64"/>
            </g>
            <g id="Grupo_932898" data-name="Grupo 932898" transform="translate(17.235 0.31)">
              <path id="Trazado_742644" data-name="Trazado 742644" d="M399.825,61.693c1.6.177,1.988,2.794,1.608,4.27-.733,2.847-2.655,3.18-2.729,4.4l-2.877-1.687-2.238-1.313a6.1,6.1,0,0,1-1.723-1.321,2.92,2.92,0,0,1-.374-.554,2.674,2.674,0,0,1-.244-1.368,5.165,5.165,0,0,1,2.17-3.655,4.629,4.629,0,0,1,3.456-1.086A3.71,3.71,0,0,1,399.825,61.693Z" transform="translate(-391.24 -59.319)" fill="#263238"/>
              <path id="Trazado_742645" data-name="Trazado 742645" d="M417.008,89.289a1.014,1.014,0,0,1,0,.651,1.483,1.483,0,0,0,1-1.061,1.527,1.527,0,0,0,1.028-.288,1.393,1.393,0,0,0,.464-.894c.041-.2-.056-.792-.317-.847a.67.67,0,0,0,.78-.844.334.334,0,0,1-.456.191.617.617,0,0,1-.317-.444c-.042-.184-.036-.375-.061-.562-.226-1.7-2.394-1.787-3.673-1.507a3.3,3.3,0,0,0-.9.312,2.637,2.637,0,0,0-.719.6,3.807,3.807,0,0,0-.459,4.05,2.124,2.124,0,0,0,1.392,1.271,2.388,2.388,0,0,0,1.76-.228.829.829,0,0,0,.36-.64A.97.97,0,0,1,417.008,89.289Z" transform="translate(-407.518 -77.457)" fill="#263238"/>
              <g id="Grupo_932897" data-name="Grupo 932897" transform="translate(0.398 2.982)">
                <path id="Trazado_742646" data-name="Trazado 742646" d="M399.818,80.357l.159-2.64a1.154,1.154,0,0,0,1.418-.283,1.752,1.752,0,0,0,.436-2.282,1.237,1.237,0,0,0-1.982.378c-.687.164-.965-.817-.444-1.823,0,0-3.325.227-4.867-2.3a.833.833,0,0,0-1.342.21,4.061,4.061,0,0,0-.222,2.271c.057.471-.17,1.034-.152,1.67.07,2.511.642,3.319,1.33,3.743a3.812,3.812,0,0,0,1.868.414l-.037.506-.025.342-.4.233-.476.028s-1.481,2.193,1.048,2.468a7.128,7.128,0,0,0,5.28-2.023s-.212-.036-.795-.122S399.867,80.85,399.818,80.357Z" transform="translate(-392.821 -71.158)" fill="#ffbda7"/>
                <g id="Grupo_932896" data-name="Grupo 932896" transform="translate(0.577 1.519)">
                  <g id="Grupo_932891" data-name="Grupo 932891" transform="translate(2.03 4.125)">
                    <path id="Trazado_742647" data-name="Trazado 742647" d="M404.533,93.569l-1.364.441a.7.7,0,0,0,.89.486A.75.75,0,0,0,404.533,93.569Z" transform="translate(-403.169 -93.569)" fill="#b16668"/>
                    <path id="Trazado_742648" data-name="Trazado 742648" d="M405.91,94.823a.789.789,0,0,0-.786.618.683.683,0,0,0,.4-.007.737.737,0,0,0,.494-.6A.812.812,0,0,0,405.91,94.823Z" transform="translate(-404.632 -94.507)" fill="#f28f8f"/>
                  </g>
                  <g id="Grupo_932892" data-name="Grupo 932892">
                    <path id="Trazado_742649" data-name="Trazado 742649" d="M395.147,77.9l.9-.4a.475.475,0,0,0-.638-.261A.52.52,0,0,0,395.147,77.9Z" transform="translate(-395.11 -77.189)" fill="#263238"/>
                    <path id="Trazado_742650" data-name="Trazado 742650" d="M396.767,81.952a.424.424,0,0,1-.378.451.4.4,0,0,1-.444-.362.424.424,0,0,1,.378-.451A.4.4,0,0,1,396.767,81.952Z" transform="translate(-395.734 -80.48)" fill="#263238"/>
                  </g>
                  <g id="Grupo_932893" data-name="Grupo 932893" transform="translate(3.332 0.32)">
                    <path id="Trazado_742651" data-name="Trazado 742651" d="M409.808,79.21l-.88-.479a.481.481,0,0,1,.665-.213A.527.527,0,0,1,409.808,79.21Z" transform="translate(-408.78 -78.459)" fill="#263238"/>
                    <path id="Trazado_742652" data-name="Trazado 742652" d="M409.163,82.3a.424.424,0,0,1-.378.451.4.4,0,0,1-.444-.363.424.424,0,0,1,.378-.451A.4.4,0,0,1,409.163,82.3Z" transform="translate(-408.34 -81.061)" fill="#263238"/>
                  </g>
                  <g id="Grupo_932894" data-name="Grupo 932894" transform="translate(0.916 0.728)">
                    <path id="Trazado_742653" data-name="Trazado 742653" d="M400.415,80.081l-.294,2.821-1.375-.728Z" transform="translate(-398.746 -80.081)" fill="#f0997a"/>
                  </g>
                  <g id="Grupo_932895" data-name="Grupo 932895" transform="translate(2.585 5.312)">
                    <path id="Trazado_742654" data-name="Trazado 742654" d="M405.41,100.006c1.819.029,2.98-.627,3.472-1.724a2.708,2.708,0,0,1-.894,1.584,5.628,5.628,0,0,1-2.614.646Z" transform="translate(-405.373 -98.282)" fill="#f0997a"/>
                  </g>
                </g>
              </g>
            </g>
            <g id="Grupo_932902" data-name="Grupo 932902" transform="translate(13.745 12.696)">
              <g id="Grupo_932900" data-name="Grupo 932900">
                <path id="Trazado_742655" data-name="Trazado 742655" d="M384.407,108.5a11.314,11.314,0,0,0-1.749,2.071,14.377,14.377,0,0,0-2.627,6.452c-.264,2.73-.337,14.024-.337,14.024a4.981,4.981,0,0,1-2.312-.529c.428-6.262.865-12.4,1.172-15.532a8.226,8.226,0,0,1,.934-3.011A10.235,10.235,0,0,1,382,108.777Z" transform="translate(-377.383 -108.496)" fill="#fd9927"/>
                <g id="Grupo_932899" data-name="Grupo 932899" transform="translate(0.255 14.024)">
                  <path id="Trazado_742656" data-name="Trazado 742656" d="M379.333,165.154a18.549,18.549,0,0,0,1.91.407c.006-.323.012-.646.019-.967a17.547,17.547,0,0,1-1.858-.417Q379.368,164.659,379.333,165.154Z" transform="translate(-379.097 -164.177)" fill="#fafafa"/>
                  <path id="Trazado_742657" data-name="Trazado 742657" d="M380.5,177.832a17.634,17.634,0,0,1-2.038-.475q-.034.485-.069.978a18.482,18.482,0,0,0,2.094.465C380.495,178.488,380.5,178.164,380.5,177.832Z" transform="translate(-378.397 -174.038)" fill="#fafafa"/>
                </g>
              </g>
              <g id="Grupo_932901" data-name="Grupo 932901" transform="translate(10.105 0.209)">
                <path id="Trazado_742658" data-name="Trazado 742658" d="M418.39,109.326c.327.386-.016,1.2-.239,2.184a28.189,28.189,0,0,0-.643,5.692c-.055,4.6,1.373,14.813,1.373,14.813a11.275,11.275,0,0,0,5.386-1.505,41.823,41.823,0,0,0-1.392-6.609,12.058,12.058,0,0,1-.041-6.22,10.572,10.572,0,0,0-1.021-7.535Z" transform="translate(-417.507 -109.326)" fill="#fd9927"/>
                <path id="Trazado_742659" data-name="Trazado 742659" d="M420.846,178.89a13.356,13.356,0,0,0,5.267-1.373c-.067-.3-.131-.589-.208-.891a16.588,16.588,0,0,1-5.172,1.328C420.772,178.277,420.81,178.59,420.846,178.89Z" transform="translate(-419.921 -159.676)" fill="#fafafa"/>
                <path id="Trazado_742660" data-name="Trazado 742660" d="M424.124,164.975c-.069-.239-.13-.489-.185-.747a17.635,17.635,0,0,1-4.763.847q.048.481.1.957a18.577,18.577,0,0,0,4.9-.871C424.158,165.1,424.141,165.033,424.124,164.975Z" transform="translate(-418.756 -150.401)" fill="#fafafa"/>
              </g>
            </g>
            <g id="Grupo_932903" data-name="Grupo 932903" transform="translate(15.84)">
              <path id="Trazado_742661" data-name="Trazado 742661" d="M402.315,64.6a5.3,5.3,0,0,1-.476,1.445,5.455,5.455,0,0,0-.332-.437,8.9,8.9,0,0,0-2.426-1.973h0a10.773,10.773,0,0,0-7.013-1.346,5.087,5.087,0,0,1,.5-1.207,5.258,5.258,0,0,1,9.75,3.517Z" transform="translate(-390.462 -58.336)" fill="#feca2e"/>
              <path id="Trazado_742662" data-name="Trazado 742662" d="M405.787,58.955c-.253-.148-1.542-.649-1.645-.69a3.141,3.141,0,0,0-2.973.5,5.344,5.344,0,0,0-2,2.714l1.369.553.445.079c.248-1.018,1.788-3.133,3.7-3.064a1.8,1.8,0,0,1,.27.025,2.506,2.506,0,0,1,.728.21,7.2,7.2,0,0,1,.694.654A1.177,1.177,0,0,0,405.787,58.955Z" transform="translate(-395.78 -58.086)" fill="#feca2e"/>
              <path id="Trazado_742663" data-name="Trazado 742663" d="M405.787,58.955c-.253-.148-1.542-.649-1.645-.69a3.141,3.141,0,0,0-2.973.5,5.344,5.344,0,0,0-2,2.714l1.369.553.445.079c.248-1.018,1.788-3.133,3.7-3.064a1.8,1.8,0,0,1,.27.025,2.506,2.506,0,0,1,.728.21,7.2,7.2,0,0,1,.694.654A1.177,1.177,0,0,0,405.787,58.955Z" transform="translate(-395.78 -58.216)" fill="#fff" opacity="0.45"/>
              <path id="Trazado_742664" data-name="Trazado 742664" d="M405.054,63.76c.291-1.184,2.35-3.882,4.7-2.831a7.2,7.2,0,0,1,.7.654,1.185,1.185,0,0,0-.6-.981,3.027,3.027,0,0,0-3.25.367,5.33,5.33,0,0,0-1.994,2.713Z" transform="translate(-399.849 -59.733)" fill="#feca2e"/>
              <path id="Trazado_742665" data-name="Trazado 742665" d="M405.054,63.76c.291-1.184,2.35-3.882,4.7-2.831a7.2,7.2,0,0,1,.7.654,1.185,1.185,0,0,0-.6-.981,3.027,3.027,0,0,0-3.25.367,5.33,5.33,0,0,0-1.994,2.713Z" transform="translate(-399.849 -59.733)" opacity="0.3"/>
              <path id="Trazado_742666" data-name="Trazado 742666" d="M394.392,67.968a5.888,5.888,0,0,0-2.168-2.261A10.941,10.941,0,0,0,388,64.779c-1.734-.11-2.177.225-2.219.478-.01.06-.057.338-.07.4a.248.248,0,0,0,.023.167,6.764,6.764,0,0,0,1.573,1.206,10.773,10.773,0,0,1,7.013,1.346Z" transform="translate(-385.705 -63.077)" fill="#feca2e"/>
              <path id="Trazado_742667" data-name="Trazado 742667" d="M394.392,67.968a5.888,5.888,0,0,0-2.168-2.261A10.941,10.941,0,0,0,388,64.779c-1.734-.11-2.177.225-2.219.478-.01.06-.057.338-.07.4a.248.248,0,0,0,.023.167,6.764,6.764,0,0,0,1.573,1.206,10.773,10.773,0,0,1,7.013,1.346Z" transform="translate(-385.705 -63.077)" opacity="0.15"/>
              <path id="Trazado_742668" data-name="Trazado 742668" d="M394.317,69.592a10.773,10.773,0,0,0-7.013-1.346,6.764,6.764,0,0,1-1.573-1.206c-.121-.228.048-.774,2.193-.638a10.942,10.942,0,0,1,4.224.929A5.892,5.892,0,0,1,394.317,69.592Z" transform="translate(-385.703 -64.292)" fill="#feca2e"/>
              <path id="Trazado_742669" data-name="Trazado 742669" d="M394.317,69.592a10.773,10.773,0,0,0-7.013-1.346,6.764,6.764,0,0,1-1.573-1.206c-.121-.228.048-.774,2.193-.638a10.942,10.942,0,0,1,4.224.929A5.892,5.892,0,0,1,394.317,69.592Z" transform="translate(-385.665 -64.292)" opacity="0.3"/>
            </g>
            <g id="Grupo_932912" data-name="Grupo 932912" transform="translate(8.963 13.722)">
              <g id="Grupo_932908" data-name="Grupo 932908" transform="translate(0 8.703)">
                <path id="Trazado_742670" data-name="Trazado 742670" d="M358.573,147.125l8.99,2.3,3.319,10.161-.176.224-8.562-2.361-3.747-10.1Z" transform="translate(-358.396 -147.125)" fill="#4dd0e1"/>
                <path id="Trazado_742671" data-name="Trazado 742671" d="M394.093,156.493l3.319,10.161.176-.224-3.319-10.161Z" transform="translate(-385.102 -153.966)" opacity="0.35"/>
                <path id="Trazado_742672" data-name="Trazado 742672" d="M358.4,148.016l8.99,2.3,3.319,10.161-8.562-2.361Z" transform="translate(-358.397 -147.791)" opacity="0.25"/>
                <g id="Grupo_932904" data-name="Grupo 932904" transform="translate(2.707 1.663)" opacity="0.1">
                  <path id="Trazado_742673" data-name="Trazado 742673" d="M369.253,154.182l-.1-.342c-.057-.189.464-.133,1.163.124l1.616.337c.7.257,1.354.437,1.41.625l.1.342Z" transform="translate(-369.146 -153.729)"/>
                </g>
                <g id="Grupo_932905" data-name="Grupo 932905" transform="translate(2.153 0.329)">
                  <path id="Trazado_742674" data-name="Trazado 742674" d="M366.949,148.691c-.036-.118.165-.111.45-.062l.517.126s-.249-.486.967-.27c1.339.238,1.424.889,1.424.889a5.7,5.7,0,0,0,.648.173c.446.1.5.183.548.3l.084.215-4.582-1.171S366.984,148.809,366.949,148.691Z" transform="translate(-366.944 -148.431)" fill="#37474f"/>
                </g>
                <g id="Grupo_932906" data-name="Grupo 932906" transform="translate(2.514 0.793)">
                  <path id="Trazado_742675" data-name="Trazado 742675" d="M368.547,150.7c.428.15.607.226.695.517.1.332.127.472.127.472l2.4.708s-.169-.487-.215-.65.26-.192.678-.042l-.132-.407-3.717-1.019Z" transform="translate(-368.378 -150.274)" fill="#37474f"/>
                </g>
                <g id="Grupo_932907" data-name="Grupo 932907" transform="translate(2.589 1.68)">
                  <path id="Trazado_742676" data-name="Trazado 742676" d="M368.781,154.248l-.1-.342c-.057-.188.464-.133,1.163.124l1.616.337c.7.257,1.353.437,1.41.625l.1.342Z" transform="translate(-368.674 -153.794)" fill="#37474f"/>
                </g>
              </g>
              <g id="Grupo_932911" data-name="Grupo 932911" transform="translate(6.742)">
                <path id="Trazado_742677" data-name="Trazado 742677" d="M401.195,117.823c-.818-3.279-1.74-4.025-3.606-4.369-1.659,2.65-.71,6.778-.71,6.778L398,125.259a59.661,59.661,0,0,1-5.722,3.506,2.312,2.312,0,0,1-1.154-.1,5.023,5.023,0,0,0-2.124-.107l.356,1.09a5.308,5.308,0,0,1-.993.249,5.94,5.94,0,0,1-1.611.018,2.2,2.2,0,0,0-1.427.129c-.1.063-.19.173-.154.283.025.077.1.121.168.166a.983.983,0,0,1,.364.467,1.667,1.667,0,0,0,.651.881,4.289,4.289,0,0,0,2.456,1,2.871,2.871,0,0,0,.609.063,9.176,9.176,0,0,0,2.3-.517c.927-.282,1.458-.526,2.209-.772.5-.165,1.467-.52,1.961-.706,2.881-1.082,6.8-2.492,7-3.874S402.04,121.209,401.195,117.823Z" transform="translate(-385.167 -113.232)" fill="#ffbda7"/>
                <g id="Grupo_932910" data-name="Grupo 932910" transform="translate(11.155)">
                  <g id="Grupo_932909" data-name="Grupo 932909">
                    <path id="Trazado_742678" data-name="Trazado 742678" d="M430.757,112.571c2.222.523,2.538.948,3.147,2.633a72.948,72.948,0,0,1,1.965,7.947c-.973.959-3.947,1.568-5.005.874l-1-4.363C429.519,118.194,428.834,114.879,430.757,112.571Z" transform="translate(-429.458 -112.571)" fill="#37474f"/>
                  </g>
                </g>
              </g>
            </g>
          </g>
        </g>
      </g>
      <g id="Character_1" data-name="Character 1" transform="translate(14.455 51.928)">
        <g id="Chartacter" transform="translate(0)">
          <g id="Bottom-2" data-name="Bottom" transform="translate(1.462 29.682)">
            <g id="Grupo_932919" data-name="Grupo 932919" transform="translate(13.363 31.719)">
              <path id="Trazado_742679" data-name="Trazado 742679" d="M98.006,299.383l-.4-3.659,4.237.276s-.064,1.986-.124,3.111a4.559,4.559,0,0,0,.871,1.9s-1.99,1.055-3.057.686a2.786,2.786,0,0,1-1.616-1.967C97.936,299.442,98.006,299.383,98.006,299.383Z" transform="translate(-97.406 -295.724)" fill="#ffbda7"/>
              <path id="Trazado_742680" data-name="Trazado 742680" d="M107.625,325.91a.907.907,0,0,1-.179.975,4.755,4.755,0,0,1-3.264.744,5.944,5.944,0,0,1-3.176-1.11,6.9,6.9,0,0,0-2.32-1.325,4.647,4.647,0,0,1-1.654-.593c-.222-.192-.206-1.061-.206-1.061Z" transform="translate(-96.82 -316.534)" fill="#263238"/>
              <path id="Trazado_742681" data-name="Trazado 742681" d="M97.4,310.227a.258.258,0,0,0-.243.207c-.046.24-.089.937-.19,1.332a6.505,6.505,0,0,0-.125,2.113c.1.444,1.215.734,1.931.973a9.187,9.187,0,0,1,2.328,1.308,6.827,6.827,0,0,0,3.45,1.124c1.253-.03,2.659-.429,2.973-.972.389-.672.668-1.45-1.2-2.215-.354-.145-1.6-.8-2.026-1.039a5.2,5.2,0,0,1-2.506-2.405.657.657,0,0,0-.273-.355.637.637,0,0,0-.362-.024,13.042,13.042,0,0,0-1.822.353c-.248.114-.6.248-.589.543a.92.92,0,0,0,.075.3c.023.06.042.14-.014.177s-.126,0-.175-.042a4.559,4.559,0,0,1-.51-.548,1.768,1.768,0,0,0-.3-.272,3.167,3.167,0,0,1-.321-.185C97.384,310.5,97.409,310.366,97.4,310.227Z" transform="translate(-96.801 -306.574)" fill="#455a64"/>
              <path id="Trazado_742682" data-name="Trazado 742682" d="M110.832,327.142c-.328-.242-.676-.475-1.026-.683h0s2.206,1.193,3.08.62a.7.7,0,0,0,.269-.941,8.4,8.4,0,0,1,2.528-1.229h0c.155.076.286.137.367.171,1.872.765,1.593,1.543,1.2,2.215-.315.543-1.33.98-2.95,1.007A7.014,7.014,0,0,1,110.832,327.142Z" transform="translate(-106.531 -317.558)" fill="#37474f"/>
              <path id="Trazado_742683" data-name="Trazado 742683" d="M104.122,314.749c1.163.408.673.616.35.664a12.649,12.649,0,0,1-3.487-1.818c-1.252-.885-2.049-1.862-2.514-2.187-.173-.121-.36-.27-.527-.41.027-.236.048-.451.07-.564a.258.258,0,0,1,.243-.207c.008.139-.017.268.1.37a3.168,3.168,0,0,0,.321.185,1.768,1.768,0,0,1,.3.272,4.56,4.56,0,0,0,.51.548A14.976,14.976,0,0,0,104.122,314.749Z" transform="translate(-97.656 -306.574)" fill="#37474f"/>
              <g id="Grupo_932918" data-name="Grupo 932918" transform="translate(2.709 4.994)">
                <g id="Grupo_932913" data-name="Grupo 932913" transform="translate(3.905 2.307)">
                  <path id="Trazado_742684" data-name="Trazado 742684" d="M123.181,326.1a.119.119,0,0,1-.073-.023.1.1,0,0,1-.018-.149,4.766,4.766,0,0,1,2.7-1.206.108.108,0,0,1,.1.115.11.11,0,0,1-.124.1,4.607,4.607,0,0,0-2.5,1.126A.117.117,0,0,1,123.181,326.1Z" transform="translate(-123.065 -324.715)" fill="#263238"/>
                </g>
                <g id="Grupo_932914" data-name="Grupo 932914" transform="translate(2.888 1.751)">
                  <path id="Trazado_742685" data-name="Trazado 742685" d="M119.141,323.886a.121.121,0,0,1-.073-.023.1.1,0,0,1-.019-.149,4.77,4.77,0,0,1,2.7-1.206.108.108,0,0,1,.1.115.112.112,0,0,1-.124.1,4.612,4.612,0,0,0-2.5,1.126A.117.117,0,0,1,119.141,323.886Z" transform="translate(-119.025 -322.505)" fill="#263238"/>
                </g>
                <g id="Grupo_932915" data-name="Grupo 932915" transform="translate(1.87 1.224)">
                  <path id="Trazado_742686" data-name="Trazado 742686" d="M115.1,321.795a.121.121,0,0,1-.073-.023.1.1,0,0,1-.019-.149,4.76,4.76,0,0,1,2.7-1.206.108.108,0,0,1,.1.115.111.111,0,0,1-.124.1,4.6,4.6,0,0,0-2.5,1.126A.117.117,0,0,1,115.1,321.795Z" transform="translate(-114.985 -320.413)" fill="#263238"/>
                </g>
                <g id="Grupo_932916" data-name="Grupo 932916" transform="translate(0.926 0.619)">
                  <path id="Trazado_742687" data-name="Trazado 742687" d="M111.351,319.393a.118.118,0,0,1-.073-.023.1.1,0,0,1-.019-.149,4.775,4.775,0,0,1,2.7-1.206.108.108,0,0,1,.1.115.111.111,0,0,1-.124.1,4.616,4.616,0,0,0-2.5,1.126A.117.117,0,0,1,111.351,319.393Z" transform="translate(-111.235 -318.012)" fill="#263238"/>
                </g>
                <g id="Grupo_932917" data-name="Grupo 932917">
                  <path id="Trazado_742688" data-name="Trazado 742688" d="M107.675,316.949a.119.119,0,0,1-.071-.022.1.1,0,0,1-.021-.148,4.735,4.735,0,0,1,2.9-1.22.108.108,0,0,1,.1.115.113.113,0,0,1-.124.1,4.579,4.579,0,0,0-2.7,1.137A.117.117,0,0,1,107.675,316.949Z" transform="translate(-107.559 -315.554)" fill="#263238"/>
                </g>
              </g>
            </g>
            <g id="Grupo_932926" data-name="Grupo 932926" transform="translate(0 33.247)">
              <path id="Trazado_742689" data-name="Trazado 742689" d="M54.587,305.917l.968-3.467-4.313-.66-.193,3.355s-.459,1.2-.2,1.639,3.13.941,3.4.653A4,4,0,0,0,54.587,305.917Z" transform="translate(-49.001 -301.79)" fill="#ffbda7"/>
              <path id="Trazado_742690" data-name="Trazado 742690" d="M48.886,342.906a4.293,4.293,0,0,1-.857,2.343,1.878,1.878,0,0,1-2.144.365,2.987,2.987,0,0,1-2.047-1.909A5.228,5.228,0,0,1,44,341.125Z" transform="translate(-43.743 -331.218)" fill="#263238"/>
              <path id="Trazado_742691" data-name="Trazado 742691" d="M46.167,315.113c-.347-.023-.278,1.453-.57,2.883-.313,1.533-.885,2.107-1.157,3.362a3.73,3.73,0,0,0,.263,3.063c.528.964,2.541,2.111,3.641.981.9-.921,1-2.062,1.021-3.533a32.54,32.54,0,0,1,.16-3.729c.137-1.086.471-2.05.179-2.213-.033.158-.069.359-.1.514-.026.119-.1.707-.292.687a2.01,2.01,0,0,1,.022-.413.465.465,0,0,0-.072-.366,1.616,1.616,0,0,0-.554-.288c-.336-.105-.936-.238-1.28-.312-.171-.037-.343-.067-.516-.089a1.524,1.524,0,0,0-.441,0,.269.269,0,0,0-.2.123.409.409,0,0,0-.029.164,1.033,1.033,0,0,1-.062.294c-.015.042-.053.09-.1.073a.092.092,0,0,1-.051-.1c.01-.177.044-.3.066-.506.01-.094.036-.221.044-.316S46.154,315.206,46.167,315.113Z" transform="translate(-44.12 -311.757)" fill="#455a64"/>
              <path id="Trazado_742692" data-name="Trazado 742692" d="M44.545,338.3c-.047.207-.34,1.576.078,1.887.452.336.779-.728.779-.728a4.892,4.892,0,0,1,2.683.684c-.1.216.1,1,.553.9s.721-1.677.725-1.7a4.556,4.556,0,0,1-1.019,3.406c-1.1,1.129-3.113-.018-3.641-.981a3.73,3.73,0,0,1-.263-3.063C44.471,338.562,44.506,338.428,44.545,338.3Z" transform="translate(-44.12 -329.105)" fill="#37474f"/>
              <path id="Trazado_742693" data-name="Trazado 742693" d="M47.52,322.222c-.041.528-.624.269-.6-.481s.6-2.46.677-3.745c.125-1.764.223-2.906.57-2.883,0,.018,0,.036-.005.053l-.093.734a2.983,2.983,0,0,0-.04.314c-.077,1.078-.12,3.173-.289,4.145A15.042,15.042,0,0,0,47.52,322.222Z" transform="translate(-46.117 -311.757)" fill="#37474f"/>
              <path id="Trazado_742694" data-name="Trazado 742694" d="M58.692,325.182a14.758,14.758,0,0,0,.447-1.811c.181-.962.791-2.884,1.095-3.918a2.326,2.326,0,0,0,.158-.586c.032-.144.065-.328.1-.48,0-.011.006-.021.009-.032.21.12.126.955.008,1.386s-.262.893-.411,1.512c-.376,1.219-.436,3.055-.677,3.756S58.546,325.686,58.692,325.182Z" transform="translate(-54.911 -314.183)" fill="#37474f"/>
              <g id="Grupo_932925" data-name="Grupo 932925" transform="translate(1.155 5.772)">
                <g id="Grupo_932920" data-name="Grupo 932920" transform="translate(0 4.45)">
                  <path id="Trazado_742695" data-name="Trazado 742695" d="M51.171,343.242a.158.158,0,0,1-.046-.018,4.784,4.784,0,0,0-2.643-.6.142.142,0,0,1-.151-.1.1.1,0,0,1,.1-.125,5.008,5.008,0,0,1,2.826.643.111.111,0,0,1,.044.159A.125.125,0,0,1,51.171,343.242Z" transform="translate(-48.328 -342.378)" fill="#263238"/>
                </g>
                <g id="Grupo_932921" data-name="Grupo 932921" transform="translate(0.053 3.28)">
                  <path id="Trazado_742696" data-name="Trazado 742696" d="M51.689,338.657a.161.161,0,0,1-.042-.016,5.922,5.922,0,0,0-2.959-.671.142.142,0,0,1-.148-.105.1.1,0,0,1,.1-.122,6.134,6.134,0,0,1,3.126.71.113.113,0,0,1,.051.158A.125.125,0,0,1,51.689,338.657Z" transform="translate(-48.538 -337.732)" fill="#263238"/>
                </g>
                <g id="Grupo_932922" data-name="Grupo 932922" transform="translate(0.248 2.172)">
                  <path id="Trazado_742697" data-name="Trazado 742697" d="M49.419,333.6a.14.14,0,0,1-.1-.09.1.1,0,0,1,.089-.132,5.139,5.139,0,0,1,3.124.684.111.111,0,0,1,.044.158.135.135,0,0,1-.176.024,4.922,4.922,0,0,0-2.923-.643A.141.141,0,0,1,49.419,333.6Z" transform="translate(-49.311 -333.333)" fill="#263238"/>
                </g>
                <g id="Grupo_932923" data-name="Grupo 932923" transform="translate(0.402 1.14)">
                  <path id="Trazado_742698" data-name="Trazado 742698" d="M50.032,329.518a.139.139,0,0,1-.1-.088.1.1,0,0,1,.086-.133,4.636,4.636,0,0,1,3.187.684.109.109,0,0,1,.033.16.136.136,0,0,1-.178.014,4.413,4.413,0,0,0-2.969-.635A.147.147,0,0,1,50.032,329.518Z" transform="translate(-49.923 -329.236)" fill="#263238"/>
                </g>
                <g id="Grupo_932924" data-name="Grupo 932924" transform="translate(0.58)">
                  <path id="Trazado_742699" data-name="Trazado 742699" d="M50.74,324.99a.139.139,0,0,1-.1-.087.1.1,0,0,1,.084-.134,4.845,4.845,0,0,1,3.208.718.11.11,0,0,1,.037.159.133.133,0,0,1-.177.018,4.627,4.627,0,0,0-2.991-.673A.14.14,0,0,1,50.74,324.99Z" transform="translate(-50.632 -324.709)" fill="#263238"/>
                </g>
              </g>
            </g>
            <g id="Grupo_932927" data-name="Grupo 932927" transform="translate(1.423)">
              <path id="Trazado_742700" data-name="Trazado 742700" d="M52.656,170.54c-.982,8.208-1.8,19.986-1.8,19.986a42.133,42.133,0,0,0-.9,4.93c-.384,3.359-.555,12.117-.555,12.117.4,1.289,3.543,1.915,4.511.674,0,0,2.891-10.5,3.785-14.48.919-4.09,1.9-10.154,1.9-10.154l.531,6.078s-.185,2.084-.143,3.783c.048,1.976,1.521,13.219,1.521,13.219s3.042.749,5.02-.732c0,0,.551-13.55.648-15.925.189-4.658-.474-14.234-.536-20.253Z" transform="translate(-49.394 -169.782)" fill="#37474f"/>
              <path id="Trazado_742701" data-name="Trazado 742701" d="M89.889,202.776l1.073-6.041a7.805,7.805,0,0,0,3.469-1.338,4.589,4.589,0,0,1-2.935,1.9l-1.059,5.5-.018,6.055Z" transform="translate(-79.69 -188.946)" opacity="0.2"/>
            </g>
          </g>
          <g id="Top-2" data-name="Top">
            <g id="Grupo_932930" data-name="Grupo 932930" transform="translate(17.415 13.578)">
              <g id="Grupo_932929" data-name="Grupo 932929">
                <g id="Grupo_932928" data-name="Grupo 932928">
                  <path id="Trazado_742702" data-name="Trazado 742702" d="M121.21,113.482c-.549.45-1.115,1.146-2.05,1.945a32.4,32.4,0,0,1-3.718,3.042c-1.373.85-2.043,1.193-3.8-.557a47.789,47.789,0,0,1-4.441-5.355l-.1-6.6a5.418,5.418,0,0,1,3.234,2.523c1.743,2.552,2.921,4.2,3.931,5.669,0,0,4.02-2.475,4.541-2.865a2.17,2.17,0,0,0,.807-1.179,10.156,10.156,0,0,1,.388-1.163c.155-.4.215-.557.394-1.064s.3-1.355.359-1.543c.113-.214.427-.2.708.306a2.044,2.044,0,0,1,.144,1.015c-.008.309-.092.685,0,.733a5.918,5.918,0,0,0,.965-.3,2.357,2.357,0,0,1,1.314-.182.578.578,0,0,1,.419.754.746.746,0,0,1-.253.3.621.621,0,0,1,.473.133.674.674,0,0,1,.033.854.383.383,0,0,1,.383.327c.059.287.036.574-.251.7,0,0,.24.05.259.189a.685.685,0,0,1-.207.642,2.233,2.233,0,0,1-.822.217s-.041.105-.312.255a6.914,6.914,0,0,1-.906.52A5.859,5.859,0,0,0,121.21,113.482Z" transform="translate(-107.094 -105.931)" fill="#ffbda7"/>
                  <path id="Trazado_742703" data-name="Trazado 742703" d="M131.494,137.652a3.22,3.22,0,0,0-1.341,2.153,2.46,2.46,0,0,1,1.148-2.435Z" transform="translate(-124.325 -129.43)" fill="#f0997a"/>
                  <path id="Trazado_742704" data-name="Trazado 742704" d="M107.087,105.839a4.6,4.6,0,0,1,2.182,1.211,32.313,32.313,0,0,1,2.422,3.274c.672.953,1.39,1.96,1.39,1.96s.083,2.5-3.049,3.9l-2.948-3.645Z" transform="translate(-107.085 -105.839)" fill="#37474f"/>
                  <path id="Trazado_742705" data-name="Trazado 742705" d="M165.045,118.335a1.358,1.358,0,0,0,.364-.127,3.591,3.591,0,0,1,.353-.1c.241-.058.484-.113.726-.176-.249.02-.5.053-.742.095a2.286,2.286,0,0,0-.369.088,1.36,1.36,0,0,1-.339.112.767.767,0,0,1-.336-.078.82.82,0,0,1-.3-.173.522.522,0,0,1-.072-.155.181.181,0,0,1,.029-.153.391.391,0,0,1,.211-.143.808.808,0,0,0,.675-.069c.128-.056.253-.112.376-.173.247-.12.494-.241.736-.374-.261.091-.516.193-.77.3a2.755,2.755,0,0,1-.759.256,1.093,1.093,0,0,1-.381-.078,1.936,1.936,0,0,1-.353-.188.327.327,0,0,1-.172-.312.294.294,0,0,1,.1-.189l.093-.02c.152-.029.313-.039.473-.066a1.6,1.6,0,0,0,.465-.153,3.87,3.87,0,0,0,.8-.533,3.282,3.282,0,0,1-.409.248c-.14.076-.279.154-.424.215a1.885,1.885,0,0,1-.448.129c-.154.024-.315.03-.477.058-.08.013-.161.034-.233.044s-.1-.006-.141-.074a.406.406,0,0,1,.084-.395,1.477,1.477,0,0,1,.759-.513l.013,0,0-.012a.642.642,0,0,1,.1-.189,1.4,1.4,0,0,1,.144-.167,1.1,1.1,0,0,0-.163.152.691.691,0,0,0-.116.179,1.429,1.429,0,0,0-.816.5.761.761,0,0,0-.115.228.37.37,0,0,0,.018.271.274.274,0,0,0,.1.112.169.169,0,0,0,.021.007,1.756,1.756,0,0,1-.777,2.2,2.029,2.029,0,0,0,.807-.561,1.7,1.7,0,0,0,.393-.7l.093.128a.217.217,0,0,0,0,.064.577.577,0,0,0,.071.188.767.767,0,0,0,.328.215,1.356,1.356,0,0,0,.234.081.21.21,0,0,0-.032.1.333.333,0,0,0,.048.16,1.292,1.292,0,0,0,.211.235,1.2,1.2,0,0,0,.13.091.392.392,0,0,0,.155.057,1.2,1.2,0,0,0,.309.016l-.288-.1a.484.484,0,0,1-.123-.06,1.179,1.179,0,0,1-.113-.091,1.986,1.986,0,0,1-.212-.2.248.248,0,0,1-.064-.209A.534.534,0,0,0,165.045,118.335Zm-1.077-1.629h0l-.006.007Z" transform="translate(-148.894 -112.89)" fill="#f0997a"/>
                </g>
              </g>
            </g>
            <path id="Chest-2" data-name="Chest" d="M61.431,103.619c-.849.175-1.925.395-3.007.694a11.111,11.111,0,0,0-2.777,1.035,43.946,43.946,0,0,0,.822,7.859,34.955,34.955,0,0,1,.919,5.06,29.044,29.044,0,0,1-.152,5.684s2.807,2.083,8.805,1.631c4.71-.355,5.321-2.089,5.321-2.089s-.086-7.85-.208-11.323c-.161-4.562-1.542-7.194-2.559-7.991l-3.091-.515Z" transform="translate(-51.187 -90.6)" fill="#455a64"/>
            <g id="Grupo_932933" data-name="Grupo 932933" transform="translate(4.901 32.08)">
              <path id="Trazado_742706" data-name="Trazado 742706" d="M61.472,179.515a15.866,15.866,0,0,0,6.979,1.822,12.476,12.476,0,0,0,5.671-.893A4.425,4.425,0,0,0,75.6,179.3l.082,1.992s-1.72,1.631-6.375,1.783a17.753,17.753,0,0,1-8-1.79Z" transform="translate(-60.323 -179.303)" fill="#263238"/>
              <g id="Grupo_932932" data-name="Grupo 932932" transform="translate(0 1.667)">
                <path id="Trazado_742707" data-name="Trazado 742707" d="M59.377,185.921a3.071,3.071,0,0,0-1.589,1.292c-.221.665-.6,3.931-.247,4.5a11.226,11.226,0,0,0,4.067,2.159,3.026,3.026,0,0,0,1.964-1.108A31.193,31.193,0,0,0,64,187.992C63.959,187.667,59.377,185.921,59.377,185.921Z" transform="translate(-57.398 -185.921)" fill="#455a64"/>
                <g id="Grupo_932931" data-name="Grupo 932931" transform="translate(0.155 1.772)" opacity="0.2">
                  <path id="Trazado_742708" data-name="Trazado 742708" d="M58.138,192.957a4.291,4.291,0,0,0,.012,1.214,1.726,1.726,0,0,0,.582,1,3.871,3.871,0,0,0,1.022.606,4.853,4.853,0,0,0,1.139.351,1.521,1.521,0,0,0,1.092-.186,1.7,1.7,0,0,0,.625-.938,5.715,5.715,0,0,0,.143-.593,1.19,1.19,0,0,1,.345-.548,2.523,2.523,0,0,1,1.112-.542,2.667,2.667,0,0,0-1.021.634,1.048,1.048,0,0,0-.275.5,5.713,5.713,0,0,1-.109.609,1.847,1.847,0,0,1-.679,1.088,1.749,1.749,0,0,1-1.27.237,4.769,4.769,0,0,1-1.2-.386,3.65,3.65,0,0,1-1.057-.685,1.862,1.862,0,0,1-.571-1.12A3.856,3.856,0,0,1,58.138,192.957Z" transform="translate(-58.015 -192.957)"/>
                </g>
              </g>
            </g>
            <g id="Grupo_932934" data-name="Grupo 932934" transform="translate(7.654 6.413)">
              <path id="Trazado_742709" data-name="Trazado 742709" d="M68.329,77.916c0,.163.62.431.62.431l-.278-.957Z" transform="translate(-68.329 -77.39)" fill="#ba68c8"/>
              <path id="Trazado_742710" data-name="Trazado 742710" d="M68.329,77.916c0,.163.62.431.62.431l-.278-.957Z" transform="translate(-68.329 -77.39)" opacity="0.3"/>
            </g>
            <g id="Head" transform="translate(7.174 0.918)">
              <g id="Grupo_932938" data-name="Grupo 932938">
                <g id="Grupo_932937" data-name="Grupo 932937">
                  <g id="Grupo_932935" data-name="Grupo 932935">
                    <path id="Trazado_742711" data-name="Trazado 742711" d="M69.534,64.921a1.637,1.637,0,0,0-1.2.971c-.239.46-.411,1.3.244,3.7a9.655,9.655,0,0,0,1.153,2.646,1.186,1.186,0,0,0,.689.55l-.048-1.844L70.3,69.657a3.7,3.7,0,0,0,1.125-1.863,2.952,2.952,0,0,0-.349-1.861Z" transform="translate(-67.692 -62.567)" fill="#37474f"/>
                    <path id="Trazado_742712" data-name="Trazado 742712" d="M72.744,57.989c.18-1.036,1.494-2.273,4.029-2.408a4.1,4.1,0,0,1,3.972,2.191,2.425,2.425,0,0,1,.121,2.306l-6.358-.329Z" transform="translate(-71.152 -55.573)" fill="#37474f"/>
                    <path id="Trazado_742713" data-name="Trazado 742713" d="M67.418,71.476a1,1,0,0,0,1.391-.291L68.8,75.073c1.834,2.454,6.879,1.48,4.872-.358l0-.867a5.73,5.73,0,0,0,.827-.081,1.79,1.79,0,0,0,1.622-1.445,11.847,11.847,0,0,0,.287-1.921,6.686,6.686,0,0,0-.174-2.513c-.169-.471.029-1.091-.1-1.674a1.582,1.582,0,0,0-.7-1.134c-1.015-.5-1.954.222-3.368.773a4.915,4.915,0,0,1-2.381.153,2.665,2.665,0,0,1-.237,2.964,1.593,1.593,0,0,1-.364.474c-.309.269-.563-.425-.823-.7a1.065,1.065,0,0,0-1.657.381A1.735,1.735,0,0,0,67.418,71.476Z" transform="translate(-66.423 -62.56)" fill="#ffbda7"/>
                    <path id="Trazado_742714" data-name="Trazado 742714" d="M82.79,93.082a7.666,7.666,0,0,1-2.749-.42,2.969,2.969,0,0,1-1.426-2.041,2.879,2.879,0,0,0,1.3,2.482,6.467,6.467,0,0,0,2.875.564Z" transform="translate(-75.544 -81.795)" fill="#f0997a"/>
                    <path id="Trazado_742715" data-name="Trazado 742715" d="M76.3,78.213c-.259.516.037,2.142.523,2.347s1.039-.121,2.1-.428a3.909,3.909,0,0,1,2.283-.107c.5.137,1.447.582,1.628.327-.062,1.209-.06,2.951-1.4,3.384a6.538,6.538,0,0,1-4.174-.262,2.846,2.846,0,0,1-1.633-2.305,17.831,17.831,0,0,0-.611-2.008Z" transform="translate(-72.854 -72.511)" fill="#37474f"/>
                    <path id="Trazado_742716" data-name="Trazado 742716" d="M91.973,87.452a1.115,1.115,0,0,0-.323-.534,1.329,1.329,0,0,0-1.766,0,1.229,1.229,0,0,0-.367.745c-.06.529.673.764,1.009.405a.448.448,0,0,1,.454-.082.949.949,0,0,1,.145.092.584.584,0,0,0,.685-.05A.552.552,0,0,0,91.973,87.452Z" transform="translate(-83.698 -78.77)" fill="#ffbda7"/>
                  </g>
                  <g id="Grupo_932936" data-name="Grupo 932936" transform="translate(4.729 4.019)">
                    <path id="Trazado_742717" data-name="Trazado 742717" d="M86.175,72.074l-.938.395a.534.534,0,0,1,.281-.684A.5.5,0,0,1,86.175,72.074Z" transform="translate(-85.201 -71.692)" fill="#37474f"/>
                    <path id="Trazado_742718" data-name="Trazado 742718" d="M100.355,72.243l-.953-.378a.492.492,0,0,1,.649-.3A.539.539,0,0,1,100.355,72.243Z" transform="translate(-95.825 -71.531)" fill="#37474f"/>
                    <path id="Trazado_742719" data-name="Trazado 742719" d="M86.792,76.173a.415.415,0,1,0,.4-.429A.415.415,0,0,0,86.792,76.173Z" transform="translate(-86.391 -74.683)" fill="#263238"/>
                    <path id="Trazado_742720" data-name="Trazado 742720" d="M99.4,75.837a.415.415,0,1,0,.4-.429A.415.415,0,0,0,99.4,75.837Z" transform="translate(-95.825 -74.431)" fill="#263238"/>
                    <path id="Trazado_742721" data-name="Trazado 742721" d="M92.883,73.461l.342,2.639,1.395-.515A6.184,6.184,0,0,0,92.883,73.461Z" transform="translate(-90.948 -72.975)" fill="#f0997a"/>
                  </g>
                </g>
              </g>
              <path id="Trazado_742722" data-name="Trazado 742722" d="M92.23,88l1.079.357a.558.558,0,0,1-.708.381A.6.6,0,0,1,92.23,88Z" transform="translate(-85.711 -79.834)" fill="#b16668"/>
              <path id="Trazado_742723" data-name="Trazado 742723" d="M92.352,88.735a.609.609,0,0,0-.137-.013.587.587,0,0,0,.394.556.539.539,0,0,0,.18.025A.52.52,0,0,0,92.352,88.735Z" transform="translate(-85.719 -80.373)" fill="#f28f8f"/>
            </g>
            <g id="Grupo_932939" data-name="Grupo 932939" transform="translate(7.253)">
              <path id="Trazado_742724" data-name="Trazado 742724" d="M66.77,57.836a4.8,4.8,0,0,0,.368,1.363,5.075,5.075,0,0,1,.338-.387,8.472,8.472,0,0,1,2.4-1.7h0a10.407,10.407,0,0,1,6.7-.887,4.64,4.64,0,0,0-.4-1.143,4.995,4.995,0,0,0-9.413,2.757Z" transform="translate(-66.736 -52.259)" fill="#feca2e"/>
              <path id="Trazado_742725" data-name="Trazado 742725" d="M73.18,52.6c.247-.124,1.494-.522,1.594-.554a3.015,3.015,0,0,1,2.781.617,4.908,4.908,0,0,1,1.732,2.616l-1.325.441-.425.05c-.176-.955-1.511-2.993-3.326-3.027a1.729,1.729,0,0,0-.257.01,2.4,2.4,0,0,0-.7.157,6.8,6.8,0,0,0-.693.57A1.1,1.1,0,0,1,73.18,52.6Z" transform="translate(-71.095 -51.928)" fill="#feca2e"/>
              <path id="Trazado_742726" data-name="Trazado 742726" d="M73.18,52.6c.247-.124,1.494-.522,1.594-.554a3.015,3.015,0,0,1,2.781.617,4.908,4.908,0,0,1,1.732,2.616l-1.325.441-.425.05c-.176-.955-1.511-2.993-3.326-3.027a1.729,1.729,0,0,0-.257.01,2.4,2.4,0,0,0-.7.157,6.8,6.8,0,0,0-.693.57A1.1,1.1,0,0,1,73.18,52.6Z" transform="translate(-71.095 -52.236)" fill="#fff" opacity="0.45"/>
              <path id="Trazado_742727" data-name="Trazado 742727" d="M77.533,57.09c-.208-1.112-2-3.715-4.282-2.863a6.866,6.866,0,0,0-.7.57,1.1,1.1,0,0,1,.62-.878,2.909,2.909,0,0,1,3.05.507,4.894,4.894,0,0,1,1.729,2.615Z" transform="translate(-71.09 -53.245)" fill="#feca2e"/>
              <path id="Trazado_742728" data-name="Trazado 742728" d="M77.533,57.09c-.208-1.112-2-3.715-4.282-2.863a6.866,6.866,0,0,0-.7.57,1.1,1.1,0,0,1,.62-.878,2.909,2.909,0,0,1,3.05.507,4.894,4.894,0,0,1,1.729,2.615Z" transform="translate(-71.09 -53.246)" opacity="0.3"/>
              <path id="Trazado_742729" data-name="Trazado 742729" d="M79.059,61.862a5.562,5.562,0,0,1,2.178-1.982,10.579,10.579,0,0,1,4.044-.643c1.645-.013,2.045.32,2.07.557.006.056.034.316.043.375a.225.225,0,0,1-.031.153,6.448,6.448,0,0,1-1.555,1.036,10.407,10.407,0,0,0-6.7.887Z" transform="translate(-75.955 -57.396)" fill="#feca2e"/>
              <path id="Trazado_742730" data-name="Trazado 742730" d="M79.059,61.862a5.562,5.562,0,0,1,2.178-1.982,10.579,10.579,0,0,1,4.044-.643c1.645-.013,2.045.32,2.07.557.006.056.034.316.043.375a.225.225,0,0,1-.031.153,6.448,6.448,0,0,1-1.555,1.036,10.407,10.407,0,0,0-6.7.887Z" transform="translate(-75.932 -57.396)" opacity="0.15"/>
              <path id="Trazado_742731" data-name="Trazado 742731" d="M79.238,63.381a10.407,10.407,0,0,1,6.7-.887A6.448,6.448,0,0,0,87.5,61.459c.128-.205,0-.719-2.036-.7a10.573,10.573,0,0,0-4.044.643A5.56,5.56,0,0,0,79.238,63.381Z" transform="translate(-76.089 -58.532)" fill="#feca2e"/>
              <path id="Trazado_742732" data-name="Trazado 742732" d="M79.238,63.381a10.407,10.407,0,0,1,6.7-.887A6.448,6.448,0,0,0,87.5,61.459c.128-.205,0-.719-2.036-.7a10.573,10.573,0,0,0-4.044.643A5.56,5.56,0,0,0,79.238,63.381Z" transform="translate(-76.089 -58.532)" opacity="0.3"/>
            </g>
            <g id="Grupo_932944" data-name="Grupo 932944" transform="translate(4.344 13.073)">
              <g id="Grupo_932941" data-name="Grupo 932941" transform="translate(0 0.086)">
                <path id="Trazado_742733" data-name="Trazado 742733" d="M60.379,104.181l.015,0S60.385,104.168,60.379,104.181ZM61.2,107.1a13.692,13.692,0,0,1-.822-2.921c-.156.029-2.046.378-3.115.7a12,12,0,0,0-2.077.878,51.357,51.357,0,0,0,.651,7.539,29.5,29.5,0,0,1,.811,6.584c0,1.922-.372,5.271-.372,5.271s.2.888,2.049,1.578a8.83,8.83,0,0,0,3.868.379s.279-6.341.279-9.821A33.54,33.54,0,0,0,61.2,107.1Z" transform="translate(-55.187 -104.174)" fill="#fd9927"/>
                <g id="Grupo_932940" data-name="Grupo 932940" transform="translate(1.327 14.941)">
                  <path id="Trazado_742734" data-name="Trazado 742734" d="M60.892,163.5c.016.262.025.519.025.771,0,.039,0,.08,0,.12a13.425,13.425,0,0,0,5.76,1.067c.007-.262.014-.523.02-.783A12.473,12.473,0,0,1,60.892,163.5Z" transform="translate(-60.782 -163.498)" fill="#fff"/>
                  <path id="Trazado_742735" data-name="Trazado 742735" d="M66.293,175.259a12.424,12.424,0,0,1-5.776-1.2c-.019.287-.04.574-.061.854a13.329,13.329,0,0,0,5.811,1.13C66.276,175.787,66.284,175.526,66.293,175.259Z" transform="translate(-60.456 -171.398)" fill="#fff"/>
                </g>
              </g>
              <g id="Grupo_932943" data-name="Grupo 932943" transform="translate(10.079)">
                <path id="Trazado_742736" data-name="Trazado 742736" d="M95.207,103.834a9.736,9.736,0,0,1,2.863,5.088c.662,2.743.688,6.158.826,10.355s.014,6.626.014,6.626,1.756-.3,2.288-1.156c-.169-5.16-.269-10.148-.27-12.075a20.787,20.787,0,0,0-1-5.959,5.93,5.93,0,0,0-1.651-2.538Z" transform="translate(-95.207 -103.834)" fill="#fd9927"/>
                <g id="Grupo_932942" data-name="Grupo 932942" transform="translate(3.702 15.14)">
                  <path id="Trazado_742737" data-name="Trazado 742737" d="M109.907,164.705q.012.4.02.785a8.119,8.119,0,0,0,1.244-.3,7.267,7.267,0,0,0,.882-.362q-.011-.447-.022-.88a5.228,5.228,0,0,1-.581.305A6.891,6.891,0,0,1,109.907,164.705Z" transform="translate(-109.907 -163.948)" fill="#fff"/>
                  <path id="Trazado_742738" data-name="Trazado 742738" d="M111.305,175.446a7.2,7.2,0,0,0,.952-.394q-.013-.448-.025-.889a5.446,5.446,0,0,1-.648.346,6.834,6.834,0,0,1-1.5.443q0,.413,0,.789A8.122,8.122,0,0,0,111.305,175.446Z" transform="translate(-110.042 -171.59)" fill="#fff"/>
                </g>
              </g>
            </g>
            <g id="Grupo_932953" data-name="Grupo 932953" transform="translate(0 14.217)">
              <g id="Grupo_932949" data-name="Grupo 932949" transform="translate(12.665 9.178)">
                <path id="Trazado_742739" data-name="Trazado 742739" d="M101.208,144.819l-9.482,2.429-3.5,10.716.186.237,9.03-2.49,3.952-10.655Z" transform="translate(-88.225 -144.819)" fill="#4dd0e1"/>
                <path id="Trazado_742740" data-name="Trazado 742740" d="M91.912,154.7l-3.5,10.716-.186-.237,3.5-10.716Z" transform="translate(-88.225 -152.034)" opacity="0.35"/>
                <path id="Trazado_742741" data-name="Trazado 742741" d="M101.945,145.759l-9.482,2.429-3.5,10.716,9.031-2.49Z" transform="translate(-88.777 -145.521)" opacity="0.25"/>
                <g id="Grupo_932945" data-name="Grupo 932945" transform="translate(5.782 1.754)" opacity="0.1">
                  <path id="Trazado_742742" data-name="Trazado 742742" d="M115.6,152.262l.108-.36c.06-.2-.489-.14-1.226.131l-1.7.355c-.737.271-1.428.46-1.487.659l-.108.36Z" transform="translate(-111.183 -151.784)"/>
                </g>
                <g id="Grupo_932946" data-name="Grupo 932946" transform="translate(6 0.347)">
                  <path id="Trazado_742743" data-name="Trazado 742743" d="M116.941,146.471c.038-.124-.174-.117-.475-.065l-.546.133s.263-.513-1.02-.284c-1.412.251-1.5.937-1.5.937a6.025,6.025,0,0,1-.684.183c-.471.108-.529.193-.578.318l-.088.227,4.833-1.235S116.9,146.6,116.941,146.471Z" transform="translate(-112.047 -146.197)" fill="#37474f"/>
                </g>
                <g id="Grupo_932947" data-name="Grupo 932947" transform="translate(6.457 0.837)">
                  <path id="Trazado_742744" data-name="Trazado 742744" d="M117.744,148.586c-.452.158-.64.239-.733.545-.106.35-.134.5-.134.5l-2.526.747s.179-.514.226-.686-.275-.2-.715-.044l.14-.429,3.92-1.075Z" transform="translate(-113.863 -148.141)" fill="#37474f"/>
                </g>
                <g id="Grupo_932948" data-name="Grupo 932948" transform="translate(5.907 1.772)">
                  <path id="Trazado_742745" data-name="Trazado 742745" d="M116.1,152.331l.108-.36c.06-.2-.489-.141-1.226.131l-1.7.355c-.737.271-1.428.461-1.487.659l-.108.36Z" transform="translate(-111.681 -151.853)" fill="#37474f"/>
                </g>
              </g>
              <g id="Grupo_932952" data-name="Grupo 932952">
                <path id="Trazado_742746" data-name="Trazado 742746" d="M39.756,113.916c.863-3.458,1.836-4.245,3.8-4.608,1.75,2.8.749,7.149.749,7.149l-1.187,5.3a62.916,62.916,0,0,0,6.034,3.7,2.44,2.44,0,0,0,1.217-.1,5.3,5.3,0,0,1,2.24-.113l-.375,1.149a5.609,5.609,0,0,0,1.047.262,6.263,6.263,0,0,0,1.7.019,2.318,2.318,0,0,1,1.505.136c.1.066.2.182.162.3-.026.081-.108.127-.178.175a1.035,1.035,0,0,0-.384.493,1.759,1.759,0,0,1-.687.929,4.53,4.53,0,0,1-2.59,1.059,3.044,3.044,0,0,1-.643.066,9.68,9.68,0,0,1-2.426-.546c-.978-.3-1.537-.555-2.33-.815-.53-.174-1.547-.549-2.069-.744-3.038-1.141-7.169-2.628-7.382-4.086S38.865,117.487,39.756,113.916Z" transform="translate(-37.938 -109.074)" fill="#ffbda7"/>
                <g id="Grupo_932951" data-name="Grupo 932951" transform="translate(0.196)">
                  <g id="Grupo_932950" data-name="Grupo 932950">
                    <path id="Trazado_742747" data-name="Trazado 742747" d="M44.109,108.377c-2.234.685-2.677,1-3.319,2.776a76.949,76.949,0,0,0-2.072,8.382c1.026,1.011,4.163,1.654,5.279.922l1.055-4.6C45.415,114.307,46.137,110.811,44.109,108.377Z" transform="translate(-38.718 -108.377)" fill="#37474f"/>
                  </g>
                </g>
              </g>
            </g>
          </g>
        </g>
      </g>
      <g id="Hat" transform="translate(44.164 95.301)">
        <g id="Hat-2" data-name="Hat">
          <path id="Trazado_742748" data-name="Trazado 742748" d="M121.923,303.653c0-4.9,3.241-9.809,9.722-13.55,12.962-7.484,33.979-7.484,46.941,0a26.182,26.182,0,0,1,4.731,3.437h0c10.035,8.171,12.813,16.052,12.738,18.155-.013.363.01,1.263,0,1.551-.126,3.517-3.5,7.431-8.822,10.5a39,39,0,0,1-18.189,5.093c-3.642.044-17.293-1.56-31.446-7.354l.008,0a36.808,36.808,0,0,1-5.962-2.728c-6.481-3.742-9.721-8.646-9.721-13.55Z" transform="translate(-121.923 -261.378)" fill="#feca2e"/>
          <path id="Trazado_742749" data-name="Trazado 742749" d="M121.923,303.653c0-4.9,3.241-9.809,9.722-13.55,12.962-7.484,33.979-7.484,46.941,0a26.182,26.182,0,0,1,4.731,3.437h0c10.035,8.171,12.813,16.052,12.738,18.155-.013.363.01,1.263,0,1.551-.126,3.517-3.5,7.431-8.822,10.5a39,39,0,0,1-18.189,5.093c-3.642.044-17.293-1.56-31.446-7.354l.008,0a36.808,36.808,0,0,1-5.962-2.728c-6.481-3.742-9.721-8.646-9.721-13.55Z" transform="translate(-121.923 -261.378)" opacity="0.2"/>
          <path id="Trazado_742750" data-name="Trazado 742750" d="M131.645,290.1c12.962-7.484,33.979-7.484,46.941,0a26.182,26.182,0,0,1,4.731,3.437h0c10.035,8.171,12.813,16.052,12.738,18.155-.126,3.517-3.5,7.431-8.822,10.5a39,39,0,0,1-18.189,5.093c-3.642.044-17.293-1.56-31.446-7.354l.008,0a36.832,36.832,0,0,1-5.962-2.728c-6.481-3.742-9.721-8.646-9.721-13.55S125.164,293.845,131.645,290.1Z" transform="translate(-124.923 -263.378)" fill="#feca2e"/>
          <g id="Grupo_932954" data-name="Grupo 932954" transform="translate(0.871 17.275)">
            <path id="Trazado_742751" data-name="Trazado 742751" d="M125.386,279.808c0-4.733,3.127-9.467,9.383-13.079,12.511-7.223,32.8-7.223,45.306,0,6.256,3.611,9.384,8.345,9.384,13.079v5.4c0,4.733-3.129,9.467-9.384,13.079-12.512,7.223-32.8,7.223-45.307,0-6.256-3.612-9.382-8.345-9.382-13.079Z" transform="translate(-125.385 -261.312)" fill="#feca2e"/>
            <path id="Trazado_742752" data-name="Trazado 742752" d="M125.386,279.808c0-4.733,3.127-9.467,9.383-13.079,12.511-7.223,32.8-7.223,45.306,0,6.256,3.611,9.384,8.345,9.384,13.079v5.4c0,4.733-3.129,9.467-9.384,13.079-12.512,7.223-32.8,7.223-45.307,0-6.256-3.612-9.382-8.345-9.382-13.079Z" transform="translate(-125.385 -262.207)" fill="#fff" opacity="0.2"/>
            <path id="Trazado_742753" data-name="Trazado 742753" d="M125.388,334.86v5.285c0,4.733,3.126,9.469,9.381,13.079,12.512,7.225,32.8,7.225,45.309,0,6.255-3.61,9.384-8.345,9.384-13.079v-5.4c0,4.733-3.129,9.468-9.386,13.079-12.51,7.225-32.794,7.225-45.306,0C128.563,344.246,125.434,339.559,125.388,334.86Z" transform="translate(-127.386 -317.146)" fill="#feca2e" opacity="0.4"/>
            <path id="Trazado_742754" data-name="Trazado 742754" d="M180.073,266.729c6.256,3.612,9.383,8.345,9.383,13.079s-3.128,9.467-9.384,13.079c-12.511,7.223-32.8,7.223-45.307,0-6.255-3.612-9.383-8.345-9.383-13.079s3.128-9.467,9.384-13.079C147.278,259.506,167.562,259.506,180.073,266.729Z" transform="translate(-125.382 -261.312)" fill="#feca2e"/>
            <path id="Trazado_742755" data-name="Trazado 742755" d="M180.073,266.729c6.256,3.612,9.383,8.345,9.383,13.079s-3.128,9.467-9.384,13.079c-12.511,7.223-32.8,7.223-45.307,0-6.255-3.612-9.383-8.345-9.383-13.079s3.128-9.467,9.384-13.079C147.278,259.506,167.562,259.506,180.073,266.729Z" transform="translate(-124.382 -261.206)" opacity="0.2"/>
          </g>
          <path id="Sphere_1_2" data-name="Sphere 1/2" d="M125.382,233.347c0,4.736,3.126,9.466,9.384,13.079,12.51,7.221,32.8,7.221,45.306,0,6.258-3.613,9.384-8.343,9.384-13.079a32.037,32.037,0,0,0-64.074,0Z" transform="translate(-124.511 -199.147)" fill="#feca2e"/>
          <path id="Sphere_1_2-2" data-name="Sphere 1/2" d="M125.382,233.347c0,4.736,3.126,9.466,9.384,13.079,12.51,7.221,32.8,7.221,45.306,0,6.258-3.613,9.384-8.343,9.384-13.079a32.037,32.037,0,0,0-64.074,0Z" transform="translate(-124.511 -202.302)" fill="#fff" opacity="0.2"/>
          <path id="Trazado_742756" data-name="Trazado 742756" d="M162.552,246.794q.64.46,1.237.971a8.738,8.738,0,0,1,3.333,6.818c-.229,4.457-4.674,7.393-8.524,8.566a20.12,20.12,0,0,1-13.511-.638,6.765,6.765,0,0,1-3.933-3.786,9.15,9.15,0,0,1,.33-6.264,14.082,14.082,0,0,1,6.295-7.412C152.6,242.414,158.26,243.709,162.552,246.794Z" transform="translate(-135.999 -230.809)" fill="#fff" opacity="0.2"/>
          <path id="Trazado_742757" data-name="Trazado 742757" d="M156.41,279.889c18.661-2.036,29.85-20.99,24.562-32.5l.629-2.321a31.913,31.913,0,0,1,7.856,21.015c0,4.736-3.126,9.466-9.384,13.079-12.51,7.221-32.8,7.221-45.306,0-6.258-3.613-9.384-8.343-9.384-13.079a32.4,32.4,0,0,1,.176-3.363C125.146,270.567,137.755,281.925,156.41,279.889Z" transform="translate(-124.511 -231.887)" fill="#feca2e" opacity="0.4"/>
          <g id="Grupo_932955" data-name="Grupo 932955" transform="translate(30.661 2.164)">
            <path id="Trazado_742758" data-name="Trazado 742758" d="M237.688,199.436c3.919-5.362,13-5.338,20.528,1.188,6.813,5.9,9.645,13.186,11.072,15.611s2.4-1.018-1.874-9.434-12.979-13.619-19.813-14.031C239.833,192.3,236.491,195.2,237.688,199.436Z" transform="translate(-237.451 -191.723)" fill="#feca2e"/>
            <path id="Trazado_742759" data-name="Trazado 742759" d="M237.688,199.436c3.919-5.362,13-5.338,20.528,1.188,6.813,5.9,9.645,13.186,11.072,15.611s2.4-1.018-1.874-9.434-12.979-13.619-19.813-14.031C239.833,192.3,236.491,195.2,237.688,199.436Z" transform="translate(-237.451 -192.722)" fill="#fff" opacity="0.5"/>
            <path id="Trazado_742760" data-name="Trazado 742760" d="M238.208,200.5c-.382,2.377,2.149.006,5.019-.6,4.025-.854,8.681-.392,13.852,3.247,4.98,3.506,9.175,10.4,11.009,13.478,1.642,2.757,1.788,2,.864-1.395,2.445,5.953,1.556,8.176.336,6.1-1.426-2.425-4.259-9.708-11.072-15.612-7.531-6.526-16.609-6.551-20.528-1.188A4.549,4.549,0,0,1,238.208,200.5Z" transform="translate(-238.453 -196.818)" fill="#feca2e" opacity="0.4"/>
          </g>
          <g id="Grupo_932956" data-name="Grupo 932956" transform="translate(48.235 49.008)">
            <path id="Trazado_742761" data-name="Trazado 742761" d="M335.25,395.713l-9.038-8.4q-4.5,4.794-12.772,7.417l13.117,6.361A30.91,30.91,0,0,0,335.25,395.713Z" transform="translate(-313.44 -387.309)" fill="#feca2e"/>
            <path id="Trazado_742762" data-name="Trazado 742762" d="M335.25,395.713l-9.038-8.4q-4.5,4.794-12.772,7.417l13.117,6.361A30.91,30.91,0,0,0,335.25,395.713Z" transform="translate(-313.44 -387.308)" fill="#fff" opacity="0.2"/>
            <path id="Trazado_742763" data-name="Trazado 742763" d="M313.44,417.746v-.987l13.117,6.361Z" transform="translate(-313.44 -409.342)" fill="#ba68c8"/>
            <path id="Trazado_742764" data-name="Trazado 742764" d="M313.44,417.746v-.987l13.117,6.361Z" transform="translate(-313.44 -409.342)" opacity="0.2"/>
          </g>
          <g id="Grupo_932959" data-name="Grupo 932959" transform="translate(22.332 50.951)">
            <g id="Grupo_932957" data-name="Grupo 932957" transform="translate(0 1.131)">
              <path id="Trazado_742765" data-name="Trazado 742765" d="M210.594,407.207v-7.691l11.52,1.013v7.691A54.308,54.308,0,0,1,210.594,407.207Z" transform="translate(-210.594 -399.516)" fill="#feca2e"/>
              <path id="Trazado_742766" data-name="Trazado 742766" d="M210.594,407.207v-7.691l11.52,1.013v7.691A54.308,54.308,0,0,1,210.594,407.207Z" transform="translate(-210.594 -399.516)" fill="#fff" opacity="0.3"/>
            </g>
            <g id="Grupo_932958" data-name="Grupo 932958">
              <path id="Trazado_742767" data-name="Trazado 742767" d="M222.166,396.038l-.053,1.131a54.1,54.1,0,0,1-11.52-1.013l.053-1.131A54.105,54.105,0,0,0,222.166,396.038Z" transform="translate(-210.594 -395.025)" fill="#feca2e"/>
              <path id="Trazado_742768" data-name="Trazado 742768" d="M222.166,396.038l-.053,1.131a54.1,54.1,0,0,1-11.52-1.013l.053-1.131A54.105,54.105,0,0,0,222.166,396.038Z" transform="translate(-210.594 -395.025)" fill="#fff" opacity="0.5"/>
            </g>
            <path id="Trazado_742769" data-name="Trazado 742769" d="M256.333,400.177l.053-1.131v7.691l-.053,1.131Z" transform="translate(-244.814 -398.033)" fill="#ba68c8"/>
          </g>
          <g id="Grupo_932962" data-name="Grupo 932962" transform="translate(0.02 33.251)">
            <g id="Grupo_932960" data-name="Grupo 932960" transform="translate(0 0.513)">
              <path id="Trazado_742770" data-name="Trazado 742770" d="M122,326.779v7.909a12.066,12.066,0,0,0,2.669,7.4v-7.909Z" transform="translate(-122.001 -326.779)" fill="#feca2e"/>
              <path id="Trazado_742771" data-name="Trazado 742771" d="M122,326.779v7.909a12.066,12.066,0,0,0,2.669,7.4v-7.909Z" transform="translate(-122.001 -326.779)" fill="#fff" opacity="0.3"/>
            </g>
            <g id="Grupo_932961" data-name="Grupo 932961" transform="translate(0)">
              <path id="Trazado_742772" data-name="Trazado 742772" d="M122.868,324.744a12.232,12.232,0,0,0,2.655,7.413l-.852.5a12.228,12.228,0,0,1-2.669-7.4Z" transform="translate(-122.002 -324.744)" fill="#feca2e"/>
              <path id="Trazado_742773" data-name="Trazado 742773" d="M122.868,324.744a12.232,12.232,0,0,0,2.655,7.413l-.852.5a12.228,12.228,0,0,1-2.669-7.4Z" transform="translate(-122.002 -324.744)" fill="#fff" opacity="0.5"/>
            </g>
            <path id="Trazado_742774" data-name="Trazado 742774" d="M133.451,354.176l-.852.5v7.909l.852-.5Z" transform="translate(-129.93 -346.763)" fill="#feca2e"/>
          </g>
          <g id="Grupo_932963" data-name="Grupo 932963" transform="translate(64.881 32.161)">
            <path id="Trazado_742775" data-name="Trazado 742775" d="M379.789,331.753l.911-.987V323.53l-.911.986Z" transform="translate(-379.725 -322.746)" fill="#feca2e"/>
            <path id="Trazado_742776" data-name="Trazado 742776" d="M379.789,331.753l.911-.987V323.53l-.911.986Z" transform="translate(-379.725 -322.645)" opacity="0.2"/>
            <path id="Trazado_742777" data-name="Trazado 742777" d="M380.51,321.2a6.737,6.737,0,0,0-.974-.784s.048.985.064,1.769Z" transform="translate(-379.536 -320.418)" fill="#feca2e"/>
            <path id="Trazado_742778" data-name="Trazado 742778" d="M380.51,321.2a6.737,6.737,0,0,0-.974-.784s.048.985.064,1.769Z" transform="translate(-379.536 -320.418)" fill="#fff" opacity="0.4"/>
          </g>
          <g id="Grupo_932964" data-name="Grupo 932964" transform="translate(8.501 0.361)">
            <path id="Trazado_742779" data-name="Trazado 742779" d="M167.755,197.114a17.646,17.646,0,0,1,18.668-.556,47.142,47.142,0,0,1,23.506,40.713v7.152c-2.03,2.475-7.025,5.563-12.088,6.976v-6.115a47.143,47.143,0,0,0-23.506-40.713,17.646,17.646,0,0,0-18.659.549Z" transform="translate(-155.676 -194.156)" fill="#feca2e"/>
            <path id="Trazado_742780" data-name="Trazado 742780" d="M167.755,197.114a17.646,17.646,0,0,1,18.668-.556,47.142,47.142,0,0,1,23.506,40.713v7.152c-2.03,2.475-7.025,5.563-12.088,6.976v-6.115a47.143,47.143,0,0,0-23.506-40.713,17.646,17.646,0,0,0-18.659.549Z" transform="translate(-155.676 -194.156)" fill="#fff" opacity="0.4"/>
          </g>
          <g id="Grupo_932965" data-name="Grupo 932965" transform="translate(0.52 8.375)">
            <path id="Trazado_742781" data-name="Trazado 742781" d="M128.158,236.612a15.352,15.352,0,0,1,21.253-6.13h0a44.581,44.581,0,0,1,22.29,38.608v5.921l2.431,1v-6.917a47.143,47.143,0,0,0-23.506-40.713,17.755,17.755,0,0,0-26.64,15.381v7.309l.366-.217A31.9,31.9,0,0,1,128.158,236.612Z" transform="translate(-123.986 -225.975)" fill="#feca2e"/>
            <path id="Trazado_742782" data-name="Trazado 742782" d="M128.158,236.612a15.352,15.352,0,0,1,21.253-6.13h0a44.581,44.581,0,0,1,22.29,38.608v5.921l2.431,1v-6.917a47.143,47.143,0,0,0-23.506-40.713,17.755,17.755,0,0,0-26.64,15.381v7.309l.366-.217A31.9,31.9,0,0,1,128.158,236.612Z" transform="translate(-123.986 -225.975)" opacity="0.2"/>
          </g>
          <path id="Trazado_742783" data-name="Trazado 742783" d="M155.676,205.121l12.079-8.007a17.646,17.646,0,0,1,18.668-.556A46.867,46.867,0,0,1,200,208.41l-12.088,8.014a46.867,46.867,0,0,0-13.576-11.852,17.646,17.646,0,0,0-18.659.549Z" transform="translate(-147.175 -193.795)" fill="#fff" opacity="0.4"/>
          <g id="Grupo_932966" data-name="Grupo 932966" transform="translate(3.118 14.08)">
            <path id="Trazado_742784" data-name="Trazado 742784" d="M134.52,256.429c3.919-5.362,12.984-4.921,20.515,1.605,6.813,5.9,9.595,12.557,11.021,14.982s2.982-2-1.3-10.421-13.033-13.519-19.868-13.93C137.125,248.2,133.323,252.2,134.52,256.429Z" transform="translate(-133.303 -248.628)" fill="#feca2e"/>
            <path id="Trazado_742785" data-name="Trazado 742785" d="M134.52,256.429c3.919-5.362,12.984-4.921,20.515,1.605,6.813,5.9,9.595,12.557,11.021,14.982s2.982-2-1.3-10.421-13.033-13.519-19.868-13.93C137.125,248.2,133.323,252.2,134.52,256.429Z" transform="translate(-133.303 -248.629)" fill="#fff" opacity="0.5"/>
            <path id="Trazado_742786" data-name="Trazado 742786" d="M134.52,265.41a5.15,5.15,0,0,1,.486-4.092c-1.129,2.3,1.808.251,4.68-.358,4.025-.854,9.04-.157,14.211,3.483,4.98,3.506,9.124,9.769,10.958,12.848,1.756,2.948,2.512,1.589,1.368-2.432,2.379,6.234,1.059,9.225-.167,7.138-1.426-2.425-4.208-9.078-11.021-14.982C147.5,260.489,138.439,260.048,134.52,265.41Z" transform="translate(-134.304 -257.609)" fill="#feca2e" opacity="0.4"/>
          </g>
        </g>
      </g>
      <g id="Speech_Bubble" data-name="Speech Bubble" transform="translate(62.951 53.899)">
        <g id="Speech_Bubble-2" data-name="Speech Bubble" transform="translate(0 0)">
          <g id="Speech_Bubble-3" data-name="Speech Bubble">
            <path id="Trazado_742787" data-name="Trazado 742787" d="M228.152,74.547a11.068,11.068,0,0,1-2.981,7.579l-.917.875A11.078,11.078,0,0,1,208.6,67.42l.874-.92a11.078,11.078,0,0,1,18.676,8.047Z" transform="translate(-205.037 -62.544)" fill="#fff"/>
            <path id="Trazado_742788" data-name="Trazado 742788" d="M214.245,59.752A12.026,12.026,0,0,0,212.3,83.641l1.358,3.481a.7.7,0,0,0,1.3,0l1.343-3.488a12.026,12.026,0,0,0-2.056-23.879Zm11.115,12a11.067,11.067,0,0,1-2.98,7.579l-.917.874a11.078,11.078,0,0,1-15.652-15.58l.874-.92a11.078,11.078,0,0,1,18.676,8.047Z" transform="translate(-202.245 -59.752)" fill="#4dd0e1"/>
            <path id="Trazado_742789" data-name="Trazado 742789" d="M228.151,74.547a11.067,11.067,0,0,1-2.98,7.579l-.917.874A11.078,11.078,0,0,1,208.6,67.42l.874-.92a11.078,11.078,0,0,1,18.676,8.047Z" transform="translate(-205.036 -62.544)" fill="#fff"/>
          </g>
          <g id="Check" transform="translate(5.065 6.007)">
            <path id="Trazado_742790" data-name="Trazado 742790" d="M227.727,95.645a1.644,1.644,0,0,1-1.2-.52L222.8,91.146a1.644,1.644,0,0,1,2.4-2.248l2.42,2.584,5.726-7.253a1.644,1.644,0,1,1,2.581,2.037l-6.91,8.752a1.643,1.643,0,0,1-1.221.624Z" transform="translate(-222.357 -83.604)" fill="#feca2e"/>
          </g>
        </g>
      </g>
    </g>
  </g>
</svg>
